<svg xmlns="http://www.w3.org/2000/svg" xmlns:xlink="http://www.w3.org/1999/xlink" width="500" zoomAndPan="magnify" viewBox="0 0 375 374.999991" height="500" preserveAspectRatio="xMidYMid meet" version="1.0"><defs><clipPath id="13e0a63482"><path d="M 76 75.84375 L 300 75.84375 L 300 299.34375 L 76 299.34375 Z M 76 75.84375 " clip-rule="nonzero"/></clipPath></defs><g clip-path="url(#13e0a63482)"><path fill="#e2ece1" d="M 128.625 75.84375 L 128.625 151.996094 L 128.644531 151.996094 C 122.234375 167.386719 122.304688 184.710938 128.625 199.976562 L 128.625 228.472656 C 127.058594 227.714844 125.132812 228.039062 123.90625 229.390625 L 79.316406 278.542969 C 75.230469 283.050781 75.589844 290.007812 80.144531 294.082031 C 82.253906 295.972656 84.917969 296.890625 87.546875 296.890625 C 90.574219 296.890625 93.597656 295.683594 95.796875 293.269531 L 128.625 257.058594 L 128.625 299.34375 L 299.785156 299.34375 L 299.785156 75.84375 Z M 128.625 75.84375 " fill-opacity="1" fill-rule="nonzero"/></g><path fill="#e2ece1" d="M 141.179688 219.226562 L 131.039062 230.402344 L 129.597656 229.101562 C 129.292969 228.832031 128.96875 228.636719 128.625 228.472656 L 128.625 199.976562 C 131.507812 206.933594 135.703125 213.476562 141.179688 219.226562 Z M 141.179688 219.226562 " fill-opacity="1" fill-rule="nonzero"/><path fill="#e15c63" d="M 262.054688 220.6875 L 272.535156 220.6875 L 272.535156 282.597656 L 262.054688 282.597656 Z M 262.054688 220.6875 " fill-opacity="1" fill-rule="nonzero"/><path fill="#ffc05a" d="M 240.820312 236.65625 L 251.320312 236.65625 L 251.320312 282.597656 L 240.820312 282.597656 Z M 240.820312 236.65625 " fill-opacity="1" fill-rule="nonzero"/><path fill="#e15c63" d="M 232.664062 175.984375 C 232.664062 180.527344 231.980469 184.90625 230.738281 189.035156 L 195.421875 171.046875 L 195.421875 131.664062 C 216.601562 135.484375 232.664062 153.871094 232.664062 175.984375 Z M 232.664062 175.984375 " fill-opacity="1" fill-rule="nonzero"/><path fill="#8bcb8f" d="M 219.609375 249.722656 L 230.109375 249.722656 L 230.109375 282.597656 L 219.609375 282.597656 Z M 219.609375 249.722656 " fill-opacity="1" fill-rule="nonzero"/><path fill="#c2e6f9" d="M 151.660156 169.15625 C 151.210938 171.371094 150.992188 173.644531 150.992188 175.984375 C 150.992188 182.871094 152.9375 189.324219 156.324219 194.785156 L 187.265625 175.984375 L 187.265625 212 C 201.003906 212 212.945312 204.429688 219.105469 193.289062 L 187.265625 175.984375 L 187.265625 139.972656 C 179.773438 139.972656 172.804688 142.226562 167.023438 146.101562 C 159.167969 151.363281 153.496094 159.585938 151.660156 169.15625 Z M 187.265625 121.804688 C 217.429688 121.804688 241.867188 146.066406 241.867188 175.984375 C 241.867188 205.925781 217.429688 230.183594 187.265625 230.183594 C 157.117188 230.183594 132.679688 205.925781 132.679688 175.984375 C 132.679688 146.066406 157.117188 121.804688 187.265625 121.804688 Z M 230.738281 189.035156 C 231.980469 184.90625 232.664062 180.527344 232.664062 175.984375 C 232.664062 153.871094 216.601562 135.484375 195.421875 131.664062 L 195.421875 171.046875 Z M 178.925781 220.273438 L 180.023438 189.648438 L 154.039062 206.664062 C 160.519531 213.585938 169.164062 218.46875 178.925781 220.273438 Z M 178.925781 220.273438 " fill-opacity="1" fill-rule="nonzero"/><path fill="#8bcb8f" d="M 187.265625 175.984375 L 219.105469 193.289062 C 212.945312 204.429688 201.003906 212 187.265625 212 Z M 187.265625 175.984375 " fill-opacity="1" fill-rule="nonzero"/><path fill="#52a7d7" d="M 198.394531 270.089844 L 208.875 270.089844 L 208.875 282.597656 L 198.394531 282.597656 Z M 198.394531 270.089844 " fill-opacity="1" fill-rule="nonzero"/><path fill="#f48ca7" d="M 187.660156 238.925781 L 187.660156 282.597656 L 177.160156 282.597656 L 177.160156 238.117188 C 180.636719 238.675781 184.148438 238.945312 187.660156 238.925781 Z M 187.660156 238.925781 " fill-opacity="1" fill-rule="nonzero"/><path fill="#ffa25a" d="M 187.265625 139.972656 L 187.265625 175.984375 L 167.023438 146.101562 C 172.804688 142.226562 179.773438 139.972656 187.265625 139.972656 Z M 187.265625 139.972656 " fill-opacity="1" fill-rule="nonzero"/><path fill="#52a7d7" d="M 167.023438 146.101562 L 187.265625 175.984375 L 151.660156 169.15625 C 153.496094 159.585938 159.167969 151.363281 167.023438 146.101562 Z M 167.023438 146.101562 " fill-opacity="1" fill-rule="nonzero"/><path fill="#f48ca7" d="M 187.265625 175.984375 L 156.324219 194.785156 C 152.9375 189.324219 150.992188 182.871094 150.992188 175.984375 C 150.992188 173.644531 151.210938 171.371094 151.660156 169.15625 Z M 187.265625 175.984375 " fill-opacity="1" fill-rule="nonzero"/><path fill="#ffc05a" d="M 180.023438 189.648438 L 178.925781 220.273438 C 169.164062 218.46875 160.519531 213.585938 154.039062 206.664062 Z M 180.023438 189.648438 " fill-opacity="1" fill-rule="nonzero"/><path fill="#ffa25a" d="M 155.945312 249.722656 L 166.445312 249.722656 L 166.445312 282.597656 L 155.945312 282.597656 Z M 155.945312 249.722656 " fill-opacity="1" fill-rule="nonzero"/><path fill="#93b2b8" d="M 148.777344 226.003906 L 138.640625 237.179688 L 131.039062 230.402344 L 141.179688 219.226562 C 142.332031 220.433594 143.554688 221.625 144.835938 222.757812 C 146.113281 223.894531 147.429688 224.992188 148.777344 226.003906 Z M 148.777344 226.003906 " fill-opacity="1" fill-rule="nonzero"/><path fill="#e15c63" d="M 140.082031 238.476562 C 141.738281 239.953125 141.863281 242.476562 140.367188 244.117188 L 128.625 257.058594 L 95.796875 293.269531 C 93.597656 295.683594 90.574219 296.890625 87.546875 296.890625 C 84.917969 296.890625 82.253906 295.972656 80.144531 294.082031 C 75.589844 290.007812 75.230469 283.050781 79.316406 278.542969 L 123.90625 229.390625 C 125.132812 228.039062 127.058594 227.714844 128.625 228.472656 C 128.96875 228.636719 129.292969 228.832031 129.597656 229.101562 L 131.039062 230.402344 L 138.640625 237.179688 Z M 140.082031 238.476562 " fill-opacity="1" fill-rule="nonzero"/><path fill="#4d727a" d="M 279.199219 280.796875 L 145.175781 280.796875 C 144.179688 280.796875 143.375 281.605469 143.375 282.597656 C 143.375 283.59375 144.179688 284.402344 145.175781 284.402344 L 279.199219 284.402344 C 280.191406 284.402344 281 283.59375 281 282.597656 C 281 281.605469 280.195312 280.796875 279.199219 280.796875 Z M 279.199219 280.796875 " fill-opacity="1" fill-rule="nonzero"/><path fill="#93b2b8" d="M 272.589844 103.332031 L 164.949219 103.332031 C 163.953125 103.332031 163.148438 102.523438 163.148438 101.527344 C 163.148438 100.535156 163.953125 99.726562 164.949219 99.726562 L 272.589844 99.726562 C 273.582031 99.726562 274.390625 100.535156 274.390625 101.527344 C 274.390625 102.523438 273.585938 103.332031 272.589844 103.332031 Z M 272.589844 103.332031 " fill-opacity="1" fill-rule="nonzero"/><path fill="#93b2b8" d="M 272.589844 125.195312 L 222.109375 125.195312 C 221.117188 125.195312 220.308594 124.386719 220.308594 123.390625 C 220.308594 122.398438 221.117188 121.589844 222.109375 121.589844 L 272.589844 121.589844 C 273.582031 121.589844 274.390625 122.398438 274.390625 123.390625 C 274.390625 124.386719 273.585938 125.195312 272.589844 125.195312 Z M 272.589844 125.195312 " fill-opacity="1" fill-rule="nonzero"/><path fill="#93b2b8" d="M 272.589844 141.777344 L 239.289062 141.777344 C 238.296875 141.777344 237.488281 140.96875 237.488281 139.972656 C 237.488281 138.980469 238.296875 138.171875 239.289062 138.171875 L 272.589844 138.171875 C 273.582031 138.171875 274.390625 138.980469 274.390625 139.972656 C 274.390625 140.96875 273.585938 141.777344 272.589844 141.777344 Z M 272.589844 141.777344 " fill-opacity="1" fill-rule="nonzero"/><path fill="#93b2b8" d="M 272.589844 155.871094 L 246.746094 155.871094 C 245.753906 155.871094 244.9375 155.0625 244.9375 154.070312 C 244.9375 153.074219 245.734375 152.265625 246.726562 152.265625 L 272.589844 152.265625 C 273.582031 152.265625 274.390625 153.074219 274.390625 154.070312 C 274.390625 155.0625 273.585938 155.871094 272.589844 155.871094 Z M 272.589844 155.871094 " fill-opacity="1" fill-rule="nonzero"/><path fill="#93b2b8" d="M 272.589844 169.949219 L 250.1875 169.949219 C 249.191406 169.949219 248.386719 169.140625 248.386719 168.144531 C 248.386719 167.152344 249.191406 166.34375 250.1875 166.34375 L 272.589844 166.34375 C 273.582031 166.34375 274.390625 167.152344 274.390625 168.144531 C 274.390625 169.140625 273.585938 169.949219 272.589844 169.949219 Z M 272.589844 169.949219 " fill-opacity="1" fill-rule="nonzero"/><path fill="#93b2b8" d="M 272.589844 184.023438 L 250.382812 184.023438 C 249.390625 184.023438 248.582031 183.21875 248.582031 182.222656 C 248.582031 181.226562 249.390625 180.421875 250.382812 180.421875 L 272.589844 180.421875 C 273.582031 180.421875 274.390625 181.226562 274.390625 182.222656 C 274.390625 183.21875 273.585938 184.023438 272.589844 184.023438 Z M 272.589844 184.023438 " fill-opacity="1" fill-rule="nonzero"/><path fill="#4d727a" d="M 250.1875 168.144531 C 252.402344 185.648438 247.234375 203.976562 234.394531 218.109375 C 221.96875 231.808594 204.875 238.820312 187.660156 238.925781 C 184.148438 238.945312 180.636719 238.675781 177.160156 238.117188 C 167.09375 236.53125 157.332031 232.492188 148.777344 226.003906 C 147.429688 224.992188 146.113281 223.894531 144.835938 222.757812 C 143.554688 221.625 142.332031 220.433594 141.179688 219.226562 C 135.703125 213.476562 131.507812 206.933594 128.625 199.976562 C 122.304688 184.710938 122.234375 167.386719 128.644531 151.996094 C 131.328125 145.507812 135.164062 139.378906 140.152344 133.882812 C 161.402344 110.449219 196.359375 106.558594 222.113281 123.390625 C 224.757812 125.105469 227.296875 127.050781 229.710938 129.214844 C 233.386719 132.492188 236.589844 136.117188 239.292969 139.972656 C 242.40625 144.40625 244.894531 149.148438 246.730469 154.070312 L 246.746094 154.070312 C 248.441406 158.628906 249.59375 163.351562 250.1875 168.144531 Z M 241.867188 175.984375 C 241.867188 146.066406 217.429688 121.804688 187.265625 121.804688 C 157.117188 121.804688 132.679688 146.066406 132.679688 175.984375 C 132.679688 205.925781 157.117188 230.183594 187.265625 230.183594 C 217.429688 230.183594 241.867188 205.925781 241.867188 175.984375 Z M 241.867188 175.984375 " fill-opacity="1" fill-rule="nonzero"/></svg>