<svg xmlns="http://www.w3.org/2000/svg" xmlns:xlink="http://www.w3.org/1999/xlink" width="500" zoomAndPan="magnify" viewBox="0 0 375 374.999991" height="500" preserveAspectRatio="xMidYMid meet" version="1.0"><defs><clipPath id="ddbf097e5c"><path d="M 40.574219 88.894531 L 250 88.894531 L 250 222 L 40.574219 222 Z M 40.574219 88.894531 " clip-rule="nonzero"/></clipPath><clipPath id="c6488778b2"><path d="M 184.554688 171.359375 L 297.480469 171.359375 L 297.480469 286.132812 L 184.554688 286.132812 Z M 184.554688 171.359375 " clip-rule="nonzero"/></clipPath><clipPath id="1f3df3c19e"><path d="M 49.78125 270.265625 L 327.902344 270.265625 L 327.902344 286.132812 L 49.78125 286.132812 Z M 49.78125 270.265625 " clip-rule="nonzero"/></clipPath></defs><path fill="#ddecff" d="M 247.890625 220.582031 C 246.851562 220.582031 245.667969 220.398438 244.878906 220.398438 L 41.0625 220.398438 L 41.0625 89.261719 L 248.925781 89.261719 L 248.925781 215.636719 C 248.925781 216.945312 248.792969 218.328125 248.925781 219.628906 C 248.980469 220.171875 248.878906 220.425781 248.882812 220.503906 C 248.582031 220.558594 248.246094 220.582031 247.890625 220.582031 M 147.828125 186.789062 L 147.828125 193.957031 L 239.890625 193.957031 L 239.890625 186.789062 L 147.828125 186.789062 M 91.492188 183.390625 C 91.515625 183.390625 91.535156 183.390625 91.554688 183.390625 C 91.5625 183.390625 91.570312 183.390625 91.578125 183.390625 C 91.582031 183.390625 91.589844 183.390625 91.597656 183.390625 C 91.617188 183.390625 91.640625 183.390625 91.660156 183.390625 C 116.226562 183.105469 136.1875 163.152344 136.472656 138.59375 C 136.472656 138.566406 136.472656 138.535156 136.472656 138.507812 C 136.472656 138.480469 136.472656 138.449219 136.472656 138.421875 C 136.1875 113.867188 116.226562 93.914062 91.664062 93.625 C 91.644531 93.625 91.621094 93.625 91.597656 93.625 C 91.59375 93.625 91.585938 93.625 91.578125 93.625 C 91.570312 93.625 91.5625 93.625 91.554688 93.625 C 91.535156 93.625 91.511719 93.625 91.488281 93.625 C 76.714844 93.808594 62.875 101.007812 54.492188 113.214844 C 46.683594 124.585938 44.734375 139.097656 48.824219 152.203125 C 48.832031 152.230469 48.839844 152.253906 48.847656 152.28125 C 48.855469 152.308594 48.867188 152.339844 48.878906 152.367188 C 55.148438 170.941406 71.859375 183.171875 91.492188 183.390625 M 147.828125 171.566406 L 147.828125 178.734375 L 239.890625 178.734375 L 239.890625 171.566406 L 147.828125 171.566406 M 147.828125 156.339844 L 147.828125 163.507812 L 239.890625 163.507812 L 239.890625 156.339844 L 147.828125 156.339844 M 147.828125 141.117188 L 147.828125 148.285156 L 239.890625 148.285156 L 239.890625 141.117188 L 147.828125 141.117188 M 147.828125 125.894531 L 147.828125 133.0625 L 239.890625 133.0625 L 239.890625 125.894531 L 147.828125 125.894531 M 147.828125 110.667969 L 147.828125 117.835938 L 239.890625 117.835938 L 239.890625 110.667969 L 147.828125 110.667969 " fill-opacity="1" fill-rule="nonzero"/><path fill="#ff6450" d="M 52.5625 148.804688 C 49.730469 137.65625 51.550781 125.863281 57.949219 116.160156 C 64.96875 105.523438 76.730469 99.042969 89.316406 98.230469 L 89.316406 119.6875 C 79.910156 120.804688 72.617188 128.804688 72.617188 138.507812 C 72.617188 139.761719 72.738281 140.992188 72.972656 142.175781 L 52.5625 148.804688 " fill-opacity="1" fill-rule="nonzero"/><path fill="#ddecff" d="M 48.878906 152.367188 C 48.867188 152.339844 48.855469 152.308594 48.847656 152.28125 C 48.859375 152.308594 48.867188 152.339844 48.878906 152.367188 M 48.824219 152.203125 C 44.734375 139.097656 46.683594 124.585938 54.492188 113.214844 C 62.875 101.007812 76.714844 93.808594 91.488281 93.625 C 90.304688 93.664062 89.316406 94.699219 89.316406 95.882812 L 89.316406 119.6875 L 89.316406 98.230469 C 76.730469 99.042969 64.96875 105.523438 57.949219 116.160156 C 51.550781 125.863281 49.730469 137.65625 52.5625 148.804688 L 72.972656 142.175781 L 50.429688 149.5 C 49.335938 149.855469 48.480469 151.027344 48.824219 152.203125 M 91.664062 93.625 C 91.636719 93.625 91.605469 93.625 91.578125 93.625 C 91.585938 93.625 91.59375 93.625 91.597656 93.625 C 91.621094 93.625 91.644531 93.625 91.664062 93.625 " fill-opacity="1" fill-rule="nonzero"/><path fill="#874a51" d="M 89.316406 178.789062 C 73.382812 177.800781 59.792969 167.984375 53.945312 153.105469 L 74.367188 146.472656 C 77.074219 152.3125 82.667969 156.539062 89.316406 157.328125 L 89.316406 178.789062 " fill-opacity="1" fill-rule="nonzero"/><path fill="#ddecff" d="M 91.597656 183.390625 C 91.589844 183.390625 91.582031 183.390625 91.578125 183.390625 C 91.605469 183.390625 91.632812 183.390625 91.660156 183.390625 C 91.640625 183.390625 91.617188 183.390625 91.597656 183.390625 M 91.492188 183.390625 C 71.859375 183.171875 55.148438 170.941406 48.878906 152.367188 C 48.867188 152.339844 48.859375 152.308594 48.847656 152.28125 C 48.839844 152.253906 48.832031 152.230469 48.824219 152.203125 C 48.480469 151.027344 49.335938 149.855469 50.429688 149.5 L 72.972656 142.175781 C 73.265625 143.679688 73.738281 145.121094 74.367188 146.472656 L 53.945312 153.105469 C 59.792969 167.984375 73.382812 177.800781 89.316406 178.789062 L 89.316406 157.328125 L 89.316406 181.132812 C 89.316406 182.316406 90.304688 183.355469 91.492188 183.390625 " fill-opacity="1" fill-rule="nonzero"/><path fill="#95cbf0" d="M 93.839844 178.789062 L 93.839844 157.328125 C 102.503906 156.300781 109.375 149.429688 110.402344 140.769531 L 131.867188 140.769531 C 130.546875 161.132812 114.210938 177.46875 93.839844 178.789062 " fill-opacity="1" fill-rule="nonzero"/><path fill="#ddecff" d="M 91.554688 183.390625 C 91.535156 183.390625 91.515625 183.390625 91.492188 183.390625 C 90.304688 183.355469 89.316406 182.316406 89.316406 181.132812 L 89.316406 157.328125 C 90.058594 157.417969 90.8125 157.460938 91.578125 157.460938 C 92.339844 157.460938 93.097656 157.417969 93.839844 157.328125 L 93.839844 178.789062 C 114.210938 177.46875 130.546875 161.132812 131.867188 140.769531 L 134.210938 140.769531 C 135.398438 140.769531 136.433594 139.78125 136.472656 138.59375 C 136.1875 163.152344 116.226562 183.105469 91.660156 183.390625 C 91.632812 183.390625 91.605469 183.390625 91.578125 183.390625 C 91.570312 183.390625 91.5625 183.390625 91.554688 183.390625 M 136.472656 138.507812 C 136.472656 138.480469 136.472656 138.449219 136.472656 138.421875 C 136.472656 138.449219 136.472656 138.480469 136.472656 138.507812 " fill-opacity="1" fill-rule="nonzero"/><path fill="#ffc074" d="M 131.867188 136.246094 L 110.402344 136.246094 C 109.375 127.585938 102.503906 120.714844 93.839844 119.6875 L 93.839844 98.230469 C 114.210938 99.546875 130.546875 115.882812 131.867188 136.246094 " fill-opacity="1" fill-rule="nonzero"/><path fill="#ddecff" d="M 134.210938 140.769531 L 110.402344 140.769531 C 110.492188 140.027344 110.535156 139.273438 110.535156 138.507812 C 110.535156 137.742188 110.492188 136.988281 110.402344 136.246094 L 131.867188 136.246094 C 130.546875 115.882812 114.210938 99.546875 93.839844 98.230469 L 93.839844 119.6875 C 93.097656 119.597656 92.339844 119.554688 91.578125 119.554688 C 90.8125 119.554688 90.058594 119.597656 89.316406 119.6875 L 89.316406 95.882812 C 89.316406 94.699219 90.304688 93.664062 91.488281 93.625 C 91.511719 93.625 91.535156 93.625 91.554688 93.625 C 91.5625 93.625 91.570312 93.625 91.578125 93.625 C 91.605469 93.625 91.636719 93.625 91.664062 93.625 C 116.226562 93.914062 136.1875 113.867188 136.472656 138.421875 C 136.472656 138.449219 136.472656 138.480469 136.472656 138.507812 C 136.472656 138.535156 136.472656 138.566406 136.472656 138.59375 C 136.433594 139.78125 135.398438 140.769531 134.210938 140.769531 " fill-opacity="1" fill-rule="nonzero"/><path fill="#ddecff" d="M 91.578125 157.460938 C 90.8125 157.460938 90.058594 157.417969 89.316406 157.328125 C 82.667969 156.539062 77.074219 152.3125 74.367188 146.472656 C 73.738281 145.121094 73.265625 143.679688 72.972656 142.175781 C 72.738281 140.992188 72.617188 139.761719 72.617188 138.507812 C 72.617188 128.804688 79.910156 120.804688 89.316406 119.6875 C 90.058594 119.597656 90.8125 119.554688 91.578125 119.554688 C 92.339844 119.554688 93.097656 119.597656 93.839844 119.6875 C 102.503906 120.714844 109.375 127.585938 110.402344 136.246094 C 110.492188 136.988281 110.535156 137.742188 110.535156 138.507812 C 110.535156 139.273438 110.492188 140.027344 110.402344 140.769531 C 109.375 149.429688 102.503906 156.300781 93.839844 157.328125 C 93.097656 157.417969 92.339844 157.460938 91.578125 157.460938 M 98.730469 136.648438 C 97.144531 136.648438 95.847656 137.265625 94.847656 138.492188 C 93.847656 139.722656 93.347656 141.476562 93.347656 143.753906 C 93.347656 146.027344 93.847656 147.792969 94.847656 149.042969 C 95.847656 150.296875 97.144531 150.925781 98.730469 150.925781 C 100.316406 150.925781 101.609375 150.296875 102.609375 149.042969 C 103.609375 147.792969 104.109375 146.027344 104.109375 143.753906 C 104.109375 141.476562 103.609375 139.722656 102.609375 138.492188 C 101.609375 137.265625 100.316406 136.648438 98.730469 136.648438 M 95.554688 127.546875 L 83.242188 150.925781 L 85.691406 150.925781 L 97.96875 127.546875 L 95.554688 127.546875 M 82.554688 127.546875 C 80.964844 127.546875 79.671875 128.160156 78.675781 129.390625 C 77.671875 130.621094 77.171875 132.375 77.171875 134.648438 C 77.171875 136.925781 77.671875 138.691406 78.675781 139.941406 C 79.671875 141.195312 80.964844 141.820312 82.554688 141.820312 C 84.140625 141.820312 85.433594 141.195312 86.433594 139.941406 C 87.433594 138.691406 87.933594 136.925781 87.933594 134.648438 C 87.933594 132.375 87.433594 130.621094 86.433594 129.390625 C 85.433594 128.160156 84.140625 127.546875 82.554688 127.546875 M 98.730469 148.613281 C 97.992188 148.613281 97.390625 148.230469 96.917969 147.457031 C 96.445312 146.6875 96.210938 145.453125 96.210938 143.753906 C 96.210938 142.050781 96.445312 140.828125 96.917969 140.082031 C 97.390625 139.332031 97.992188 138.957031 98.730469 138.957031 C 99.464844 138.957031 100.066406 139.332031 100.539062 140.082031 C 101.011719 140.828125 101.246094 142.050781 101.246094 143.753906 C 101.246094 145.453125 101.011719 146.6875 100.539062 147.457031 C 100.066406 148.230469 99.464844 148.613281 98.730469 148.613281 M 82.554688 139.511719 C 81.816406 139.511719 81.214844 139.125 80.742188 138.355469 C 80.269531 137.585938 80.035156 136.351562 80.035156 134.648438 C 80.035156 132.949219 80.269531 131.726562 80.742188 130.976562 C 81.214844 130.230469 81.816406 129.855469 82.554688 129.855469 C 83.289062 129.855469 83.890625 130.230469 84.363281 130.976562 C 84.835938 131.726562 85.070312 132.949219 85.070312 134.648438 C 85.070312 136.351562 84.835938 137.585938 84.363281 138.355469 C 83.890625 139.125 83.289062 139.511719 82.554688 139.511719 " fill-opacity="1" fill-rule="nonzero"/><path fill="#739ad4" d="M 98.730469 150.925781 C 97.144531 150.925781 95.847656 150.296875 94.847656 149.042969 C 93.847656 147.792969 93.347656 146.027344 93.347656 143.753906 C 93.347656 141.476562 93.847656 139.722656 94.847656 138.492188 C 95.847656 137.265625 97.144531 136.648438 98.730469 136.648438 C 100.316406 136.648438 101.609375 137.265625 102.609375 138.492188 C 103.609375 139.722656 104.109375 141.476562 104.109375 143.753906 C 104.109375 146.027344 103.609375 147.792969 102.609375 149.042969 C 101.609375 150.296875 100.316406 150.925781 98.730469 150.925781 M 98.730469 138.957031 C 97.992188 138.957031 97.390625 139.332031 96.917969 140.082031 C 96.445312 140.828125 96.210938 142.050781 96.210938 143.753906 C 96.210938 145.453125 96.445312 146.6875 96.917969 147.457031 C 97.390625 148.230469 97.992188 148.613281 98.730469 148.613281 C 99.464844 148.613281 100.066406 148.230469 100.539062 147.457031 C 101.011719 146.6875 101.246094 145.453125 101.246094 143.753906 C 101.246094 142.050781 101.011719 140.828125 100.539062 140.082031 C 100.066406 139.332031 99.464844 138.957031 98.730469 138.957031 M 85.691406 150.925781 L 83.242188 150.925781 L 95.554688 127.546875 L 97.96875 127.546875 L 85.691406 150.925781 M 82.554688 141.820312 C 80.964844 141.820312 79.671875 141.195312 78.675781 139.941406 C 77.671875 138.691406 77.171875 136.925781 77.171875 134.648438 C 77.171875 132.375 77.671875 130.621094 78.675781 129.390625 C 79.671875 128.160156 80.964844 127.546875 82.554688 127.546875 C 84.140625 127.546875 85.433594 128.160156 86.433594 129.390625 C 87.433594 130.621094 87.933594 132.375 87.933594 134.648438 C 87.933594 136.925781 87.433594 138.691406 86.433594 139.941406 C 85.433594 141.195312 84.140625 141.820312 82.554688 141.820312 M 82.554688 129.855469 C 81.816406 129.855469 81.214844 130.230469 80.742188 130.976562 C 80.269531 131.726562 80.035156 132.949219 80.035156 134.648438 C 80.035156 136.351562 80.269531 137.585938 80.742188 138.355469 C 81.214844 139.125 81.816406 139.511719 82.554688 139.511719 C 83.289062 139.511719 83.890625 139.125 84.363281 138.355469 C 84.835938 137.585938 85.070312 136.351562 85.070312 134.648438 C 85.070312 132.949219 84.835938 131.726562 84.363281 130.976562 C 83.890625 130.230469 83.289062 129.855469 82.554688 129.855469 " fill-opacity="1" fill-rule="nonzero"/><path fill="#95cbf0" d="M 147.828125 117.835938 L 239.890625 117.835938 L 239.890625 110.667969 L 147.828125 110.667969 Z M 147.828125 117.835938 " fill-opacity="1" fill-rule="nonzero"/><path fill="#95cbf0" d="M 147.828125 133.0625 L 239.890625 133.0625 L 239.890625 125.894531 L 147.828125 125.894531 Z M 147.828125 133.0625 " fill-opacity="1" fill-rule="nonzero"/><path fill="#95cbf0" d="M 147.828125 148.285156 L 239.890625 148.285156 L 239.890625 141.117188 L 147.828125 141.117188 Z M 147.828125 148.285156 " fill-opacity="1" fill-rule="nonzero"/><path fill="#95cbf0" d="M 147.828125 163.507812 L 239.890625 163.507812 L 239.890625 156.339844 L 147.828125 156.339844 Z M 147.828125 163.507812 " fill-opacity="1" fill-rule="nonzero"/><path fill="#95cbf0" d="M 147.828125 178.734375 L 239.890625 178.734375 L 239.890625 171.566406 L 147.828125 171.566406 Z M 147.828125 178.734375 " fill-opacity="1" fill-rule="nonzero"/><path fill="#95cbf0" d="M 147.828125 193.957031 L 239.890625 193.957031 L 239.890625 186.789062 L 147.828125 186.789062 Z M 147.828125 193.957031 " fill-opacity="1" fill-rule="nonzero"/><g clip-path="url(#ddbf097e5c)"><path fill="#5c9ed4" d="M 248.050781 221.261719 C 247.386719 221.261719 246.644531 221.148438 246.117188 221.148438 L 41.0625 221.148438 C 40.578125 221.148438 40.578125 220.398438 41.0625 220.398438 L 244.878906 220.398438 C 245.667969 220.398438 246.851562 220.582031 247.890625 220.582031 C 248.246094 220.582031 248.582031 220.558594 248.882812 220.503906 C 248.878906 220.425781 248.980469 220.171875 248.925781 219.628906 C 248.792969 218.328125 248.925781 216.945312 248.925781 215.636719 L 248.925781 89.261719 C 248.925781 89.019531 249.113281 88.898438 249.300781 88.898438 C 249.488281 88.898438 249.679688 89.019531 249.679688 89.261719 L 249.679688 220.773438 C 249.679688 220.976562 249.503906 221.148438 249.300781 221.148438 C 249.230469 221.148438 249.136719 221.136719 249.054688 221.136719 C 249.015625 221.136719 248.976562 221.140625 248.945312 221.148438 C 248.691406 221.234375 248.382812 221.261719 248.050781 221.261719 " fill-opacity="1" fill-rule="nonzero"/></g><path fill="#f2b1a5" d="M 202.203125 176.386719 C 212.742188 186.789062 236.113281 219.136719 236.113281 219.136719 C 232.585938 235.625 214.265625 245 214.265625 245 C 200.964844 212.515625 195.203125 186.574219 195.203125 186.574219 L 202.203125 176.386719 " fill-opacity="1" fill-rule="nonzero"/><g clip-path="url(#c6488778b2)"><path fill="#ff4931" d="M 291.476562 195.261719 C 291.476562 195.261719 284.707031 176.277344 270.78125 171.445312 L 250.246094 171.445312 L 241.59375 174.066406 C 228.148438 177.832031 222.773438 190.496094 222.773438 190.496094 C 213.839844 209.691406 209.835938 218.261719 206.464844 237.730469 C 206.464844 237.730469 182.203125 274.585938 184.914062 278.234375 C 184.914062 278.234375 226.242188 280.871094 247.273438 284.625 C 247.273438 284.625 292.503906 292.519531 297.390625 270.53125 C 297.390625 270.53125 297.992188 211.902344 291.476562 195.261719 " fill-opacity="1" fill-rule="nonzero"/></g><path fill="#f2b1a5" d="M 235.363281 141.519531 C 235.363281 141.519531 234.03125 138.277344 236.566406 127.546875 C 236.566406 127.546875 241.320312 112.441406 255.8125 112.957031 C 256.335938 112.976562 257.003906 113.109375 257.511719 113.292969 C 271.097656 118.226562 268.8125 132.726562 268.8125 132.726562 C 268.097656 137.480469 266.609375 141.242188 265.160156 143.972656 C 263.28125 147.507812 258.835938 150.554688 258.835938 150.554688 C 253.542969 154.171875 242.59375 154.628906 239.804688 153.738281 C 237.613281 153.039062 236.542969 148.363281 235.363281 141.519531 " fill-opacity="1" fill-rule="nonzero"/><path fill="#f2b1a5" d="M 244.960938 145.027344 C 245.34375 162.917969 241.59375 168.570312 241.59375 168.570312 C 232.730469 177.75 268.957031 168.699219 268.957031 168.699219 C 263.976562 159.203125 265.210938 147.273438 265.210938 147.273438 C 256.957031 146.804688 244.960938 145.027344 244.960938 145.027344 " fill-opacity="1" fill-rule="nonzero"/><path fill="#722a33" d="M 245.507812 154.21875 C 250.503906 154.28125 257.859375 152.914062 261.425781 148.976562 C 261.75 148.617188 261.21875 148.082031 260.890625 148.441406 C 257.472656 152.21875 250.261719 153.527344 245.507812 153.464844 C 245.023438 153.457031 245.023438 154.210938 245.507812 154.21875 " fill-opacity="1" fill-rule="nonzero"/><path fill="#f2b1a5" d="M 236.566406 127.546875 C 235.449219 137.015625 231.558594 138.308594 231.558594 138.308594 C 230.132812 141.660156 237.605469 143.378906 237.605469 143.378906 C 237.183594 139.324219 236.566406 127.546875 236.566406 127.546875 " fill-opacity="1" fill-rule="nonzero"/><path fill="#722a33" d="M 238.46875 135.507812 C 239.300781 135.820312 240.238281 135.394531 240.554688 134.558594 L 240.894531 133.648438 C 241.207031 132.816406 240.78125 131.878906 239.945312 131.566406 C 239.113281 131.253906 238.175781 131.679688 237.863281 132.515625 L 237.519531 133.425781 C 237.207031 134.257812 237.636719 135.195312 238.46875 135.507812 " fill-opacity="1" fill-rule="nonzero"/><path fill="#722a33" d="M 237.605469 129.746094 C 239.640625 129.929688 242.824219 130.859375 244.003906 132.695312 C 245.085938 134.378906 247.785156 132.820312 246.699219 131.121094 C 244.855469 128.246094 240.84375 126.921875 237.605469 126.625 C 235.609375 126.445312 235.621094 129.5625 237.605469 129.746094 " fill-opacity="1" fill-rule="nonzero"/><path fill="#722a33" d="M 272.738281 116.179688 C 272.199219 115.339844 271.660156 112.863281 269.535156 111.992188 C 256.140625 106.5 245.214844 108.519531 239.207031 112.941406 C 234.625 116.316406 233.835938 120.035156 237.605469 126.625 C 238.3125 127.859375 243.1875 130.78125 246.246094 132.785156 C 247.214844 134.773438 247.386719 139.578125 247.976562 142.414062 C 249.449219 149.535156 263.277344 156.679688 264.769531 155.070312 C 269.488281 149.980469 272.710938 145.328125 276.082031 140.984375 C 282.289062 130.046875 281.871094 122.375 272.738281 116.179688 " fill-opacity="1" fill-rule="nonzero"/><path fill="#f2b1a5" d="M 248.367188 135.1875 C 251.269531 130.257812 253.636719 133.570312 253.636719 133.570312 C 255.152344 137.855469 249.453125 141.453125 249.453125 141.453125 C 247.332031 142.496094 248.367188 135.1875 248.367188 135.1875 " fill-opacity="1" fill-rule="nonzero"/><path fill="#ff4931" d="M 272.566406 172.199219 C 272.566406 171.390625 270.347656 164.410156 270.347656 164.410156 C 258.90625 170.644531 238.566406 167.234375 238.566406 167.234375 C 237.863281 171.445312 237.605469 175.496094 237.605469 175.496094 C 257.90625 178.414062 272.566406 172.199219 272.566406 172.199219 " fill-opacity="1" fill-rule="nonzero"/><g clip-path="url(#1f3df3c19e)"><path fill="#ffb55c" d="M 322.085938 286.132812 L 55.789062 286.132812 C 52.589844 286.132812 49.972656 283.515625 49.972656 280.320312 L 49.972656 276.152344 C 49.972656 272.953125 52.589844 270.335938 55.789062 270.335938 L 322.085938 270.335938 C 325.285156 270.335938 327.902344 272.953125 327.902344 276.152344 L 327.902344 280.320312 C 327.902344 283.515625 325.285156 286.132812 322.085938 286.132812 " fill-opacity="1" fill-rule="nonzero"/></g><path fill="#722a33" d="M 246.949219 131.984375 C 246.964844 132.1875 246.976562 132.386719 246.988281 132.585938 C 247.367188 139.605469 244.851562 144.523438 244.851562 144.523438 C 246.445312 145.242188 249.597656 143.378906 249.597656 143.378906 C 248.535156 138.308594 250.167969 131.464844 250.167969 131.464844 L 246.949219 131.984375 " fill-opacity="1" fill-rule="nonzero"/><path fill="#f2b1a5" d="M 218.492188 258.371094 C 228.082031 256.347656 240.996094 245.796875 240.996094 245.796875 L 257.730469 222.546875 C 264.207031 213.386719 244.851562 196.339844 244.851562 196.339844 C 237.796875 194.226562 203.644531 242.53125 203.644531 242.53125 C 196.445312 247.03125 218.492188 258.371094 218.492188 258.371094 " fill-opacity="1" fill-rule="nonzero"/><path fill="#ff6c61" d="M 248.117188 181.898438 C 230.628906 181.339844 210.300781 222.054688 210.300781 222.054688 C 219.972656 237.429688 241.53125 251.039062 241.53125 251.039062 C 273.542969 210.40625 266.738281 193.660156 266.738281 193.660156 C 265.855469 181.890625 248.117188 181.898438 248.117188 181.898438 " fill-opacity="1" fill-rule="nonzero"/><path fill="#f2b1a5" d="M 218.492188 258.371094 C 200.828125 268.875 164.757812 210.300781 164.757812 210.300781 L 178.8125 200.851562 C 199.875 219.164062 218.492188 237.519531 218.492188 237.519531 L 218.492188 258.371094 " fill-opacity="1" fill-rule="nonzero"/><path fill="#f2b1a5" d="M 169.5 218.011719 C 152.550781 208.375 151.679688 196.964844 151.679688 196.964844 C 152 184.296875 145.191406 176.277344 145.191406 176.277344 C 144.589844 171.867188 169.5 209.464844 169.5 209.464844 L 169.5 218.011719 " fill-opacity="1" fill-rule="nonzero"/><path fill="#722a33" d="M 145.65625 138.644531 C 145.871094 138.90625 145.984375 139.136719 146.039062 139.351562 C 146.09375 139.5625 146.089844 139.757812 146.058594 139.949219 C 146.03125 140.140625 145.976562 140.324219 145.929688 140.519531 C 145.886719 140.714844 145.851562 140.914062 145.863281 141.136719 C 145.882812 141.453125 145.964844 141.777344 146.09375 142.101562 C 146.222656 142.429688 146.398438 142.761719 146.609375 143.089844 C 146.820312 143.421875 147.0625 143.75 147.324219 144.074219 C 147.582031 144.398438 147.863281 144.714844 148.144531 145.023438 C 148.234375 145.125 149.136719 146.078125 149.222656 146.167969 C 149.308594 146.261719 149.367188 146.347656 149.398438 146.433594 C 149.433594 146.515625 149.441406 146.589844 149.429688 146.660156 C 149.417969 146.726562 149.386719 146.785156 149.339844 146.832031 C 149.296875 146.878906 149.234375 146.910156 149.167969 146.929688 C 149.121094 146.941406 149.070312 146.945312 149.015625 146.945312 C 148.964844 146.941406 148.90625 146.929688 148.851562 146.910156 C 148.792969 146.890625 148.734375 146.859375 148.675781 146.820312 C 148.617188 146.78125 148.558594 146.730469 148.5 146.671875 C 148.390625 146.558594 147.296875 145.378906 147.1875 145.253906 C 146.90625 144.941406 146.636719 144.617188 146.378906 144.292969 C 146.125 143.964844 145.886719 143.632812 145.675781 143.300781 C 145.464844 142.964844 145.277344 142.628906 145.128906 142.289062 C 144.976562 141.953125 144.863281 141.613281 144.792969 141.273438 C 144.75 141.058594 144.769531 140.816406 144.796875 140.5625 C 144.828125 140.308594 144.863281 140.042969 144.855469 139.78125 C 144.84375 139.523438 144.789062 139.265625 144.632812 139.027344 C 144.472656 138.792969 144.214844 138.574219 143.796875 138.386719 C 143.679688 138.335938 143.5625 138.296875 143.445312 138.265625 C 143.328125 138.234375 143.207031 138.210938 143.085938 138.195312 C 142.96875 138.175781 142.847656 138.167969 142.726562 138.167969 C 142.605469 138.164062 142.472656 138.171875 142.351562 138.179688 C 142.429688 138.128906 142.472656 138.046875 142.46875 137.953125 C 142.464844 137.859375 142.425781 137.757812 142.363281 137.65625 C 142.300781 137.554688 142.210938 137.457031 142.105469 137.378906 C 142.003906 137.300781 141.886719 137.242188 141.761719 137.214844 C 142.097656 137.191406 142.445312 137.191406 142.792969 137.21875 C 143.140625 137.246094 143.488281 137.308594 143.824219 137.414062 C 144.160156 137.515625 144.488281 137.664062 144.796875 137.867188 C 145.105469 138.066406 145.398438 138.324219 145.65625 138.644531 " fill-opacity="1" fill-rule="nonzero"/><path fill="#722a33" d="M 139.695312 137.582031 C 139.757812 137.566406 140.625 137.371094 140.625 137.371094 C 140.542969 137.386719 140.421875 137.410156 140.335938 137.433594 C 140.242188 137.453125 140.167969 137.472656 140.078125 137.496094 C 139.984375 137.523438 139.894531 137.546875 139.808594 137.574219 C 139.714844 137.601562 139.628906 137.628906 139.539062 137.660156 L 139.648438 137.59375 L 139.695312 137.582031 " fill-opacity="1" fill-rule="nonzero"/><path fill="#722a33" d="M 140.191406 138.625 C 140.246094 138.605469 140.28125 138.585938 140.335938 138.570312 C 140.394531 138.550781 140.453125 138.535156 140.507812 138.519531 C 140.566406 138.503906 140.625 138.488281 140.683594 138.476562 C 140.742188 138.460938 140.800781 138.449219 140.863281 138.4375 L 141.253906 138.367188 C 141.167969 138.386719 140.28125 138.625 140.28125 138.625 L 140.191406 138.625 " fill-opacity="1" fill-rule="nonzero"/><path fill="#722a33" d="M 140.679688 137.359375 C 140.757812 137.34375 141.070312 137.285156 141.144531 137.273438 C 141.214844 137.261719 141.589844 137.207031 141.589844 137.207031 L 141.640625 137.203125 L 141.710938 137.207031 L 141.761719 137.214844 C 141.886719 137.242188 142.003906 137.300781 142.105469 137.378906 C 142.210938 137.457031 142.300781 137.554688 142.363281 137.65625 C 142.425781 137.757812 142.464844 137.859375 142.46875 137.953125 C 142.472656 138.046875 142.429688 138.128906 142.351562 138.179688 L 142.304688 138.203125 L 142.242188 138.222656 C 142.175781 138.234375 141.15625 138.382812 141.15625 138.382812 L 140.863281 138.4375 C 140.804688 138.449219 140.742188 138.460938 140.683594 138.476562 C 140.625 138.488281 140.566406 138.503906 140.507812 138.519531 C 140.453125 138.535156 140.394531 138.550781 140.335938 138.570312 C 140.28125 138.585938 140.246094 138.605469 140.191406 138.625 C 140.085938 138.664062 139.96875 138.703125 139.875 138.75 C 139.78125 138.796875 139.695312 138.851562 139.617188 138.90625 C 139.542969 138.964844 139.472656 139.027344 139.417969 139.097656 C 139.359375 139.164062 139.316406 139.242188 139.28125 139.324219 C 139.164062 139.617188 139.214844 139.882812 139.363281 140.125 C 139.515625 140.367188 139.769531 140.585938 140.0625 140.792969 C 140.355469 141 140.691406 141.195312 141.007812 141.378906 C 141.324219 141.566406 141.621094 141.75 141.835938 141.933594 C 142.167969 142.21875 142.46875 142.519531 142.738281 142.835938 C 143.007812 143.148438 143.25 143.476562 143.464844 143.816406 C 143.683594 144.152344 143.878906 144.496094 144.054688 144.847656 C 144.230469 145.195312 144.390625 145.550781 144.539062 145.902344 C 144.597656 146.039062 144.8125 146.582031 144.863281 146.71875 C 144.914062 146.851562 145.109375 147.386719 145.15625 147.515625 C 145.179688 147.585938 145.191406 147.648438 145.191406 147.703125 C 145.191406 147.757812 145.183594 147.804688 145.160156 147.847656 C 145.140625 147.886719 145.113281 147.921875 145.078125 147.949219 C 145.039062 147.972656 144.996094 147.992188 144.949219 148.003906 C 144.875 148.023438 144.792969 148.027344 144.707031 148.011719 C 144.617188 148 144.527344 147.96875 144.441406 147.925781 C 144.355469 147.878906 144.273438 147.820312 144.203125 147.742188 C 144.132812 147.667969 144.074219 147.578125 144.039062 147.472656 C 144 147.367188 143.59375 146.257812 143.546875 146.144531 C 143.394531 145.761719 143.230469 145.371094 143.039062 144.988281 C 142.847656 144.605469 142.632812 144.230469 142.386719 143.871094 C 142.140625 143.515625 141.859375 143.175781 141.539062 142.863281 C 141.21875 142.554688 140.855469 142.269531 140.441406 142.03125 C 140.210938 141.894531 139.976562 141.78125 139.75 141.664062 C 139.519531 141.550781 139.296875 141.4375 139.089844 141.308594 C 138.882812 141.179688 138.6875 141.039062 138.515625 140.867188 C 138.339844 140.695312 138.191406 140.492188 138.074219 140.246094 C 137.902344 139.886719 137.835938 139.574219 137.851562 139.296875 C 137.863281 139.019531 137.957031 138.78125 138.113281 138.570312 C 138.265625 138.363281 138.472656 138.1875 138.71875 138.039062 C 138.964844 137.886719 139.246094 137.761719 139.539062 137.660156 C 139.628906 137.628906 139.714844 137.601562 139.808594 137.574219 C 139.894531 137.546875 139.984375 137.519531 140.078125 137.496094 C 140.167969 137.472656 140.242188 137.453125 140.335938 137.433594 C 140.425781 137.410156 140.539062 137.386719 140.625 137.371094 L 140.679688 137.359375 " fill-opacity="1" fill-rule="nonzero"/><path fill="#722a33" d="M 150.582031 144.425781 C 150.664062 144.40625 150.753906 144.40625 150.847656 144.425781 C 150.9375 144.441406 151.03125 144.476562 151.125 144.527344 C 151.214844 144.574219 151.300781 144.640625 151.378906 144.710938 C 151.457031 144.785156 151.523438 144.871094 151.578125 144.964844 L 154.246094 149.65625 L 144.230469 152.40625 L 140.921875 147.582031 C 140.859375 147.488281 140.816406 147.394531 140.792969 147.304688 C 140.769531 147.21875 140.769531 147.132812 140.785156 147.054688 C 140.800781 146.976562 140.835938 146.910156 140.886719 146.859375 C 140.941406 146.804688 141.011719 146.761719 141.097656 146.742188 L 143.546875 146.144531 C 143.59375 146.257812 144 147.367188 144.039062 147.472656 C 144.074219 147.578125 144.132812 147.667969 144.203125 147.742188 C 144.273438 147.820312 144.355469 147.878906 144.441406 147.925781 C 144.527344 147.96875 144.617188 148 144.707031 148.011719 C 144.792969 148.027344 144.875 148.023438 144.949219 148.003906 C 144.996094 147.992188 145.039062 147.972656 145.078125 147.949219 C 145.113281 147.921875 145.140625 147.886719 145.160156 147.847656 C 145.183594 147.804688 145.191406 147.757812 145.191406 147.703125 C 145.191406 147.648438 145.179688 147.585938 145.15625 147.515625 C 145.109375 147.386719 144.757812 146.445312 144.703125 146.3125 C 144.652344 146.175781 144.597656 146.039062 144.539062 145.902344 L 147.1875 145.253906 C 147.296875 145.378906 148.390625 146.558594 148.5 146.671875 C 148.558594 146.730469 148.617188 146.78125 148.675781 146.820312 C 148.734375 146.859375 148.792969 146.890625 148.851562 146.910156 C 148.90625 146.929688 148.964844 146.941406 149.015625 146.945312 C 149.070312 146.945312 149.121094 146.941406 149.167969 146.929688 C 149.234375 146.910156 149.296875 146.878906 149.339844 146.832031 C 149.386719 146.785156 149.417969 146.726562 149.429688 146.660156 C 149.441406 146.589844 149.433594 146.515625 149.398438 146.433594 C 149.367188 146.347656 149.308594 146.261719 149.222656 146.167969 C 149.136719 146.078125 148.234375 145.125 148.144531 145.023438 L 150.582031 144.425781 " fill-opacity="1" fill-rule="nonzero"/><path fill="#722a33" d="M 154.453125 149.597656 C 154.519531 149.578125 154.59375 149.578125 154.671875 149.589844 C 154.746094 149.601562 154.824219 149.628906 154.902344 149.667969 C 154.976562 149.703125 155.050781 149.753906 155.117188 149.8125 C 155.183594 149.871094 155.246094 149.941406 155.296875 150.015625 L 155.507812 150.34375 C 155.554688 150.417969 155.589844 150.496094 155.609375 150.570312 C 155.625 150.640625 155.628906 150.710938 155.617188 150.773438 C 155.609375 150.835938 155.582031 150.890625 155.542969 150.933594 C 155.503906 150.980469 155.449219 151.011719 155.382812 151.03125 L 144.925781 153.996094 C 144.855469 154.015625 144.773438 154.019531 144.691406 154.007812 C 144.609375 153.996094 144.523438 153.96875 144.441406 153.929688 C 144.359375 153.890625 144.28125 153.839844 144.207031 153.777344 C 144.136719 153.714844 144.074219 153.640625 144.023438 153.558594 L 143.804688 153.214844 C 143.753906 153.132812 143.71875 153.050781 143.699219 152.976562 C 143.683594 152.898438 143.683594 152.824219 143.699219 152.757812 C 143.714844 152.691406 143.746094 152.628906 143.789062 152.582031 C 143.835938 152.535156 143.894531 152.5 143.96875 152.480469 L 154.453125 149.597656 " fill-opacity="1" fill-rule="nonzero"/><path fill="#ffffff" d="M 161.960938 146.5625 L 195.015625 196.667969 L 169.914062 212.785156 L 133.652344 154.203125 L 143.617188 151.511719 L 144.230469 152.40625 L 143.96875 152.480469 C 143.894531 152.5 143.835938 152.535156 143.789062 152.582031 C 143.746094 152.628906 143.714844 152.691406 143.699219 152.757812 C 143.683594 152.824219 143.683594 152.898438 143.699219 152.976562 C 143.71875 153.050781 143.753906 153.132812 143.804688 153.214844 L 144.023438 153.558594 C 144.074219 153.640625 144.136719 153.714844 144.207031 153.777344 C 144.28125 153.839844 144.359375 153.890625 144.441406 153.929688 C 144.523438 153.96875 144.609375 153.996094 144.691406 154.007812 C 144.773438 154.019531 144.855469 154.015625 144.925781 153.996094 L 155.382812 151.03125 C 155.449219 151.011719 155.503906 150.980469 155.542969 150.933594 C 155.582031 150.890625 155.609375 150.835938 155.617188 150.773438 C 155.628906 150.710938 155.625 150.640625 155.609375 150.570312 C 155.589844 150.496094 155.554688 150.417969 155.507812 150.34375 L 155.296875 150.015625 C 155.246094 149.941406 155.183594 149.871094 155.117188 149.8125 C 155.050781 149.753906 154.976562 149.703125 154.902344 149.667969 C 154.824219 149.628906 154.746094 149.601562 154.671875 149.589844 C 154.59375 149.578125 154.519531 149.578125 154.453125 149.597656 L 154.246094 149.65625 L 153.746094 148.777344 L 161.960938 146.5625 " fill-opacity="1" fill-rule="nonzero"/><path fill="#722a33" d="M 161.929688 144.65625 C 162.085938 144.617188 162.253906 144.617188 162.433594 144.648438 C 162.613281 144.679688 162.796875 144.746094 162.976562 144.839844 C 163.15625 144.933594 163.332031 145.054688 163.492188 145.195312 C 163.652344 145.339844 163.800781 145.507812 163.921875 145.691406 L 198.839844 198.378906 C 198.980469 198.585938 199.082031 198.800781 199.152344 199.011719 C 199.222656 199.222656 199.261719 199.433594 199.265625 199.628906 C 199.269531 199.824219 199.238281 200.003906 199.171875 200.160156 C 199.109375 200.316406 199.007812 200.445312 198.875 200.535156 L 171.96875 218.921875 C 171.785156 219.046875 171.578125 219.117188 171.359375 219.132812 C 171.140625 219.152344 170.914062 219.117188 170.691406 219.035156 C 170.46875 218.949219 170.246094 218.820312 170.042969 218.648438 C 169.839844 218.476562 169.65625 218.265625 169.5 218.011719 L 130.535156 154.636719 C 130.398438 154.421875 130.316406 154.203125 130.277344 153.992188 C 130.238281 153.785156 130.246094 153.585938 130.296875 153.410156 C 130.347656 153.230469 130.441406 153.074219 130.574219 152.949219 C 130.707031 152.820312 130.878906 152.726562 131.089844 152.671875 L 142.394531 149.734375 L 143.617188 151.511719 L 133.652344 154.203125 L 169.914062 212.785156 L 195.015625 196.667969 L 161.960938 146.5625 L 153.746094 148.777344 L 152.757812 147.039062 L 161.929688 144.65625 " fill-opacity="1" fill-rule="nonzero"/><path fill="#f2b1a5" d="M 181.121094 155.300781 C 175.230469 157.683594 173.738281 164.410156 173.738281 164.410156 C 172.820312 168.050781 183.613281 160.972656 183.613281 160.972656 L 181.121094 155.300781 " fill-opacity="1" fill-rule="nonzero"/><path fill="#f2b1a5" d="M 203.003906 177.285156 C 199.648438 174.007812 198.085938 170.273438 197.101562 168.085938 C 196.054688 165.761719 195.398438 163.195312 194.308594 160.910156 C 193.320312 158.84375 190.769531 157.054688 188.933594 155.714844 C 187.035156 154.332031 185.058594 153.980469 182.722656 153.628906 C 181.203125 153.398438 180.660156 152.832031 180.054688 154.324219 C 179.320312 156.125 179.472656 156.003906 180.15625 157.457031 C 178.910156 157.757812 178.015625 157.351562 177.246094 158.59375 C 176.578125 159.667969 176.753906 160.46875 177.519531 161.378906 C 175.824219 162.085938 173.351562 164.546875 176.398438 165.679688 C 175.992188 167.304688 173.460938 167.398438 175.03125 169.546875 C 176 170.875 177.671875 171.460938 179.082031 170.570312 C 179.835938 174.472656 181.761719 177.210938 184.511719 180 C 185.753906 181.261719 187.125 182.671875 188.648438 183.628906 C 190.347656 184.691406 197.167969 191.964844 197.785156 193.660156 L 203.003906 177.285156 " fill-opacity="1" fill-rule="nonzero"/><path fill="#722a33" d="M 170.03125 172.855469 C 169.433594 172.222656 170.488281 170.25 171.121094 169.652344 L 199.914062 142.480469 C 200.546875 141.886719 201.550781 141.914062 202.148438 142.546875 C 202.746094 143.179688 202.71875 144.183594 202.085938 144.78125 L 173.292969 171.949219 C 172.660156 172.546875 170.628906 173.488281 170.03125 172.855469 " fill-opacity="1" fill-rule="nonzero"/><path fill="#722a33" d="M 200.328125 144.265625 C 200.644531 144.601562 201.179688 144.613281 201.515625 144.296875 L 204.269531 141.699219 C 204.605469 141.382812 204.621094 140.847656 204.304688 140.511719 C 203.988281 140.175781 203.453125 140.160156 203.117188 140.476562 L 200.363281 143.078125 C 200.027344 143.394531 200.011719 143.925781 200.328125 144.265625 " fill-opacity="1" fill-rule="nonzero"/><path fill="#722a33" d="M 202.546875 143.324219 C 205.542969 146.496094 194.921875 155.433594 194.921875 155.433594 C 194.105469 156.113281 193.917969 155.382812 193.917969 155.382812 C 193.535156 155.066406 199.035156 149.421875 199.035156 149.421875 C 202.316406 145.691406 200.671875 144.484375 200.671875 144.484375 L 202.546875 143.324219 " fill-opacity="1" fill-rule="nonzero"/><path fill="#722a33" d="M 168.132812 174.644531 C 168.367188 174.890625 168.761719 174.902344 169.007812 174.667969 L 172.34375 171.519531 C 172.589844 171.289062 172.601562 170.894531 172.371094 170.648438 C 172.136719 170.402344 171.742188 170.390625 171.496094 170.625 L 168.160156 173.773438 C 167.914062 174.003906 167.902344 174.398438 168.132812 174.644531 " fill-opacity="1" fill-rule="nonzero"/><path fill="#f2b1a5" d="M 186.253906 169.457031 C 180.355469 172.074219 179.710938 155.019531 179.710938 155.019531 C 180.65625 152.816406 183.613281 153.816406 183.613281 153.816406 C 192.664062 165.308594 186.253906 169.457031 186.253906 169.457031 " fill-opacity="1" fill-rule="nonzero"/><path fill="#722a33" d="M 257.730469 270.335938 C 280.25 237.769531 283.941406 193.660156 283.941406 193.660156 C 284.242188 172.648438 310.167969 180.355469 310.167969 180.355469 C 334.585938 181.890625 310.769531 270.335938 310.769531 270.335938 L 257.730469 270.335938 " fill-opacity="1" fill-rule="nonzero"/><path fill="#ff4931" d="M 73.929688 270.335938 L 55.671875 270.335938 L 55.671875 206.175781 L 73.929688 206.175781 L 73.929688 270.335938 " fill-opacity="1" fill-rule="nonzero"/><path fill="#722a33" d="M 96.003906 270.335938 L 77.75 270.335938 L 77.75 206.175781 L 96.003906 206.175781 L 96.003906 270.335938 " fill-opacity="1" fill-rule="nonzero"/><path fill="#83c2ed" d="M 118.058594 270.335938 L 99.804688 270.335938 L 99.804688 206.175781 L 118.058594 206.175781 L 118.058594 270.335938 " fill-opacity="1" fill-rule="nonzero"/><path fill="#ffb55c" d="M 142.789062 270.335938 L 124.53125 270.335938 L 124.53125 206.175781 L 142.789062 206.175781 L 142.789062 270.335938 " fill-opacity="1" fill-rule="nonzero"/><path fill="#ffffff" d="M 69.296875 216.125 C 69.296875 218.609375 67.285156 220.621094 64.800781 220.621094 C 62.316406 220.621094 60.304688 218.609375 60.304688 216.125 C 60.304688 213.644531 62.316406 211.632812 64.800781 211.632812 C 67.285156 211.632812 69.296875 213.644531 69.296875 216.125 " fill-opacity="1" fill-rule="nonzero"/><path fill="#ffffff" d="M 67.757812 259.878906 L 61.84375 259.878906 L 61.84375 226.21875 L 67.757812 226.21875 L 67.757812 259.878906 " fill-opacity="1" fill-rule="nonzero"/><path fill="#ffffff" d="M 91.371094 216.125 C 91.371094 218.609375 89.359375 220.621094 86.875 220.621094 C 84.394531 220.621094 82.382812 218.609375 82.382812 216.125 C 82.382812 213.644531 84.394531 211.632812 86.875 211.632812 C 89.359375 211.632812 91.371094 213.644531 91.371094 216.125 " fill-opacity="1" fill-rule="nonzero"/><path fill="#ffffff" d="M 89.832031 259.878906 L 83.917969 259.878906 L 83.917969 226.21875 L 89.832031 226.21875 L 89.832031 259.878906 " fill-opacity="1" fill-rule="nonzero"/><path fill="#ffffff" d="M 113.425781 216.125 C 113.425781 218.609375 111.414062 220.621094 108.929688 220.621094 C 106.449219 220.621094 104.4375 218.609375 104.4375 216.125 C 104.4375 213.644531 106.449219 211.632812 108.929688 211.632812 C 111.414062 211.632812 113.425781 213.644531 113.425781 216.125 " fill-opacity="1" fill-rule="nonzero"/><path fill="#ffffff" d="M 111.890625 259.878906 L 105.972656 259.878906 L 105.972656 226.21875 L 111.890625 226.21875 L 111.890625 259.878906 " fill-opacity="1" fill-rule="nonzero"/><path fill="#ffffff" d="M 138.15625 215.359375 C 138.15625 217.839844 136.144531 219.851562 133.660156 219.851562 C 131.175781 219.851562 129.164062 217.839844 129.164062 215.359375 C 129.164062 212.875 131.175781 210.863281 133.660156 210.863281 C 136.144531 210.863281 138.15625 212.875 138.15625 215.359375 " fill-opacity="1" fill-rule="nonzero"/><path fill="#ffffff" d="M 136.617188 259.109375 L 130.703125 259.109375 L 130.703125 225.449219 L 136.617188 225.449219 L 136.617188 259.109375 " fill-opacity="1" fill-rule="nonzero"/><path fill="#ffffff" d="M 67.757812 261.527344 L 61.84375 261.527344 L 61.84375 264.027344 L 67.757812 264.027344 L 67.757812 261.527344 " fill-opacity="1" fill-rule="nonzero"/><path fill="#ffffff" d="M 89.832031 261.527344 L 83.917969 261.527344 L 83.917969 264.027344 L 89.832031 264.027344 L 89.832031 261.527344 " fill-opacity="1" fill-rule="nonzero"/><path fill="#ffffff" d="M 111.890625 261.527344 L 105.972656 261.527344 L 105.972656 264.027344 L 111.890625 264.027344 L 111.890625 261.527344 " fill-opacity="1" fill-rule="nonzero"/><path fill="#ffffff" d="M 136.617188 261.0625 L 130.703125 261.0625 L 130.703125 263.5625 L 136.617188 263.5625 L 136.617188 261.0625 " fill-opacity="1" fill-rule="nonzero"/><path fill="#ce515d" d="M 207.652344 226.664062 C 204.78125 217.765625 201.960938 208.851562 199.277344 199.894531 C 198.589844 197.597656 197.910156 195.296875 197.25 192.992188 C 197.019531 192.195312 196.910156 191.078125 196.5 190.34375 C 195.371094 188.304688 192.386719 186.410156 190.605469 184.796875 C 188.308594 182.71875 185.957031 180.835938 184.316406 178.132812 C 182.460938 175.078125 181.933594 171.992188 182.167969 168.507812 C 182.332031 166.066406 181.425781 163.703125 180.984375 161.246094 C 180.714844 159.746094 180.113281 157.835938 180.21875 156.300781 C 180.507812 152.03125 184.695312 154.921875 185.859375 157.050781 C 187.859375 160.707031 189.359375 164.582031 191.574219 168.144531 C 191.828125 168.554688 192.480469 168.179688 192.226562 167.765625 C 190.011719 164.199219 188.535156 160.308594 186.511719 156.671875 C 185.589844 155.019531 183.136719 152.5 180.988281 153.34375 C 178.78125 154.207031 179.605469 157.449219 179.867188 159.117188 C 180.371094 162.332031 181.757812 165.660156 181.367188 168.84375 C 180.515625 175.777344 185.050781 180.851562 189.855469 185.128906 C 191.6875 186.761719 194.792969 188.765625 195.863281 190.859375 C 196.542969 192.191406 196.765625 194.042969 197.183594 195.472656 C 200.253906 205.988281 203.5625 216.4375 206.925781 226.863281 C 207.074219 227.324219 207.800781 227.128906 207.652344 226.664062 " fill-opacity="1" fill-rule="nonzero"/><path fill="#aa0404" d="M 209.976562 222.246094 C 217.601562 234.125 229.484375 243.855469 241.34375 251.367188 C 241.46875 251.445312 241.699219 251.433594 241.796875 251.304688 C 250.679688 239.976562 259.15625 227.792969 264.28125 214.242188 C 266.40625 208.617188 268.238281 202.277344 267.617188 196.1875 C 267.53125 195.316406 267.425781 194.378906 267.101562 193.558594 C 266.921875 193.113281 266.195312 193.308594 266.375 193.757812 C 268.5625 199.246094 266.007812 207.054688 264.21875 212.199219 C 261.179688 220.953125 256.515625 229.121094 251.414062 236.820312 C 249.699219 239.40625 247.917969 241.945312 246.082031 244.445312 C 245.375 245.410156 241.921875 250.660156 241.492188 250.570312 C 240.851562 250.429688 240.007812 249.589844 239.46875 249.222656 C 238.140625 248.316406 236.828125 247.386719 235.527344 246.4375 C 226.171875 239.597656 216.933594 231.695312 210.625 221.867188 C 210.363281 221.460938 209.710938 221.835938 209.976562 222.246094 " fill-opacity="1" fill-rule="nonzero"/><path fill="#aa0404" d="M 272.46875 171.835938 C 261.640625 175.804688 249.132812 176.925781 237.707031 175.132812 C 237.230469 175.0625 237.027344 175.785156 237.507812 175.863281 C 249.058594 177.671875 261.707031 176.582031 272.667969 172.5625 C 273.117188 172.394531 272.921875 171.667969 272.46875 171.835938 " fill-opacity="1" fill-rule="nonzero"/><path fill="#ce515d" d="M 150.019531 187.84375 C 150.535156 190.878906 150.851562 193.929688 151.300781 196.964844 C 151.859375 200.707031 153.839844 204.234375 156.109375 207.195312 C 158.394531 210.167969 161.148438 212.757812 164.101562 215.054688 C 165.988281 216.523438 168.375 217.609375 170.15625 219.164062 C 171.546875 220.378906 172.484375 222.523438 173.535156 224.078125 C 175.320312 226.71875 177.175781 229.316406 179.109375 231.847656 C 182.195312 235.898438 185.480469 239.800781 189.011719 243.472656 C 193.707031 248.351562 198.863281 252.90625 204.609375 256.523438 C 206.882812 257.957031 209.351562 259.449219 211.945312 260.242188 C 212.410156 260.382812 212.609375 259.65625 212.144531 259.515625 C 204.378906 257.140625 197.304688 250.628906 191.695312 245.113281 C 188.285156 241.761719 185.105469 238.183594 182.105469 234.460938 C 180.226562 232.132812 178.425781 229.738281 176.6875 227.304688 C 174.875 224.761719 173.367188 221.691406 171.335938 219.34375 C 170.410156 218.277344 169.171875 217.714844 167.960938 216.914062 C 164.9375 214.90625 162.082031 212.609375 159.546875 210.003906 C 156.105469 206.464844 152.828125 201.949219 152.054688 196.945312 C 151.578125 193.855469 151.273438 190.738281 150.746094 187.644531 C 150.664062 187.167969 149.9375 187.371094 150.019531 187.84375 " fill-opacity="1" fill-rule="nonzero"/></svg>