<svg width="214" height="214" viewBox="0 0 214 214" fill="none" xmlns="http://www.w3.org/2000/svg">
<g clip-path="url(#clip0_41_584)">
<path d="M165.569 127.339C157.665 139.746 143.797 140.112 131.318 135.939C129.927 135.464 128.574 134.951 127.221 134.403C114.376 128.766 101.971 137.221 90.8833 142.894C89.5658 143.663 88.1748 144.432 86.7861 145.163C76.9421 150.288 65.415 152.887 57.7311 143.59C53.0476 137.916 54.1823 130.377 54.1444 123.567C54.1087 115.99 51.4359 109.403 47.3744 103.108C41.9954 94.7239 34.7863 86.7814 32.8848 76.7167C30.1764 62.2583 35.5554 46.8124 50.7427 42.4188C60.366 39.6368 70.1721 43.1143 79.7241 44.5432C87.5172 45.7135 95.4575 44.1018 102.702 41.3577C104.02 40.845 105.337 40.3323 106.693 39.7839C115.473 36.1593 124.22 31.9149 133.478 30.4504C141.748 29.1686 149.285 31.3643 152.433 39.7839C155.213 47.178 153.238 55.4505 154.481 63.0987C155.177 67.3096 156.786 71.1527 158.69 74.8866C161.983 81.3645 166.191 87.4769 168.095 94.5411C168.643 96.5541 169.118 98.6406 169.484 100.765C170.984 109.842 170.509 119.579 165.569 127.339Z" fill="#E8EBF7"/>
<path d="M59.4875 46.4825H55.5352L56.1571 51.1683L62.158 50.8383L59.4875 46.4825Z" fill="white"/>
<path d="M51.583 60.7938H59.4876V50.3992C59.4876 48.2392 57.731 46.4447 55.5353 46.4447C53.3753 46.4447 51.583 48.2035 51.583 50.3992V60.7938Z" fill="#C7CEFD"/>
<path d="M164.399 64.4898V129.352C164.399 132.17 162.495 134.477 160.19 134.477H51.5827C49.2777 134.477 47.374 132.207 47.374 129.352V64.4898C47.374 61.6721 49.2777 59.4028 51.5827 59.4028H160.19C162.495 59.4028 164.399 61.6721 164.399 64.4898Z" fill="#C7CEFD"/>
<path d="M160.152 134.622H51.5829C49.1687 134.622 47.1914 132.243 47.1914 129.352V64.4898C47.1914 61.5986 49.1687 59.2201 51.5829 59.2201H160.19C162.604 59.2201 164.582 61.5629 164.582 64.4898V129.352C164.544 132.243 162.569 134.622 160.152 134.622ZM51.5829 59.55C49.3515 59.55 47.5213 61.7457 47.5213 64.4542V129.314C47.5213 132.022 49.3515 134.256 51.5829 134.256H160.19C162.421 134.256 164.252 132.022 164.252 129.314V64.4898C164.252 61.7814 162.421 59.5857 160.19 59.5857C160.152 59.55 51.5829 59.55 51.5829 59.55Z" fill="#C7CEFD"/>
<path d="M164.434 64.4541V73.752H47.374V64.4541C47.374 61.6365 49.2777 59.3672 51.6206 59.3672H160.226C162.531 59.3672 164.434 61.6721 164.434 64.4541Z" fill="#2E344D"/>
<path d="M164.582 73.9347H47.1914V64.4541C47.1914 61.5628 49.1687 59.1843 51.5829 59.1843H160.19C162.604 59.1843 164.582 61.5628 164.582 64.4541V73.9347ZM47.557 73.6048H164.287V64.4897C164.287 61.7813 162.459 59.5499 160.226 59.5499H51.6208C49.3871 59.5499 47.557 61.7456 47.557 64.4897V73.6048Z" fill="#2E344D"/>
<path d="M145.48 66.797C145.48 66.9464 145.451 67.0912 145.393 67.2317C145.335 67.3699 145.255 67.4925 145.148 67.5995C145.041 67.7065 144.918 67.7867 144.78 67.8447C144.639 67.9027 144.494 67.9316 144.345 67.9316C144.196 67.9316 144.051 67.9027 143.91 67.8447C143.772 67.7867 143.65 67.7065 143.543 67.5995C143.436 67.4925 143.355 67.3699 143.297 67.2317C143.239 67.0912 143.21 66.9464 143.21 66.797C143.21 66.6454 143.239 66.5005 143.297 66.3623C143.355 66.2241 143.436 66.1015 143.543 65.9945C143.65 65.8875 143.772 65.805 143.91 65.7493C144.051 65.6913 144.196 65.6624 144.345 65.6624C144.494 65.6624 144.639 65.6913 144.78 65.7493C144.918 65.805 145.041 65.8875 145.148 65.9945C145.255 66.1015 145.335 66.2241 145.393 66.3623C145.451 66.5005 145.48 66.6454 145.48 66.797Z" fill="white"/>
<path d="M150.384 66.797C150.384 66.9464 150.355 67.0912 150.297 67.2317C150.239 67.3699 150.157 67.4925 150.05 67.5995C149.945 67.7065 149.822 67.7867 149.682 67.8447C149.544 67.9027 149.399 67.9316 149.249 67.9316C149.098 67.9316 148.953 67.9027 148.815 67.8447C148.676 67.7867 148.554 67.7065 148.447 67.5995C148.34 67.4925 148.257 67.3699 148.202 67.2317C148.144 67.0912 148.115 66.9464 148.115 66.797C148.115 66.6454 148.144 66.5005 148.202 66.3623C148.257 66.2241 148.34 66.1015 148.447 65.9945C148.554 65.8875 148.676 65.805 148.815 65.7493C148.953 65.6913 149.098 65.6624 149.249 65.6624C149.399 65.6624 149.544 65.6913 149.682 65.7493C149.822 65.805 149.945 65.8875 150.05 65.9945C150.157 66.1015 150.239 66.2241 150.297 66.3623C150.355 66.5005 150.384 66.6454 150.384 66.797Z" fill="white"/>
<path d="M155.286 66.797C155.286 66.9464 155.257 67.0912 155.199 67.2317C155.143 67.3699 155.061 67.4925 154.954 67.5995C154.847 67.7065 154.724 67.7867 154.586 67.8447C154.448 67.9027 154.303 67.9316 154.151 67.9316C154.002 67.9316 153.857 67.9027 153.719 67.8447C153.578 67.7867 153.456 67.7065 153.349 67.5995C153.244 67.4925 153.161 67.3699 153.104 67.2317C153.046 67.0912 153.017 66.9464 153.017 66.797C153.017 66.6454 153.046 66.5005 153.104 66.3623C153.161 66.2241 153.244 66.1015 153.349 65.9945C153.456 65.8875 153.578 65.805 153.719 65.7493C153.857 65.6913 154.002 65.6624 154.151 65.6624C154.303 65.6624 154.448 65.6913 154.586 65.7493C154.724 65.805 154.847 65.8875 154.954 65.9945C155.061 66.1015 155.143 66.2241 155.199 66.3623C155.257 66.5005 155.286 66.6454 155.286 66.797Z" fill="white"/>
<path d="M59.4873 46.4825H120.23V123.679H59.4873V46.4825Z" fill="white"/>
<path d="M65.3794 53.8032H85.248V73.6785H65.3794V53.8032Z" fill="#C7CEFD"/>
<path d="M99.7397 102.156H114.45V116.871H99.7397V102.156Z" fill="#C7CEFD"/>
<path d="M88.2124 53.8032H114.412V54.4987H88.2124V53.8032Z" fill="#C7CEFD"/>
<path d="M88.2124 58.4153H114.412V59.1108H88.2124V58.4153Z" fill="#C7CEFD"/>
<path d="M88.2124 63.0275H114.412V63.723H88.2124V63.0275Z" fill="#C7CEFD"/>
<path d="M88.2124 68.2616H114.412V68.9571H88.2124V68.2616Z" fill="#C7CEFD"/>
<path d="M88.2124 73.4578H114.412V74.1533H88.2124V73.4578Z" fill="#C7CEFD"/>
<path d="M65.3794 78.4354H114.412V79.1309H65.3794V78.4354Z" fill="#C7CEFD"/>
<path d="M65.3794 83.0476H114.412V83.7431H65.3794V83.0476Z" fill="#C7CEFD"/>
<path d="M65.3794 87.6598H114.412V88.3553H65.3794V87.6598Z" fill="#C7CEFD"/>
<path d="M65.3794 92.8582H114.412V93.5537H65.3794V92.8582Z" fill="#C7CEFD"/>
<path d="M65.3794 98.0923H114.412V98.7878H65.3794V98.0923Z" fill="#C7CEFD"/>
<path d="M65.3794 101.643H96.0795V102.301H65.3794V101.643Z" fill="#C7CEFD"/>
<path d="M65.3794 106.073H96.0795V106.73H65.3794V106.073Z" fill="#C7CEFD"/>
<path d="M65.3794 111.012H96.0795V111.672H65.3794V111.012Z" fill="#C7CEFD"/>
<path d="M61.3179 118.224H92.018V118.884H61.3179V118.224Z" fill="#E8EBF7"/>
<path d="M133.661 56.8037L135.087 57.6463C135.344 57.7934 135.674 57.7199 135.818 57.4635L138.306 53.4376L135.966 52.0466L133.478 56.0725C133.331 56.3289 133.404 56.6588 133.661 56.8037Z" fill="#2E344D"/>
<path d="M141.309 46.1883L138.563 53.2169C138.563 53.2526 138.527 53.2905 138.527 53.2905C138.38 53.5089 138.123 53.6204 137.869 53.5089C136.148 52.8134 130.366 50.6556 126.817 50.2878C123.195 49.9222 118.694 50.7269 115.29 52.0823L113.46 52.4478L118.402 39.7461L122.281 29.8285L124.037 30.7068C125.5 34.0372 128.17 37.771 130.988 40.0403C133.77 42.2717 139.332 44.726 141.015 45.4572C141.309 45.6043 141.418 45.932 141.309 46.1883Z" fill="#EEBA38"/>
<path d="M138.527 53.3261C138.38 53.5468 138.123 53.656 137.869 53.5468C136.148 52.8513 130.366 50.6912 126.817 50.3257C123.195 49.9601 118.694 50.7648 115.29 52.1179L113.46 52.4857L118.402 39.7839C120.377 39.8196 121.951 39.8575 121.951 39.8575C121.951 39.8575 125.538 49.0818 138.527 53.3261Z" fill="#DF5849" fill-opacity="0.4"/>
<path d="M113.864 52.4478C113.716 52.4478 113.607 52.4122 113.498 52.3743C112.473 51.973 112.071 50.3992 112.328 47.8357C112.546 45.4215 113.351 42.4188 114.523 39.3805C115.656 36.4892 117.011 33.8543 118.402 31.9506C119.425 30.5596 120.89 28.9123 122.169 29.0215C122.317 29.0215 122.426 29.0594 122.535 29.0951C124.548 29.8998 123.852 35.1361 122.281 39.9311C122.06 40.6266 121.804 41.3577 121.512 42.0889C121.182 42.9315 120.816 43.7741 120.451 44.5789C118.73 48.3484 115.95 52.6685 113.864 52.4478Z" fill="#2E344D"/>
<path d="M122.169 29.3894C122.243 29.3894 122.352 29.425 122.426 29.4607C123.964 30.047 123.708 34.512 121.951 39.8575C121.73 40.553 121.474 41.2485 121.182 41.9797C120.852 42.8223 120.486 43.6627 120.121 44.4697C117.963 49.1175 115.437 52.2651 113.899 52.1179C113.828 52.1179 113.716 52.0823 113.645 52.0466C111.888 51.3511 112.473 45.7492 114.889 39.5276C117.194 33.5601 120.377 29.2043 122.169 29.3894ZM122.243 28.656C121.073 28.5467 119.682 29.5721 118.146 31.73C116.755 33.6716 115.364 36.3421 114.229 39.2356C113.021 42.3096 112.254 45.348 111.998 47.7621C111.706 50.5441 112.18 52.2294 113.389 52.6685C113.534 52.7421 113.681 52.7778 113.864 52.7778C114.889 52.887 116.059 52.1179 117.377 50.4728C118.547 49.0439 119.717 47.031 120.816 44.6881C121.182 43.8834 121.547 43.0051 121.877 42.1625C122.169 41.4313 122.426 40.6979 122.646 40.0024C123.525 37.3319 124.073 34.8062 124.147 32.829C124.256 30.524 123.781 29.133 122.682 28.6939C122.573 28.6939 122.39 28.656 122.243 28.656Z" fill="#DF5849"/>
<path d="M118.511 38.9792L116.717 43.5914L119.974 44.8709C120.341 44.0662 120.707 43.2615 121.035 42.3832C121.329 41.6498 121.585 40.9543 121.804 40.2588L118.511 38.9792Z" fill="#DF5849"/>
<path d="M118.52 38.9637C118.652 39.0149 118.754 39.1242 118.83 39.2891C118.906 39.4541 118.946 39.6614 118.955 39.9155C118.962 40.1696 118.937 40.4483 118.877 40.7515C118.815 41.0546 118.725 41.36 118.605 41.6676C118.487 41.9753 118.346 42.2628 118.184 42.5259C118.023 42.7911 117.854 43.0141 117.678 43.1946C117.499 43.3774 117.328 43.5022 117.161 43.5736C116.993 43.6449 116.844 43.6538 116.715 43.6026C116.583 43.5513 116.478 43.4443 116.405 43.2793C116.329 43.1144 116.287 42.9048 116.28 42.6507C116.271 42.3966 116.298 42.1179 116.358 41.8148C116.418 41.5116 116.507 41.2062 116.628 40.8986C116.748 40.591 116.889 40.3034 117.049 40.0404C117.21 39.7751 117.379 39.5522 117.557 39.3716C117.733 39.1888 117.905 39.064 118.072 38.9926C118.239 38.9235 118.389 38.9124 118.52 38.9637Z" fill="#EEBA38"/>
<path d="M141.38 46.0791L138.527 53.364L139.809 53.8388C141.454 54.4987 143.284 53.9124 144.345 52.5571C144.566 52.265 144.748 51.9351 144.893 51.6074C145.297 50.582 145.223 49.5209 144.82 48.6047C144.419 47.6908 143.687 46.9217 142.662 46.5182L141.38 46.0791Z" fill="#2E344D"/>
<path d="M110.094 39.6012L103.692 43.8834L102.41 40.6623L110.094 39.6012Z" fill="#C7CEFD"/>
<mask id="mask0_41_584" style="mask-type:luminance" maskUnits="userSpaceOnUse" x="105" y="26" width="8" height="8">
<path d="M105.573 26.3466H112.992V33.6694H105.573V26.3466Z" fill="white"/>
</mask>
<g mask="url(#mask0_41_584)">
<path d="M112.95 33.5245L105.631 28.2548L109.033 26.3511L112.95 33.5245Z" fill="#C7CEFD"/>
</g>
<path d="M111.45 36.8927L101.202 36.1236L102.192 32.7932L111.45 36.8927Z" fill="#C7CEFD"/>
<mask id="mask1_41_584" style="mask-type:luminance" maskUnits="userSpaceOnUse" x="-22" y="-22" width="258" height="258">
<path d="M235.4 -21.4H-21.3999V235.4H235.4V-21.4Z" fill="black" fill-opacity="0.9"/>
</mask>
<g mask="url(#mask1_41_584)">
<mask id="mask2_41_584" style="mask-type:luminance" maskUnits="userSpaceOnUse" x="36" y="103" width="43" height="41">
<path d="M78.1816 103.861H36.5229V143.808H78.1816V103.861Z" fill="white"/>
</mask>
<g mask="url(#mask2_41_584)">
<mask id="mask3_41_584" style="mask-type:luminance" maskUnits="userSpaceOnUse" x="37" y="104" width="42" height="40">
<path d="M37.0938 104.432H78.0681V143.237H37.0938V104.432Z" fill="white"/>
</mask>
<g mask="url(#mask3_41_584)">
<path d="M75.9548 143.115H39.3987C38.2641 143.115 37.3501 142.198 37.3501 141.064V106.512C37.3501 105.377 38.2641 104.461 39.3987 104.461H75.9548C77.0895 104.461 78.0034 105.377 78.0034 106.512V141.064C78.0034 142.198 77.0895 143.115 75.9548 143.115Z" fill="#EEBA38"/>
</g>
<path d="M42.9854 109.695H61.2801V111.013H42.9854V109.695Z" fill="white"/>
<path d="M63.4023 109.695H72.4037V111.013H63.4023V109.695Z" fill="white"/>
<path d="M42.9854 114.198H54.5101V115.515H42.9854V114.198Z" fill="white"/>
<path d="M56.5229 114.198H72.3679V115.515H56.5229V114.198Z" fill="white"/>
<mask id="mask4_41_584" style="mask-type:luminance" maskUnits="userSpaceOnUse" x="-48" y="-48" width="310" height="310">
<path d="M261.08 -47.08H-47.0796V261.08H261.08V-47.08Z" fill="black" fill-opacity="0.7"/>
</mask>
<g mask="url(#mask4_41_584)">
<mask id="mask5_41_584" style="mask-type:luminance" maskUnits="userSpaceOnUse" x="42" y="118" width="32" height="3">
<path d="M73.0456 118.128H42.8003V120.411H73.0456V118.128Z" fill="white"/>
</mask>
<g mask="url(#mask5_41_584)">
<mask id="mask6_41_584" style="mask-type:luminance" maskUnits="userSpaceOnUse" x="42" y="118" width="5" height="3">
<path d="M42.8696 118.471H46.7952V120.388H42.8696V118.471Z" fill="white"/>
</mask>
<g mask="url(#mask6_41_584)">
<path d="M42.9854 118.663H46.2778V119.98H42.9854V118.663Z" fill="white"/>
</g>
<mask id="mask7_41_584" style="mask-type:luminance" maskUnits="userSpaceOnUse" x="47" y="118" width="26" height="3">
<path d="M47.9365 118.699H72.4752V120.388H47.9365V118.699Z" fill="white"/>
</mask>
<g mask="url(#mask7_41_584)">
<path d="M48.144 118.737H72.2592V120.054H48.144V118.737Z" fill="white"/>
</g>
</g>
</g>
<path d="M55.2056 132.647H59.1579V137.881H55.2056V132.647Z" fill="#2E344D"/>
<path d="M61.2803 130.377H65.2326V137.881H61.2803V130.377Z" fill="#DF5849"/>
<path d="M43.1304 132.647H47.0827V137.881H43.1304V132.647Z" fill="#2E344D"/>
<path d="M49.1689 130.377H53.1213V137.881H49.1689V130.377Z" fill="#DF5849"/>
<path d="M67.3188 125.765H71.2712V137.881H67.3188V125.765Z" fill="#2E344D"/>
</g>
</g>
<path d="M183.719 80.1943V94.5412H168.534V75.6178H179.145L183.719 80.1943Z" fill="#536EC1"/>
<path d="M179.145 80.1943H183.719L179.145 75.6178V80.1943Z" fill="#C7CEFD"/>
<path d="M170.828 89.5613L170.85 82.5327L181.427 82.5706L181.403 89.5969L170.828 89.5613Z" fill="white"/>
<path d="M171.269 89.1266L171.289 82.9785L180.986 83.0097L180.966 89.16L171.269 89.1266Z" fill="white"/>
<path d="M171.973 87.2941L172.705 86.563C173.179 86.0859 173.948 86.0859 174.388 86.563L174.936 87.1113C174.974 87.147 175.01 87.147 175.045 87.1113L177.023 85.1341C177.352 84.8064 177.863 84.8064 178.193 85.1341L180.279 87.2585L180.315 87.2941V88.538C180.315 88.5759 180.279 88.6116 180.241 88.6116L172.009 88.5759C171.973 88.5759 171.936 88.538 171.936 88.5023V87.332C171.936 87.332 171.973 87.332 171.973 87.2941Z" fill="#EEBA38"/>
<path d="M174.058 85.3169C174.058 85.4595 174.009 85.5799 173.909 85.6802C173.808 85.7805 173.688 85.8296 173.545 85.8296C173.405 85.8296 173.284 85.7805 173.184 85.6802C173.084 85.5799 173.035 85.4595 173.035 85.3169C173.035 85.1764 173.084 85.0561 173.184 84.9558C173.284 84.8554 173.405 84.8064 173.545 84.8064C173.688 84.8064 173.808 84.8554 173.909 84.9558C174.009 85.0561 174.058 85.1764 174.058 85.3169Z" fill="#EEBA38"/>
<path d="M81.8461 34.8419C81.8461 35.2766 81.8037 35.709 81.719 36.1348C81.6321 36.5606 81.5072 36.9752 81.3401 37.3787C81.1751 37.7799 80.97 38.1611 80.7293 38.5222C80.4863 38.8856 80.2121 39.22 79.9045 39.5276C79.5969 39.8352 79.2625 40.1094 78.9014 40.3502C78.5402 40.5931 78.159 40.796 77.7556 40.9632C77.3543 41.1304 76.9397 41.2552 76.5139 41.3399C76.0881 41.4246 75.6579 41.467 75.221 41.467C74.7863 41.467 74.3561 41.4246 73.9303 41.3399C73.5023 41.2552 73.0899 41.1304 72.6864 40.9632C72.2852 40.796 71.904 40.5931 71.5429 40.3502C71.1817 40.1094 70.8451 39.8352 70.5397 39.5276C70.2321 39.22 69.9557 38.8856 69.715 38.5222C69.4742 38.1611 69.2691 37.7799 69.1019 37.3787C68.937 36.9752 68.8099 36.5606 68.7252 36.1348C68.6405 35.709 68.5981 35.2766 68.5981 34.8419C68.5981 34.4072 68.6405 33.977 68.7252 33.549C68.8099 33.1232 68.937 32.7086 69.1019 32.3073C69.2691 31.9061 69.4742 31.5227 69.715 31.1615C69.9557 30.8004 70.2321 30.466 70.5397 30.1584C70.8451 29.8508 71.1817 29.5744 71.5429 29.3336C71.904 29.0929 72.2852 28.8878 72.6864 28.7206C73.0899 28.5556 73.5023 28.4286 73.9303 28.3439C74.3561 28.2592 74.7863 28.2168 75.221 28.2168C75.6579 28.2168 76.0881 28.2592 76.5139 28.3439C76.9397 28.4286 77.3543 28.5556 77.7556 28.7206C78.159 28.8878 78.5402 29.0929 78.9014 29.3336C79.2625 29.5744 79.5969 29.8508 79.9045 30.1584C80.2121 30.466 80.4863 30.8004 80.7293 31.1615C80.97 31.5227 81.1751 31.9061 81.3401 32.3073C81.5072 32.7086 81.6321 33.1232 81.719 33.549C81.8037 33.977 81.8461 34.4072 81.8461 34.8419Z" fill="#DF5849"/>
<path d="M78.0767 34.8419L73.4668 32.1714V37.5147L78.0767 34.8419Z" fill="white"/>
<mask id="mask8_41_584" style="mask-type:luminance" maskUnits="userSpaceOnUse" x="106" y="156" width="78" height="15">
<path d="M106.715 156.363H183.828V170.059H106.715V156.363Z" fill="white"/>
</mask>
<g mask="url(#mask8_41_584)">
<path d="M183.829 163.356C183.829 163.57 183.768 163.784 183.644 163.998C183.521 164.212 183.338 164.423 183.093 164.633C182.848 164.845 182.542 165.052 182.177 165.257C181.813 165.462 181.39 165.665 180.911 165.863C180.429 166.062 179.892 166.256 179.301 166.445C178.708 166.632 178.064 166.817 177.366 166.996C176.668 167.174 175.922 167.346 175.124 167.513C174.328 167.678 173.485 167.836 172.596 167.988C171.709 168.139 170.779 168.284 169.809 168.42C168.837 168.556 167.83 168.683 166.787 168.804C165.741 168.922 164.664 169.033 163.557 169.134C162.451 169.236 161.316 169.328 160.155 169.408C158.996 169.49 157.814 169.564 156.613 169.626C155.411 169.689 154.194 169.74 152.961 169.782C151.729 169.825 150.489 169.856 149.239 169.876C147.988 169.898 146.735 169.907 145.48 169.907C144.223 169.907 142.97 169.898 141.722 169.876C140.471 169.856 139.23 169.825 137.999 169.782C136.766 169.74 135.549 169.689 134.348 169.626C133.146 169.564 131.965 169.49 130.803 169.408C129.644 169.328 128.51 169.236 127.402 169.134C126.294 169.033 125.219 168.922 124.174 168.804C123.131 168.683 122.123 168.556 121.151 168.42C120.181 168.284 119.252 168.139 118.362 167.988C117.475 167.836 116.633 167.678 115.837 167.513C115.039 167.346 114.292 167.174 113.594 166.996C112.896 166.817 112.252 166.632 111.659 166.445C111.066 166.256 110.531 166.062 110.05 165.863C109.571 165.665 109.147 165.462 108.781 165.257C108.418 165.052 108.113 164.845 107.867 164.633C107.622 164.423 107.439 164.212 107.315 163.998C107.192 163.784 107.132 163.57 107.132 163.356C107.132 163.142 107.192 162.928 107.315 162.714C107.439 162.5 107.622 162.288 107.867 162.078C108.113 161.867 108.418 161.659 108.781 161.454C109.147 161.249 109.571 161.046 110.05 160.848C110.531 160.649 111.066 160.455 111.659 160.266C112.252 160.079 112.896 159.894 113.594 159.715C114.292 159.537 115.039 159.365 115.837 159.198C116.633 159.033 117.475 158.875 118.362 158.723C119.252 158.572 120.181 158.427 121.151 158.291C122.123 158.155 123.131 158.028 124.174 157.908C125.219 157.789 126.294 157.678 127.402 157.578C128.51 157.477 129.644 157.384 130.803 157.303C131.965 157.221 133.146 157.147 134.348 157.085C135.549 157.023 136.766 156.971 137.999 156.929C139.23 156.889 140.471 156.855 141.722 156.835C142.97 156.815 144.223 156.804 145.48 156.804C146.735 156.804 147.988 156.815 149.239 156.835C150.489 156.855 151.729 156.889 152.961 156.929C154.194 156.971 155.411 157.023 156.613 157.085C157.814 157.147 158.996 157.221 160.155 157.303C161.316 157.384 162.451 157.477 163.557 157.578C164.664 157.678 165.741 157.789 166.787 157.908C167.83 158.028 168.837 158.155 169.809 158.291C170.779 158.427 171.709 158.572 172.596 158.723C173.485 158.875 174.328 159.033 175.124 159.198C175.922 159.365 176.668 159.537 177.366 159.715C178.064 159.894 178.708 160.079 179.301 160.266C179.892 160.455 180.429 160.649 180.911 160.848C181.39 161.046 181.813 161.249 182.177 161.454C182.542 161.659 182.848 161.867 183.093 162.078C183.338 162.288 183.521 162.5 183.644 162.714C183.768 162.928 183.829 163.142 183.829 163.356Z" fill="#E8EBF7"/>
</g>
<path d="M130.952 119.468C130.952 119.468 127.843 132.718 127.586 133.926C127.109 136.086 125.317 141.028 125.317 141.028C125.317 141.028 132.818 145.237 134.94 143.919C136.552 142.932 136.44 137.33 136.588 135.244C136.735 133.269 142.296 114.198 142.296 114.198L130.952 119.468Z" fill="#EFC0C1"/>
<path d="M142.736 104.938C142.736 104.938 135.6 101.643 132.417 111.195C129.818 118.993 128.135 127.74 128.135 127.74L140.431 131.4L142.736 104.938Z" fill="#DF5849"/>
<path d="M137.027 110.868C137.027 110.794 143.906 115.845 147.419 113.977C151.372 111.855 151.699 102.961 151.699 102.961L149.506 94.5055L149.468 94.3584L149.359 93.8457L148.59 94.2848L145.516 96.0793L144.272 96.8105L141.124 98.6406C141.124 98.6406 141.454 100.874 141.38 102.74C141.38 102.923 141.38 103.144 141.345 103.291C141.309 103.618 141.198 103.913 141.088 104.169C140.832 104.791 140.431 105.23 140.431 105.266C139.918 107.207 137.063 110.868 137.027 110.868Z" fill="#EFC0C1"/>
<path d="M141.088 104.169C148.663 104.717 149.541 95.6402 149.506 94.4677L149.468 94.3228L149.359 93.8101L148.59 94.2492C147.785 95.0183 146.614 95.9701 145.516 96.0437L144.272 96.7748L141.124 98.605C141.124 98.605 141.454 100.839 141.38 102.704C141.38 102.887 141.38 103.108 141.345 103.253C141.271 103.618 141.198 103.913 141.088 104.169Z" fill="#E0ADB0"/>
<path d="M136.075 94.2135C137.319 98.4957 139.332 102.778 143.503 101.862C146.432 101.24 149.029 96.9933 149.432 93.1881C149.651 91.2465 149.871 89.5278 149.76 88.246C149.689 87.2206 149.615 86.5987 149.615 86.5987L148.772 84.4386L148.26 83.1947C148.26 83.1947 147.272 82.4992 146.175 81.6945C144.784 80.6691 142.845 82.39 142.809 82.3164C142.736 82.2072 136.771 81.7302 135.052 84.1822C134.905 84.4029 134.758 84.6214 134.722 84.8777C134.648 85.0628 134.648 85.2456 134.648 85.464C134.684 85.8296 134.722 86.3802 134.796 87.0757C134.831 87.3677 134.867 87.6597 134.905 88.0276C134.978 88.5759 135.052 89.1979 135.161 89.8577C135.344 91.2108 135.636 92.711 136.075 94.2135Z" fill="#EFC0C1"/>
<path d="M149.981 88.2103C149.981 88.2103 151.884 77.9606 143.688 78.6561C143.688 78.6561 137.283 76.2397 133.405 79.7551C129.965 82.9027 131.866 86.7079 134.648 87.3677C136.479 87.8069 144.381 84.7685 145.698 85.4283C147.016 86.0859 149.432 93.7008 149.432 93.7008C149.432 93.7008 149.394 90.2233 149.981 88.2103Z" fill="#2E344D"/>
<path d="M145.161 78.7676C145.19 78.9927 145.199 79.2157 145.188 79.4408C145.175 79.6659 145.141 79.8889 145.085 80.1073C145.032 80.3235 144.958 80.5331 144.863 80.7359C144.769 80.9388 144.657 81.1283 144.526 81.3066C144.397 81.4849 144.249 81.6499 144.089 81.797C143.926 81.9464 143.752 82.0757 143.567 82.1871C143.38 82.3008 143.184 82.3922 142.979 82.4635C142.776 82.5349 142.566 82.5862 142.352 82.6151C142.138 82.6441 141.922 82.6486 141.706 82.633C141.49 82.6174 141.278 82.5817 141.068 82.5215C140.859 82.4635 140.656 82.3833 140.462 82.283C140.266 82.1804 140.083 82.0623 139.909 81.9241C139.738 81.7859 139.579 81.6321 139.434 81.4604C139.292 81.291 139.165 81.1082 139.056 80.912C138.944 80.7159 138.855 80.5108 138.784 80.2968C138.712 80.0828 138.661 79.8643 138.632 79.6392C138.603 79.4163 138.594 79.1911 138.605 78.966C138.619 78.7408 138.652 78.5202 138.706 78.3017C138.761 78.0832 138.835 77.8737 138.928 77.6708C139.024 77.4702 139.136 77.2785 139.267 77.1002C139.397 76.9218 139.544 76.7591 139.704 76.6098C139.867 76.4626 140.041 76.3333 140.226 76.2197C140.413 76.1082 140.609 76.0168 140.812 75.9432C141.017 75.8719 141.227 75.8229 141.441 75.7939C141.655 75.7649 141.871 75.7582 142.087 75.7738C142.303 75.7894 142.515 75.8273 142.725 75.8853C142.934 75.9455 143.137 76.0257 143.331 76.126C143.527 76.2263 143.71 76.3467 143.882 76.4849C144.056 76.6231 144.214 76.7769 144.359 76.9464C144.501 77.118 144.628 77.3008 144.738 77.497C144.847 77.6909 144.938 77.896 145.01 78.11C145.081 78.324 145.13 78.5447 145.161 78.7676Z" fill="#2E344D"/>
<path d="M141.273 80.2478C141.311 80.5398 141.324 80.8296 141.307 81.1216C141.291 81.4159 141.246 81.7034 141.177 81.9843C141.106 82.2674 141.008 82.5394 140.888 82.8024C140.765 83.0655 140.618 83.3129 140.448 83.5447C140.279 83.7766 140.09 83.9883 139.878 84.18C139.668 84.3717 139.443 84.5412 139.2 84.6883C138.957 84.8332 138.703 84.9513 138.438 85.045C138.172 85.1386 137.898 85.2032 137.622 85.2411C137.341 85.279 137.062 85.2879 136.781 85.2679C136.501 85.2456 136.224 85.1988 135.952 85.1207C135.68 85.045 135.417 84.9402 135.163 84.8109C134.911 84.6794 134.67 84.5256 134.448 84.345C134.222 84.1667 134.017 83.966 133.83 83.7453C133.643 83.5247 133.478 83.2861 133.335 83.032C133.192 82.7779 133.074 82.5126 132.983 82.234C132.892 81.9576 132.825 81.6722 132.787 81.3824C132.747 81.0904 132.736 80.8006 132.753 80.5086C132.769 80.2143 132.811 79.9268 132.883 79.6459C132.954 79.3628 133.05 79.0886 133.172 78.8278C133.295 78.5648 133.442 78.3173 133.612 78.0855C133.781 77.8537 133.97 77.6419 134.18 77.4502C134.392 77.2562 134.617 77.0891 134.86 76.9419C135.103 76.797 135.357 76.6767 135.622 76.5853C135.888 76.4916 136.16 76.427 136.438 76.3891C136.717 76.3512 136.998 76.3423 137.279 76.3623C137.559 76.3824 137.836 76.4315 138.108 76.5095C138.38 76.5853 138.643 76.69 138.897 76.8193C139.149 76.9508 139.387 77.1047 139.612 77.2852C139.838 77.4636 140.043 77.6642 140.23 77.8849C140.417 78.1056 140.582 78.3441 140.725 78.5982C140.868 78.8523 140.983 79.1176 141.077 79.3962C141.168 79.6727 141.235 79.958 141.273 80.2478Z" fill="#2E344D"/>
<path d="M135.975 83.3107C136.004 83.5336 136.013 83.7587 136.001 83.9839C135.988 84.209 135.955 84.4297 135.901 84.6482C135.845 84.8666 135.772 85.0762 135.678 85.279C135.582 85.4797 135.471 85.6714 135.339 85.8497C135.21 86.028 135.063 86.1908 134.902 86.3401C134.74 86.4872 134.566 86.6188 134.381 86.7302C134.194 86.8417 133.997 86.9353 133.795 87.0066C133.589 87.078 133.38 87.127 133.166 87.156C132.952 87.185 132.736 87.1917 132.519 87.1761C132.303 87.1604 132.091 87.1226 131.882 87.0646C131.672 87.0044 131.47 86.9242 131.276 86.8238C131.079 86.7235 130.897 86.6054 130.725 86.4672C130.551 86.329 130.393 86.1729 130.248 86.0035C130.105 85.8341 129.978 85.6513 129.869 85.4551C129.76 85.259 129.668 85.0539 129.597 84.8399C129.526 84.6259 129.477 84.4074 129.445 84.1823C129.416 83.9594 129.408 83.7342 129.419 83.5091C129.432 83.2839 129.466 83.061 129.519 82.8448C129.575 82.6263 129.648 82.4168 129.744 82.2139C129.838 82.0111 129.949 81.8216 130.081 81.6433C130.21 81.4649 130.357 81.3022 130.518 81.1528C130.68 81.0057 130.854 80.8742 131.039 80.7627C131.227 80.6513 131.423 80.5577 131.628 80.4863C131.831 80.415 132.04 80.3637 132.254 80.337C132.468 80.308 132.684 80.3013 132.901 80.3169C133.117 80.3325 133.329 80.3704 133.538 80.4284C133.748 80.4886 133.951 80.5688 134.145 80.6691C134.341 80.7694 134.523 80.8876 134.697 81.0258C134.869 81.164 135.027 81.3178 135.172 81.4894C135.315 81.6589 135.442 81.8417 135.551 82.0378C135.663 82.234 135.752 82.4391 135.823 82.6531C135.894 82.8671 135.946 83.0855 135.975 83.3107Z" fill="#2E344D"/>
<path d="M146.376 84.4163C146.398 84.5791 146.405 84.7418 146.396 84.9045C146.387 85.0673 146.363 85.2278 146.322 85.386C146.285 85.5421 146.231 85.6937 146.162 85.8408C146.095 85.9879 146.013 86.1239 145.919 86.2532C145.825 86.3825 145.721 86.5006 145.602 86.6076C145.487 86.7146 145.359 86.8105 145.226 86.8907C145.092 86.971 144.949 87.0378 144.802 87.0913C144.655 87.1426 144.503 87.1783 144.35 87.1983C144.194 87.2206 144.038 87.2251 143.882 87.2139C143.726 87.2028 143.572 87.1738 143.422 87.1315C143.271 87.0891 143.124 87.0312 142.983 86.9576C142.843 86.8863 142.709 86.7993 142.584 86.699C142.459 86.5987 142.346 86.4872 142.241 86.3646C142.138 86.242 142.047 86.1083 141.967 85.9678C141.889 85.8252 141.822 85.678 141.771 85.522C141.719 85.3682 141.684 85.2099 141.661 85.0472C141.639 84.8845 141.635 84.7217 141.643 84.559C141.652 84.3963 141.675 84.2358 141.715 84.0797C141.755 83.9215 141.808 83.7699 141.875 83.6228C141.944 83.4779 142.025 83.3397 142.118 83.2104C142.214 83.0811 142.319 82.9629 142.435 82.8559C142.553 82.7489 142.678 82.6553 142.814 82.5728C142.948 82.4926 143.088 82.4257 143.237 82.3744C143.384 82.3209 143.536 82.2853 143.69 82.2652C143.844 82.2451 144 82.2407 144.156 82.2518C144.312 82.263 144.466 82.2897 144.617 82.3321C144.769 82.3744 144.914 82.4324 145.054 82.5059C145.197 82.5795 145.328 82.6642 145.453 82.7645C145.578 82.8648 145.692 82.9763 145.796 83.0989C145.901 83.2237 145.993 83.3553 146.071 83.4979C146.151 83.6384 146.215 83.7877 146.267 83.9415C146.318 84.0976 146.356 84.2558 146.376 84.4163Z" fill="#2E344D"/>
<path d="M149.45 80.0271C149.47 80.1898 149.477 80.3526 149.468 80.5153C149.459 80.678 149.434 80.8385 149.396 80.9946C149.356 81.1528 149.303 81.3044 149.236 81.4516C149.167 81.5964 149.087 81.7347 148.991 81.8639C148.897 81.9932 148.792 82.1114 148.676 82.2184C148.558 82.3254 148.433 82.419 148.298 82.5015C148.164 82.5817 148.023 82.6486 147.874 82.6999C147.727 82.7534 147.575 82.7891 147.421 82.8091C147.265 82.8292 147.112 82.8336 146.956 82.8225C146.8 82.8113 146.646 82.7846 146.494 82.7422C146.343 82.6999 146.198 82.6419 146.055 82.5684C145.915 82.4948 145.783 82.4101 145.658 82.3098C145.533 82.2095 145.417 82.098 145.315 81.9754C145.21 81.8506 145.119 81.7191 145.041 81.5764C144.96 81.4359 144.896 81.2866 144.845 81.1328C144.793 80.9767 144.755 80.8185 144.735 80.658C144.713 80.4952 144.706 80.3325 144.715 80.1698C144.724 80.0071 144.749 79.8466 144.787 79.6883C144.827 79.5322 144.88 79.3807 144.949 79.2335C145.016 79.0864 145.099 78.9504 145.192 78.8211C145.286 78.6918 145.391 78.5737 145.509 78.4667C145.625 78.3597 145.75 78.2638 145.886 78.1836C146.019 78.1033 146.162 78.0365 146.309 77.983C146.456 77.9317 146.608 77.896 146.762 77.876C146.918 77.8537 147.074 77.8492 147.23 77.8604C147.386 77.8715 147.537 77.9005 147.689 77.9428C147.841 77.9852 147.988 78.0432 148.128 78.1167C148.269 78.1881 148.4 78.275 148.525 78.3753C148.65 78.4756 148.766 78.5871 148.868 78.7097C148.973 78.8323 149.064 78.966 149.145 79.1065C149.223 79.2491 149.287 79.3963 149.341 79.5523C149.392 79.7061 149.428 79.8644 149.45 80.0271Z" fill="#2E344D"/>
<path d="M150.841 82.9918C150.863 83.1546 150.87 83.3173 150.861 83.48C150.852 83.6428 150.828 83.8033 150.788 83.9593C150.75 84.1176 150.696 84.2691 150.627 84.4163C150.558 84.5612 150.478 84.6994 150.384 84.8287C150.291 84.958 150.184 85.0761 150.068 85.1831C149.952 85.2901 149.825 85.3837 149.691 85.4662C149.555 85.5465 149.414 85.6133 149.267 85.6646C149.12 85.7181 148.969 85.7538 148.813 85.7738C148.659 85.7939 148.503 85.7984 148.347 85.7872C148.191 85.7761 148.037 85.7493 147.885 85.707C147.734 85.6646 147.589 85.6066 147.448 85.5331C147.308 85.4595 147.174 85.3748 147.049 85.2745C146.924 85.1742 146.811 85.0627 146.706 84.9401C146.603 84.8153 146.512 84.6838 146.432 84.5411C146.352 84.4007 146.287 84.2513 146.236 84.0975C146.184 83.9415 146.149 83.7832 146.126 83.6227C146.104 83.46 146.097 83.2972 146.106 83.1345C146.115 82.9718 146.14 82.8113 146.18 82.653C146.22 82.497 146.274 82.3454 146.34 82.1983C146.41 82.0511 146.49 81.9151 146.583 81.7859C146.677 81.6566 146.784 81.5384 146.9 81.4314C147.016 81.3244 147.143 81.2286 147.277 81.1483C147.413 81.0681 147.553 81.0012 147.7 80.9477C147.85 80.8964 147.999 80.8608 148.155 80.8407C148.309 80.8184 148.465 80.8139 148.621 80.8251C148.777 80.8362 148.931 80.8652 149.082 80.9076C149.234 80.9499 149.379 81.0079 149.519 81.0814C149.66 81.1528 149.793 81.2397 149.918 81.34C150.043 81.4403 150.157 81.5518 150.262 81.6744C150.364 81.797 150.458 81.9308 150.536 82.0712C150.616 82.2139 150.681 82.361 150.732 82.517C150.783 82.6708 150.819 82.8291 150.841 82.9918Z" fill="#2E344D"/>
<path d="M150.661 85.8563C150.698 86.1372 150.685 86.4114 150.618 86.6834C150.551 86.9531 150.438 87.2005 150.275 87.4234C150.114 87.6464 149.92 87.8269 149.689 87.9651C149.459 88.1056 149.212 88.1925 148.949 88.2282C148.683 88.2638 148.422 88.2438 148.164 88.1702C147.905 88.0944 147.669 87.9718 147.455 87.8002C147.241 87.6285 147.067 87.419 146.931 87.176C146.795 86.9308 146.708 86.67 146.673 86.3891C146.635 86.1105 146.65 85.8363 146.717 85.5643C146.784 85.2924 146.898 85.0472 147.058 84.8242C147.219 84.6013 147.413 84.4208 147.644 84.2803C147.874 84.1421 148.122 84.0552 148.387 84.0195C148.65 83.9838 148.913 84.0039 149.171 84.0775C149.43 84.151 149.664 84.2759 149.878 84.4475C150.092 84.6192 150.266 84.8287 150.402 85.0717C150.538 85.3169 150.625 85.5777 150.661 85.8563Z" fill="#2E344D"/>
<path d="M141.837 85.921C141.859 86.0815 141.866 86.2442 141.857 86.407C141.848 86.5697 141.824 86.7302 141.784 86.8885C141.744 87.0467 141.69 87.1983 141.623 87.3432C141.554 87.4903 141.474 87.6286 141.38 87.7556C141.287 87.8849 141.18 88.0031 141.064 88.1123C140.948 88.2193 140.821 88.3129 140.687 88.3932C140.551 88.4756 140.411 88.5403 140.263 88.5938C140.114 88.6451 139.965 88.6807 139.809 88.703C139.655 88.7231 139.499 88.7275 139.343 88.7164C139.187 88.7052 139.033 88.6785 138.881 88.6339C138.73 88.5916 138.585 88.5336 138.444 88.4623C138.304 88.3887 138.17 88.3018 138.045 88.2014C137.921 88.1011 137.807 87.9897 137.702 87.8671C137.6 87.7445 137.506 87.6107 137.428 87.4703C137.348 87.3276 137.283 87.1805 137.232 87.0244C137.18 86.8706 137.145 86.7124 137.123 86.5496C137.1 86.3869 137.094 86.2264 137.102 86.0614C137.111 85.8987 137.136 85.7404 137.176 85.5822C137.214 85.4239 137.267 85.2723 137.337 85.1252C137.403 84.9803 137.486 84.8421 137.579 84.7128C137.673 84.5835 137.78 84.4654 137.896 84.3584C138.012 84.2514 138.139 84.1577 138.273 84.0753C138.409 83.995 138.549 83.9281 138.696 83.8769C138.843 83.8256 138.995 83.7877 139.151 83.7676C139.305 83.7476 139.461 83.7431 139.617 83.7543C139.773 83.7654 139.927 83.7922 140.078 83.8345C140.23 83.8769 140.375 83.9348 140.515 84.0084C140.656 84.0819 140.789 84.1689 140.914 84.267C141.039 84.3673 141.153 84.4787 141.258 84.6013C141.36 84.7262 141.452 84.8577 141.532 85.0004C141.612 85.1408 141.677 85.2902 141.728 85.444C141.779 85.6 141.815 85.7583 141.837 85.921Z" fill="#2E344D"/>
<path d="M146.777 77.7935C146.8 77.9563 146.806 78.119 146.797 78.2817C146.788 78.4445 146.764 78.605 146.724 78.7632C146.686 78.9193 146.632 79.0731 146.563 79.218C146.496 79.3651 146.414 79.5011 146.32 79.6304C146.227 79.7597 146.122 79.8778 146.004 79.9848C145.888 80.094 145.761 80.1877 145.627 80.2679C145.493 80.3504 145.351 80.415 145.204 80.4685C145.056 80.5198 144.905 80.5555 144.751 80.5755C144.595 80.5978 144.439 80.6023 144.283 80.5911C144.127 80.58 143.973 80.5532 143.824 80.5087C143.672 80.4663 143.525 80.4084 143.385 80.3348C143.244 80.2635 143.11 80.1765 142.986 80.0762C142.861 79.9759 142.747 79.8644 142.644 79.7418C142.54 79.6192 142.448 79.4855 142.368 79.345C142.29 79.2024 142.223 79.0552 142.172 78.8992C142.121 78.7454 142.085 78.5871 142.063 78.4244C142.04 78.2617 142.036 78.0989 142.045 77.9362C142.054 77.7735 142.078 77.613 142.116 77.4569C142.156 77.2987 142.21 77.1471 142.277 77C142.346 76.8551 142.426 76.7169 142.52 76.5876C142.615 76.4583 142.72 76.3401 142.836 76.2331C142.954 76.1261 143.079 76.0325 143.215 75.95C143.349 75.8698 143.489 75.8029 143.639 75.7516C143.786 75.7004 143.937 75.6625 144.091 75.6424C144.245 75.6223 144.401 75.6179 144.557 75.629C144.713 75.6402 144.867 75.6669 145.019 75.7093C145.17 75.7516 145.315 75.8096 145.455 75.8831C145.598 75.9567 145.73 76.0414 145.854 76.1417C145.979 76.242 146.093 76.3535 146.198 76.4761C146.303 76.6009 146.394 76.7325 146.472 76.8751C146.552 77.0156 146.617 77.1649 146.668 77.3187C146.719 77.4748 146.757 77.633 146.777 77.7935Z" fill="#2E344D"/>
<path d="M148.663 89.1622C148.663 89.1622 151.077 87.2206 151.224 89.8198C151.407 92.419 149.067 93.81 149.067 93.81L148.663 89.1622Z" fill="#EFC0C1"/>
<path d="M149.359 89.929C149.359 89.929 151.298 89.1242 149.577 92.089L149.359 89.929Z" fill="#E0ADB0"/>
<path d="M138.799 93.2773C138.828 93.3642 138.848 93.4511 138.857 93.5381C138.866 93.625 138.864 93.7075 138.85 93.781C138.835 93.8546 138.81 93.917 138.777 93.9661C138.741 94.0151 138.699 94.0485 138.648 94.0664C138.598 94.0842 138.543 94.0842 138.485 94.0686C138.427 94.0508 138.369 94.0173 138.313 93.9683C138.255 93.9193 138.204 93.8591 138.155 93.7855C138.108 93.7119 138.07 93.6317 138.039 93.5448C138.008 93.4578 137.988 93.3686 137.979 93.2817C137.97 93.1948 137.974 93.1145 137.988 93.041C138.001 92.9674 138.026 92.905 138.061 92.8559C138.095 92.8047 138.139 92.7712 138.188 92.7534C138.24 92.7378 138.293 92.7356 138.351 92.7534C138.409 92.7712 138.467 92.8024 138.525 92.8515C138.583 92.9005 138.634 92.9629 138.681 93.0365C138.73 93.1101 138.768 93.1903 138.799 93.2773Z" fill="#2E344D"/>
<path d="M143.556 92.2162C143.587 92.3031 143.607 92.3901 143.616 92.477C143.625 92.5639 143.623 92.6442 143.607 92.72C143.594 92.7935 143.569 92.856 143.534 92.905C143.5 92.954 143.458 92.9875 143.407 93.0053C143.355 93.0231 143.302 93.0231 143.244 93.0053C143.186 92.9897 143.128 92.9563 143.07 92.9072C143.014 92.8582 142.961 92.7958 142.914 92.7222C142.867 92.6486 142.827 92.5684 142.796 92.4815C142.767 92.3945 142.747 92.3076 142.738 92.2206C142.729 92.1337 142.731 92.0535 142.744 91.9799C142.76 91.9041 142.785 91.8439 142.818 91.7926C142.854 91.7436 142.896 91.7102 142.947 91.6923C142.996 91.6745 143.052 91.6745 143.11 91.6923C143.168 91.7079 143.226 91.7414 143.282 91.7904C143.34 91.8395 143.393 91.9019 143.44 91.9754C143.487 92.049 143.527 92.1292 143.556 92.2162Z" fill="#2E344D"/>
<path d="M138.93 91.3937C138.93 91.3937 137.649 90.6625 136.697 91.3201L138.93 91.3937Z" fill="#2E344D"/>
<path d="M144.381 89.7841C144.272 89.7841 142.736 89.7105 141.967 90.8073L144.381 89.7841Z" fill="#2E344D"/>
<path d="M140.87 93.7008C140.87 93.7008 141.271 94.7976 140.832 95.201C140.357 95.6023 140.284 96.7748 141.637 96.1886" stroke="#E0ADB0" stroke-width="0.311252" stroke-miterlimit="10" stroke-linecap="round" stroke-linejoin="round"/>
<path d="M140.319 98.5314C140.319 98.5314 140.393 98.6406 140.54 98.7521C140.796 98.9705 141.309 99.2625 142.04 99.1533C142.771 99.0084 143.175 98.5314 143.393 98.2015C143.503 98.0187 143.576 97.8738 143.576 97.8738" fill="white"/>
<path d="M133.623 112.294C134.136 119.798 135.562 127.083 136.113 134.477C137.027 142.381 137.575 149.483 137.575 149.557C137.539 149.336 140.649 151.387 147.932 152.595C154.885 153.73 166.483 154.791 169.557 153.362C169.666 153.327 168.534 134.916 168.422 134.477C165.605 107.134 165.861 105.194 162.239 103.4C160.556 102.374 159.274 102.448 157.299 102.082C155.946 101.788 152.067 101.423 151.298 101.387C149.468 104.095 145.992 108.743 143.248 109.294C141.857 109.073 141.601 104.022 141.309 103.217C136.552 104.387 132.965 107.134 133.623 112.294Z" fill="#DF5849"/>
<path d="M170.948 127.118C170.948 127.118 173.291 140.15 171.862 143.224C170.618 145.932 170.618 145.384 160.776 145.237C156.456 145.163 149.834 145.237 149.834 145.237L149.577 139.747L160.665 136.124L159.604 129.753L170.948 127.118Z" fill="#EFC0C1"/>
<path d="M150.602 139.784C150.602 139.784 148.554 138.904 147.236 138.099C145.919 137.294 144.381 136.525 143.393 136.708C142.406 136.891 136.148 139.015 137.1 140.368C137.1 140.368 135.783 141.32 136.514 142.163C136.514 142.163 136.184 142.638 136.661 143.224C137.136 143.81 139.662 141.65 140.87 141.615C142.076 141.577 143.87 141.686 143.87 141.686C143.87 141.686 141.309 142.638 140.796 142.82C140.246 143.003 138.783 143.919 138.966 144.359C139.149 144.798 141.271 143.59 142.37 143.407C143.467 143.224 144.637 142.894 145.223 143.48C145.81 144.029 146.688 145.237 147.967 145.237C149.249 145.237 150.346 145.054 150.346 145.054L150.602 139.784Z" fill="#EFC0C1"/>
<path d="M137.062 140.406C137.062 140.406 137.136 140.333 137.283 140.223C137.43 140.112 137.613 139.929 137.869 139.784C138.124 139.637 138.418 139.417 138.783 139.198C139.113 139.015 139.515 138.832 139.918 138.685C140.319 138.538 140.723 138.429 141.124 138.355C141.528 138.282 141.893 138.282 142.187 138.246C142.515 138.246 142.771 138.282 142.954 138.282C143.137 138.32 143.248 138.32 143.248 138.32C143.248 138.32 143.137 138.32 142.954 138.32C142.771 138.32 142.515 138.355 142.223 138.393C141.931 138.429 141.563 138.503 141.198 138.576C140.832 138.647 140.431 138.759 140.063 138.904C139.697 139.051 139.296 139.234 138.966 139.381C138.601 139.564 138.306 139.711 138.014 139.856C137.758 140.003 137.502 140.15 137.357 140.223C137.136 140.368 137.062 140.406 137.062 140.406Z" fill="#E0ADB0"/>
<path d="M136.479 142.198C136.479 142.198 136.552 142.125 136.735 142.016C136.88 141.906 137.1 141.724 137.392 141.541C137.684 141.358 138.014 141.137 138.38 140.919C138.746 140.698 139.149 140.478 139.588 140.295C140.027 140.112 140.466 140.003 140.906 139.967C141.345 139.929 141.748 139.929 142.076 139.929C142.406 139.929 142.698 139.967 142.919 139.967C143.101 140.003 143.248 140.003 143.248 140.003C143.248 140.003 143.137 140.003 142.919 140.003C142.736 140.003 142.442 140.038 142.114 140.038C141.784 140.076 141.38 140.112 140.979 140.186C140.576 140.259 140.137 140.368 139.735 140.551C139.332 140.734 138.931 140.919 138.563 141.102C138.197 141.285 137.832 141.467 137.54 141.65C137.245 141.797 136.991 141.942 136.806 142.054C136.552 142.163 136.479 142.198 136.479 142.198Z" fill="#E0ADB0"/>
<path d="M160.665 136.086H164.655" stroke="#313131" stroke-width="0.279614" stroke-miterlimit="10"/>
<path d="M161.726 103.144C161.726 103.144 167.216 105.156 168.387 110.061C169.557 114.967 171.826 128.179 171.826 128.179L159.421 130.121C159.421 130.121 156.933 118.15 156.347 111.891C155.725 105.634 161.726 103.144 161.726 103.144Z" fill="#DF5849"/>
<path d="M159.713 130.779C159.713 130.779 156.933 118.15 156.347 111.891" stroke="#313131" stroke-width="0.279614" stroke-miterlimit="10"/>
<path d="M133.953 114.82C134.356 118.48 135.087 122.689 135.636 130.083" stroke="#313131" stroke-width="0.279614" stroke-miterlimit="10"/>
<path d="M156.421 150.765C156.421 150.765 126.452 142.089 119.791 141.833C113.095 141.577 107.68 145.128 112.034 152.558C116.425 159.987 138.857 170.933 138.857 170.933L145.224 166.32L139.479 160.244L156.421 150.765Z" fill="#2E344D"/>
<path d="M150.346 168.298L143.431 163.137L138.819 170.676L145.955 176.167L149.651 176.057L150.346 168.298Z" fill="#EFC0C1"/>
<path d="M154.408 169.871C154.408 169.871 157.482 171.519 157.482 172.031C157.52 173.385 157.116 174.044 156.934 175.545C156.751 176.971 156.604 178.144 155.507 180.266C154.773 181.693 152.725 186.013 151.407 185.353C151.298 185.317 150.09 184.987 150.09 184.769C149.798 182.352 154.408 169.871 154.408 169.871Z" fill="#DF5849"/>
<path d="M150.31 184.914C152.067 184.33 158.251 173.824 155.58 170.897C154.115 169.25 150.09 167.711 150.09 167.711C150.09 167.711 149.249 170.75 146.833 174.629C146.066 175.875 145.442 175.692 145.406 175.801C145.37 176.314 145.881 177.778 145.954 177.997C146.028 178.4 148.554 185.465 150.31 184.914Z" fill="#2E344D"/>
<path d="M146.871 179.241C146.98 179.388 147.198 179.388 147.31 179.241L149.907 176.789C150.054 176.679 150.054 176.459 149.907 176.349C149.798 176.202 149.577 176.202 149.468 176.349L146.871 178.801C146.759 178.913 146.759 179.131 146.871 179.241Z" fill="white"/>
<path d="M147.419 180.413C147.529 180.558 147.749 180.558 147.859 180.413L150.456 177.961C150.603 177.85 150.603 177.631 150.456 177.522C150.346 177.375 150.128 177.375 150.016 177.522L147.419 179.974C147.272 180.083 147.272 180.304 147.419 180.413Z" fill="white"/>
<path d="M148.005 181.693C148.115 181.84 148.333 181.84 148.445 181.693L151.042 179.241C151.189 179.131 151.189 178.913 151.042 178.802C150.932 178.657 150.712 178.657 150.602 178.802L148.005 181.254C147.894 181.365 147.894 181.584 148.005 181.693Z" fill="white"/>
<path d="M146.358 178.144C146.468 178.289 146.688 178.289 146.798 178.144L149.394 175.692C149.542 175.58 149.542 175.362 149.394 175.253C149.285 175.105 149.067 175.105 148.955 175.253L146.358 177.705C146.249 177.814 146.211 177.997 146.358 178.144Z" fill="white"/>
<path d="M139.479 160.244L123.964 145.237" stroke="black" stroke-width="0.556663" stroke-miterlimit="10" stroke-linecap="round" stroke-linejoin="round"/>
<path d="M119.573 170.163L126.818 165.478L130.917 173.311L123.487 178.327L119.791 177.961L119.573 170.163Z" fill="#EFC0C1"/>
<mask id="mask9_41_584" style="mask-type:luminance" maskUnits="userSpaceOnUse" x="111" y="171" width="9" height="17">
<path d="M111.851 171.2H119.269V187.702H111.851V171.2Z" fill="white"/>
</mask>
<g mask="url(#mask9_41_584)">
<path d="M115.399 171.519C115.399 171.519 112.254 172.983 112.18 173.458C112.071 174.776 112.437 175.507 112.51 177.009C112.584 178.436 112.693 179.608 113.645 181.804C114.267 183.269 116.059 187.696 117.45 187.147C117.559 187.112 118.768 186.855 118.803 186.635C119.242 184.218 115.399 171.519 115.399 171.519Z" fill="#DF5849"/>
</g>
<path d="M118.585 186.782C116.864 186.086 111.96 175.727 114.194 172.433C114.998 171.224 119.352 169.871 119.865 169.615C119.865 169.615 120.524 172.689 122.682 176.715C123.378 177.997 124 177.85 124 177.997C124 178.509 123.378 179.974 123.342 180.157C123.269 180.522 120.304 187.439 118.585 186.782Z" fill="#2E344D"/>
<path d="M122.352 181.327C122.208 181.439 122.025 181.439 121.913 181.327L119.463 178.728C119.352 178.583 119.352 178.4 119.463 178.289C119.608 178.179 119.791 178.179 119.903 178.289L122.352 180.888C122.5 180.997 122.5 181.218 122.352 181.327Z" fill="white"/>
<path d="M121.768 182.462C121.621 182.573 121.438 182.573 121.329 182.462L118.877 179.863C118.768 179.718 118.768 179.535 118.877 179.423C119.024 179.314 119.207 179.314 119.316 179.423L121.768 182.023C121.877 182.134 121.877 182.353 121.768 182.462Z" fill="white"/>
<path d="M121.073 183.708C120.926 183.817 120.743 183.817 120.634 183.708L118.182 181.109C118.072 180.962 118.072 180.779 118.182 180.67C118.329 180.558 118.511 180.558 118.621 180.67L121.073 183.269C121.182 183.378 121.182 183.596 121.073 183.708Z" fill="white"/>
<path d="M122.938 180.266C122.791 180.375 122.609 180.375 122.499 180.266L120.047 177.667C119.938 177.522 119.938 177.337 120.047 177.228C120.194 177.118 120.377 177.118 120.486 177.228L122.938 179.827C123.086 179.936 123.086 180.119 122.938 180.266Z" fill="white"/>
<path d="M150.054 167.491C150.054 167.491 152.029 169.394 152.176 169.506C154.006 170.897 156.164 171.775 158.433 172.067C161.543 172.471 164.764 171.775 167.582 170.493C169.666 169.541 171.791 168.407 173.362 166.686C177.424 162.368 176.436 154.753 173.73 149.996C171.679 146.336 167.874 143.663 163.556 145.237C152.798 149.154 124.512 165.478 124.512 165.478L130.696 176.167C130.769 176.167 150.054 167.491 150.054 167.491Z" fill="#2E344D"/>
<path d="M153.128 149.958C140.614 156.218 124.586 165.478 124.586 165.478" stroke="black" stroke-width="0.556663" stroke-miterlimit="10" stroke-linecap="round" stroke-linejoin="round"/>
<path d="M150.054 167.491L165.313 161.233" stroke="black" stroke-width="0.556663" stroke-miterlimit="10" stroke-linecap="round" stroke-linejoin="round"/>
<path d="M111.96 147.689H141.857L133.661 123.788H103.728L111.96 147.689Z" fill="#383334"/>
<path d="M110.863 147.689H140.796L132.6 123.788H102.667L110.863 147.689Z" fill="#536EC1"/>
<path d="M122.488 134.969C122.531 135.157 122.56 135.342 122.575 135.529C122.591 135.716 122.595 135.901 122.586 136.082C122.575 136.264 122.555 136.441 122.519 136.61C122.484 136.779 122.439 136.94 122.379 137.089C122.321 137.241 122.252 137.379 122.172 137.504C122.091 137.631 122 137.742 121.902 137.838C121.804 137.934 121.697 138.014 121.583 138.079C121.47 138.141 121.349 138.188 121.224 138.215C121.102 138.242 120.975 138.253 120.843 138.244C120.714 138.235 120.585 138.206 120.453 138.161C120.321 138.117 120.194 138.054 120.067 137.974C119.94 137.894 119.82 137.798 119.702 137.687C119.586 137.575 119.474 137.45 119.372 137.312C119.269 137.174 119.173 137.025 119.089 136.864C119.002 136.701 118.926 136.534 118.861 136.358C118.797 136.182 118.743 136.001 118.703 135.814C118.661 135.629 118.632 135.444 118.616 135.257C118.601 135.07 118.596 134.885 118.607 134.704C118.616 134.521 118.638 134.345 118.672 134.176C118.708 134.006 118.754 133.846 118.812 133.696C118.87 133.545 118.939 133.407 119.022 133.282C119.102 133.155 119.191 133.043 119.289 132.947C119.39 132.849 119.494 132.771 119.608 132.707C119.724 132.644 119.842 132.597 119.967 132.571C120.09 132.542 120.217 132.533 120.348 132.542C120.478 132.551 120.609 132.577 120.738 132.624C120.87 132.669 120.997 132.731 121.124 132.811C121.251 132.892 121.371 132.988 121.49 133.099C121.605 133.211 121.717 133.335 121.819 133.474C121.924 133.612 122.018 133.761 122.105 133.922C122.19 134.082 122.265 134.252 122.33 134.428C122.395 134.604 122.448 134.784 122.488 134.969Z" fill="#231F20"/>
<path d="M110.863 145.275H154.299V147.689H110.863V145.275Z" fill="#536EC1"/>
<path d="M55.7914 90.2233C55.7914 90.5643 55.7736 90.9054 55.7401 91.2442C55.7067 91.5853 55.6577 91.9219 55.5908 92.2585C55.5239 92.5929 55.4414 92.925 55.3411 93.2505C55.243 93.5782 55.1271 93.8992 54.9978 94.2157C54.8663 94.53 54.7214 94.8399 54.5587 95.1408C54.3982 95.4418 54.2243 95.7338 54.0326 96.0191C53.8431 96.3022 53.6403 96.5764 53.424 96.8417C53.2078 97.1047 52.9782 97.3566 52.7375 97.5996C52.4945 97.8403 52.2426 98.0699 51.9773 98.2862C51.7143 98.5024 51.4401 98.7075 51.157 98.897C50.8716 99.0864 50.5796 99.2625 50.2787 99.423C49.9778 99.5835 49.6679 99.7307 49.3536 99.86C49.037 99.9915 48.716 100.105 48.3906 100.205C48.0629 100.304 47.733 100.388 47.3964 100.455C47.062 100.52 46.7254 100.571 46.3843 100.605C46.0455 100.638 45.7044 100.654 45.3634 100.654C45.0201 100.654 44.679 100.638 44.3402 100.605C43.9991 100.571 43.6625 100.52 43.3281 100.455C42.9938 100.388 42.6616 100.304 42.3339 100.205C42.0085 100.105 41.6875 99.9915 41.3709 99.86C41.0566 99.7307 40.7468 99.5835 40.4458 99.423C40.1449 99.2625 39.8529 99.0864 39.5675 98.897C39.2844 98.7075 39.0103 98.5024 38.7472 98.2862C38.4819 98.0699 38.23 97.8403 37.9871 97.5996C37.7463 97.3566 37.5167 97.1047 37.3005 96.8417C37.0843 96.5764 36.8814 96.3022 36.6919 96.0191C36.5002 95.7338 36.3263 95.4418 36.1658 95.1408C36.0031 94.8399 35.8582 94.53 35.7267 94.2157C35.5974 93.8992 35.4815 93.5782 35.3834 93.2505C35.2831 92.925 35.2006 92.5929 35.1337 92.2585C35.0669 91.9219 35.0178 91.5853 34.9844 91.2442C34.9509 90.9054 34.9331 90.5643 34.9331 90.2233C34.9331 89.88 34.9509 89.5411 34.9844 89.2001C35.0178 88.8613 35.0669 88.5224 35.1337 88.188C35.2006 87.8514 35.2831 87.5215 35.3834 87.1938C35.4815 86.8684 35.5974 86.5451 35.7267 86.2308C35.8582 85.9143 36.0031 85.6067 36.1658 85.3057C36.3263 85.0048 36.5002 84.7105 36.6919 84.4274C36.8814 84.1421 37.0843 83.8679 37.3005 83.6049C37.5167 83.3396 37.7463 83.0877 37.9871 82.847C38.23 82.604 38.4819 82.3744 38.7472 82.1581C39.0103 81.9419 39.2844 81.7391 39.5675 81.5496C39.8529 81.3601 40.1449 81.184 40.4458 81.0235C40.7468 80.8608 41.0566 80.7159 41.3709 80.5844C41.6875 80.4551 42.0085 80.3391 42.3339 80.2411C42.6616 80.1408 42.9938 80.0583 43.3281 79.9914C43.6625 79.9245 43.9991 79.8755 44.3402 79.842C44.679 79.8086 45.0201 79.7908 45.3634 79.7908C45.7044 79.7908 46.0455 79.8086 46.3843 79.842C46.7254 79.8755 47.062 79.9245 47.3964 79.9914C47.733 80.0583 48.0629 80.1408 48.3906 80.2411C48.716 80.3391 49.037 80.4551 49.3536 80.5844C49.6679 80.7159 49.9778 80.8608 50.2787 81.0235C50.5796 81.184 50.8716 81.3601 51.157 81.5496C51.4401 81.7391 51.7143 81.9419 51.9773 82.1581C52.2426 82.3744 52.4945 82.604 52.7375 82.847C52.9782 83.0877 53.2078 83.3396 53.424 83.6049C53.6403 83.8679 53.8431 84.1421 54.0326 84.4274C54.2243 84.7105 54.3982 85.0048 54.5587 85.3057C54.7214 85.6067 54.8663 85.9143 54.9978 86.2308C55.1271 86.5451 55.243 86.8684 55.3411 87.1938C55.4414 87.5215 55.5239 87.8514 55.5908 88.188C55.6577 88.5224 55.7067 88.8613 55.7401 89.2001C55.7736 89.5411 55.7914 89.88 55.7914 90.2233Z" fill="#2E344D"/>
<path d="M51.5094 88.9772H50.7782C50.669 88.4289 50.4483 87.8805 50.1563 87.4035L50.7046 86.8551C50.8874 86.6723 50.8874 86.3424 50.7046 86.1596L49.5343 84.9893C49.3515 84.8065 49.0573 84.8065 48.8388 84.9893L48.3261 85.502C47.8513 85.2077 47.3029 84.9893 46.7523 84.8421V84.0731C46.7523 83.8167 46.5339 83.5983 46.2775 83.5983H44.6302C44.3738 83.5983 44.1553 83.8167 44.1553 84.0731V84.8065C43.5691 84.9514 43.0564 85.1342 42.5816 85.4284L42.0332 84.8778C41.8504 84.695 41.5561 84.695 41.3377 84.8778L40.1674 86.0503C39.9823 86.2331 39.9823 86.5631 40.1674 86.7458L40.6778 87.2586C40.3858 87.7334 40.1674 88.2817 40.0202 88.8323H39.2512C38.9948 88.8323 38.7764 89.0508 38.7764 89.3072V90.9545C38.7764 91.2109 38.9948 91.4316 39.2512 91.4316H39.9823C40.0938 91.9799 40.3123 92.5283 40.6065 93.0053L40.0559 93.5537C39.8731 93.7365 39.8731 94.0664 40.0559 94.2492L41.2285 95.4195C41.4112 95.6023 41.7033 95.6023 41.9217 95.4195L42.4344 94.9091C42.9115 95.2011 43.4598 95.4195 44.0082 95.5667V96.3357C44.0082 96.5921 44.2289 96.8105 44.4853 96.8105H46.1304C46.3867 96.8105 46.6074 96.5921 46.6074 96.3357V95.6023C47.1915 95.4574 47.7042 95.2746 48.1812 94.9804L48.7296 95.531C48.9124 95.7138 49.2044 95.7138 49.4251 95.531L50.5954 94.3585C50.7782 94.1757 50.7782 93.8457 50.5954 93.663L50.0827 93.1502C50.3747 92.6754 50.5954 92.1271 50.7425 91.5765H51.5094C51.7657 91.5765 51.9864 91.358 51.9864 91.1016V89.4543C51.9864 89.1979 51.7657 88.9772 51.5094 88.9772ZM45.3636 93.2974C43.6426 93.2974 42.2895 91.9064 42.2895 90.2233C42.2895 88.5381 43.6783 87.1471 45.3636 87.1471C47.0466 87.1471 48.4353 88.5381 48.4353 90.2233C48.4353 91.9064 47.0822 93.2974 45.3636 93.2974Z" fill="white"/>
<path d="M167.069 52.9249C167.069 53.1211 167.049 53.3173 167.011 53.509C166.973 53.7029 166.915 53.8902 166.84 54.0729C166.766 54.2557 166.672 54.4274 166.563 54.5923C166.454 54.7551 166.329 54.9067 166.191 55.0471C166.051 55.1853 165.899 55.3101 165.736 55.4194C165.571 55.5286 165.4 55.6222 165.217 55.698C165.034 55.7716 164.847 55.8295 164.653 55.8674C164.461 55.9076 164.265 55.9254 164.069 55.9254C163.87 55.9254 163.676 55.9076 163.483 55.8674C163.291 55.8295 163.101 55.7716 162.921 55.698C162.738 55.6222 162.566 55.5286 162.401 55.4194C162.239 55.3101 162.087 55.1853 161.947 55.0471C161.808 54.9067 161.684 54.7551 161.574 54.5923C161.465 54.4274 161.372 54.2557 161.296 54.0729C161.22 53.8902 161.164 53.7029 161.126 53.509C161.086 53.3173 161.068 53.1211 161.068 52.9249C161.068 52.7265 161.086 52.5326 161.126 52.3387C161.164 52.1447 161.22 51.9575 161.296 51.7747C161.372 51.5941 161.465 51.4202 161.574 51.2575C161.684 51.0926 161.808 50.941 161.947 50.8028C162.087 50.6623 162.239 50.5375 162.401 50.4283C162.566 50.319 162.738 50.2276 162.921 50.1518C163.101 50.0761 163.291 50.0181 163.483 49.9802C163.676 49.9423 163.87 49.9222 164.069 49.9222C164.265 49.9222 164.461 49.9423 164.653 49.9802C164.847 50.0181 165.034 50.0761 165.217 50.1518C165.4 50.2276 165.571 50.319 165.736 50.4283C165.899 50.5375 166.051 50.6623 166.191 50.8028C166.329 50.941 166.454 51.0926 166.563 51.2575C166.672 51.4202 166.766 51.5941 166.84 51.7747C166.915 51.9575 166.973 52.1447 167.011 52.3387C167.049 52.5326 167.069 52.7265 167.069 52.9249Z" fill="#E8EBF7"/>
<path d="M49.9736 38.2837C49.9736 38.4821 49.9357 38.6738 49.8599 38.8566C49.7819 39.0416 49.6749 39.2044 49.5345 39.3448C49.394 39.4852 49.2313 39.5922 49.0463 39.6702C48.8635 39.746 48.6718 39.7839 48.4734 39.7839C48.275 39.7839 48.0833 39.746 47.8982 39.6702C47.7155 39.5922 47.5527 39.4852 47.4123 39.3448C47.2719 39.2044 47.1626 39.0416 47.0868 38.8566C47.011 38.6738 46.9731 38.4821 46.9731 38.2837C46.9731 38.0831 47.011 37.8936 47.0868 37.7086C47.1626 37.5258 47.2719 37.3631 47.4123 37.2226C47.5527 37.08 47.7155 36.973 47.8982 36.8972C48.0833 36.8214 48.275 36.7812 48.4734 36.7812C48.6718 36.7812 48.8635 36.8214 49.0463 36.8972C49.2313 36.973 49.394 37.08 49.5345 37.2226C49.6749 37.3631 49.7819 37.5258 49.8599 37.7086C49.9357 37.8936 49.9736 38.0831 49.9736 38.2837Z" fill="#E8EBF7"/>
<path d="M162.165 41.0278C162.165 41.2262 162.127 41.4179 162.051 41.6029C161.976 41.7857 161.866 41.9485 161.726 42.0889C161.585 42.2293 161.423 42.3386 161.24 42.4144C161.055 42.4902 160.863 42.528 160.665 42.528C160.466 42.528 160.275 42.4902 160.092 42.4144C159.907 42.3386 159.744 42.2293 159.604 42.0889C159.463 41.9485 159.356 41.7857 159.278 41.6029C159.202 41.4179 159.165 41.2262 159.165 41.0278C159.165 40.8294 159.202 40.6377 159.278 40.4549C159.356 40.2699 159.463 40.1072 159.604 39.9667C159.744 39.8263 159.907 39.7171 160.092 39.6413C160.275 39.5655 160.466 39.5276 160.665 39.5276C160.863 39.5276 161.055 39.5655 161.24 39.6413C161.423 39.7171 161.585 39.8263 161.726 39.9667C161.866 40.1072 161.976 40.2699 162.051 40.4549C162.127 40.6377 162.165 40.8294 162.165 41.0278Z" fill="#E8EBF7"/>
<path d="M88.2485 153.07C88.2485 153.269 88.2106 153.46 88.1348 153.645C88.059 153.828 87.9498 153.991 87.8094 154.131C87.6689 154.272 87.5062 154.381 87.3234 154.457C87.1384 154.533 86.9489 154.571 86.7483 154.571C86.5499 154.571 86.3582 154.533 86.1754 154.457C85.9904 154.381 85.8276 154.272 85.6872 154.131C85.5468 153.991 85.4398 153.828 85.3617 153.645C85.2859 153.46 85.248 153.269 85.248 153.07C85.248 152.872 85.2859 152.68 85.3617 152.495C85.4398 152.312 85.5468 152.15 85.6872 152.009C85.8276 151.869 85.9904 151.76 86.1754 151.684C86.3582 151.608 86.5499 151.57 86.7483 151.57C86.9489 151.57 87.1384 151.608 87.3234 151.684C87.5062 151.76 87.6689 151.869 87.8094 152.009C87.9498 152.15 88.059 152.312 88.1348 152.495C88.2106 152.68 88.2485 152.872 88.2485 153.07Z" fill="#E8EBF7"/>
<path d="M102.74 147.689C102.74 147.887 102.72 148.081 102.682 148.275C102.644 148.469 102.586 148.656 102.511 148.837C102.435 149.02 102.343 149.194 102.234 149.356C102.125 149.521 102 149.673 101.862 149.811C101.721 149.952 101.57 150.076 101.407 150.186C101.242 150.295 101.068 150.386 100.888 150.462C100.705 150.538 100.518 150.596 100.324 150.634C100.132 150.672 99.9359 150.692 99.7397 150.692C99.5413 150.692 99.3474 150.672 99.1534 150.634C98.9595 150.596 98.7723 150.538 98.5917 150.462C98.4089 150.386 98.235 150.295 98.0723 150.186C97.9073 150.076 97.7558 149.952 97.6175 149.811C97.4771 149.673 97.3545 149.521 97.2453 149.356C97.1338 149.194 97.0424 149.02 96.9666 148.837C96.8908 148.656 96.8351 148.469 96.7972 148.275C96.7571 148.081 96.7393 147.887 96.7393 147.689C96.7393 147.493 96.7571 147.297 96.7972 147.105C96.8351 146.911 96.8908 146.724 96.9666 146.541C97.0424 146.358 97.1338 146.186 97.2453 146.022C97.3545 145.859 97.4771 145.707 97.6175 145.567C97.7558 145.429 97.9073 145.304 98.0723 145.194C98.235 145.085 98.4089 144.992 98.5917 144.916C98.7723 144.84 98.9595 144.784 99.1534 144.746C99.3474 144.706 99.5413 144.688 99.7397 144.688C99.9359 144.688 100.132 144.706 100.324 144.746C100.518 144.784 100.705 144.84 100.888 144.916C101.068 144.992 101.242 145.085 101.407 145.194C101.57 145.304 101.721 145.429 101.862 145.567C102 145.707 102.125 145.859 102.234 146.022C102.343 146.186 102.435 146.358 102.511 146.541C102.586 146.724 102.644 146.911 102.682 147.105C102.72 147.297 102.74 147.493 102.74 147.689Z" fill="#E8EBF7"/>
<path d="M42.8735 64.0885C42.8735 64.2869 42.8356 64.4786 42.7598 64.6614C42.684 64.8464 42.5748 65.0091 42.4344 65.1496C42.2939 65.29 42.1312 65.3992 41.9484 65.475C41.7634 65.5508 41.5739 65.5887 41.3733 65.5887C41.1749 65.5887 40.9832 65.5508 40.8004 65.475C40.6154 65.3992 40.4526 65.29 40.3122 65.1496C40.1718 65.0091 40.0648 64.8464 39.9867 64.6614C39.9109 64.4786 39.873 64.2869 39.873 64.0885C39.873 63.8901 39.9109 63.6984 39.9867 63.5134C40.0648 63.3306 40.1718 63.1678 40.3122 63.0274C40.4526 62.887 40.6154 62.7777 40.8004 62.7019C40.9832 62.6262 41.1749 62.5883 41.3733 62.5883C41.5739 62.5883 41.7634 62.6262 41.9484 62.7019C42.1312 62.7777 42.2939 62.887 42.4344 63.0274C42.5748 63.1678 42.684 63.3306 42.7598 63.5134C42.8356 63.6984 42.8735 63.8901 42.8735 64.0885Z" fill="white"/>
<path d="M143.467 39.5276C143.467 39.726 143.429 39.9177 143.353 40.1027C143.277 40.2855 143.168 40.4482 143.028 40.5887C142.887 40.7291 142.724 40.8383 142.542 40.9141C142.357 40.9899 142.165 41.0278 141.967 41.0278C141.768 41.0278 141.576 40.9899 141.391 40.9141C141.209 40.8383 141.046 40.7291 140.905 40.5887C140.765 40.4482 140.656 40.2855 140.58 40.1027C140.504 39.9177 140.466 39.726 140.466 39.5276C140.466 39.3292 140.504 39.1375 140.58 38.9524C140.656 38.7697 140.765 38.6069 140.905 38.4665C141.046 38.3261 141.209 38.2168 141.391 38.141C141.576 38.0652 141.768 38.0273 141.967 38.0273C142.165 38.0273 142.357 38.0652 142.542 38.141C142.724 38.2168 142.887 38.3261 143.028 38.4665C143.168 38.6069 143.277 38.7697 143.353 38.9524C143.429 39.1375 143.467 39.3292 143.467 39.5276Z" fill="white"/>
</g>
<defs>
<clipPath id="clip0_41_584">
<rect width="214" height="214" fill="white"/>
</clipPath>
</defs>
</svg>
