<svg xmlns="http://www.w3.org/2000/svg" xmlns:xlink="http://www.w3.org/1999/xlink" width="500" zoomAndPan="magnify" viewBox="0 0 375 374.999991" height="500" preserveAspectRatio="xMidYMid meet" version="1.0"><defs><clipPath id="d8864daacf"><path d="M 76 61.664062 L 318 61.664062 L 318 313.664062 L 76 313.664062 Z M 76 61.664062 " clip-rule="nonzero"/></clipPath><clipPath id="ea2c1a6a5d"><path d="M 207 254 L 301 254 L 301 313.664062 L 207 313.664062 Z M 207 254 " clip-rule="nonzero"/></clipPath><clipPath id="a3317dc849"><path d="M 76 229 L 208 229 L 208 313.664062 L 76 313.664062 Z M 76 229 " clip-rule="nonzero"/></clipPath><clipPath id="8cf9c1e570"><path d="M 166 61.664062 L 300 61.664062 L 300 146 L 166 146 Z M 166 61.664062 " clip-rule="nonzero"/></clipPath></defs><path fill="#e4e8f4" d="M 125.632812 93.800781 L 125.683594 74.96875 C 125.734375 73.769531 126.183594 73.0625 126.832031 72.792969 L 129.582031 71.050781 C 130.132812 70.667969 130.882812 70.726562 131.734375 71.265625 L 155.578125 86.234375 C 157.230469 87.269531 158.578125 89.828125 158.578125 91.894531 L 158.53125 110.726562 C 158.53125 111.761719 158.179688 112.46875 157.628906 112.792969 L 154.628906 114.589844 C 154.578125 114.589844 154.578125 114.648438 154.578125 114.648438 L 154.429688 114.699219 L 154.480469 114.648438 C 153.929688 114.917969 153.230469 114.863281 152.480469 114.375 L 147.429688 111.214844 L 143.53125 116.550781 L 140.53125 118.511719 L 134.832031 103.324219 L 128.632812 99.40625 C 126.984375 98.371094 125.632812 95.867188 125.632812 93.800781 Z M 125.632812 93.800781 " fill-opacity="1" fill-rule="nonzero"/><path fill="#e4e8f4" d="M 137.53125 169.5625 L 137.53125 176.3125 C 141.03125 180.285156 140.183594 185.402344 134.78125 188.832031 C 128.285156 192.914062 117.683594 192.914062 111.136719 188.832031 C 106.035156 185.621094 104.9375 180.828125 107.785156 176.964844 L 107.785156 169.511719 C 107.785156 167.117188 109.234375 164.71875 112.085938 162.921875 C 117.886719 159.222656 127.332031 159.222656 133.132812 162.921875 C 136.480469 164.992188 137.832031 167.824219 137.382812 170.597656 C 137.433594 170.269531 137.53125 169.890625 137.53125 169.5625 Z M 137.53125 169.5625 " fill-opacity="1" fill-rule="nonzero"/><g clip-path="url(#d8864daacf)"><path fill="#e4e8f4" d="M 317.957031 217.1875 L 317.957031 222.195312 L 317.855469 254.796875 C 317.855469 255.289062 317.65625 255.613281 317.40625 255.777344 L 314.105469 257.898438 C 313.808594 258.0625 313.457031 258.0625 313.058594 257.789062 L 300.558594 249.953125 L 300.558594 260.890625 L 237.816406 299.644531 L 210.023438 313.308594 C 209.320312 313.742188 208.371094 313.957031 207.472656 313.957031 C 206.671875 313.90625 205.871094 313.742188 205.222656 313.308594 L 77.742188 233.1875 C 77.039062 232.808594 76.742188 232.265625 76.742188 231.667969 L 76.742188 229.761719 C 76.742188 229.214844 77.089844 228.671875 77.742188 228.292969 L 165.179688 173.046875 L 165.429688 66.585938 C 165.429688 65.386719 165.878906 64.519531 166.527344 64.136719 L 169.628906 62.179688 C 170.226562 61.742188 171.128906 61.851562 172.078125 62.449219 L 297.359375 141.207031 C 298.257812 141.75 299.007812 142.625 299.609375 143.65625 C 300.359375 144.910156 300.859375 146.378906 300.859375 147.738281 L 300.710938 202.21875 L 314.65625 211.039062 C 316.507812 212.125 317.957031 214.902344 317.957031 217.1875 Z M 317.957031 217.1875 " fill-opacity="1" fill-rule="nonzero"/></g><path fill="#e4e8f4" d="M 77.640625 185.347656 C 77.339844 185.457031 76.992188 185.621094 76.691406 185.730469 L 72.292969 194.164062 L 67.042969 193.292969 L 64.191406 191.496094 L 66.042969 183.933594 L 61.34375 186.925781 L 58.492188 185.128906 L 57.042969 178.492188 L 62.742188 171.523438 C 62.84375 170.433594 62.941406 169.292969 63.144531 168.148438 L 61.542969 167.167969 L 58.644531 165.371094 L 61.894531 156.773438 L 67.84375 155.738281 C 68.492188 154.597656 69.191406 153.453125 69.992188 152.417969 L 69.84375 144.691406 L 75.839844 139.191406 L 78.742188 140.988281 L 80.191406 143.871094 C 80.492188 143.765625 80.839844 143.601562 81.140625 143.492188 L 85.488281 135.109375 L 90.738281 135.925781 L 93.636719 137.722656 L 91.789062 145.289062 L 96.488281 142.296875 L 98.988281 143.871094 L 99.738281 140.664062 L 97.289062 142.242188 L 94.386719 140.445312 L 93.386719 135.546875 L 97.589844 130.378906 C 97.636719 129.558594 97.738281 128.742188 97.886719 127.875 L 97.4375 127.601562 L 94.539062 125.804688 L 96.9375 119.4375 L 101.335938 118.671875 C 101.835938 117.855469 102.386719 116.988281 102.9375 116.226562 L 102.835938 110.507812 L 107.285156 106.375 L 110.1875 108.222656 L 110.9375 109.691406 C 111.035156 109.640625 111.136719 109.585938 111.234375 109.585938 L 114.4375 103.382812 L 118.335938 103.980469 L 121.234375 105.828125 L 120.136719 110.292969 L 122.535156 108.710938 L 125.433594 110.566406 L 126.484375 115.460938 L 122.234375 120.578125 C 122.234375 121.394531 122.132812 122.214844 121.984375 123.027344 L 122.433594 123.300781 L 125.335938 125.152344 L 122.882812 131.519531 L 118.484375 132.28125 C 118.035156 133.152344 117.484375 133.96875 116.933594 134.730469 L 117.035156 140.5 L 112.535156 144.582031 L 109.6875 142.785156 L 108.9375 141.261719 C 108.835938 141.261719 108.738281 141.316406 108.636719 141.367188 L 105.386719 147.574219 L 101.539062 146.976562 L 99.738281 145.832031 L 100.789062 150.789062 L 95.089844 157.644531 C 94.988281 158.785156 94.886719 159.929688 94.6875 161.074219 L 96.289062 161.996094 L 99.1875 163.851562 L 95.9375 172.445312 L 90.039062 173.484375 C 89.339844 174.570312 88.640625 175.714844 87.839844 176.746094 L 87.988281 184.53125 L 81.992188 190.082031 L 79.089844 188.234375 Z M 77.640625 185.347656 " fill-opacity="1" fill-rule="nonzero"/><path fill="#474b59" d="M 121.964844 123.191406 L 119.082031 121.367188 L 122.433594 123.316406 L 125.316406 125.140625 Z M 121.964844 123.191406 " fill-opacity="1" fill-rule="nonzero"/><path fill="#474b59" d="M 112.550781 144.605469 L 109.667969 142.78125 L 107.679688 138.710938 L 110.5625 140.535156 Z M 112.550781 144.605469 " fill-opacity="1" fill-rule="nonzero"/><path fill="#474b59" d="M 120.800781 113.53125 L 117.917969 111.707031 L 122.554688 108.730469 L 125.4375 110.554688 Z M 120.800781 113.53125 " fill-opacity="1" fill-rule="nonzero"/><path fill="#f25574" d="M 94.660156 161.199219 L 91.777344 159.375 L 96.296875 162 L 99.179688 163.824219 Z M 94.660156 161.199219 " fill-opacity="1" fill-rule="nonzero"/><path fill="#5b5e71" d="M 112.464844 131.578125 C 112.097656 131.914062 111.75 132.179688 111.402344 132.402344 C 110.070312 133.226562 108.84375 133.335938 107.945312 132.78125 L 105.058594 130.953125 C 105.960938 131.511719 107.1875 131.421875 108.515625 130.574219 C 108.863281 130.355469 109.210938 130.085938 109.582031 129.753906 C 112.199219 127.371094 113.753906 123.140625 113.179688 120.246094 C 112.976562 119.265625 112.527344 118.574219 111.914062 118.195312 L 114.796875 120.023438 C 115.410156 120.398438 115.859375 121.089844 116.0625 122.070312 C 116.636719 124.964844 115.082031 129.195312 112.464844 131.578125 Z M 112.464844 131.578125 " fill-opacity="1" fill-rule="nonzero"/><path fill="#474b59" d="M 101.542969 146.992188 L 98.660156 145.167969 L 100.226562 138.667969 L 103.109375 140.492188 Z M 101.542969 146.992188 " fill-opacity="1" fill-rule="nonzero"/><path fill="#f25574" d="M 81.984375 190.066406 L 79.097656 188.242188 L 76.390625 182.839844 L 79.273438 184.664062 Z M 81.984375 190.066406 " fill-opacity="1" fill-rule="nonzero"/><path fill="#5b5e71" d="M 103.109375 140.492188 L 100.226562 138.667969 C 99.78125 138.328125 99.386719 137.933594 99.042969 137.414062 L 101.929688 139.238281 C 102.269531 139.757812 102.664062 140.152344 103.109375 140.492188 Z M 103.109375 140.492188 " fill-opacity="1" fill-rule="nonzero"/><path fill="#474b59" d="M 114.097656 111.394531 L 111.214844 109.570312 L 114.441406 103.386719 L 117.324219 105.210938 Z M 114.097656 111.394531 " fill-opacity="1" fill-rule="nonzero"/><path fill="#5b5e71" d="M 117.324219 105.210938 L 114.441406 103.386719 L 118.328125 103.988281 L 121.210938 105.8125 Z M 117.324219 105.210938 " fill-opacity="1" fill-rule="nonzero"/><path fill="#f25574" d="M 93.082031 148.152344 L 90.199219 146.328125 L 96.46875 142.289062 L 99.351562 144.113281 Z M 93.082031 148.152344 " fill-opacity="1" fill-rule="nonzero"/><path fill="#5b5e71" d="M 112.175781 112.226562 L 109.292969 110.402344 C 109.921875 110.058594 110.574219 109.777344 111.214844 109.570312 L 114.097656 111.394531 C 113.457031 111.601562 112.804688 111.882812 112.175781 112.226562 Z M 112.175781 112.226562 " fill-opacity="1" fill-rule="nonzero"/><path fill="#5b5e71" d="M 100.472656 132.21875 L 97.585938 130.394531 C 97.625 129.535156 97.726562 128.652344 97.882812 127.753906 L 100.765625 129.578125 C 100.609375 130.476562 100.507812 131.359375 100.472656 132.21875 Z M 100.472656 132.21875 " fill-opacity="1" fill-rule="nonzero"/><path fill="#474b59" d="M 96.257812 137.351562 L 93.375 135.527344 L 97.585938 130.394531 L 100.472656 132.21875 Z M 96.257812 137.351562 " fill-opacity="1" fill-rule="nonzero"/><path fill="#5b5e71" d="M 97.292969 142.265625 L 94.410156 140.441406 L 93.375 135.527344 L 96.257812 137.351562 Z M 97.292969 142.265625 " fill-opacity="1" fill-rule="nonzero"/><path fill="#f25574" d="M 82.070312 155.070312 L 84.953125 156.894531 C 85.777344 157.414062 86.390625 158.359375 86.675781 159.707031 C 87.5 163.574219 85.355469 169.289062 81.84375 172.496094 L 78.960938 170.671875 C 82.472656 167.464844 84.617188 161.75 83.792969 157.882812 C 83.507812 156.535156 82.894531 155.589844 82.070312 155.070312 Z M 82.070312 155.070312 " fill-opacity="1" fill-rule="nonzero"/><path fill="#f25574" d="M 75.75 174.136719 L 72.867188 172.3125 C 74.066406 173.070312 75.71875 172.921875 77.476562 171.820312 C 77.964844 171.511719 78.464844 171.128906 78.960938 170.671875 L 81.84375 172.496094 C 81.347656 172.953125 80.847656 173.335938 80.359375 173.644531 C 78.601562 174.746094 76.949219 174.894531 75.75 174.136719 Z M 75.75 174.136719 " fill-opacity="1" fill-rule="nonzero"/><path fill="#5b5e71" d="M 104.21875 120.5 L 101.335938 118.675781 C 101.820312 117.851562 102.367188 117 102.925781 116.203125 L 105.808594 118.027344 C 105.25 118.824219 104.703125 119.675781 104.21875 120.5 Z M 104.21875 120.5 " fill-opacity="1" fill-rule="nonzero"/><path fill="#f25574" d="M 67.066406 193.320312 L 64.183594 191.496094 L 66.304688 182.765625 L 69.1875 184.589844 Z M 67.066406 193.320312 " fill-opacity="1" fill-rule="nonzero"/><path fill="#5b5e71" d="M 105.703125 112.320312 L 102.820312 110.496094 L 107.296875 106.375 L 110.179688 108.199219 Z M 105.703125 112.320312 " fill-opacity="1" fill-rule="nonzero"/><path fill="#474b59" d="M 105.808594 118.027344 L 102.925781 116.203125 L 102.820312 110.496094 L 105.703125 112.320312 Z M 105.808594 118.027344 " fill-opacity="1" fill-rule="nonzero"/><path fill="#f25574" d="M 69.1875 184.589844 L 66.304688 182.765625 C 65.730469 182.292969 65.203125 181.722656 64.746094 181.046875 L 67.628906 182.871094 C 68.085938 183.546875 68.613281 184.117188 69.1875 184.589844 Z M 69.1875 184.589844 " fill-opacity="1" fill-rule="nonzero"/><path fill="#5b5e71" d="M 97.4375 127.613281 L 94.554688 125.789062 L 96.945312 119.425781 L 99.828125 121.25 Z M 97.4375 127.613281 " fill-opacity="1" fill-rule="nonzero"/><path fill="#3f434f" d="M 122.257812 120.585938 C 122.222656 121.441406 122.117188 122.292969 121.964844 123.191406 L 125.316406 125.140625 L 122.902344 131.519531 L 118.507812 132.300781 C 118.027344 133.128906 117.480469 133.945312 116.917969 134.742188 L 117.027344 140.480469 L 112.550781 144.605469 L 110.5625 140.535156 C 109.925781 140.886719 109.269531 141.167969 108.628906 141.375 L 105.402344 147.589844 L 101.542969 146.992188 L 103.109375 140.492188 C 102.664062 140.152344 102.269531 139.757812 101.929688 139.238281 L 97.292969 142.265625 L 96.257812 137.351562 L 100.472656 132.21875 C 100.507812 131.359375 100.609375 130.476562 100.765625 129.578125 L 97.4375 127.613281 L 99.828125 121.25 L 104.21875 120.5 C 104.703125 119.675781 105.25 118.824219 105.808594 118.027344 L 105.703125 112.320312 L 110.179688 108.199219 L 112.175781 112.226562 C 112.804688 111.882812 113.457031 111.601562 114.097656 111.394531 L 117.324219 105.210938 L 121.210938 105.8125 L 119.648438 112.261719 C 120.066406 112.617188 120.460938 113.042969 120.800781 113.53125 L 125.4375 110.554688 L 126.46875 115.464844 Z M 112.464844 131.585938 C 115.074219 129.191406 116.632812 124.972656 116.0625 122.074219 C 115.539062 119.628906 113.546875 119.003906 111.34375 120.386719 C 110.988281 120.609375 110.628906 120.886719 110.265625 121.21875 C 107.683594 123.59375 106.058594 127.855469 106.667969 130.695312 C 107.191406 133.144531 109.179688 133.796875 111.390625 132.410156 C 111.746094 132.1875 112.105469 131.914062 112.464844 131.585938 " fill-opacity="1" fill-rule="nonzero"/><path fill="#474b59" d="M 99.828125 121.25 L 96.945312 119.425781 L 101.335938 118.675781 L 104.21875 120.5 Z M 99.828125 121.25 " fill-opacity="1" fill-rule="nonzero"/><path fill="#f25574" d="M 84.039062 145.3125 L 81.152344 143.488281 L 85.515625 135.085938 L 88.398438 136.910156 Z M 84.039062 145.3125 " fill-opacity="1" fill-rule="nonzero"/><path fill="#f76d8e" d="M 88.398438 136.910156 L 85.515625 135.085938 L 90.761719 135.910156 L 93.644531 137.734375 Z M 88.398438 136.910156 " fill-opacity="1" fill-rule="nonzero"/><path fill="#f76d8e" d="M 81.4375 146.390625 L 78.554688 144.566406 C 79.429688 144.097656 80.316406 143.71875 81.152344 143.488281 L 84.039062 145.3125 C 83.199219 145.542969 82.3125 145.921875 81.4375 146.390625 Z M 81.4375 146.390625 " fill-opacity="1" fill-rule="nonzero"/><path fill="#f76d8e" d="M 65.640625 173.351562 L 62.757812 171.53125 C 62.820312 170.394531 62.960938 169.226562 63.167969 168 L 66.050781 169.824219 C 65.84375 171.050781 65.703125 172.21875 65.640625 173.351562 Z M 65.640625 173.351562 " fill-opacity="1" fill-rule="nonzero"/><path fill="#f25574" d="M 59.941406 180.289062 L 57.058594 178.464844 L 62.757812 171.527344 L 65.640625 173.351562 Z M 59.941406 180.289062 " fill-opacity="1" fill-rule="nonzero"/><path fill="#f76d8e" d="M 61.359375 186.941406 L 58.476562 185.117188 L 57.058594 178.464844 L 59.941406 180.289062 Z M 61.359375 186.941406 " fill-opacity="1" fill-rule="nonzero"/><path fill="#f76d8e" d="M 70.703125 157.539062 L 67.816406 155.714844 C 68.480469 154.59375 69.199219 153.472656 69.96875 152.433594 L 72.851562 154.257812 C 72.082031 155.296875 71.367188 156.417969 70.703125 157.539062 Z M 70.703125 157.539062 " fill-opacity="1" fill-rule="nonzero"/><path fill="#f25574" d="M 72.851562 154.257812 L 69.96875 152.433594 L 69.855469 144.683594 L 72.738281 146.507812 Z M 72.851562 154.257812 " fill-opacity="1" fill-rule="nonzero"/><path fill="#f76d8e" d="M 72.738281 146.507812 L 69.855469 144.683594 L 75.84375 139.167969 L 78.730469 140.992188 Z M 72.738281 146.507812 " fill-opacity="1" fill-rule="nonzero"/><path fill="#f76d8e" d="M 61.542969 167.191406 L 58.660156 165.367188 L 61.894531 156.753906 L 64.777344 158.578125 Z M 61.542969 167.191406 " fill-opacity="1" fill-rule="nonzero"/><path fill="#f25574" d="M 64.777344 158.578125 L 61.894531 156.753906 L 67.816406 155.714844 L 70.703125 157.539062 Z M 64.777344 158.578125 " fill-opacity="1" fill-rule="nonzero"/><path fill="#e63044" d="M 95.070312 157.671875 C 95.007812 158.839844 94.867188 160.007812 94.660156 161.199219 L 99.179688 163.824219 L 95.933594 172.445312 L 90.023438 173.476562 C 89.359375 174.597656 88.628906 175.710938 87.859375 176.765625 L 87.972656 184.550781 L 81.984375 190.066406 L 79.273438 184.664062 C 78.398438 185.101562 77.511719 185.464844 76.671875 185.742188 L 72.3125 194.144531 L 67.066406 193.320312 L 69.1875 184.589844 C 68.613281 184.117188 68.085938 183.546875 67.628906 182.871094 L 61.359375 186.941406 L 59.941406 180.289062 L 65.640625 173.351562 C 65.703125 172.21875 65.84375 171.050781 66.050781 169.824219 L 61.542969 167.191406 L 64.777344 158.578125 L 70.703125 157.539062 C 71.367188 156.417969 72.082031 155.296875 72.851562 154.257812 L 72.738281 146.507812 L 78.730469 140.992188 L 81.4375 146.390625 C 82.3125 145.921875 83.199219 145.542969 84.039062 145.3125 L 88.398438 136.910156 L 93.644531 137.734375 L 91.523438 146.464844 C 92.085938 146.945312 92.625 147.476562 93.082031 148.152344 L 99.351562 144.113281 L 100.769531 150.765625 Z M 81.84375 172.496094 C 85.355469 169.289062 87.5 163.574219 86.675781 159.707031 C 85.972656 156.394531 83.300781 155.511719 80.335938 157.378906 C 79.851562 157.683594 79.359375 158.058594 78.867188 158.511719 C 75.367188 161.726562 73.210938 167.480469 74.035156 171.320312 C 74.738281 174.652344 77.398438 175.503906 80.359375 173.644531 C 80.847656 173.335938 81.347656 172.953125 81.84375 172.496094 " fill-opacity="1" fill-rule="nonzero"/><path fill="#e4e8f4" d="M 300.589844 254.195312 L 210.011719 311.410156 C 208.699219 312.242188 206.582031 312.242188 205.261719 311.410156 L 77.75 231.261719 C 76.457031 230.449219 76.421875 229.097656 77.734375 228.265625 L 168.3125 171.050781 Z M 300.589844 254.195312 " fill-opacity="1" fill-rule="nonzero"/><g clip-path="url(#ea2c1a6a5d)"><path fill="#cad0dd" d="M 210.007812 311.390625 C 209.316406 311.832031 208.398438 312.023438 207.484375 311.996094 L 207.484375 313.941406 C 208.386719 313.960938 209.300781 313.765625 210.007812 313.332031 L 237.835938 299.640625 L 300.578125 260.871094 L 300.578125 254.203125 Z M 210.007812 311.390625 " fill-opacity="1" fill-rule="nonzero"/></g><g clip-path="url(#a3317dc849)"><path fill="#cad0dd" d="M 205.238281 311.390625 L 77.738281 231.257812 C 77.105469 230.863281 76.746094 230.324219 76.746094 229.738281 L 76.746094 231.679688 C 76.746094 232.265625 77.0625 232.804688 77.738281 233.195312 L 205.238281 313.332031 C 205.859375 313.726562 206.667969 313.921875 207.484375 313.941406 L 207.484375 311.996094 C 206.679688 311.972656 205.875 311.78125 205.238281 311.390625 Z M 205.238281 311.390625 " fill-opacity="1" fill-rule="nonzero"/></g><path fill="#5b5e71" d="M 294.226562 143.207031 C 296.152344 144.417969 297.699219 147.332031 297.691406 149.738281 L 297.414062 256.214844 L 165.164062 173.085938 L 165.441406 66.613281 C 165.449219 64.203125 167.003906 63.238281 168.929688 64.449219 Z M 294.226562 143.207031 " fill-opacity="1" fill-rule="nonzero"/><path fill="#cad0dd" d="M 296.5 145.75 C 297.222656 146.996094 297.695312 148.421875 297.695312 149.722656 L 297.425781 256.210938 L 300.574219 254.199219 L 300.84375 147.714844 C 300.867188 146.382812 300.367188 144.929688 299.613281 143.664062 Z M 296.5 145.75 " fill-opacity="1" fill-rule="nonzero"/><g clip-path="url(#8cf9c1e570)"><path fill="#e4e8f4" d="M 297.378906 141.203125 L 172.082031 62.4375 C 171.136719 61.847656 170.238281 61.753906 169.605469 62.191406 L 166.457031 64.199219 C 167.085938 63.757812 167.941406 63.859375 168.933594 64.445312 L 294.230469 143.207031 C 295.117188 143.769531 295.894531 144.699219 296.5 145.75 L 299.613281 143.664062 C 299.003906 142.648438 298.242188 141.746094 297.378906 141.203125 Z M 297.378906 141.203125 " fill-opacity="1" fill-rule="nonzero"/></g><path fill="#ffffff" d="M 292.90625 152.703125 L 292.90625 152.941406 L 292.574219 247.125 L 237.992188 212.726562 L 208.273438 194.082031 L 202.304688 190.351562 L 191.921875 183.859375 L 170.042969 170.027344 L 170.265625 75.597656 L 247.054688 123.832031 L 257.328125 130.328125 L 263.40625 134.179688 Z M 292.90625 152.703125 " fill-opacity="1" fill-rule="nonzero"/><path fill="#bac1ce" d="M 147.890625 233.417969 L 193.851562 262.304688 L 194.144531 262.121094 C 194.757812 261.734375 194.730469 261.089844 194.113281 260.703125 L 147.890625 231.648438 C 147.296875 231.273438 146.273438 231.257812 145.660156 231.648438 L 120.40625 247.625 C 119.769531 248.027344 119.796875 248.671875 120.390625 249.042969 L 120.675781 249.222656 L 145.660156 233.417969 C 146.273438 233.027344 147.296875 233.042969 147.890625 233.417969 Z M 147.890625 233.417969 " fill-opacity="1" fill-rule="nonzero"/><path fill="#cad0dd" d="M 168.890625 278.097656 L 193.851562 262.304688 L 147.890625 233.417969 C 147.296875 233.042969 146.273438 233.027344 145.660156 233.417969 L 120.675781 249.222656 L 166.613281 278.097656 C 167.230469 278.484375 168.253906 278.5 168.890625 278.097656 Z M 168.890625 278.097656 " fill-opacity="1" fill-rule="nonzero"/><path fill="#bac1ce" d="M 273.605469 273.128906 L 273.613281 275.789062 L 296.5 261.078125 L 296.496094 258.421875 Z M 273.605469 273.128906 " fill-opacity="1" fill-rule="nonzero"/><path fill="#5b5e71" d="M 170.746094 184.164062 C 171.25 184.480469 171.238281 184.960938 170.75 185.269531 L 167.28125 187.464844 C 166.816406 187.757812 166.03125 187.785156 165.527344 187.46875 L 160.363281 184.222656 C 159.875 183.914062 159.898438 183.410156 160.359375 183.117188 L 163.828125 180.921875 C 164.320312 180.613281 165.09375 180.613281 165.582031 180.921875 Z M 170.746094 184.164062 " fill-opacity="1" fill-rule="nonzero"/><path fill="#5b5e71" d="M 178.664062 189.140625 C 179.15625 189.449219 179.183594 189.957031 178.695312 190.265625 L 175.226562 192.460938 C 174.761719 192.753906 173.9375 192.753906 173.445312 192.445312 L 168.269531 189.191406 C 167.816406 188.90625 167.8125 188.386719 168.277344 188.09375 L 171.746094 185.898438 C 172.234375 185.589844 173.035156 185.605469 173.488281 185.890625 Z M 178.664062 189.140625 " fill-opacity="1" fill-rule="nonzero"/><path fill="#5b5e71" d="M 186.605469 194.136719 C 187.097656 194.445312 187.101562 194.933594 186.613281 195.242188 L 183.140625 197.4375 C 182.679688 197.730469 181.878906 197.746094 181.386719 197.4375 L 176.214844 194.183594 C 175.722656 193.875 175.757812 193.378906 176.222656 193.085938 L 179.691406 190.890625 C 180.179688 190.582031 180.941406 190.574219 181.433594 190.882812 Z M 186.605469 194.136719 " fill-opacity="1" fill-rule="nonzero"/><path fill="#5b5e71" d="M 194.511719 199.105469 C 195.015625 199.421875 195.042969 199.925781 194.554688 200.234375 L 191.085938 202.429688 C 190.621094 202.722656 189.796875 202.722656 189.292969 202.40625 L 184.132812 199.160156 C 183.640625 198.851562 183.664062 198.347656 184.125 198.054688 L 187.59375 195.859375 C 188.085938 195.550781 188.859375 195.550781 189.351562 195.859375 Z M 194.511719 199.105469 " fill-opacity="1" fill-rule="nonzero"/><path fill="#5b5e71" d="M 202.46875 204.105469 C 202.960938 204.414062 202.949219 204.894531 202.460938 205.203125 L 198.992188 207.398438 C 198.527344 207.691406 197.742188 207.714844 197.25 207.40625 L 192.074219 204.152344 C 191.582031 203.84375 191.566406 203.316406 192.03125 203.023438 L 195.5 200.828125 C 195.988281 200.519531 196.800781 200.542969 197.292969 200.851562 Z M 202.46875 204.105469 " fill-opacity="1" fill-rule="nonzero"/><path fill="#5b5e71" d="M 163.675781 188.636719 C 164.179688 188.957031 164.183594 189.425781 163.695312 189.734375 L 158.964844 192.726562 C 158.476562 193.039062 157.691406 193.0625 157.183594 192.746094 L 152.023438 189.5 C 151.53125 189.191406 151.554688 188.6875 152.042969 188.378906 L 156.773438 185.386719 C 157.261719 185.078125 158.023438 185.085938 158.515625 185.394531 Z M 163.675781 188.636719 " fill-opacity="1" fill-rule="nonzero"/><path fill="#5b5e71" d="M 171.59375 193.613281 C 172.085938 193.921875 172.125 194.421875 171.636719 194.730469 L 166.910156 197.722656 C 166.421875 198.03125 165.59375 198.03125 165.101562 197.722656 L 159.929688 194.46875 C 159.476562 194.183594 159.472656 193.664062 159.960938 193.355469 L 164.691406 190.363281 C 165.179688 190.054688 165.964844 190.078125 166.417969 190.363281 Z M 171.59375 193.613281 " fill-opacity="1" fill-rule="nonzero"/><path fill="#5b5e71" d="M 179.539062 198.609375 C 180.027344 198.917969 180.042969 199.398438 179.554688 199.707031 L 174.824219 202.699219 C 174.335938 203.007812 173.539062 203.023438 173.046875 202.714844 L 167.871094 199.460938 C 167.378906 199.152344 167.417969 198.65625 167.90625 198.347656 L 172.632812 195.355469 C 173.121094 195.046875 173.871094 195.046875 174.363281 195.355469 Z M 179.539062 198.609375 " fill-opacity="1" fill-rule="nonzero"/><path fill="#5b5e71" d="M 187.441406 203.578125 C 187.945312 203.894531 187.988281 204.390625 187.5 204.699219 L 182.769531 207.691406 C 182.28125 208 181.457031 208 180.953125 207.683594 L 175.789062 204.4375 C 175.296875 204.128906 175.320312 203.625 175.808594 203.316406 L 180.539062 200.324219 C 181.027344 200.015625 181.789062 200.023438 182.28125 200.332031 Z M 187.441406 203.578125 " fill-opacity="1" fill-rule="nonzero"/><path fill="#5b5e71" d="M 195.398438 208.578125 C 195.890625 208.886719 195.890625 209.359375 195.40625 209.667969 L 190.675781 212.660156 C 190.1875 212.96875 189.398438 212.992188 188.90625 212.683594 L 183.734375 209.429688 C 183.242188 209.121094 183.226562 208.59375 183.714844 208.285156 L 188.445312 205.292969 C 188.933594 204.984375 189.730469 205.015625 190.222656 205.324219 Z M 195.398438 208.578125 " fill-opacity="1" fill-rule="nonzero"/><path fill="#5b5e71" d="M 160.011719 196.046875 C 160.503906 196.355469 160.507812 196.84375 160.019531 197.152344 L 155.300781 200.136719 C 154.800781 200.453125 154.039062 200.445312 153.546875 200.136719 L 144.351562 194.355469 C 143.859375 194.046875 143.84375 193.566406 144.34375 193.25 L 149.0625 190.265625 C 149.550781 189.957031 150.324219 189.957031 150.816406 190.265625 Z M 160.011719 196.046875 " fill-opacity="1" fill-rule="nonzero"/><path fill="#5b5e71" d="M 168.152344 201.160156 C 168.605469 201.445312 168.644531 201.957031 168.15625 202.265625 L 163.441406 205.253906 C 162.9375 205.570312 162.140625 205.535156 161.6875 205.25 L 156.511719 202 C 156.019531 201.691406 155.976562 201.195312 156.480469 200.875 L 161.195312 197.890625 C 161.683594 197.582031 162.484375 197.601562 162.976562 197.910156 Z M 168.152344 201.160156 " fill-opacity="1" fill-rule="nonzero"/><path fill="#5b5e71" d="M 176.09375 206.15625 C 176.558594 206.445312 176.589844 206.953125 176.101562 207.261719 L 171.382812 210.246094 C 170.882812 210.5625 170.09375 210.539062 169.628906 210.246094 L 164.46875 207 C 163.964844 206.683594 163.921875 206.1875 164.421875 205.871094 L 169.140625 202.886719 C 169.628906 202.578125 170.429688 202.59375 170.933594 202.910156 Z M 176.09375 206.15625 " fill-opacity="1" fill-rule="nonzero"/><path fill="#5b5e71" d="M 184.050781 211.15625 C 184.503906 211.441406 184.53125 211.945312 184.042969 212.253906 L 179.328125 215.238281 C 178.824219 215.554688 178.039062 215.53125 177.585938 215.246094 L 172.410156 211.992188 C 171.917969 211.683594 171.863281 211.179688 172.367188 210.863281 L 177.082031 207.878906 C 177.570312 207.570312 178.382812 207.59375 178.875 207.902344 Z M 184.050781 211.15625 " fill-opacity="1" fill-rule="nonzero"/><path fill="#5b5e71" d="M 154.359375 202.21875 C 154.851562 202.527344 154.890625 203.023438 154.390625 203.339844 L 149.671875 206.324219 C 149.183594 206.632812 148.386719 206.617188 147.894531 206.308594 L 136.636719 199.234375 C 136.144531 198.925781 136.144531 198.4375 136.632812 198.128906 L 141.347656 195.144531 C 141.851562 194.828125 142.613281 194.835938 143.101562 195.144531 Z M 154.359375 202.21875 " fill-opacity="1" fill-rule="nonzero"/><path fill="#5b5e71" d="M 162.339844 207.234375 C 162.832031 207.546875 162.847656 208.023438 162.347656 208.34375 L 157.628906 211.328125 C 157.140625 211.636719 156.367188 211.636719 155.875 211.328125 L 150.699219 208.074219 C 150.210938 207.765625 150.21875 207.285156 150.707031 206.976562 L 155.425781 203.992188 C 155.925781 203.675781 156.675781 203.675781 157.167969 203.984375 Z M 162.339844 207.234375 " fill-opacity="1" fill-rule="nonzero"/><path fill="#5b5e71" d="M 150.566406 209.511719 C 151.058594 209.820312 151.023438 210.316406 150.535156 210.628906 L 145.804688 213.621094 C 145.316406 213.929688 144.566406 213.929688 144.074219 213.621094 L 128.9375 204.105469 C 128.445312 203.796875 128.433594 203.316406 128.921875 203.007812 L 133.648438 200.015625 C 134.136719 199.707031 134.9375 199.691406 135.429688 200 Z M 150.566406 209.511719 " fill-opacity="1" fill-rule="nonzero"/><path fill="#5b5e71" d="M 170.246094 212.203125 C 170.738281 212.515625 170.753906 212.992188 170.25 213.3125 L 165.535156 216.296875 C 165.046875 216.605469 164.273438 216.605469 163.78125 216.296875 L 158.617188 213.050781 C 158.113281 212.734375 158.085938 212.230469 158.574219 211.921875 L 163.292969 208.933594 C 163.792969 208.617188 164.578125 208.644531 165.082031 208.960938 Z M 170.246094 212.203125 " fill-opacity="1" fill-rule="nonzero"/><path fill="#5b5e71" d="M 158.355469 214.410156 C 158.847656 214.71875 158.824219 215.222656 158.335938 215.53125 L 153.605469 218.523438 C 153.117188 218.832031 152.355469 218.824219 151.863281 218.515625 L 146.6875 215.261719 C 146.195312 214.953125 146.195312 214.480469 146.683594 214.171875 L 151.414062 211.179688 C 151.902344 210.871094 152.6875 210.847656 153.179688 211.15625 Z M 158.355469 214.410156 " fill-opacity="1" fill-rule="nonzero"/><path fill="#5b5e71" d="M 135.296875 209.628906 C 135.789062 209.9375 135.742188 210.441406 135.253906 210.75 L 130.535156 213.734375 C 130.046875 214.042969 129.285156 214.050781 128.796875 213.742188 L 121.226562 208.984375 C 120.734375 208.675781 120.734375 208.1875 121.222656 207.878906 L 125.9375 204.894531 C 126.425781 204.585938 127.238281 204.5625 127.730469 204.871094 Z M 135.296875 209.628906 " fill-opacity="1" fill-rule="nonzero"/><path fill="#5b5e71" d="M 142.867188 214.382812 C 143.359375 214.695312 143.308594 215.199219 142.820312 215.507812 L 138.105469 218.492188 C 137.617188 218.800781 136.855469 218.808594 136.363281 218.5 L 131.1875 215.246094 C 130.695312 214.9375 130.65625 214.425781 131.144531 214.117188 L 135.863281 211.132812 C 136.347656 210.824219 137.199219 210.824219 137.691406 211.132812 Z M 142.867188 214.382812 " fill-opacity="1" fill-rule="nonzero"/><path fill="#5b5e71" d="M 150.925781 219.449219 C 151.417969 219.757812 151.371094 220.265625 150.882812 220.574219 L 146.164062 223.558594 C 145.675781 223.867188 144.914062 223.875 144.421875 223.566406 L 139.25 220.3125 C 138.757812 220.003906 138.714844 219.492188 139.203125 219.183594 L 143.921875 216.199219 C 144.410156 215.890625 145.261719 215.890625 145.753906 216.199219 Z M 150.925781 219.449219 " fill-opacity="1" fill-rule="nonzero"/><path fill="#5b5e71" d="M 178.164062 217.179688 C 178.65625 217.492188 178.65625 217.960938 178.15625 218.277344 L 173.4375 221.265625 C 172.949219 221.574219 172.191406 221.582031 171.699219 221.273438 L 166.523438 218.019531 C 166.03125 217.710938 165.992188 217.199219 166.480469 216.890625 L 171.195312 213.902344 C 171.699219 213.585938 172.496094 213.621094 172.988281 213.929688 Z M 178.164062 217.179688 " fill-opacity="1" fill-rule="nonzero"/><path fill="#5b5e71" d="M 166.335938 219.425781 C 166.828125 219.734375 166.804688 220.238281 166.316406 220.546875 L 161.585938 223.539062 C 161.097656 223.851562 160.335938 223.84375 159.847656 223.53125 L 154.683594 220.289062 C 154.179688 219.972656 154.136719 219.476562 154.625 219.164062 L 159.355469 216.171875 C 159.84375 215.863281 160.671875 215.863281 161.175781 216.179688 Z M 166.335938 219.425781 " fill-opacity="1" fill-rule="nonzero"/><path fill="#5b5e71" d="M 210.375 209.074219 C 210.863281 209.382812 210.894531 209.886719 210.402344 210.195312 L 206.933594 212.390625 C 206.472656 212.683594 205.644531 212.683594 205.152344 212.375 L 199.980469 209.121094 C 199.488281 208.8125 199.523438 208.316406 199.988281 208.023438 L 203.457031 205.828125 C 203.945312 205.519531 204.707031 205.511719 205.199219 205.820312 Z M 210.375 209.074219 " fill-opacity="1" fill-rule="nonzero"/><path fill="#5b5e71" d="M 203.304688 213.546875 C 203.796875 213.855469 203.835938 214.351562 203.347656 214.660156 L 198.617188 217.652344 C 198.128906 217.960938 197.304688 217.960938 196.8125 217.652344 L 191.636719 214.398438 C 191.144531 214.089844 191.183594 213.59375 191.671875 213.285156 L 196.402344 210.292969 C 196.890625 209.984375 197.636719 209.984375 198.128906 210.292969 Z M 203.304688 213.546875 " fill-opacity="1" fill-rule="nonzero"/><path fill="#5b5e71" d="M 191.957031 216.125 C 192.449219 216.433594 192.476562 216.9375 191.988281 217.246094 L 187.269531 220.230469 C 186.769531 220.546875 185.984375 220.523438 185.492188 220.214844 L 180.355469 216.984375 C 179.863281 216.675781 179.820312 216.179688 180.324219 215.863281 L 185.039062 212.878906 C 185.527344 212.570312 186.328125 212.585938 186.820312 212.894531 Z M 191.957031 216.125 " fill-opacity="1" fill-rule="nonzero"/><path fill="#5b5e71" d="M 186.066406 222.148438 C 186.558594 222.460938 186.574219 222.9375 186.074219 223.257812 L 181.355469 226.242188 C 180.867188 226.550781 180.09375 226.550781 179.601562 226.242188 L 174.429688 222.988281 C 173.9375 222.679688 173.90625 222.175781 174.394531 221.867188 L 179.113281 218.882812 C 179.613281 218.5625 180.402344 218.589844 180.894531 218.898438 Z M 186.066406 222.148438 " fill-opacity="1" fill-rule="nonzero"/><path fill="#5b5e71" d="M 174.320312 224.445312 C 174.785156 224.734375 174.789062 225.257812 174.300781 225.566406 L 169.570312 228.558594 C 169.082031 228.867188 168.292969 228.84375 167.828125 228.550781 L 162.667969 225.304688 C 162.175781 224.996094 162.121094 224.492188 162.609375 224.183594 L 167.339844 221.191406 C 167.828125 220.882812 168.664062 220.890625 169.15625 221.199219 Z M 174.320312 224.445312 " fill-opacity="1" fill-rule="nonzero"/><path fill="#5b5e71" d="M 218.316406 214.066406 C 218.78125 214.359375 218.8125 214.863281 218.320312 215.171875 L 214.851562 217.367188 C 214.390625 217.660156 213.5625 217.660156 213.097656 217.367188 L 207.9375 214.125 C 207.429688 213.808594 207.429688 213.285156 207.890625 212.992188 L 211.363281 210.796875 C 211.851562 210.488281 212.648438 210.503906 213.15625 210.820312 Z M 218.316406 214.066406 " fill-opacity="1" fill-rule="nonzero"/><path fill="#5b5e71" d="M 211.246094 218.539062 C 211.710938 218.832031 211.753906 219.328125 211.265625 219.636719 L 206.535156 222.628906 C 206.046875 222.9375 205.222656 222.9375 204.757812 222.644531 L 199.59375 219.402344 C 199.089844 219.085938 199.085938 218.5625 199.574219 218.253906 L 204.304688 215.261719 C 204.792969 214.953125 205.582031 214.976562 206.085938 215.292969 Z M 211.246094 218.539062 " fill-opacity="1" fill-rule="nonzero"/><path fill="#5b5e71" d="M 199.898438 221.117188 C 200.390625 221.425781 200.433594 221.9375 199.945312 222.246094 L 195.226562 225.230469 C 194.726562 225.550781 193.925781 225.515625 193.433594 225.207031 L 188.257812 221.953125 C 187.808594 221.671875 187.765625 221.175781 188.265625 220.855469 L 192.984375 217.871094 C 193.472656 217.5625 194.273438 217.578125 194.722656 217.863281 Z M 199.898438 221.117188 " fill-opacity="1" fill-rule="nonzero"/><path fill="#5b5e71" d="M 193.972656 227.117188 C 194.464844 227.429688 194.480469 227.90625 193.980469 228.226562 L 189.261719 231.210938 C 188.773438 231.519531 188 231.519531 187.507812 231.210938 L 182.332031 227.957031 C 181.839844 227.648438 181.8125 227.144531 182.300781 226.835938 L 187.019531 223.851562 C 187.519531 223.53125 188.304688 223.558594 188.796875 223.867188 Z M 193.972656 227.117188 " fill-opacity="1" fill-rule="nonzero"/><path fill="#5b5e71" d="M 182.277344 229.445312 C 182.765625 229.753906 182.769531 230.273438 182.28125 230.582031 L 177.550781 233.574219 C 177.0625 233.882812 176.277344 233.859375 175.785156 233.550781 L 170.609375 230.296875 C 170.117188 229.988281 170.101562 229.507812 170.589844 229.199219 L 175.320312 226.207031 C 175.808594 225.898438 176.609375 225.882812 177.101562 226.191406 Z M 182.277344 229.445312 " fill-opacity="1" fill-rule="nonzero"/><path fill="#5b5e71" d="M 226.234375 219.042969 C 226.726562 219.351562 226.714844 219.832031 226.226562 220.140625 L 222.757812 222.335938 C 222.292969 222.628906 221.507812 222.65625 221.015625 222.34375 L 215.839844 219.09375 C 215.347656 218.785156 215.371094 218.277344 215.835938 217.984375 L 219.304688 215.789062 C 219.792969 215.480469 220.566406 215.480469 221.058594 215.789062 Z M 226.234375 219.042969 " fill-opacity="1" fill-rule="nonzero"/><path fill="#5b5e71" d="M 219.164062 223.515625 C 219.65625 223.824219 219.660156 224.296875 219.171875 224.605469 L 214.441406 227.597656 C 213.953125 227.90625 213.164062 227.933594 212.675781 227.621094 L 207.5 224.371094 C 207.007812 224.0625 207.03125 223.558594 207.519531 223.246094 L 212.25 220.253906 C 212.738281 219.945312 213.5 219.953125 213.988281 220.261719 Z M 219.164062 223.515625 " fill-opacity="1" fill-rule="nonzero"/><path fill="#5b5e71" d="M 207.84375 226.109375 C 208.347656 226.425781 208.375 226.933594 207.886719 227.242188 L 203.171875 230.226562 C 202.667969 230.542969 201.882812 230.519531 201.378906 230.199219 L 196.214844 226.957031 C 195.75 226.664062 195.707031 226.167969 196.210938 225.851562 L 200.925781 222.867188 C 201.414062 222.558594 202.214844 222.574219 202.679688 222.867188 Z M 207.84375 226.109375 " fill-opacity="1" fill-rule="nonzero"/><path fill="#5b5e71" d="M 201.890625 232.09375 C 202.382812 232.40625 202.386719 232.875 201.882812 233.191406 L 197.167969 236.179688 C 196.679688 236.488281 195.917969 236.496094 195.425781 236.1875 L 190.25 232.933594 C 189.757812 232.625 189.71875 232.113281 190.207031 231.804688 L 194.921875 228.816406 C 195.425781 228.5 196.222656 228.535156 196.714844 228.84375 Z M 201.890625 232.09375 " fill-opacity="1" fill-rule="nonzero"/><path fill="#5b5e71" d="M 190.257812 234.460938 C 190.75 234.769531 190.726562 235.277344 190.238281 235.585938 L 185.507812 238.578125 C 185.019531 238.886719 184.257812 238.878906 183.765625 238.570312 L 178.59375 235.316406 C 178.101562 235.007812 178.097656 234.535156 178.585938 234.226562 L 183.316406 231.234375 C 183.804688 230.925781 184.589844 230.902344 185.082031 231.210938 Z M 190.257812 234.460938 " fill-opacity="1" fill-rule="nonzero"/><path fill="#5b5e71" d="M 158.988281 224.515625 C 159.480469 224.824219 159.429688 225.328125 158.941406 225.640625 L 154.222656 228.625 C 153.734375 228.933594 152.976562 228.941406 152.484375 228.632812 L 147.308594 225.378906 C 146.816406 225.070312 146.777344 224.558594 147.265625 224.25 L 151.980469 221.265625 C 152.46875 220.953125 153.320312 220.957031 153.8125 221.265625 Z M 158.988281 224.515625 " fill-opacity="1" fill-rule="nonzero"/><path fill="#5b5e71" d="M 234.140625 224.011719 C 234.628906 224.320312 234.671875 224.832031 234.183594 225.144531 L 230.714844 227.339844 C 230.25 227.632812 229.410156 227.621094 228.921875 227.3125 L 223.746094 224.0625 C 223.292969 223.777344 223.289062 223.257812 223.753906 222.964844 L 227.222656 220.769531 C 227.710938 220.457031 228.511719 220.472656 228.964844 220.757812 Z M 234.140625 224.011719 " fill-opacity="1" fill-rule="nonzero"/><path fill="#5b5e71" d="M 227.070312 228.484375 C 227.5625 228.792969 227.613281 229.296875 227.125 229.605469 L 222.398438 232.601562 C 221.910156 232.910156 221.070312 232.902344 220.578125 232.589844 L 215.402344 229.339844 C 214.949219 229.054688 214.949219 228.535156 215.4375 228.226562 L 220.167969 225.230469 C 220.65625 224.921875 221.441406 224.949219 221.894531 225.230469 Z M 227.070312 228.484375 " fill-opacity="1" fill-rule="nonzero"/><path fill="#5b5e71" d="M 215.800781 231.113281 C 216.292969 231.421875 216.320312 231.925781 215.832031 232.234375 L 211.113281 235.21875 C 210.613281 235.535156 209.824219 235.511719 209.335938 235.203125 L 204.160156 231.949219 C 203.707031 231.664062 203.652344 231.160156 204.152344 230.84375 L 208.871094 227.859375 C 209.359375 227.550781 210.171875 227.574219 210.625 227.859375 Z M 215.800781 231.113281 " fill-opacity="1" fill-rule="nonzero"/><path fill="#5b5e71" d="M 209.796875 237.0625 C 210.285156 237.375 210.289062 237.84375 209.789062 238.160156 L 205.070312 241.148438 C 204.582031 241.457031 203.820312 241.464844 203.332031 241.15625 L 198.15625 237.902344 C 197.664062 237.59375 197.636719 237.089844 198.125 236.78125 L 202.839844 233.796875 C 203.34375 233.476562 204.128906 233.503906 204.621094 233.8125 Z M 209.796875 237.0625 " fill-opacity="1" fill-rule="nonzero"/><path fill="#5b5e71" d="M 242.082031 229.003906 C 242.574219 229.3125 242.578125 229.800781 242.089844 230.109375 L 238.617188 232.308594 C 238.15625 232.601562 237.355469 232.617188 236.863281 232.308594 L 231.703125 229.0625 C 231.195312 228.746094 231.234375 228.25 231.695312 227.957031 L 235.167969 225.761719 C 235.65625 225.453125 236.417969 225.441406 236.921875 225.761719 Z M 242.082031 229.003906 " fill-opacity="1" fill-rule="nonzero"/><path fill="#5b5e71" d="M 235.011719 233.476562 C 235.503906 233.785156 235.519531 234.265625 235.03125 234.574219 L 230.300781 237.570312 C 229.8125 237.878906 229.015625 237.894531 228.523438 237.585938 L 223.359375 234.339844 C 222.855469 234.023438 222.890625 233.527344 223.378906 233.21875 L 228.109375 230.226562 C 228.597656 229.917969 229.347656 229.917969 229.851562 230.234375 Z M 235.011719 233.476562 " fill-opacity="1" fill-rule="nonzero"/><path fill="#5b5e71" d="M 223.742188 236.105469 C 224.234375 236.414062 224.277344 236.925781 223.789062 237.234375 L 219.070312 240.21875 C 218.570312 240.535156 217.769531 240.503906 217.277344 240.195312 L 212.101562 236.941406 C 211.613281 236.632812 211.609375 236.160156 212.109375 235.84375 L 216.828125 232.859375 C 217.316406 232.550781 218.078125 232.542969 218.566406 232.851562 Z M 223.742188 236.105469 " fill-opacity="1" fill-rule="nonzero"/><path fill="#5b5e71" d="M 217.699219 242.03125 C 218.191406 242.34375 218.207031 242.820312 217.707031 243.140625 L 212.988281 246.125 C 212.5 246.433594 211.726562 246.433594 211.234375 246.125 L 206.058594 242.871094 C 205.570312 242.5625 205.539062 242.058594 206.027344 241.75 L 210.746094 238.765625 C 211.246094 238.445312 212.035156 238.472656 212.523438 238.78125 Z M 217.699219 242.03125 " fill-opacity="1" fill-rule="nonzero"/><path fill="#5b5e71" d="M 250 233.980469 C 250.492188 234.289062 250.519531 234.796875 250.03125 235.105469 L 246.5625 237.300781 C 246.097656 237.59375 245.273438 237.59375 244.78125 237.285156 L 239.605469 234.03125 C 239.113281 233.722656 239.136719 233.21875 239.601562 232.925781 L 243.070312 230.730469 C 243.558594 230.421875 244.332031 230.421875 244.824219 230.730469 Z M 250 233.980469 " fill-opacity="1" fill-rule="nonzero"/><path fill="#5b5e71" d="M 242.929688 238.453125 C 243.421875 238.765625 243.464844 239.261719 242.976562 239.570312 L 238.246094 242.5625 C 237.757812 242.871094 236.933594 242.871094 236.441406 242.5625 L 231.265625 239.308594 C 230.773438 239 230.796875 238.496094 231.285156 238.1875 L 236.015625 235.195312 C 236.503906 234.886719 237.265625 234.894531 237.757812 235.203125 Z M 242.929688 238.453125 " fill-opacity="1" fill-rule="nonzero"/><path fill="#5b5e71" d="M 231.6875 241.097656 C 232.179688 241.40625 232.21875 241.917969 231.730469 242.226562 L 227.015625 245.210938 C 226.511719 245.53125 225.714844 245.496094 225.222656 245.1875 L 220.058594 241.945312 C 219.554688 241.625 219.550781 241.15625 220.054688 240.835938 L 224.769531 237.851562 C 225.257812 237.542969 226.019531 237.535156 226.523438 237.851562 Z M 231.6875 241.097656 " fill-opacity="1" fill-rule="nonzero"/><path fill="#5b5e71" d="M 225.617188 247.011719 C 226.070312 247.292969 226.113281 247.789062 225.609375 248.109375 L 220.894531 251.09375 C 220.40625 251.402344 219.605469 251.382812 219.152344 251.101562 L 213.976562 247.847656 C 213.484375 247.539062 213.445312 247.027344 213.933594 246.71875 L 218.652344 243.734375 C 219.152344 243.414062 219.953125 243.449219 220.441406 243.757812 Z M 225.617188 247.011719 " fill-opacity="1" fill-rule="nonzero"/><path fill="#5b5e71" d="M 257.945312 238.976562 C 258.4375 239.285156 258.425781 239.765625 257.9375 240.074219 L 254.464844 242.269531 C 254.003906 242.5625 253.214844 242.585938 252.726562 242.277344 L 247.550781 239.023438 C 247.058594 238.714844 247.054688 238.195312 247.519531 237.902344 L 250.988281 235.707031 C 251.476562 235.398438 252.277344 235.414062 252.769531 235.722656 Z M 257.945312 238.976562 " fill-opacity="1" fill-rule="nonzero"/><path fill="#5b5e71" d="M 250.875 243.449219 C 251.367188 243.757812 251.367188 244.230469 250.878906 244.539062 L 246.148438 247.53125 C 245.660156 247.839844 244.875 247.863281 244.382812 247.554688 L 239.207031 244.300781 C 238.71875 243.992188 238.714844 243.472656 239.203125 243.164062 L 243.933594 240.171875 C 244.421875 239.863281 245.207031 239.886719 245.699219 240.195312 Z M 250.875 243.449219 " fill-opacity="1" fill-rule="nonzero"/><path fill="#5b5e71" d="M 198.242188 239.480469 C 198.730469 239.789062 198.710938 240.292969 198.222656 240.601562 L 193.492188 243.59375 C 193.003906 243.902344 192.242188 243.894531 191.75 243.585938 L 186.574219 240.332031 C 186.082031 240.023438 186.042969 239.527344 186.53125 239.21875 L 191.261719 236.226562 C 191.75 235.917969 192.574219 235.917969 193.066406 236.226562 Z M 198.242188 239.480469 " fill-opacity="1" fill-rule="nonzero"/><path fill="#5b5e71" d="M 206.183594 244.472656 C 206.6875 244.789062 206.691406 245.308594 206.203125 245.621094 L 201.472656 248.613281 C 200.984375 248.921875 200.199219 248.898438 199.695312 248.578125 L 194.53125 245.335938 C 194.066406 245.042969 194.023438 244.546875 194.511719 244.238281 L 199.242188 241.246094 C 199.730469 240.933594 200.554688 240.933594 201.023438 241.226562 Z M 206.183594 244.472656 " fill-opacity="1" fill-rule="nonzero"/><path fill="#5b5e71" d="M 214.179688 249.5 C 214.671875 249.808594 214.671875 250.328125 214.1875 250.636719 L 209.457031 253.628906 C 208.96875 253.9375 208.179688 253.914062 207.6875 253.605469 L 202.515625 250.351562 C 202.023438 250.042969 202.007812 249.5625 202.496094 249.253906 L 207.226562 246.261719 C 207.714844 245.953125 208.511719 245.9375 209.003906 246.246094 Z M 214.179688 249.5 " fill-opacity="1" fill-rule="nonzero"/><path fill="#5b5e71" d="M 198.484375 249.34375 C 198.988281 249.660156 198.980469 250.191406 198.492188 250.5 L 193.773438 253.484375 C 193.285156 253.792969 192.484375 253.777344 191.980469 253.457031 L 155.367188 230.445312 C 154.878906 230.136719 154.847656 229.632812 155.335938 229.324219 L 160.054688 226.339844 C 160.542969 226.03125 161.378906 226.019531 161.871094 226.332031 Z M 198.484375 249.34375 " fill-opacity="1" fill-rule="nonzero"/><path fill="#5b5e71" d="M 206.480469 254.371094 C 206.972656 254.679688 206.960938 255.207031 206.472656 255.515625 L 201.757812 258.5 C 201.269531 258.808594 200.46875 258.792969 199.976562 258.484375 L 194.800781 255.230469 C 194.308594 254.921875 194.308594 254.433594 194.796875 254.125 L 199.511719 251.140625 C 200 250.832031 200.8125 250.808594 201.304688 251.117188 Z M 206.480469 254.371094 " fill-opacity="1" fill-rule="nonzero"/><path fill="#5b5e71" d="M 239.644531 246.097656 C 240.136719 246.40625 240.164062 246.914062 239.675781 247.222656 L 234.957031 250.207031 C 234.457031 250.523438 233.667969 250.5 233.179688 250.1875 L 228.003906 246.9375 C 227.511719 246.628906 227.496094 246.148438 227.996094 245.832031 L 232.714844 242.847656 C 233.203125 242.539062 233.976562 242.539062 234.46875 242.847656 Z M 239.644531 246.097656 " fill-opacity="1" fill-rule="nonzero"/><path fill="#5b5e71" d="M 233.523438 251.976562 C 233.976562 252.261719 234.015625 252.757812 233.515625 253.074219 L 228.796875 256.0625 C 228.308594 256.371094 227.511719 256.351562 227.058594 256.070312 L 221.882812 252.816406 C 221.390625 252.507812 221.363281 252.003906 221.851562 251.695312 L 226.566406 248.710938 C 227.070312 248.390625 227.855469 248.417969 228.347656 248.726562 Z M 233.523438 251.976562 " fill-opacity="1" fill-rule="nonzero"/><path fill="#5b5e71" d="M 222.160156 254.515625 C 222.652344 254.824219 222.617188 255.320312 222.128906 255.628906 L 217.398438 258.621094 C 216.910156 258.929688 216.164062 258.929688 215.671875 258.621094 L 210.496094 255.371094 C 210.003906 255.0625 209.988281 254.582031 210.476562 254.273438 L 215.207031 251.277344 C 215.695312 250.96875 216.496094 250.953125 216.988281 251.261719 Z M 222.160156 254.515625 " fill-opacity="1" fill-rule="nonzero"/><path fill="#5b5e71" d="M 214.644531 259.5 C 215.148438 259.816406 215.136719 260.347656 214.648438 260.65625 L 209.933594 263.640625 C 209.445312 263.949219 208.644531 263.933594 208.140625 263.617188 L 202.976562 260.371094 C 202.488281 260.0625 202.484375 259.574219 202.972656 259.265625 L 207.691406 256.28125 C 208.179688 255.972656 208.988281 255.945312 209.480469 256.257812 Z M 214.644531 259.5 " fill-opacity="1" fill-rule="nonzero"/><path fill="#5b5e71" d="M 265.847656 243.945312 C 266.339844 244.253906 266.382812 244.765625 265.894531 245.074219 L 262.421875 247.269531 C 261.960938 247.5625 261.121094 247.554688 260.628906 247.246094 L 255.453125 243.992188 C 254.964844 243.683594 255 243.1875 255.460938 242.894531 L 258.933594 240.699219 C 259.421875 240.390625 260.183594 240.382812 260.671875 240.691406 Z M 265.847656 243.945312 " fill-opacity="1" fill-rule="nonzero"/><path fill="#5b5e71" d="M 258.777344 248.417969 C 259.269531 248.726562 259.324219 249.230469 258.835938 249.539062 L 254.105469 252.53125 C 253.617188 252.839844 252.78125 252.832031 252.289062 252.523438 L 247.113281 249.269531 C 246.621094 248.960938 246.65625 248.464844 247.144531 248.15625 L 251.875 245.164062 C 252.363281 244.855469 253.113281 244.855469 253.605469 245.164062 Z M 258.777344 248.417969 " fill-opacity="1" fill-rule="nonzero"/><path fill="#5b5e71" d="M 247.585938 251.09375 C 248.078125 251.402344 248.105469 251.90625 247.617188 252.214844 L 242.902344 255.199219 C 242.398438 255.515625 241.613281 255.492188 241.121094 255.183594 L 235.945312 251.929688 C 235.457031 251.621094 235.4375 251.140625 235.941406 250.824219 L 240.660156 247.839844 C 241.144531 247.53125 241.921875 247.53125 242.410156 247.839844 Z M 247.585938 251.09375 " fill-opacity="1" fill-rule="nonzero"/><path fill="#5b5e71" d="M 241.425781 256.945312 C 241.878906 257.230469 241.933594 257.734375 241.433594 258.054688 L 236.714844 261.039062 C 236.226562 261.347656 235.414062 261.320312 234.960938 261.039062 L 229.800781 257.792969 C 229.296875 257.476562 229.265625 256.972656 229.753906 256.664062 L 234.472656 253.679688 C 234.972656 253.359375 235.761719 253.386719 236.265625 253.703125 Z M 241.425781 256.945312 " fill-opacity="1" fill-rule="nonzero"/><path fill="#5b5e71" d="M 230.144531 259.535156 C 230.636719 259.84375 230.613281 260.347656 230.125 260.65625 L 225.394531 263.648438 C 224.90625 263.957031 224.144531 263.949219 223.652344 263.640625 L 218.480469 260.386719 C 217.988281 260.078125 217.945312 259.582031 218.433594 259.273438 L 223.164062 256.28125 C 223.652344 255.972656 224.476562 255.972656 224.96875 256.28125 Z M 230.144531 259.535156 " fill-opacity="1" fill-rule="nonzero"/><path fill="#5b5e71" d="M 222.820312 264.640625 C 223.324219 264.957031 223.316406 265.484375 222.828125 265.792969 L 218.109375 268.78125 C 217.621094 269.089844 216.820312 269.070312 216.316406 268.753906 L 211.15625 265.511719 C 210.648438 265.191406 210.660156 264.714844 211.148438 264.40625 L 215.867188 261.417969 C 216.355469 261.109375 217.152344 261.078125 217.660156 261.394531 Z M 222.820312 264.640625 " fill-opacity="1" fill-rule="nonzero"/><path fill="#5b5e71" d="M 273.792969 248.9375 C 274.257812 249.230469 274.285156 249.734375 273.796875 250.042969 L 270.328125 252.238281 C 269.863281 252.53125 269.039062 252.53125 268.574219 252.238281 L 263.410156 248.992188 C 262.90625 248.675781 262.90625 248.15625 263.367188 247.863281 L 266.835938 245.667969 C 267.324219 245.359375 268.125 245.375 268.628906 245.691406 Z M 273.792969 248.9375 " fill-opacity="1" fill-rule="nonzero"/><path fill="#5b5e71" d="M 284.027344 255.371094 C 284.515625 255.679688 284.519531 256.167969 284.03125 256.476562 L 280.5625 258.671875 C 280.097656 258.964844 279.296875 258.980469 278.808594 258.671875 L 271.316406 253.960938 C 270.824219 253.652344 270.847656 253.148438 271.3125 252.855469 L 274.78125 250.660156 C 275.269531 250.351562 276.042969 250.351562 276.535156 250.660156 Z M 284.027344 255.371094 " fill-opacity="1" fill-rule="nonzero"/><path fill="#5b5e71" d="M 276.957031 259.84375 C 277.449219 260.152344 277.464844 260.632812 276.976562 260.941406 L 272.246094 263.933594 C 271.757812 264.242188 270.957031 264.257812 270.464844 263.949219 L 255.753906 254.703125 C 255.25 254.386719 255.289062 253.890625 255.773438 253.582031 L 260.503906 250.585938 C 260.992188 250.277344 261.742188 250.277344 262.246094 250.597656 Z M 276.957031 259.84375 " fill-opacity="1" fill-rule="nonzero"/><path fill="#5b5e71" d="M 255.53125 256.085938 C 256.023438 256.394531 256.0625 256.90625 255.574219 257.214844 L 250.859375 260.199219 C 250.355469 260.515625 249.558594 260.484375 249.066406 260.175781 L 243.890625 256.921875 C 243.398438 256.613281 243.394531 256.140625 243.898438 255.824219 L 248.613281 252.839844 C 249.101562 252.53125 249.863281 252.523438 250.355469 252.832031 Z M 255.53125 256.085938 " fill-opacity="1" fill-rule="nonzero"/><path fill="#5b5e71" d="M 269.257812 264.714844 C 269.75 265.023438 269.75 265.511719 269.261719 265.820312 L 264.546875 268.804688 C 264.042969 269.121094 263.285156 269.113281 262.792969 268.804688 L 251.535156 261.730469 C 251.042969 261.417969 251.027344 260.941406 251.53125 260.621094 L 256.246094 257.636719 C 256.734375 257.328125 257.507812 257.328125 258 257.636719 Z M 269.257812 264.714844 " fill-opacity="1" fill-rule="nonzero"/><path fill="#5b5e71" d="M 261.546875 269.59375 C 262.035156 269.902344 262.050781 270.382812 261.550781 270.699219 L 256.832031 273.683594 C 256.34375 273.992188 255.570312 273.992188 255.082031 273.683594 L 237.667969 262.738281 C 237.214844 262.453125 237.171875 261.941406 237.660156 261.632812 L 242.378906 258.648438 C 242.878906 258.328125 243.679688 258.363281 244.132812 258.648438 Z M 261.546875 269.59375 " fill-opacity="1" fill-rule="nonzero"/><path fill="#5b5e71" d="M 253.871094 274.449219 C 254.363281 274.757812 254.339844 275.261719 253.851562 275.570312 L 249.121094 278.5625 C 248.632812 278.871094 247.871094 278.863281 247.378906 278.554688 L 226.617188 265.503906 C 226.125 265.191406 226.082031 264.695312 226.570312 264.386719 L 231.300781 261.394531 C 231.789062 261.085938 232.617188 261.085938 233.105469 261.394531 Z M 253.871094 274.449219 " fill-opacity="1" fill-rule="nonzero"/><path fill="#5b5e71" d="M 226.878906 271.714844 C 227.371094 272.023438 227.375 272.511719 226.886719 272.820312 L 225.949219 273.414062 C 225.445312 273.730469 224.648438 273.75 224.15625 273.4375 L 218.980469 270.1875 C 218.488281 269.878906 218.523438 269.382812 219.027344 269.0625 L 219.964844 268.46875 C 220.453125 268.160156 221.214844 268.152344 221.707031 268.460938 Z M 226.878906 271.714844 " fill-opacity="1" fill-rule="nonzero"/><path fill="#5b5e71" d="M 238.421875 274.203125 C 238.914062 274.511719 238.941406 275.015625 238.453125 275.324219 L 237.476562 275.945312 C 236.976562 276.261719 236.1875 276.238281 235.695312 275.925781 L 230.523438 272.675781 C 230.03125 272.367188 230.015625 271.886719 230.515625 271.570312 L 231.492188 270.949219 C 231.980469 270.640625 232.753906 270.640625 233.246094 270.949219 Z M 238.421875 274.203125 " fill-opacity="1" fill-rule="nonzero"/><path fill="#5b5e71" d="M 234.644531 276.59375 C 235.132812 276.902344 235.164062 277.40625 234.675781 277.714844 L 233.734375 278.308594 C 233.234375 278.628906 232.410156 278.628906 231.917969 278.320312 L 226.742188 275.066406 C 226.25 274.757812 226.273438 274.253906 226.777344 273.933594 L 227.714844 273.339844 C 228.203125 273.03125 228.976562 273.03125 229.46875 273.339844 Z M 234.644531 276.59375 " fill-opacity="1" fill-rule="nonzero"/><path fill="#5b5e71" d="M 242.429688 281.488281 C 242.921875 281.796875 242.925781 282.285156 242.4375 282.597656 L 241.5 283.1875 C 240.996094 283.507812 240.199219 283.523438 239.707031 283.214844 L 234.542969 279.96875 C 234.039062 279.652344 234.035156 279.132812 234.539062 278.8125 L 235.476562 278.222656 C 235.964844 277.910156 236.765625 277.929688 237.269531 278.246094 Z M 242.429688 281.488281 " fill-opacity="1" fill-rule="nonzero"/><path fill="#30596d" d="M 243.703125 139.574219 C 244.96875 140.367188 245.980469 142.277344 245.976562 143.824219 L 245.960938 149.320312 L 174.140625 104.175781 L 174.15625 98.679688 C 174.160156 97.132812 175.179688 96.5 176.441406 97.296875 Z M 243.703125 139.574219 " fill-opacity="1" fill-rule="nonzero"/><path fill="#bac1ce" d="M 207.179688 173.308594 L 207.171875 176.023438 L 178.238281 157.835938 L 178.242188 155.121094 Z M 207.179688 173.308594 " fill-opacity="1" fill-rule="nonzero"/><path fill="#e4e8f4" d="M 245.980469 149.335938 L 245.808594 211.085938 L 174 165.957031 L 174.128906 104.160156 Z M 245.980469 149.335938 " fill-opacity="1" fill-rule="nonzero"/><path fill="#576cfb" d="M 240.816406 151.035156 C 241.335938 151.363281 241.71875 152.121094 241.71875 152.738281 L 241.671875 170.496094 C 241.667969 171.113281 241.285156 171.386719 240.761719 171.058594 L 226.570312 162.136719 C 226.074219 161.828125 225.664062 161.054688 225.664062 160.4375 L 225.710938 142.679688 C 225.714844 142.058594 226.125 141.804688 226.621094 142.113281 Z M 240.816406 151.035156 " fill-opacity="1" fill-rule="nonzero"/><path fill="#bac1ce" d="M 221.667969 175.535156 L 221.660156 178.25 L 178.253906 150.964844 L 178.261719 148.253906 Z M 221.667969 175.535156 " fill-opacity="1" fill-rule="nonzero"/><path fill="#bac1ce" d="M 221.683594 168.664062 L 221.675781 171.378906 L 178.273438 144.097656 L 178.28125 141.382812 Z M 221.683594 168.664062 " fill-opacity="1" fill-rule="nonzero"/><path fill="#bac1ce" d="M 221.738281 147.714844 L 221.730469 150.429688 L 178.328125 123.144531 L 178.335938 120.433594 Z M 221.738281 147.714844 " fill-opacity="1" fill-rule="nonzero"/><path fill="#bac1ce" d="M 221.757812 140.847656 L 221.75 143.5625 L 178.34375 116.277344 L 178.351562 113.5625 Z M 221.757812 140.847656 " fill-opacity="1" fill-rule="nonzero"/><path fill="#bac1ce" d="M 221.722656 154.585938 L 221.714844 157.296875 L 178.308594 130.015625 L 178.316406 127.300781 Z M 221.722656 154.585938 " fill-opacity="1" fill-rule="nonzero"/><path fill="#ed435c" d="M 240.742188 178.855469 C 241.265625 179.183594 241.648438 179.941406 241.644531 180.558594 L 241.597656 198.316406 C 241.597656 198.933594 241.210938 199.207031 240.691406 198.878906 L 226.496094 189.957031 C 226.003906 189.648438 225.589844 188.871094 225.59375 188.257812 L 225.640625 170.5 C 225.640625 169.878906 226.054688 169.625 226.546875 169.933594 Z M 240.742188 178.855469 " fill-opacity="1" fill-rule="nonzero"/><path fill="#75ca75" d="M 180.242188 102.039062 C 181.074219 102.5625 181.757812 103.851562 181.753906 104.890625 C 181.753906 105.933594 181.066406 106.363281 180.234375 105.835938 C 179.398438 105.3125 178.71875 104.027344 178.71875 102.984375 C 178.722656 101.941406 179.410156 101.515625 180.242188 102.039062 Z M 180.242188 102.039062 " fill-opacity="1" fill-rule="nonzero"/><path fill="#f9bb4a" d="M 184.527344 104.734375 C 185.363281 105.257812 186.042969 106.542969 186.042969 107.585938 C 186.039062 108.628906 185.351562 109.054688 184.519531 108.53125 C 183.675781 108 183.003906 106.722656 183.003906 105.679688 C 183.007812 104.636719 183.683594 104.203125 184.527344 104.734375 Z M 184.527344 104.734375 " fill-opacity="1" fill-rule="nonzero"/><path fill="#ed435c" d="M 188.804688 107.421875 C 189.648438 107.953125 190.320312 109.230469 190.316406 110.273438 C 190.3125 111.316406 189.636719 111.75 188.792969 111.21875 C 187.960938 110.695312 187.277344 109.410156 187.28125 108.367188 C 187.285156 107.324219 187.96875 106.898438 188.804688 107.421875 Z M 188.804688 107.421875 " fill-opacity="1" fill-rule="nonzero"/><path fill="#e4e8f4" d="M 284.558594 164.480469 L 284.503906 187.050781 L 284.503906 188.671875 C 284.503906 189.210938 284.117188 189.449219 283.707031 189.179688 L 253.90625 170.453125 C 253.4375 170.152344 253.132812 169.492188 253.132812 168.980469 L 253.160156 159.859375 L 253.1875 144.761719 C 253.1875 144.160156 253.492188 143.980469 253.988281 144.28125 L 283.789062 163.007812 C 284.203125 163.25 284.558594 163.878906 284.558594 164.480469 Z M 284.558594 164.480469 " fill-opacity="1" fill-rule="nonzero"/><path fill="#ebc5b2" d="M 289.769531 162.859375 L 289.714844 187.050781 C 289.714844 187.769531 289.46875 188.277344 289.082031 188.519531 L 285.195312 190.980469 C 285.578125 190.742188 285.828125 190.230469 285.828125 189.507812 L 285.882812 165.320312 C 285.882812 163.847656 284.945312 162.078125 283.789062 161.359375 L 253.988281 142.601562 C 253.382812 142.242188 252.832031 142.210938 252.445312 142.449219 L 256.332031 140.019531 C 256.71875 139.75 257.269531 139.78125 257.875 140.171875 L 287.675781 158.898438 C 288.832031 159.617188 289.769531 161.386719 289.769531 162.859375 Z M 289.769531 162.859375 " fill-opacity="1" fill-rule="nonzero"/><path fill="#ddaf9b" d="M 283.777344 161.34375 C 284.941406 162.074219 285.886719 163.863281 285.882812 165.316406 L 285.820312 189.511719 C 285.816406 190.964844 284.863281 191.558594 283.703125 190.828125 L 253.90625 172.097656 C 252.761719 171.378906 251.761719 169.558594 251.765625 168.105469 L 251.828125 143.910156 C 251.832031 142.453125 252.835938 141.898438 253.980469 142.617188 Z M 284.5 188.683594 L 284.5625 164.484375 C 284.566406 163.890625 284.195312 163.261719 283.773438 162.996094 L 253.976562 144.265625 C 253.5 143.96875 253.203125 144.175781 253.199219 144.769531 L 253.136719 168.96875 C 253.136719 169.496094 253.433594 170.148438 253.910156 170.445312 L 283.707031 189.175781 C 284.128906 189.441406 284.5 189.210938 284.5 188.683594 " fill-opacity="1" fill-rule="nonzero"/><path fill="#37617b" d="M 284.535156 187.050781 L 284.535156 188.671875 C 284.535156 189.210938 284.148438 189.449219 283.738281 189.179688 L 253.9375 170.453125 C 253.46875 170.152344 253.164062 169.492188 253.164062 168.980469 L 253.191406 159.859375 C 253.828125 159.410156 254.515625 159.015625 255.039062 158.628906 C 256.390625 157.578125 257.769531 156.527344 259.148438 155.507812 C 260.46875 154.574219 262.097656 153.585938 263.503906 154.304688 C 264.578125 154.84375 265.074219 156.136719 265.515625 157.308594 C 266.480469 159.886719 267.417969 162.46875 268.355469 165.050781 C 268.90625 166.519531 269.761719 168.230469 271.195312 168.230469 C 271.882812 168.230469 272.542969 167.8125 273.207031 167.992188 C 273.867188 168.171875 274.28125 168.832031 274.640625 169.460938 C 277.949219 175.34375 281.226562 181.195312 284.535156 187.050781 Z M 284.535156 187.050781 " fill-opacity="1" fill-rule="nonzero"/><path fill="#efac41" d="M 271.929688 157.648438 C 273.316406 158.519531 274.429688 160.617188 274.425781 162.355469 C 274.421875 164.09375 273.300781 164.820312 271.914062 163.949219 C 270.523438 163.074219 269.382812 160.925781 269.386719 159.1875 C 269.394531 157.453125 270.539062 156.773438 271.929688 157.648438 Z M 271.929688 157.648438 " fill-opacity="1" fill-rule="nonzero"/><path fill="#e5a03c" d="M 146.273438 110.492188 L 149.296875 108.578125 L 143.550781 116.570312 L 140.523438 118.484375 Z M 146.273438 110.492188 " fill-opacity="1" fill-rule="nonzero"/><path fill="#fed57a" d="M 158.574219 91.898438 L 158.519531 110.714844 C 158.519531 111.742188 158.175781 112.457031 157.632812 112.800781 L 154.414062 114.722656 C 154.929688 114.378906 155.484375 113.675781 155.484375 112.644531 L 155.542969 93.800781 C 155.542969 91.714844 154.199219 89.21875 152.539062 88.160156 L 128.703125 73.179688 C 127.875 72.679688 127.128906 72.617188 126.585938 72.960938 L 129.589844 71.027344 C 130.132812 70.6875 130.90625 70.75 131.738281 71.277344 L 155.570312 86.261719 C 157.230469 87.289062 158.574219 89.8125 158.574219 91.898438 Z M 158.574219 91.898438 " fill-opacity="1" fill-rule="nonzero"/><path fill="#f9bb4a" d="M 152.535156 88.058594 C 154.195312 89.101562 155.542969 91.621094 155.539062 93.699219 L 155.488281 112.53125 C 155.484375 114.609375 154.128906 115.429688 152.464844 114.386719 L 146.273438 110.492188 L 140.523438 118.484375 L 134.835938 103.304688 L 128.644531 99.410156 C 126.980469 98.367188 125.652344 95.859375 125.65625 93.78125 L 125.707031 74.949219 C 125.710938 72.871094 127.050781 72.039062 128.710938 73.082031 Z M 152.535156 88.058594 " fill-opacity="1" fill-rule="nonzero"/><path fill="#ffffff" d="M 132.585938 85.675781 C 134.246094 86.71875 135.558594 89.234375 135.554688 91.273438 C 135.546875 93.351562 134.226562 94.171875 132.566406 93.128906 C 130.933594 92.101562 129.621094 89.625 129.625 87.546875 C 129.628906 85.507812 130.953125 84.648438 132.585938 85.675781 Z M 132.585938 85.675781 " fill-opacity="1" fill-rule="nonzero"/><path fill="#ffffff" d="M 141.40625 91.21875 C 143.039062 92.246094 144.378906 94.777344 144.375 96.820312 C 144.371094 98.898438 143.019531 99.699219 141.386719 98.671875 C 139.726562 97.628906 138.414062 95.152344 138.417969 93.074219 C 138.421875 91.03125 139.746094 90.175781 141.40625 91.21875 Z M 141.40625 91.21875 " fill-opacity="1" fill-rule="nonzero"/><path fill="#ffffff" d="M 150.199219 96.746094 C 151.832031 97.773438 153.171875 100.304688 153.167969 102.34375 C 153.164062 104.421875 151.8125 105.226562 150.179688 104.199219 C 148.546875 103.171875 147.203125 100.679688 147.210938 98.601562 C 147.214844 96.558594 148.566406 95.71875 150.199219 96.746094 Z M 150.199219 96.746094 " fill-opacity="1" fill-rule="nonzero"/><path fill="#363a44" d="M 134.722656 173.886719 C 141.277344 178.003906 141.3125 184.683594 134.796875 188.804688 C 128.285156 192.925781 117.695312 192.925781 111.140625 188.804688 C 104.585938 184.683594 104.550781 178.003906 111.0625 173.886719 C 117.574219 169.765625 128.164062 169.765625 134.722656 173.886719 Z M 134.722656 173.886719 " fill-opacity="1" fill-rule="nonzero"/><path fill="#ed435c" d="M 137.53125 169.574219 L 137.503906 180.46875 C 137.496094 182.855469 136.054688 185.234375 133.179688 187.054688 C 127.390625 190.71875 117.972656 190.71875 112.144531 187.054688 C 109.210938 185.210938 107.75 182.792969 107.753906 180.378906 L 107.78125 169.484375 C 107.777344 171.898438 109.242188 174.320312 112.175781 176.164062 C 118 179.824219 127.417969 179.824219 133.207031 176.164062 C 136.085938 174.34375 137.523438 171.960938 137.53125 169.574219 Z M 137.53125 169.574219 " fill-opacity="1" fill-rule="nonzero"/><path fill="#f25574" d="M 133.140625 162.898438 C 138.96875 166.5625 138.996094 172.5 133.207031 176.164062 C 127.417969 179.824219 118 179.824219 112.175781 176.164062 C 106.347656 172.5 106.316406 166.5625 112.105469 162.898438 C 117.894531 159.234375 127.3125 159.234375 133.140625 162.898438 Z M 133.140625 162.898438 " fill-opacity="1" fill-rule="nonzero"/><path fill="#ffffff" d="M 126.953125 164.234375 C 127.039062 164.289062 127.097656 164.359375 127.113281 164.445312 L 128.570312 173.261719 C 128.601562 173.476562 128.3125 173.660156 127.96875 173.640625 L 113.992188 172.746094 C 113.855469 172.738281 113.738281 172.699219 113.65625 172.644531 C 113.453125 172.519531 113.417969 172.300781 113.652344 172.152344 L 126.164062 164.238281 C 126.398438 164.089844 126.75 164.109375 126.953125 164.234375 Z M 126.953125 164.234375 " fill-opacity="1" fill-rule="nonzero"/><path fill="#6eba6e" d="M 317.941406 222.179688 L 317.84375 254.769531 C 317.84375 255.261719 317.679688 255.621094 317.417969 255.800781 L 314.078125 257.917969 C 314.339844 257.734375 314.503906 257.375 314.503906 256.886719 L 314.601562 224.296875 Z M 317.941406 222.179688 " fill-opacity="1" fill-rule="nonzero"/><path fill="#e4e8f4" d="M 275.148438 199.507812 L 278.484375 197.398438 L 317.933594 222.191406 L 314.597656 224.304688 Z M 275.148438 199.507812 " fill-opacity="1" fill-rule="nonzero"/><path fill="#9ad898" d="M 314.597656 224.304688 L 314.511719 256.878906 C 314.507812 257.898438 313.855469 258.304688 313.039062 257.789062 L 276.539062 234.847656 C 275.722656 234.335938 275.058594 233.101562 275.0625 232.082031 L 275.148438 199.507812 Z M 314.597656 224.304688 " fill-opacity="1" fill-rule="nonzero"/><path fill="#ffffff" d="M 289.5625 216.367188 L 289.511719 235.453125 L 285.980469 233.230469 L 286.023438 217.683594 L 282.980469 215.773438 L 282.988281 212.234375 Z M 289.5625 216.367188 " fill-opacity="1" fill-rule="nonzero"/><path fill="#ffffff" d="M 304.382812 236.601562 C 306.246094 241.488281 304.039062 244.910156 298.503906 241.433594 C 295.234375 239.375 292.101562 235.632812 292.109375 231.550781 C 292.113281 230.550781 292.3125 229.792969 292.707031 229.261719 C 293.117188 228.761719 293.691406 228.507812 294.429688 228.5 C 293.855469 227.691406 293.433594 226.871094 293.125 226.023438 C 291.539062 221.660156 293.570312 218.558594 298.558594 221.691406 C 301.5625 223.582031 304.457031 227.070312 304.445312 230.863281 C 304.441406 232.332031 303.984375 233.460938 302.652344 233.671875 C 303.402344 234.613281 303.972656 235.585938 304.382812 236.601562 Z M 300.609375 238.757812 C 301.132812 238.597656 301.398438 238.085938 301.398438 237.246094 C 301.40625 234.308594 297.878906 231.664062 296.449219 232.148438 C 295.15625 232.589844 295.253906 236.148438 298.515625 238.199219 C 299.398438 238.753906 300.101562 238.929688 300.609375 238.757812 M 296.828125 224.5 C 296.402344 224.660156 296.191406 225.121094 296.1875 225.859375 C 296.1875 226.59375 296.378906 227.289062 296.804688 227.964844 C 297.230469 228.644531 297.800781 229.226562 298.535156 229.691406 C 299.800781 230.484375 300.925781 230.457031 300.929688 228.839844 C 300.933594 227.199219 299.851562 225.761719 298.546875 224.945312 C 297.828125 224.492188 297.257812 224.335938 296.828125 224.5 " fill-opacity="1" fill-rule="nonzero"/><path fill="#474b59" d="M 317.941406 217.203125 L 317.941406 222.179688 L 314.601562 224.296875 L 314.601562 219.320312 C 314.625 217.023438 313.15625 214.265625 311.332031 213.132812 L 278.460938 192.453125 C 277.539062 191.886719 276.710938 191.835938 276.117188 192.195312 L 279.457031 190.109375 C 280.046875 189.71875 280.878906 189.773438 281.800781 190.339844 L 314.671875 211.015625 C 316.496094 212.152344 317.964844 214.910156 317.941406 217.203125 Z M 317.941406 217.203125 " fill-opacity="1" fill-rule="nonzero"/><path fill="#5b5e71" d="M 311.339844 213.125 C 313.152344 214.265625 314.617188 217.023438 314.609375 219.3125 L 314.597656 224.304688 L 275.148438 199.507812 L 275.160156 194.515625 C 275.167969 192.226562 276.636719 191.3125 278.46875 192.464844 Z M 311.339844 213.125 " fill-opacity="1" fill-rule="nonzero"/></svg>