<svg width="236" height="230" viewBox="0 0 236 230" fill="none" xmlns="http://www.w3.org/2000/svg">
<path d="M125.842 52.2651C125.399 52.0567 125.156 51.5607 125.294 51.0816C125.444 50.5401 126.019 50.2215 126.577 50.37C127.585 50.6407 128.571 51.0001 129.505 51.4433L129.682 51.5272C130.198 51.7764 130.41 52.3873 130.154 52.8904C129.898 53.3912 129.276 53.5972 128.762 53.3552C128.76 53.3528 128.758 53.3504 128.755 53.3504L128.595 53.2738C127.774 52.8856 126.909 52.5694 126.024 52.3322C125.96 52.3154 125.899 52.2939 125.842 52.2651ZM114.509 52.6341C114.251 52.5119 114.047 52.2867 113.961 51.9944C113.801 51.4553 114.123 50.8923 114.679 50.739C115.753 50.4419 116.817 50.2071 117.852 50.0418C118.42 49.9507 118.959 50.3269 119.05 50.8803C119.143 51.4362 118.76 51.9585 118.189 52.0495C117.235 52.2028 116.247 52.4208 115.251 52.6964C114.993 52.7682 114.733 52.7395 114.509 52.6341ZM104.113 57.3299C103.943 57.2485 103.796 57.1263 103.687 56.9586C103.38 56.4842 103.525 55.8565 104.012 55.557C104.926 54.9916 105.856 54.4573 106.77 53.971C107.277 53.7002 107.911 53.8799 108.189 54.3758C108.466 54.867 108.28 55.4851 107.773 55.7558C106.896 56.223 106.008 56.7333 105.128 57.2748C104.811 57.4689 104.427 57.4785 104.113 57.3299ZM95.0907 64.2467C94.985 64.1964 94.8842 64.1269 94.7981 64.0382C94.3974 63.6334 94.4073 62.9913 94.8227 62.5983C95.5774 61.8916 96.3715 61.1848 97.1827 60.502C97.6203 60.1354 98.2791 60.1833 98.6553 60.6074C99.0314 61.0339 98.9847 61.676 98.5471 62.0425C97.7653 62.699 97.0008 63.3794 96.2756 64.0622C95.9511 64.3689 95.4742 64.4288 95.0907 64.2467ZM97.7309 71.0652C97.6768 71.0413 97.6228 71.0101 97.5736 70.9742C96.8017 70.4303 95.9585 69.9895 95.0686 69.6708C94.5277 69.4768 94.2524 68.8898 94.4515 68.3627C94.6531 67.8356 95.2529 67.5673 95.7962 67.7614C96.8607 68.1447 97.876 68.6742 98.8003 69.3259C99.2649 69.6565 99.3706 70.2914 99.0314 70.7466C98.729 71.1539 98.1783 71.2785 97.7309 71.0652ZM83.7725 70.2794C83.5488 70.174 83.3644 69.9919 83.2612 69.7499C83.0424 69.2324 83.2931 68.6382 83.8266 68.425C84.864 68.0057 85.9211 67.6727 86.961 67.4284C87.5239 67.3014 88.0869 67.6368 88.2196 68.183C88.3548 68.7317 88.0082 69.2803 87.4453 69.4073C86.5111 69.6277 85.5622 69.9272 84.6256 70.3034C84.3404 70.4207 84.0306 70.4016 83.7725 70.2794ZM88.1877 73.1232C88.1828 73.1208 88.1803 73.1185 88.1803 73.1185C87.6616 72.8693 87.4502 72.2607 87.7058 71.7576C88.168 70.84 88.7088 69.9128 89.3062 69.0048C89.616 68.5304 90.2674 68.3939 90.7493 68.6957C91.236 68.9976 91.3761 69.6277 91.0664 70.0997C90.5108 70.9478 90.0093 71.8103 89.5791 72.6585C89.3234 73.1592 88.7015 73.3652 88.1877 73.1232ZM102.038 80.8426C101.635 80.6534 101.389 80.2221 101.463 79.7669C101.608 78.89 101.603 77.9772 101.448 77.0524C101.355 76.499 101.74 75.9743 102.311 75.8832C102.879 75.7946 103.417 76.1684 103.508 76.7242C103.7 77.8646 103.705 78.9954 103.525 80.0879C103.434 80.6438 102.898 81.0223 102.328 80.9313C102.227 80.9145 102.129 80.8857 102.038 80.8426ZM74.6988 76.9614C74.6226 76.9254 74.5488 76.8799 74.4825 76.8248C74.04 76.463 73.981 75.8234 74.3522 75.3921C75.0405 74.5919 75.7756 73.818 76.5352 73.0921C76.5696 73.0586 76.6065 73.0274 76.6433 72.9987C77.1031 72.6561 77.757 72.7399 78.1085 73.1855C78.4281 73.5904 78.3863 74.1558 78.0323 74.5128C78.0225 74.52 78.0176 74.5272 78.0102 74.5344C77.2948 75.2172 76.6016 75.9455 75.955 76.6978C75.6403 77.0644 75.1192 77.1602 74.6988 76.9614ZM87.1699 83.847C86.9806 83.7584 86.8184 83.6146 86.7102 83.4229C86.1546 82.4382 85.8129 81.329 85.6974 80.1263C85.6458 79.5656 86.0637 79.0697 86.6389 79.017C87.2142 78.9667 87.7231 79.3764 87.7771 79.937C87.8656 80.8594 88.1238 81.7051 88.5392 82.443C88.8195 82.9342 88.6351 83.5547 88.1287 83.823C87.8214 83.9907 87.4625 83.986 87.1699 83.847ZM94.0705 87.6588C93.7361 87.5006 93.5001 87.1748 93.4805 86.7891C93.4559 86.2261 93.9033 85.7517 94.481 85.7253C95.3709 85.6894 96.2928 85.4786 97.1458 85.1192C97.6744 84.8964 98.2914 85.1336 98.5176 85.6487C98.7487 86.1638 98.5053 86.7627 97.9743 86.9855C96.8754 87.4503 95.7298 87.7091 94.5695 87.7594C94.3901 87.7666 94.2204 87.7306 94.0705 87.6588ZM68.9709 86.5998C68.4915 86.3746 68.258 85.826 68.4473 85.33C68.8234 84.3477 69.2487 83.375 69.7084 82.4382C69.9591 81.9303 70.5811 81.7171 71.1023 81.9591C71.1023 81.9615 71.1047 81.9615 71.1072 81.9615C71.6234 82.2059 71.8422 82.812 71.5939 83.3175C71.1588 84.1992 70.7606 85.1144 70.4066 86.0392C70.205 86.5687 69.6027 86.837 69.0618 86.6381C69.0323 86.6286 69.0004 86.6166 68.9709 86.5998ZM66.7486 97.5344C66.3872 97.3643 66.1438 96.9977 66.161 96.5809C66.1979 95.5411 66.2839 94.4869 66.4167 93.4519C66.4855 92.8937 67.0091 92.4984 67.5795 92.5678C68.1547 92.6349 68.5603 93.1428 68.4891 93.7011C68.3661 94.6786 68.285 95.6728 68.2481 96.6551C68.226 97.2158 67.7417 97.6566 67.1665 97.635C67.0165 97.6278 66.8739 97.5943 66.7486 97.5344ZM68.1744 108.589C67.9212 108.467 67.7171 108.249 67.6286 107.963C67.3238 106.967 67.0632 105.941 66.8493 104.914C66.7363 104.36 67.1026 103.826 67.668 103.713C68.2334 103.603 68.7841 103.96 68.8971 104.511C69.0987 105.479 69.3446 106.444 69.6322 107.381C69.7969 107.92 69.4822 108.486 68.9291 108.646C68.6685 108.723 68.4006 108.694 68.1744 108.589ZM73.2435 118.57C73.0935 118.5 72.9608 118.393 72.8551 118.251C72.2257 117.403 71.6283 116.519 71.0826 115.628C70.7876 115.144 70.9498 114.521 71.4464 114.231C71.9406 113.946 72.5822 114.104 72.8796 114.586C73.391 115.426 73.9539 116.258 74.5488 117.058C74.8856 117.513 74.7824 118.151 74.3153 118.479C73.9908 118.706 73.5803 118.728 73.2435 118.57ZM81.3486 126.443C81.297 126.416 81.2429 126.385 81.1913 126.349C80.3259 125.738 79.4753 125.084 78.6641 124.404C78.2265 124.035 78.1798 123.395 78.5559 122.969C78.9321 122.545 79.5909 122.497 80.0285 122.863C80.793 123.505 81.5969 124.126 82.4155 124.701C82.8826 125.029 82.9883 125.666 82.6515 126.121C82.3491 126.529 81.7985 126.653 81.3486 126.443ZM88.6203 130.415C88.1238 130.18 87.8976 129.607 88.1115 129.107C88.3352 128.589 88.9473 128.345 89.4783 128.56C90.4149 128.941 91.3761 129.282 92.3324 129.579C92.888 129.746 93.1879 130.319 93.0134 130.856C92.8413 131.39 92.2538 131.687 91.7031 131.519C90.6878 131.205 89.6676 130.841 88.6744 130.439C88.6548 130.432 88.6376 130.422 88.6203 130.415Z" fill="#C7E8FF"/>
<mask id="mask0_39_1246" style="mask-type:luminance" maskUnits="userSpaceOnUse" x="135" y="29" width="54" height="35">
<path d="M135.936 29.416H188.171V63.7866H135.936V29.416Z" fill="white"/>
</mask>
<g mask="url(#mask0_39_1246)">
<path d="M136.071 29.4017L141.312 42.7489L187.674 63.2381L136.071 29.4017Z" fill="#5AE0D6"/>
</g>
<path d="M141.313 42.7489L133.795 56.0242L187.674 63.2381L141.313 42.7489Z" fill="#30D8CC"/>
<path d="M142.497 47.8352L133.795 56.0242L187.674 63.238L142.497 47.8352Z" fill="#00BFC0"/>
<path d="M187.674 63.238L142.497 47.8352L149.98 68.5256L187.674 63.238Z" fill="#5AE0D6"/>
<path d="M181.577 194.585H50.6465V115.261C50.6465 112.429 53.0016 110.136 55.9073 110.136H176.316C179.222 110.136 181.577 112.429 181.577 115.261V194.585Z" fill="#495457"/>
<path d="M175.073 187.045H57.154C56.4361 187.045 55.856 186.48 55.856 185.783V118.939C55.856 118.239 56.4361 117.676 57.154 117.676H175.073C175.788 117.676 176.368 118.239 176.368 118.939V185.783C176.368 186.48 175.788 187.045 175.073 187.045Z" fill="#55C0C9"/>
<path d="M117.725 113.057C117.725 113.572 117.297 113.989 116.768 113.989C116.24 113.989 115.812 113.572 115.812 113.057C115.812 112.544 116.24 112.125 116.768 112.125C117.297 112.125 117.725 112.544 117.725 113.057Z" fill="white"/>
<mask id="mask1_39_1246" style="mask-type:luminance" maskUnits="userSpaceOnUse" x="37" y="194" width="162" height="7">
<path d="M37.3174 194.427H198.741V200.536H37.3174V194.427Z" fill="white"/>
</mask>
<g mask="url(#mask1_39_1246)">
<path d="M198.68 197.546C198.68 199.182 197.323 200.505 195.641 200.505H40.4614C38.7823 200.505 37.4229 199.182 37.4229 197.546C37.4229 195.907 37.5531 194.585 39.2592 194.585H196.843C198.552 194.585 198.68 195.907 198.68 197.546Z" fill="#DFEEF7"/>
</g>
<mask id="mask2_39_1246" style="mask-type:luminance" maskUnits="userSpaceOnUse" x="37" y="198" width="162" height="3">
<path d="M37.7598 198.72H198.741V200.536H37.7598V198.72Z" fill="white"/>
</mask>
<g mask="url(#mask2_39_1246)">
<path d="M37.8018 198.845C38.3033 199.81 39.3013 200.488 40.4863 200.488H195.664C196.849 200.488 197.847 199.81 198.348 198.845H37.8018Z" fill="#C4DFF0"/>
</g>
<path d="M130.403 194.585C130.403 196.032 129.173 197.23 127.686 197.23H108.484C106.994 197.23 105.768 196.032 105.768 194.585H130.403Z" fill="#C4DFF0"/>
<path d="M143.987 128.455H83.4848C81.4886 128.455 79.7579 129.974 79.7383 131.919C79.7383 131.934 79.7383 131.946 79.7383 131.96V168.837C79.7383 171.257 81.7517 173.221 84.2395 173.221H143.235C145.72 173.221 147.736 171.257 147.736 168.837V131.96C147.736 131.946 147.736 131.934 147.736 131.919C147.716 129.974 145.983 128.455 143.987 128.455Z" fill="#FEB95E"/>
<path d="M147.367 131.241C147.062 131.941 146.578 132.564 145.939 133.031L116.439 154.622C114.838 155.799 112.636 155.799 111.033 154.622L81.5353 133.031C80.8937 132.564 80.4094 131.941 80.1046 131.241C79.871 131.749 79.7383 132.307 79.7383 132.899V169.179C79.7383 171.412 81.5943 173.221 83.8879 173.221H143.586C145.877 173.221 147.736 171.412 147.736 169.179V132.899C147.736 132.307 147.601 131.749 147.367 131.241Z" fill="#FEB049"/>
<path d="M147.414 130.079C146.743 129.032 145.364 128.455 144.253 128.455H83.4728C82.3641 128.455 80.985 129.032 80.3114 130.079C79.4362 131.438 80.5327 132.808 81.5307 133.628L110.913 158.063C111.785 158.786 112.833 159.1 113.863 159.035C114.898 159.1 115.943 158.786 116.815 158.063L146.197 133.628C147.193 132.808 148.292 131.438 147.414 130.079Z" fill="#FEAB3D"/>
<path d="M145.939 169.012L116.439 147.418C114.838 146.246 112.636 146.246 111.033 147.418L81.5354 169.012C80.9306 169.452 80.466 170.03 80.1587 170.679C80.8741 172.179 82.4302 173.221 84.2395 173.221H143.235C145.044 173.221 146.6 172.179 147.313 170.679C147.006 170.03 146.541 169.452 145.939 169.012Z" fill="#FEA13D"/>
<path d="M147.414 129.89C146.743 128.965 145.364 128.455 144.253 128.455H83.4728C82.3641 128.455 80.985 128.965 80.3114 129.89C79.4362 131.09 80.5327 132.303 81.5307 133.029L110.913 154.625C111.785 155.262 112.833 155.542 113.863 155.485C114.898 155.542 115.943 155.262 116.815 154.625L146.197 133.029C147.193 132.303 148.292 131.09 147.414 129.89Z" fill="#FEC06E"/>
</svg>
