<svg xmlns="http://www.w3.org/2000/svg" xmlns:xlink="http://www.w3.org/1999/xlink" width="500" zoomAndPan="magnify" viewBox="0 0 375 374.999991" height="500" preserveAspectRatio="xMidYMid meet" version="1.0"><defs><clipPath id="17bfd9163a"><path d="M 100 59.191406 L 275 59.191406 L 275 315.691406 L 100 315.691406 Z M 100 59.191406 " clip-rule="nonzero"/></clipPath><clipPath id="1f3465af0c"><path d="M 100 246 L 182 246 L 182 315.691406 L 100 315.691406 Z M 100 246 " clip-rule="nonzero"/></clipPath><clipPath id="90d3d096e6"><path d="M 181 240 L 275 240 L 275 315.691406 L 181 315.691406 Z M 181 240 " clip-rule="nonzero"/></clipPath><clipPath id="c76d236695"><path d="M 100 59.191406 L 275 59.191406 L 275 160 L 100 160 Z M 100 59.191406 " clip-rule="nonzero"/></clipPath></defs><g clip-path="url(#17bfd9163a)"><path fill="#5b5e71" d="M 100.503906 268.386719 L 181.859375 315.691406 L 274.378906 262.242188 L 274.320312 240.445312 L 270.042969 237.957031 L 274.378906 235.453125 L 274.320312 213.652344 L 270.042969 211.167969 L 274.378906 208.664062 L 274.320312 186.863281 L 270.042969 184.375 L 274.378906 181.871094 L 274.320312 160.074219 L 270.042969 157.585938 L 274.378906 155.082031 L 274.320312 133.28125 L 270.042969 130.796875 L 274.378906 128.289062 L 274.320312 106.492188 L 192.964844 59.191406 L 100.441406 112.636719 L 100.503906 134.433594 L 104.78125 136.921875 L 100.441406 139.425781 L 100.503906 161.226562 L 104.78125 163.710938 L 100.441406 166.21875 L 100.503906 188.015625 L 104.78125 190.5 L 100.441406 193.007812 L 100.503906 214.804688 L 104.78125 217.292969 L 100.441406 219.796875 L 100.503906 241.597656 L 104.78125 244.082031 L 100.441406 246.589844 Z M 100.503906 268.386719 " fill-opacity="1" fill-rule="nonzero"/></g><g clip-path="url(#1f3465af0c)"><path fill="#474b59" d="M 181.796875 293.890625 L 100.441406 246.589844 L 100.503906 268.386719 L 181.859375 315.691406 Z M 181.796875 293.890625 " fill-opacity="1" fill-rule="nonzero"/></g><path fill="#5b5e71" d="M 274.320312 240.445312 L 192.964844 193.140625 L 100.441406 246.589844 L 181.796875 293.890625 Z M 274.320312 240.445312 " fill-opacity="1" fill-rule="nonzero"/><g clip-path="url(#90d3d096e6)"><path fill="#525566" d="M 181.796875 293.890625 L 181.859375 315.691406 L 274.378906 262.242188 L 274.320312 240.445312 Z M 181.796875 293.890625 " fill-opacity="1" fill-rule="nonzero"/></g><path fill="#ecf0f1" d="M 264.5 249.230469 L 264.515625 255.007812 L 269.476562 252.144531 L 269.457031 246.367188 Z M 264.5 249.230469 " fill-opacity="1" fill-rule="nonzero"/><path fill="#ecf0f1" d="M 255.925781 254.183594 L 255.941406 259.960938 L 260.898438 257.097656 L 260.882812 251.320312 Z M 255.925781 254.183594 " fill-opacity="1" fill-rule="nonzero"/><path fill="#ecf0f1" d="M 247.351562 259.136719 L 247.367188 264.914062 L 252.324219 262.050781 L 252.308594 256.273438 Z M 247.351562 259.136719 " fill-opacity="1" fill-rule="nonzero"/><path fill="#ecf0f1" d="M 238.773438 264.089844 L 238.789062 269.867188 L 243.75 267.003906 L 243.730469 261.226562 Z M 238.773438 264.089844 " fill-opacity="1" fill-rule="nonzero"/><path fill="#ecf0f1" d="M 264.527344 259.242188 L 264.546875 265.019531 L 269.503906 262.15625 L 269.488281 256.378906 Z M 264.527344 259.242188 " fill-opacity="1" fill-rule="nonzero"/><path fill="#ecf0f1" d="M 255.953125 264.195312 L 255.96875 269.972656 L 260.925781 267.109375 L 260.910156 261.332031 Z M 255.953125 264.195312 " fill-opacity="1" fill-rule="nonzero"/><path fill="#ecf0f1" d="M 247.378906 269.152344 L 247.394531 274.925781 L 252.351562 272.0625 L 252.335938 266.285156 Z M 247.378906 269.152344 " fill-opacity="1" fill-rule="nonzero"/><path fill="#ecf0f1" d="M 238.800781 274.105469 L 238.820312 279.878906 L 243.777344 277.015625 L 243.761719 271.242188 Z M 238.800781 274.105469 " fill-opacity="1" fill-rule="nonzero"/><path fill="#2ecc71" d="M 209.441406 285.425781 C 207.765625 286.390625 206.363281 288.746094 206.371094 290.671875 C 206.375 292.519531 207.785156 293.324219 209.460938 292.359375 C 211.136719 291.390625 212.40625 289.039062 212.398438 287.1875 C 212.394531 285.261719 211.117188 284.457031 209.441406 285.425781 Z M 209.441406 285.425781 " fill-opacity="1" fill-rule="nonzero"/><path fill="#2ecc71" d="M 199.59375 291.113281 C 197.917969 292.082031 196.515625 294.433594 196.519531 296.359375 C 196.527344 298.210938 197.9375 299.015625 199.613281 298.046875 C 201.222656 297.117188 202.554688 294.726562 202.550781 292.878906 C 202.546875 290.953125 201.203125 290.183594 199.59375 291.113281 Z M 199.59375 291.113281 " fill-opacity="1" fill-rule="nonzero"/><path fill="#2ecc71" d="M 189.679688 296.839844 C 188.003906 297.808594 186.667969 300.125 186.671875 302.050781 C 186.679688 303.898438 188.023438 304.742188 189.699219 303.773438 C 191.371094 302.808594 192.640625 300.453125 192.636719 298.605469 C 192.628906 296.679688 191.351562 295.875 189.679688 296.839844 Z M 189.679688 296.839844 " fill-opacity="1" fill-rule="nonzero"/><path fill="#474b59" d="M 181.796875 267.101562 L 100.441406 219.796875 L 100.503906 241.597656 L 181.859375 288.898438 Z M 181.796875 267.101562 " fill-opacity="1" fill-rule="nonzero"/><path fill="#5b5e71" d="M 274.320312 213.652344 L 192.964844 166.351562 L 100.441406 219.796875 L 181.796875 267.101562 Z M 274.320312 213.652344 " fill-opacity="1" fill-rule="nonzero"/><path fill="#525566" d="M 181.796875 267.101562 L 181.859375 288.898438 L 274.378906 235.453125 L 274.320312 213.652344 Z M 181.796875 267.101562 " fill-opacity="1" fill-rule="nonzero"/><path fill="#ecf0f1" d="M 264.5 222.4375 L 264.515625 228.214844 L 269.476562 225.351562 L 269.457031 219.574219 Z M 264.5 222.4375 " fill-opacity="1" fill-rule="nonzero"/><path fill="#ecf0f1" d="M 255.925781 227.390625 L 255.941406 233.171875 L 260.898438 230.304688 L 260.882812 224.527344 Z M 255.925781 227.390625 " fill-opacity="1" fill-rule="nonzero"/><path fill="#ecf0f1" d="M 247.351562 232.347656 L 247.367188 238.125 L 252.324219 235.261719 L 252.308594 229.484375 Z M 247.351562 232.347656 " fill-opacity="1" fill-rule="nonzero"/><path fill="#ecf0f1" d="M 238.773438 237.300781 L 238.789062 243.078125 L 243.75 240.214844 L 243.730469 234.4375 Z M 238.773438 237.300781 " fill-opacity="1" fill-rule="nonzero"/><path fill="#ecf0f1" d="M 264.527344 232.453125 L 264.546875 238.230469 L 269.503906 235.363281 L 269.488281 229.589844 Z M 264.527344 232.453125 " fill-opacity="1" fill-rule="nonzero"/><path fill="#ecf0f1" d="M 255.953125 237.40625 L 255.96875 243.183594 L 260.925781 240.320312 L 260.910156 234.542969 Z M 255.953125 237.40625 " fill-opacity="1" fill-rule="nonzero"/><path fill="#ecf0f1" d="M 247.378906 242.359375 L 247.394531 248.136719 L 252.351562 245.273438 L 252.335938 239.496094 Z M 247.378906 242.359375 " fill-opacity="1" fill-rule="nonzero"/><path fill="#ecf0f1" d="M 238.800781 247.3125 L 238.820312 253.089844 L 243.777344 250.226562 L 243.761719 244.449219 Z M 238.800781 247.3125 " fill-opacity="1" fill-rule="nonzero"/><path fill="#f1c40f" d="M 209.441406 258.640625 C 207.765625 259.609375 206.363281 261.960938 206.371094 263.886719 C 206.375 265.738281 207.785156 266.542969 209.460938 265.574219 C 211.136719 264.605469 212.40625 262.253906 212.398438 260.40625 C 212.394531 258.480469 211.117188 257.675781 209.441406 258.640625 Z M 209.441406 258.640625 " fill-opacity="1" fill-rule="nonzero"/><path fill="#f1c40f" d="M 199.59375 264.332031 C 197.917969 265.296875 196.515625 267.652344 196.519531 269.578125 C 196.527344 271.425781 197.9375 272.230469 199.613281 271.261719 C 201.222656 270.335938 202.554688 267.941406 202.550781 266.09375 C 202.546875 264.167969 201.203125 263.402344 199.59375 264.332031 Z M 199.59375 264.332031 " fill-opacity="1" fill-rule="nonzero"/><path fill="#f1c40f" d="M 189.679688 270.058594 C 188.003906 271.027344 186.667969 273.339844 186.671875 275.265625 C 186.679688 277.117188 188.023438 277.957031 189.699219 276.992188 C 191.371094 276.023438 192.640625 273.671875 192.636719 271.820312 C 192.628906 269.894531 191.351562 269.089844 189.679688 270.058594 Z M 189.679688 270.058594 " fill-opacity="1" fill-rule="nonzero"/><path fill="#474b59" d="M 181.796875 240.308594 L 100.441406 193.007812 L 100.503906 214.804688 L 181.859375 262.109375 Z M 181.796875 240.308594 " fill-opacity="1" fill-rule="nonzero"/><path fill="#5b5e71" d="M 274.320312 186.863281 L 192.964844 139.5625 L 100.441406 193.007812 L 181.796875 240.308594 Z M 274.320312 186.863281 " fill-opacity="1" fill-rule="nonzero"/><path fill="#525566" d="M 181.796875 240.308594 L 181.859375 262.109375 L 274.378906 208.660156 L 274.320312 186.863281 Z M 181.796875 240.308594 " fill-opacity="1" fill-rule="nonzero"/><path fill="#ecf0f1" d="M 264.5 195.648438 L 264.515625 201.425781 L 269.476562 198.5625 L 269.457031 192.785156 Z M 264.5 195.648438 " fill-opacity="1" fill-rule="nonzero"/><path fill="#ecf0f1" d="M 255.925781 200.601562 L 255.941406 206.378906 L 260.898438 203.515625 L 260.882812 197.738281 Z M 255.925781 200.601562 " fill-opacity="1" fill-rule="nonzero"/><path fill="#ecf0f1" d="M 247.351562 205.554688 L 247.367188 211.332031 L 252.324219 208.46875 L 252.308594 202.691406 Z M 247.351562 205.554688 " fill-opacity="1" fill-rule="nonzero"/><path fill="#ecf0f1" d="M 238.773438 210.507812 L 238.789062 216.285156 L 243.75 213.421875 L 243.730469 207.644531 Z M 238.773438 210.507812 " fill-opacity="1" fill-rule="nonzero"/><path fill="#ecf0f1" d="M 264.527344 205.664062 L 264.546875 211.4375 L 269.503906 208.574219 L 269.488281 202.796875 Z M 264.527344 205.664062 " fill-opacity="1" fill-rule="nonzero"/><path fill="#ecf0f1" d="M 255.953125 210.617188 L 255.96875 216.390625 L 260.925781 213.527344 L 260.910156 207.753906 Z M 255.953125 210.617188 " fill-opacity="1" fill-rule="nonzero"/><path fill="#ecf0f1" d="M 247.378906 215.570312 L 247.394531 221.347656 L 252.351562 218.480469 L 252.335938 212.707031 Z M 247.378906 215.570312 " fill-opacity="1" fill-rule="nonzero"/><path fill="#ecf0f1" d="M 238.800781 220.523438 L 238.820312 226.300781 L 243.777344 223.4375 L 243.761719 217.660156 Z M 238.800781 220.523438 " fill-opacity="1" fill-rule="nonzero"/><path fill="#84dbff" d="M 209.441406 231.851562 C 207.765625 232.820312 206.363281 235.171875 206.371094 237.097656 C 206.375 238.945312 207.785156 239.75 209.460938 238.785156 C 211.136719 237.816406 212.40625 235.464844 212.398438 233.613281 C 212.394531 231.6875 211.117188 230.882812 209.441406 231.851562 Z M 209.441406 231.851562 " fill-opacity="1" fill-rule="nonzero"/><path fill="#84dbff" d="M 199.59375 237.539062 C 197.917969 238.507812 196.515625 240.859375 196.519531 242.785156 C 196.527344 244.636719 197.9375 245.441406 199.613281 244.472656 C 201.222656 243.542969 202.554688 241.152344 202.550781 239.304688 C 202.546875 237.378906 201.203125 236.609375 199.59375 237.539062 Z M 199.59375 237.539062 " fill-opacity="1" fill-rule="nonzero"/><path fill="#84dbff" d="M 189.679688 243.269531 C 188.003906 244.234375 186.667969 246.550781 186.671875 248.476562 C 186.679688 250.324219 188.023438 251.167969 189.699219 250.199219 C 191.371094 249.234375 192.640625 246.878906 192.636719 245.03125 C 192.628906 243.105469 191.351562 242.300781 189.679688 243.269531 Z M 189.679688 243.269531 " fill-opacity="1" fill-rule="nonzero"/><path fill="#474b59" d="M 181.796875 213.519531 L 100.441406 166.21875 L 100.503906 188.015625 L 181.859375 235.320312 Z M 181.796875 213.519531 " fill-opacity="1" fill-rule="nonzero"/><path fill="#5b5e71" d="M 274.320312 160.074219 L 192.964844 112.769531 L 100.441406 166.21875 L 181.796875 213.519531 Z M 274.320312 160.074219 " fill-opacity="1" fill-rule="nonzero"/><path fill="#525566" d="M 181.796875 213.519531 L 181.859375 235.320312 L 274.378906 181.871094 L 274.320312 160.074219 Z M 181.796875 213.519531 " fill-opacity="1" fill-rule="nonzero"/><path fill="#ecf0f1" d="M 264.5 168.859375 L 264.515625 174.636719 L 269.476562 171.769531 L 269.457031 165.992188 Z M 264.5 168.859375 " fill-opacity="1" fill-rule="nonzero"/><path fill="#ecf0f1" d="M 255.925781 173.8125 L 255.941406 179.589844 L 260.898438 176.726562 L 260.882812 170.949219 Z M 255.925781 173.8125 " fill-opacity="1" fill-rule="nonzero"/><path fill="#ecf0f1" d="M 247.351562 178.765625 L 247.367188 184.542969 L 252.324219 181.679688 L 252.308594 175.902344 Z M 247.351562 178.765625 " fill-opacity="1" fill-rule="nonzero"/><path fill="#ecf0f1" d="M 238.773438 183.71875 L 238.789062 189.496094 L 243.75 186.632812 L 243.730469 180.855469 Z M 238.773438 183.71875 " fill-opacity="1" fill-rule="nonzero"/><path fill="#ecf0f1" d="M 264.527344 178.871094 L 264.546875 184.648438 L 269.503906 181.785156 L 269.488281 176.007812 Z M 264.527344 178.871094 " fill-opacity="1" fill-rule="nonzero"/><path fill="#ecf0f1" d="M 255.953125 183.824219 L 255.96875 189.601562 L 260.925781 186.738281 L 260.910156 180.960938 Z M 255.953125 183.824219 " fill-opacity="1" fill-rule="nonzero"/><path fill="#ecf0f1" d="M 247.378906 188.777344 L 247.394531 194.554688 L 252.351562 191.691406 L 252.335938 185.914062 Z M 247.378906 188.777344 " fill-opacity="1" fill-rule="nonzero"/><path fill="#ecf0f1" d="M 238.800781 193.734375 L 238.820312 199.507812 L 243.777344 196.644531 L 243.761719 190.867188 Z M 238.800781 193.734375 " fill-opacity="1" fill-rule="nonzero"/><path fill="#2ecc71" d="M 209.441406 205.058594 C 207.765625 206.027344 206.363281 208.382812 206.371094 210.308594 C 206.375 212.15625 207.785156 212.960938 209.460938 211.992188 C 211.136719 211.027344 212.40625 208.671875 212.398438 206.824219 C 212.394531 204.898438 211.117188 204.09375 209.441406 205.058594 Z M 209.441406 205.058594 " fill-opacity="1" fill-rule="nonzero"/><path fill="#2ecc71" d="M 199.59375 210.75 C 197.917969 211.71875 196.515625 214.070312 196.519531 215.996094 C 196.527344 217.84375 197.9375 218.648438 199.613281 217.683594 C 201.222656 216.753906 202.554688 214.363281 202.550781 212.511719 C 202.546875 210.585938 201.203125 209.820312 199.59375 210.75 Z M 199.59375 210.75 " fill-opacity="1" fill-rule="nonzero"/><path fill="#2ecc71" d="M 189.679688 216.476562 C 188.003906 217.445312 186.667969 219.761719 186.671875 221.683594 C 186.679688 223.535156 188.023438 224.378906 189.699219 223.410156 C 191.371094 222.441406 192.640625 220.089844 192.636719 218.242188 C 192.628906 216.316406 191.351562 215.511719 189.679688 216.476562 Z M 189.679688 216.476562 " fill-opacity="1" fill-rule="nonzero"/><path fill="#474b59" d="M 181.796875 186.730469 L 100.441406 139.425781 L 100.503906 161.226562 L 181.859375 208.527344 Z M 181.796875 186.730469 " fill-opacity="1" fill-rule="nonzero"/><path fill="#5b5e71" d="M 274.320312 133.28125 L 192.964844 85.980469 L 100.441406 139.425781 L 181.796875 186.730469 Z M 274.320312 133.28125 " fill-opacity="1" fill-rule="nonzero"/><path fill="#525566" d="M 181.796875 186.730469 L 181.859375 208.527344 L 274.378906 155.082031 L 274.320312 133.28125 Z M 181.796875 186.730469 " fill-opacity="1" fill-rule="nonzero"/><path fill="#ecf0f1" d="M 264.5 142.066406 L 264.515625 147.84375 L 269.476562 144.980469 L 269.457031 139.203125 Z M 264.5 142.066406 " fill-opacity="1" fill-rule="nonzero"/><path fill="#ecf0f1" d="M 255.925781 147.019531 L 255.941406 152.796875 L 260.898438 149.933594 L 260.882812 144.15625 Z M 255.925781 147.019531 " fill-opacity="1" fill-rule="nonzero"/><path fill="#ecf0f1" d="M 247.351562 151.976562 L 247.367188 157.753906 L 252.324219 154.886719 L 252.308594 149.109375 Z M 247.351562 151.976562 " fill-opacity="1" fill-rule="nonzero"/><path fill="#ecf0f1" d="M 238.773438 156.929688 L 238.789062 162.707031 L 243.75 159.84375 L 243.730469 154.066406 Z M 238.773438 156.929688 " fill-opacity="1" fill-rule="nonzero"/><path fill="#ecf0f1" d="M 264.527344 152.082031 L 264.546875 157.859375 L 269.503906 154.992188 L 269.488281 149.21875 Z M 264.527344 152.082031 " fill-opacity="1" fill-rule="nonzero"/><path fill="#ecf0f1" d="M 255.953125 157.035156 L 255.96875 162.8125 L 260.925781 159.949219 L 260.910156 154.171875 Z M 255.953125 157.035156 " fill-opacity="1" fill-rule="nonzero"/><path fill="#ecf0f1" d="M 247.378906 161.988281 L 247.394531 167.765625 L 252.351562 164.902344 L 252.335938 159.125 Z M 247.378906 161.988281 " fill-opacity="1" fill-rule="nonzero"/><path fill="#ecf0f1" d="M 238.800781 166.941406 L 238.820312 172.71875 L 243.777344 169.855469 L 243.761719 164.078125 Z M 238.800781 166.941406 " fill-opacity="1" fill-rule="nonzero"/><path fill="#f1c40f" d="M 209.441406 178.269531 C 207.765625 179.238281 206.363281 181.589844 206.371094 183.515625 C 206.375 185.367188 207.785156 186.171875 209.460938 185.203125 C 211.136719 184.234375 212.40625 181.882812 212.398438 180.035156 C 212.394531 178.109375 211.117188 177.300781 209.441406 178.269531 Z M 209.441406 178.269531 " fill-opacity="1" fill-rule="nonzero"/><path fill="#f1c40f" d="M 199.59375 183.960938 C 197.917969 184.925781 196.515625 187.28125 196.519531 189.207031 C 196.527344 191.054688 197.9375 191.859375 199.613281 190.890625 C 201.222656 189.964844 202.554688 187.570312 202.550781 185.722656 C 202.546875 183.796875 201.203125 183.03125 199.59375 183.960938 Z M 199.59375 183.960938 " fill-opacity="1" fill-rule="nonzero"/><path fill="#f1c40f" d="M 189.679688 189.6875 C 188.003906 190.65625 186.667969 192.96875 186.671875 194.894531 C 186.679688 196.742188 188.023438 197.585938 189.699219 196.621094 C 191.371094 195.652344 192.640625 193.300781 192.636719 191.449219 C 192.628906 189.523438 191.351562 188.71875 189.679688 189.6875 Z M 189.679688 189.6875 " fill-opacity="1" fill-rule="nonzero"/><path fill="#474b59" d="M 181.796875 159.9375 L 100.441406 112.636719 L 100.503906 134.433594 L 181.859375 181.738281 Z M 181.796875 159.9375 " fill-opacity="1" fill-rule="nonzero"/><g clip-path="url(#c76d236695)"><path fill="#5b5e71" d="M 274.320312 106.492188 L 192.964844 59.191406 L 100.441406 112.636719 L 181.796875 159.9375 Z M 274.320312 106.492188 " fill-opacity="1" fill-rule="nonzero"/></g><path fill="#3f434f" d="M 120.320312 112.664062 L 192.949219 70.703125 L 254.441406 106.460938 L 181.808594 148.421875 Z M 120.320312 112.664062 " fill-opacity="1" fill-rule="nonzero"/><path fill="#525566" d="M 181.796875 159.9375 L 181.859375 181.738281 L 274.378906 128.289062 L 274.320312 106.492188 Z M 181.796875 159.9375 " fill-opacity="1" fill-rule="nonzero"/><path fill="#ecf0f1" d="M 264.5 115.277344 L 264.515625 121.054688 L 269.476562 118.191406 L 269.457031 112.414062 Z M 264.5 115.277344 " fill-opacity="1" fill-rule="nonzero"/><path fill="#ecf0f1" d="M 255.925781 120.230469 L 255.941406 126.007812 L 260.898438 123.144531 L 260.882812 117.367188 Z M 255.925781 120.230469 " fill-opacity="1" fill-rule="nonzero"/><path fill="#ecf0f1" d="M 247.351562 125.183594 L 247.367188 130.960938 L 252.324219 128.097656 L 252.308594 122.320312 Z M 247.351562 125.183594 " fill-opacity="1" fill-rule="nonzero"/><path fill="#ecf0f1" d="M 238.773438 130.136719 L 238.789062 135.914062 L 243.75 133.050781 L 243.730469 127.273438 Z M 238.773438 130.136719 " fill-opacity="1" fill-rule="nonzero"/><path fill="#ecf0f1" d="M 264.527344 125.289062 L 264.546875 131.066406 L 269.503906 128.203125 L 269.488281 122.425781 Z M 264.527344 125.289062 " fill-opacity="1" fill-rule="nonzero"/><path fill="#ecf0f1" d="M 255.953125 130.246094 L 255.96875 136.019531 L 260.925781 133.15625 L 260.910156 127.378906 Z M 255.953125 130.246094 " fill-opacity="1" fill-rule="nonzero"/><path fill="#ecf0f1" d="M 247.378906 135.199219 L 247.394531 140.976562 L 252.351562 138.109375 L 252.335938 132.335938 Z M 247.378906 135.199219 " fill-opacity="1" fill-rule="nonzero"/><path fill="#ecf0f1" d="M 238.800781 140.152344 L 238.820312 145.929688 L 243.777344 143.066406 L 243.761719 137.289062 Z M 238.800781 140.152344 " fill-opacity="1" fill-rule="nonzero"/><path fill="#e74c3c" d="M 209.441406 151.480469 C 207.765625 152.445312 206.363281 154.800781 206.371094 156.726562 C 206.375 158.574219 207.785156 159.378906 209.460938 158.414062 C 211.136719 157.445312 212.40625 155.09375 212.398438 153.242188 C 212.394531 151.316406 211.117188 150.511719 209.441406 151.480469 Z M 209.441406 151.480469 " fill-opacity="1" fill-rule="nonzero"/><path fill="#e74c3c" d="M 199.59375 157.167969 C 197.917969 158.136719 196.515625 160.488281 196.519531 162.414062 C 196.527344 164.265625 197.9375 165.070312 199.613281 164.101562 C 201.222656 163.171875 202.554688 160.78125 202.550781 158.933594 C 202.546875 157.007812 201.203125 156.238281 199.59375 157.167969 Z M 199.59375 157.167969 " fill-opacity="1" fill-rule="nonzero"/><path fill="#e74c3c" d="M 189.679688 162.898438 C 188.003906 163.863281 186.667969 166.179688 186.671875 168.105469 C 186.679688 169.953125 188.023438 170.796875 189.699219 169.828125 C 191.371094 168.863281 192.640625 166.507812 192.636719 164.660156 C 192.628906 162.734375 191.351562 161.929688 189.679688 162.898438 Z M 189.679688 162.898438 " fill-opacity="1" fill-rule="nonzero"/></svg>