<svg xmlns="http://www.w3.org/2000/svg" xmlns:xlink="http://www.w3.org/1999/xlink" width="500" zoomAndPan="magnify" viewBox="0 0 375 374.999991" height="500" preserveAspectRatio="xMidYMid meet" version="1.0"><defs><clipPath id="5715e81042"><path d="M 81 192 L 135 192 L 135 316.640625 L 81 316.640625 Z M 81 192 " clip-rule="nonzero"/></clipPath><clipPath id="2816d20b03"><path d="M 162 159 L 216 159 L 216 316.640625 L 162 316.640625 Z M 162 159 " clip-rule="nonzero"/></clipPath><clipPath id="6af2922a55"><path d="M 244 120 L 297.078125 120 L 297.078125 316.640625 L 244 316.640625 Z M 244 120 " clip-rule="nonzero"/></clipPath><clipPath id="52184e9692"><path d="M 78.078125 58.640625 L 292 58.640625 L 292 162 L 78.078125 162 Z M 78.078125 58.640625 " clip-rule="nonzero"/></clipPath></defs><g clip-path="url(#5715e81042)"><path fill="#d2edff" d="M 85.105469 192.589844 L 130.34375 192.589844 C 130.847656 192.589844 131.328125 192.683594 131.792969 192.875 C 132.253906 193.066406 132.664062 193.339844 133.015625 193.695312 C 133.371094 194.050781 133.644531 194.457031 133.835938 194.921875 C 134.027344 195.386719 134.125 195.867188 134.125 196.367188 L 134.125 312.867188 C 134.125 313.371094 134.027344 313.851562 133.835938 314.316406 C 133.644531 314.777344 133.371094 315.1875 133.015625 315.542969 C 132.664062 315.894531 132.253906 316.167969 131.792969 316.359375 C 131.328125 316.554688 130.847656 316.648438 130.34375 316.648438 L 85.105469 316.648438 C 84.601562 316.648438 84.121094 316.554688 83.660156 316.359375 C 83.195312 316.167969 82.785156 315.894531 82.433594 315.542969 C 82.078125 315.1875 81.804688 314.777344 81.613281 314.316406 C 81.421875 313.851562 81.324219 313.371094 81.324219 312.867188 L 81.324219 196.367188 C 81.324219 195.867188 81.421875 195.386719 81.613281 194.921875 C 81.804688 194.457031 82.078125 194.050781 82.433594 193.695312 C 82.785156 193.339844 83.195312 193.066406 83.660156 192.875 C 84.121094 192.683594 84.601562 192.589844 85.105469 192.589844 Z M 85.105469 192.589844 " fill-opacity="1" fill-rule="nonzero"/></g><g clip-path="url(#2816d20b03)"><path fill="#80b2e8" d="M 166.566406 159.328125 L 211.808594 159.328125 C 212.308594 159.328125 212.792969 159.425781 213.253906 159.617188 C 213.71875 159.808594 214.125 160.082031 214.480469 160.4375 C 214.835938 160.789062 215.109375 161.199219 215.300781 161.664062 C 215.492188 162.125 215.585938 162.609375 215.585938 163.109375 L 215.585938 312.875 C 215.585938 313.375 215.492188 313.855469 215.300781 314.320312 C 215.109375 314.78125 214.835938 315.191406 214.480469 315.546875 C 214.125 315.902344 213.71875 316.171875 213.253906 316.367188 C 212.792969 316.558594 212.308594 316.652344 211.808594 316.652344 L 166.566406 316.652344 C 166.066406 316.652344 165.585938 316.558594 165.121094 316.367188 C 164.660156 316.171875 164.25 315.902344 163.894531 315.546875 C 163.542969 315.191406 163.269531 314.78125 163.078125 314.320312 C 162.882812 313.855469 162.789062 313.375 162.789062 312.875 L 162.789062 163.109375 C 162.789062 162.609375 162.882812 162.125 163.078125 161.664062 C 163.269531 161.199219 163.542969 160.789062 163.894531 160.4375 C 164.25 160.082031 164.660156 159.808594 165.121094 159.617188 C 165.585938 159.425781 166.066406 159.328125 166.566406 159.328125 Z M 166.566406 159.328125 " fill-opacity="1" fill-rule="nonzero"/></g><g clip-path="url(#6af2922a55)"><path fill="#312f84" d="M 248.03125 120.972656 L 293.269531 120.972656 C 293.773438 120.972656 294.253906 121.066406 294.71875 121.261719 C 295.179688 121.453125 295.589844 121.726562 295.941406 122.078125 C 296.296875 122.433594 296.570312 122.84375 296.761719 123.304688 C 296.953125 123.769531 297.050781 124.25 297.050781 124.753906 L 297.050781 312.867188 C 297.050781 313.371094 296.953125 313.851562 296.761719 314.316406 C 296.570312 314.777344 296.296875 315.1875 295.941406 315.542969 C 295.589844 315.894531 295.179688 316.167969 294.71875 316.359375 C 294.253906 316.554688 293.773438 316.648438 293.269531 316.648438 L 248.03125 316.648438 C 247.53125 316.648438 247.046875 316.554688 246.585938 316.359375 C 246.121094 316.167969 245.710938 315.894531 245.359375 315.542969 C 245.003906 315.1875 244.730469 314.777344 244.539062 314.316406 C 244.347656 313.851562 244.25 313.371094 244.25 312.867188 L 244.25 124.753906 C 244.25 124.25 244.347656 123.769531 244.539062 123.304688 C 244.730469 122.84375 245.003906 122.433594 245.359375 122.078125 C 245.710938 121.726562 246.121094 121.453125 246.585938 121.261719 C 247.046875 121.066406 247.53125 120.972656 248.03125 120.972656 Z M 248.03125 120.972656 " fill-opacity="1" fill-rule="nonzero"/></g><g clip-path="url(#52184e9692)"><path fill="#80b2e8" d="M 290.359375 68.570312 C 289.945312 67.675781 289.367188 66.902344 288.628906 66.25 C 287.890625 65.597656 287.054688 65.121094 286.117188 64.820312 L 267.746094 59.011719 C 267.328125 58.878906 266.902344 58.832031 266.464844 58.871094 C 266.027344 58.910156 265.613281 59.027344 265.226562 59.230469 C 264.835938 59.433594 264.5 59.703125 264.21875 60.039062 C 263.9375 60.375 263.726562 60.75 263.597656 61.167969 C 263.464844 61.585938 263.417969 62.015625 263.453125 62.453125 C 263.492188 62.890625 263.613281 63.300781 263.816406 63.691406 C 264.015625 64.082031 264.285156 64.417969 264.621094 64.699219 C 264.957031 64.980469 265.335938 65.1875 265.753906 65.320312 L 279.207031 69.578125 L 80.363281 155.570312 C 80.015625 155.722656 79.703125 155.929688 79.425781 156.1875 C 79.148438 156.449219 78.921875 156.746094 78.746094 157.082031 C 78.570312 157.421875 78.457031 157.777344 78.40625 158.15625 C 78.355469 158.53125 78.367188 158.90625 78.445312 159.277344 C 78.519531 159.648438 78.65625 160 78.855469 160.324219 C 79.050781 160.648438 79.296875 160.929688 79.589844 161.171875 C 79.886719 161.414062 80.210938 161.597656 80.570312 161.726562 C 80.925781 161.851562 81.296875 161.917969 81.675781 161.917969 C 82.132812 161.921875 82.570312 161.828125 82.988281 161.644531 L 282.886719 75.195312 L 275.945312 91.714844 C 275.777344 92.121094 275.6875 92.542969 275.683594 92.980469 C 275.683594 93.421875 275.761719 93.84375 275.925781 94.253906 C 276.09375 94.660156 276.328125 95.019531 276.636719 95.332031 C 276.945312 95.644531 277.300781 95.886719 277.707031 96.058594 C 278.113281 96.230469 278.535156 96.316406 278.972656 96.320312 C 279.414062 96.324219 279.835938 96.242188 280.242188 96.078125 C 280.648438 95.914062 281.007812 95.675781 281.324219 95.367188 C 281.636719 95.058594 281.878906 94.703125 282.046875 94.296875 L 290.457031 74.269531 C 290.84375 73.355469 291.027344 72.402344 291.007812 71.410156 C 290.992188 70.417969 290.773438 69.472656 290.359375 68.570312 Z M 290.359375 68.570312 " fill-opacity="1" fill-rule="nonzero"/></g></svg>