<svg xmlns="http://www.w3.org/2000/svg" xmlns:xlink="http://www.w3.org/1999/xlink" width="500" zoomAndPan="magnify" viewBox="0 0 375 374.999991" height="500" preserveAspectRatio="xMidYMid meet" version="1.0"><defs><clipPath id="17afa5f8a4"><path d="M 120.546875 113 L 254 113 L 254 262.5 L 120.546875 262.5 Z M 120.546875 113 " clip-rule="nonzero"/></clipPath><clipPath id="7ae884b514"><path d="M 120.546875 113 L 254 113 L 254 262.5 L 120.546875 262.5 Z M 120.546875 113 " clip-rule="nonzero"/></clipPath></defs><g clip-path="url(#17afa5f8a4)"><path fill="#000000" d="M 147.09375 206.066406 L 147.09375 127.851562 C 147.09375 127.472656 147.132812 127.09375 147.207031 126.722656 C 147.28125 126.347656 147.390625 125.984375 147.539062 125.632812 C 147.683594 125.28125 147.863281 124.949219 148.074219 124.632812 C 148.285156 124.316406 148.527344 124.023438 148.796875 123.753906 C 149.066406 123.484375 149.359375 123.242188 149.675781 123.03125 C 149.992188 122.820312 150.324219 122.640625 150.675781 122.496094 C 151.027344 122.347656 151.390625 122.238281 151.765625 122.164062 C 152.136719 122.089844 152.515625 122.050781 152.894531 122.050781 L 165.570312 122.050781 C 165.953125 122.050781 166.328125 122.089844 166.703125 122.164062 C 167.074219 122.242188 167.4375 122.351562 167.789062 122.5 C 168.140625 122.644531 168.472656 122.824219 168.789062 123.035156 C 169.105469 123.246094 169.398438 123.488281 169.667969 123.757812 C 169.9375 124.027344 170.175781 124.320312 170.386719 124.632812 C 170.601562 124.949219 170.777344 125.285156 170.925781 125.636719 C 171.070312 125.988281 171.183594 126.347656 171.257812 126.722656 C 171.332031 127.09375 171.371094 127.472656 171.375 127.851562 L 171.375 206.066406 C 171.371094 206.449219 171.332031 206.824219 171.257812 207.199219 C 171.183594 207.570312 171.070312 207.933594 170.925781 208.285156 C 170.777344 208.636719 170.601562 208.96875 170.386719 209.285156 C 170.175781 209.601562 169.9375 209.894531 169.667969 210.164062 C 169.398438 210.433594 169.105469 210.671875 168.789062 210.882812 C 168.472656 211.097656 168.140625 211.273438 167.789062 211.421875 C 167.4375 211.566406 167.074219 211.679688 166.703125 211.753906 C 166.328125 211.828125 165.953125 211.867188 165.570312 211.871094 L 152.21875 211.832031 C 151.867188 211.792969 151.523438 211.71875 151.1875 211.613281 C 150.851562 211.507812 150.527344 211.375 150.214844 211.210938 C 149.902344 211.046875 149.609375 210.855469 149.332031 210.640625 C 149.054688 210.421875 148.796875 210.183594 148.5625 209.921875 C 148.328125 209.65625 148.121094 209.375 147.9375 209.074219 C 147.753906 208.773438 147.601562 208.457031 147.476562 208.128906 C 147.351562 207.800781 147.253906 207.460938 147.191406 207.113281 C 147.125 206.769531 147.09375 206.417969 147.09375 206.066406 Z M 244.464844 220.796875 L 209.667969 220.796875 C 210.382812 217.816406 211.148438 214.816406 211.898438 211.871094 L 212.882812 207.976562 C 213.132812 206.996094 213.398438 205.996094 213.648438 204.996094 L 214.007812 203.550781 C 214.917969 203.53125 215.808594 203.496094 216.703125 203.425781 L 216.703125 206.066406 C 216.703125 206.476562 216.742188 206.882812 216.824219 207.285156 C 216.902344 207.6875 217.019531 208.078125 217.179688 208.457031 C 217.335938 208.835938 217.527344 209.199219 217.753906 209.539062 C 217.984375 209.878906 218.242188 210.195312 218.53125 210.484375 C 218.824219 210.777344 219.136719 211.035156 219.480469 211.261719 C 219.820312 211.492188 220.179688 211.683594 220.558594 211.839844 C 220.9375 211.996094 221.328125 212.117188 221.730469 212.195312 C 222.132812 212.277344 222.539062 212.316406 222.949219 212.316406 L 235.625 212.316406 C 236.035156 212.3125 236.441406 212.269531 236.84375 212.1875 C 237.242188 212.105469 237.632812 211.984375 238.007812 211.824219 C 238.386719 211.667969 238.746094 211.476562 239.085938 211.246094 C 239.425781 211.019531 239.738281 210.757812 240.03125 210.46875 C 240.320312 210.179688 240.578125 209.867188 240.804688 209.527344 C 241.035156 209.1875 241.226562 208.828125 241.386719 208.449219 C 241.542969 208.074219 241.664062 207.683594 241.746094 207.28125 C 241.828125 206.882812 241.871094 206.476562 241.875 206.066406 L 241.875 192.105469 C 244.347656 189.691406 246.472656 187 248.25 184.035156 C 250.066406 181.035156 251.460938 177.851562 252.433594 174.480469 C 253.40625 171.113281 253.921875 167.671875 253.980469 164.164062 C 254 162.980469 253.972656 161.792969 253.886719 160.609375 C 253.804688 159.425781 253.671875 158.25 253.484375 157.078125 C 253.296875 155.90625 253.054688 154.742188 252.765625 153.59375 C 252.476562 152.441406 252.132812 151.308594 251.742188 150.1875 C 251.351562 149.066406 250.914062 147.964844 250.421875 146.882812 C 249.933594 145.800781 249.398438 144.746094 248.816406 143.710938 C 248.234375 142.675781 247.605469 141.671875 246.9375 140.691406 C 246.265625 139.714844 245.550781 138.769531 244.792969 137.851562 C 244.039062 136.9375 243.246094 136.058594 242.410156 135.214844 C 241.578125 134.367188 240.707031 133.5625 239.800781 132.796875 C 238.898438 132.027344 237.960938 131.300781 236.988281 130.617188 C 236.019531 129.933594 235.023438 129.292969 233.996094 128.695312 C 232.96875 128.101562 231.917969 127.550781 230.84375 127.050781 C 229.769531 126.546875 228.675781 126.09375 227.558594 125.6875 C 226.445312 125.28125 225.3125 124.925781 224.167969 124.621094 C 223.019531 124.316406 221.863281 124.0625 220.691406 123.859375 C 219.523438 123.65625 218.347656 123.503906 217.164062 123.40625 C 215.980469 123.308594 214.796875 123.261719 213.609375 123.269531 C 212.421875 123.277344 211.238281 123.335938 210.058594 123.445312 C 208.875 123.558594 207.703125 123.722656 206.535156 123.9375 C 205.367188 124.152344 204.214844 124.421875 203.070312 124.738281 C 201.925781 125.058594 200.800781 125.425781 199.6875 125.84375 C 198.578125 126.261719 197.488281 126.730469 196.417969 127.242188 C 195.351562 127.757812 194.304688 128.320312 193.285156 128.925781 C 192.265625 129.535156 191.277344 130.1875 190.316406 130.882812 C 189.351562 131.574219 188.421875 132.3125 187.527344 133.089844 C 186.628906 133.867188 185.769531 134.683594 184.945312 135.539062 C 184.121094 136.390625 183.335938 137.28125 182.59375 138.203125 C 181.847656 139.128906 181.144531 140.082031 180.484375 141.066406 C 179.824219 142.054688 179.207031 143.066406 178.636719 144.105469 C 178.066406 145.148438 177.542969 146.210938 177.066406 147.296875 C 176.589844 148.386719 176.160156 149.492188 175.78125 150.617188 C 175 152.828125 174.425781 155.089844 174.054688 157.40625 C 173.6875 159.722656 173.53125 162.050781 173.585938 164.394531 C 173.644531 166.742188 173.914062 169.0625 174.390625 171.355469 C 174.871094 173.652344 175.554688 175.886719 176.445312 178.054688 C 177.726562 181.285156 179.386719 184.308594 181.425781 187.125 L 181.425781 206.066406 C 181.425781 206.476562 181.464844 206.882812 181.542969 207.285156 C 181.625 207.6875 181.742188 208.078125 181.898438 208.457031 C 182.058594 208.835938 182.25 209.199219 182.476562 209.539062 C 182.707031 209.878906 182.964844 210.195312 183.253906 210.484375 C 183.542969 210.777344 183.859375 211.035156 184.203125 211.261719 C 184.542969 211.492188 184.902344 211.683594 185.28125 211.839844 C 185.660156 211.996094 186.050781 212.117188 186.453125 212.195312 C 186.855469 212.277344 187.261719 212.316406 187.671875 212.316406 L 198.171875 212.316406 C 197.582031 214.582031 197.011719 216.832031 196.421875 219.082031 C 196.304688 219.363281 196.113281 219.574219 195.851562 219.726562 C 195.375 220.03125 194.941406 220.386719 194.546875 220.796875 L 136.738281 220.796875 L 136.738281 121.425781 C 136.738281 120.894531 136.6875 120.367188 136.582031 119.847656 C 136.480469 119.324219 136.324219 118.820312 136.121094 118.328125 C 135.917969 117.835938 135.667969 117.371094 135.375 116.925781 C 135.078125 116.484375 134.742188 116.078125 134.367188 115.699219 C 133.992188 115.324219 133.582031 114.988281 133.140625 114.695312 C 132.699219 114.398438 132.230469 114.148438 131.738281 113.945312 C 131.25 113.742188 130.742188 113.589844 130.222656 113.484375 C 129.699219 113.382812 129.171875 113.328125 128.640625 113.328125 C 128.109375 113.328125 127.582031 113.382812 127.0625 113.484375 C 126.539062 113.589844 126.035156 113.742188 125.542969 113.945312 C 125.050781 114.148438 124.585938 114.398438 124.144531 114.695312 C 123.703125 114.988281 123.292969 115.324219 122.917969 115.699219 C 122.539062 116.078125 122.207031 116.484375 121.910156 116.925781 C 121.613281 117.371094 121.363281 117.835938 121.160156 118.328125 C 120.957031 118.820312 120.804688 119.324219 120.699219 119.847656 C 120.597656 120.367188 120.546875 120.894531 120.546875 121.425781 L 120.546875 228.902344 C 120.542969 229.433594 120.597656 229.957031 120.699219 230.480469 C 120.800781 231 120.957031 231.507812 121.160156 231.996094 C 121.359375 232.488281 121.609375 232.957031 121.90625 233.398438 C 122.199219 233.839844 122.535156 234.246094 122.910156 234.625 C 123.285156 235 123.695312 235.335938 124.136719 235.628906 C 124.578125 235.925781 125.046875 236.171875 125.535156 236.375 C 126.027344 236.578125 126.535156 236.730469 127.054688 236.835938 C 127.574219 236.9375 128.101562 236.988281 128.632812 236.988281 C 128.769531 236.996094 128.90625 236.988281 129.042969 236.972656 C 129.179688 236.984375 129.316406 236.992188 129.453125 236.988281 L 190.296875 236.988281 C 189.511719 241.113281 188.726562 245.128906 187.941406 249.109375 C 187.578125 250.4375 187.429688 251.785156 187.496094 253.160156 C 187.5625 254.53125 187.84375 255.859375 188.332031 257.144531 L 189.671875 259.109375 C 190.542969 259.996094 191.546875 260.695312 192.6875 261.195312 C 193.824219 261.699219 195.015625 261.972656 196.261719 262.019531 C 197.125 262.019531 197.984375 261.929688 198.832031 261.75 C 199.984375 261.4375 201.042969 260.921875 202 260.207031 C 202.957031 259.492188 203.753906 258.625 204.382812 257.609375 C 205.035156 256.589844 205.480469 255.488281 205.722656 254.304688 C 206.792969 248.914062 207.828125 243.398438 208.828125 238.042969 L 209.027344 236.988281 L 244.464844 236.988281 C 244.996094 236.988281 245.519531 236.933594 246.039062 236.832031 C 246.5625 236.726562 247.066406 236.570312 247.554688 236.367188 C 248.046875 236.164062 248.511719 235.914062 248.953125 235.621094 C 249.394531 235.324219 249.800781 234.988281 250.175781 234.613281 C 250.550781 234.238281 250.886719 233.832031 251.183594 233.390625 C 251.476562 232.949219 251.726562 232.484375 251.929688 231.992188 C 252.132812 231.503906 252.289062 231 252.394531 230.476562 C 252.496094 229.957031 252.550781 229.433594 252.550781 228.902344 C 252.554688 228.371094 252.503906 227.84375 252.402344 227.320312 C 252.296875 226.796875 252.144531 226.292969 251.945312 225.800781 C 251.742188 225.308594 251.492188 224.839844 251.199219 224.398438 C 250.902344 223.953125 250.566406 223.542969 250.191406 223.167969 C 249.816406 222.792969 249.40625 222.457031 248.964844 222.160156 C 248.523438 221.863281 248.054688 221.613281 247.566406 221.410156 C 247.074219 221.207031 246.566406 221.054688 246.042969 220.949219 C 245.523438 220.847656 244.996094 220.796875 244.464844 220.796875 Z M 244.464844 220.796875 " fill-opacity="1" fill-rule="nonzero"/></g><path fill="#ffffff" d="M 246.75 228.902344 C 246.746094 229.203125 246.683594 229.492188 246.566406 229.769531 C 246.449219 230.046875 246.28125 230.292969 246.070312 230.507812 C 245.855469 230.71875 245.609375 230.886719 245.332031 231.003906 C 245.054688 231.121094 244.765625 231.183594 244.464844 231.1875 L 210.113281 231.1875 C 210.292969 230.152344 210.488281 229.117188 210.703125 228.027344 C 210.792969 227.554688 210.84375 227.078125 210.847656 226.597656 L 244.464844 226.597656 C 244.769531 226.597656 245.0625 226.660156 245.339844 226.777344 C 245.621094 226.894531 245.871094 227.0625 246.082031 227.277344 C 246.296875 227.492188 246.460938 227.742188 246.578125 228.023438 C 246.691406 228.304688 246.75 228.597656 246.75 228.902344 Z M 130.9375 121.425781 C 130.933594 121.121094 130.875 120.832031 130.757812 120.550781 C 130.640625 120.269531 130.476562 120.023438 130.261719 119.808594 C 130.050781 119.59375 129.804688 119.425781 129.523438 119.308594 C 129.246094 119.1875 128.953125 119.128906 128.652344 119.121094 C 128.347656 119.125 128.054688 119.183594 127.773438 119.300781 C 127.492188 119.421875 127.242188 119.585938 127.027344 119.800781 C 126.8125 120.019531 126.644531 120.265625 126.527344 120.546875 C 126.410156 120.828125 126.351562 121.121094 126.347656 121.425781 L 126.347656 228.902344 C 126.347656 229.207031 126.410156 229.496094 126.527344 229.777344 C 126.644531 230.058594 126.808594 230.308594 127.027344 230.519531 C 127.242188 230.734375 127.492188 230.898438 127.773438 231.015625 C 128.054688 231.128906 128.347656 231.1875 128.652344 231.1875 C 128.742188 231.191406 128.828125 231.183594 128.917969 231.167969 L 129.1875 231.152344 C 129.304688 231.175781 129.421875 231.1875 129.542969 231.1875 L 191.40625 231.1875 C 191.691406 229.6875 191.976562 228.152344 192.261719 226.597656 L 130.9375 226.597656 Z M 130.9375 121.425781 " fill-opacity="1" fill-rule="nonzero"/><path fill="#00ffe8" d="M 187.226562 206.066406 L 187.226562 193.464844 C 189.078125 195.074219 191.058594 196.5 193.171875 197.746094 C 195.652344 199.230469 198.257812 200.441406 200.992188 201.371094 L 199.652344 206.511719 L 187.671875 206.511719 C 187.550781 206.515625 187.445312 206.472656 187.355469 206.382812 C 187.269531 206.296875 187.226562 206.191406 187.226562 206.066406 Z M 222.949219 206.511719 L 235.625 206.511719 C 235.746094 206.507812 235.851562 206.464844 235.9375 206.378906 C 236.023438 206.292969 236.066406 206.1875 236.074219 206.066406 L 236.074219 196.785156 C 235.234375 197.335938 234.359375 197.890625 233.429688 198.410156 C 229.996094 200.339844 226.355469 201.726562 222.503906 202.566406 L 222.503906 206.066406 C 222.507812 206.1875 222.554688 206.292969 222.640625 206.378906 C 222.726562 206.464844 222.828125 206.507812 222.949219 206.511719 Z M 205.027344 225.457031 C 204.960938 225.390625 204.902344 225.316406 204.847656 225.242188 C 204.625 225.050781 204.371094 224.945312 204.082031 224.921875 L 199.972656 224.117188 C 199.820312 224.082031 199.667969 224.0625 199.511719 224.0625 C 199.136719 224.050781 198.796875 224.152344 198.492188 224.367188 C 198.078125 224.675781 197.828125 225.085938 197.742188 225.597656 C 197.722656 225.722656 197.6875 225.832031 197.671875 225.9375 C 197.652344 226.042969 197.636719 226.132812 197.617188 226.222656 C 197.4375 227.152344 197.261719 228.0625 197.082031 228.972656 C 196.902344 229.882812 196.742188 230.8125 196.5625 231.722656 C 196.242188 233.363281 195.9375 234.988281 195.636719 236.632812 C 194.707031 241.292969 193.808594 245.949219 192.941406 250.609375 L 192.707031 251.859375 C 192.648438 252.125 192.617188 252.394531 192.609375 252.667969 C 192.601562 252.9375 192.625 253.207031 192.671875 253.476562 C 192.71875 253.746094 192.789062 254.003906 192.886719 254.257812 C 192.984375 254.511719 193.109375 254.753906 193.253906 254.984375 C 193.398438 255.214844 193.566406 255.425781 193.753906 255.625 C 193.941406 255.820312 194.148438 255.996094 194.371094 256.152344 C 194.59375 256.308594 194.828125 256.441406 195.078125 256.550781 C 195.328125 256.664062 195.585938 256.746094 195.851562 256.804688 C 196.832031 257.015625 197.742188 256.84375 198.582031 256.289062 C 199.574219 255.535156 200.1875 254.546875 200.421875 253.324219 C 201.117188 250.699219 202.347656 244.898438 203.667969 236.472656 C 204.652344 230.027344 205.167969 226.277344 205.1875 225.917969 C 205.199219 225.816406 205.1875 225.714844 205.152344 225.617188 C 205.121094 225.554688 205.078125 225.5 205.027344 225.457031 Z M 152.894531 206.960938 L 165.570312 206.960938 C 165.816406 206.953125 166.023438 206.863281 166.195312 206.691406 C 166.367188 206.519531 166.457031 206.3125 166.464844 206.066406 L 166.464844 127.851562 C 166.460938 127.609375 166.371094 127.398438 166.199219 127.226562 C 166.023438 127.050781 165.816406 126.964844 165.570312 126.960938 L 152.894531 126.960938 C 152.648438 126.960938 152.4375 127.046875 152.265625 127.222656 C 152.089844 127.394531 152.003906 127.605469 152.003906 127.851562 L 152.003906 206.066406 C 152.003906 206.3125 152.089844 206.523438 152.265625 206.699219 C 152.4375 206.871094 152.648438 206.960938 152.894531 206.960938 Z M 152.894531 206.960938 " fill-opacity="1" fill-rule="nonzero"/><path fill="#737373" d="M 205.953125 202.855469 L 208.382812 203.246094 L 204.277344 219.511719 L 201.882812 218.957031 Z M 241.070312 184.75 C 238.777344 187.640625 236.109375 190.132812 233.074219 192.230469 C 231.941406 193.011719 230.761719 193.722656 229.539062 194.355469 C 227.136719 195.605469 224.617188 196.550781 221.988281 197.195312 L 217.09375 198.035156 C 211.699219 198.566406 206.46875 197.871094 201.402344 195.945312 C 198.65625 194.910156 196.085938 193.546875 193.691406 191.855469 C 191.242188 190.105469 189.050781 188.074219 187.117188 185.761719 C 185.183594 183.453125 183.574219 180.9375 182.28125 178.214844 C 180.734375 174.941406 179.742188 171.503906 179.300781 167.910156 C 178.855469 164.3125 178.988281 160.738281 179.691406 157.183594 C 179.8125 156.546875 179.953125 155.910156 180.109375 155.28125 C 180.269531 154.648438 180.445312 154.023438 180.636719 153.402344 C 180.828125 152.78125 181.039062 152.164062 181.265625 151.554688 C 181.492188 150.945312 181.738281 150.34375 182 149.746094 C 182.261719 149.152344 182.539062 148.5625 182.832031 147.984375 C 183.128906 147.402344 183.4375 146.832031 183.765625 146.269531 C 184.09375 145.707031 184.433594 145.15625 184.792969 144.613281 C 185.148438 144.070312 185.523438 143.535156 185.910156 143.015625 C 186.300781 142.492188 186.703125 141.980469 187.117188 141.480469 C 187.535156 140.984375 187.964844 140.496094 188.410156 140.019531 C 188.855469 139.546875 189.3125 139.082031 189.78125 138.632812 C 190.253906 138.183594 190.734375 137.75 191.230469 137.328125 C 191.726562 136.90625 192.230469 136.496094 192.75 136.101562 C 193.269531 135.710938 193.796875 135.332031 194.335938 134.96875 C 194.875 134.605469 195.425781 134.253906 195.984375 133.921875 C 196.542969 133.589844 197.109375 133.273438 197.6875 132.972656 C 198.265625 132.671875 198.847656 132.386719 199.441406 132.121094 C 200.035156 131.851562 200.632812 131.601562 201.242188 131.367188 C 201.847656 131.136719 202.460938 130.917969 203.082031 130.71875 C 203.699219 130.519531 204.324219 130.339844 204.953125 130.175781 C 205.582031 130.011719 206.21875 129.863281 206.855469 129.738281 C 207.492188 129.609375 208.132812 129.5 208.777344 129.40625 C 209.421875 129.3125 210.066406 129.238281 210.714844 129.183594 C 211.363281 129.128906 212.011719 129.089844 212.664062 129.074219 C 213.3125 129.054688 213.964844 129.054688 214.613281 129.070312 C 215.265625 129.089844 215.914062 129.125 216.5625 129.179688 C 217.210938 129.234375 217.855469 129.304688 218.5 129.398438 C 219.144531 129.488281 219.785156 129.597656 220.421875 129.722656 C 221.0625 129.851562 221.695312 129.996094 222.324219 130.15625 C 222.953125 130.320312 223.578125 130.5 224.199219 130.699219 C 224.820312 130.898438 225.433594 131.113281 226.039062 131.34375 C 226.648438 131.578125 227.246094 131.828125 227.839844 132.09375 C 228.433594 132.359375 229.019531 132.644531 229.597656 132.941406 C 230.175781 133.242188 230.742188 133.558594 231.300781 133.890625 C 231.863281 134.222656 232.410156 134.566406 232.953125 134.929688 C 233.492188 135.292969 234.019531 135.671875 234.539062 136.0625 C 235.058594 136.457031 235.566406 136.863281 236.0625 137.285156 C 236.558594 137.703125 237.042969 138.140625 237.511719 138.589844 C 237.984375 139.035156 238.441406 139.496094 238.886719 139.972656 C 239.332031 140.445312 239.765625 140.933594 240.183594 141.429688 C 240.597656 141.929688 241.003906 142.441406 241.390625 142.960938 C 241.78125 143.484375 242.15625 144.015625 242.515625 144.558594 C 242.871094 145.097656 243.214844 145.652344 243.542969 146.214844 C 243.871094 146.773438 244.183594 147.347656 244.480469 147.925781 C 244.773438 148.503906 245.054688 149.09375 245.316406 149.6875 C 245.578125 150.28125 245.824219 150.882812 246.054688 151.492188 C 246.28125 152.101562 246.492188 152.71875 246.6875 153.339844 C 246.878906 153.960938 247.058594 154.585938 247.214844 155.214844 C 247.375 155.847656 247.515625 156.480469 247.636719 157.121094 C 247.761719 157.757812 247.863281 158.402344 247.949219 159.046875 C 248.039062 159.691406 248.105469 160.335938 248.15625 160.984375 C 248.207031 161.632812 248.238281 162.285156 248.25 162.933594 C 248.265625 163.585938 248.257812 164.234375 248.234375 164.886719 C 248.210938 165.535156 248.171875 166.183594 248.109375 166.832031 C 248.050781 167.480469 247.972656 168.125 247.875 168.769531 C 247.78125 169.410156 247.664062 170.050781 247.535156 170.6875 C 247.402344 171.324219 247.25 171.957031 247.082031 172.585938 C 246.914062 173.214844 246.726562 173.835938 246.523438 174.457031 C 246.320312 175.074219 246.101562 175.683594 245.863281 176.289062 C 245.625 176.894531 245.371094 177.496094 245.097656 178.085938 C 244.828125 178.675781 244.539062 179.257812 244.234375 179.835938 C 243.929688 180.410156 243.609375 180.976562 243.273438 181.53125 C 242.9375 182.089844 242.585938 182.636719 242.21875 183.171875 C 241.851562 183.710938 241.46875 184.234375 241.070312 184.75 Z M 202.3125 145.027344 C 202.285156 145.777344 202.332031 146.523438 202.453125 147.265625 C 202.574219 148.003906 202.761719 148.726562 203.027344 149.429688 C 203.289062 150.132812 203.617188 150.804688 204.011719 151.445312 C 204.40625 152.082031 204.859375 152.675781 205.371094 153.226562 C 205.882812 153.777344 206.441406 154.269531 207.050781 154.710938 C 207.660156 155.148438 208.304688 155.523438 208.988281 155.835938 C 209.667969 156.148438 210.375 156.390625 211.105469 156.5625 C 211.835938 156.738281 212.578125 156.835938 213.328125 156.863281 L 213.632812 156.863281 C 214.367188 156.867188 215.101562 156.796875 215.824219 156.65625 C 216.546875 156.519531 217.253906 156.3125 217.9375 156.039062 C 218.621094 155.765625 219.273438 155.429688 219.894531 155.03125 C 220.515625 154.632812 221.089844 154.179688 221.625 153.667969 C 222.15625 153.160156 222.636719 152.605469 223.0625 152.003906 C 223.492188 151.402344 223.855469 150.765625 224.160156 150.09375 C 224.464844 149.421875 224.703125 148.726562 224.875 148.011719 C 225.046875 147.292969 225.148438 146.566406 225.183594 145.832031 C 225.210938 145.078125 225.167969 144.328125 225.050781 143.585938 C 224.929688 142.84375 224.742188 142.117188 224.480469 141.410156 C 224.21875 140.703125 223.890625 140.03125 223.496094 139.390625 C 223.101562 138.746094 222.648438 138.152344 222.132812 137.597656 C 221.621094 137.046875 221.058594 136.550781 220.449219 136.109375 C 219.839844 135.667969 219.191406 135.292969 218.507812 134.980469 C 217.820312 134.664062 217.113281 134.421875 216.378906 134.25 C 215.648438 134.074219 214.902344 133.976562 214.152344 133.949219 C 213.398438 133.921875 212.648438 133.972656 211.90625 134.09375 C 211.164062 134.214844 210.4375 134.40625 209.734375 134.671875 C 209.027344 134.933594 208.355469 135.265625 207.714844 135.664062 C 207.078125 136.058594 206.480469 136.515625 205.929688 137.03125 C 205.382812 137.542969 204.886719 138.109375 204.449219 138.71875 C 204.007812 139.332031 203.636719 139.980469 203.324219 140.667969 C 203.015625 141.355469 202.773438 142.0625 202.601562 142.796875 C 202.433594 143.53125 202.335938 144.273438 202.3125 145.027344 Z M 232.574219 175.539062 L 232.449219 175.609375 L 232.449219 172.789062 C 232.4375 172.046875 232.355469 171.3125 232.203125 170.589844 C 232.050781 169.863281 231.828125 169.15625 231.539062 168.476562 C 231.25 167.792969 230.898438 167.144531 230.484375 166.527344 C 230.070312 165.910156 229.601562 165.34375 229.078125 164.816406 C 228.554688 164.292969 227.984375 163.824219 227.371094 163.40625 C 226.757812 162.992188 226.105469 162.640625 225.425781 162.351562 C 224.742188 162.058594 224.039062 161.839844 223.3125 161.683594 C 222.585938 161.53125 221.855469 161.445312 221.113281 161.433594 C 216.148438 161.417969 211.167969 161.417969 206.203125 161.453125 C 205.554688 161.457031 204.910156 161.519531 204.273438 161.636719 C 203.632812 161.753906 203.007812 161.925781 202.398438 162.148438 C 201.789062 162.375 201.203125 162.648438 200.640625 162.972656 C 200.078125 163.296875 199.550781 163.667969 199.050781 164.082031 C 198.550781 164.5 198.089844 164.953125 197.671875 165.449219 C 197.25 165.945312 196.875 166.472656 196.542969 167.03125 C 196.214844 167.589844 195.933594 168.171875 195.703125 168.78125 C 195.472656 169.386719 195.296875 170.007812 195.171875 170.648438 C 194.988281 172.332031 194.90625 174.023438 194.921875 175.71875 L 194.796875 188.070312 L 232.429688 188.070312 Z M 232.574219 175.539062 " fill-opacity="1" fill-rule="nonzero"/><path fill="#00ffe8" d="M 206.867188 145.4375 C 206.867188 144.988281 206.910156 144.539062 207 144.097656 C 207.089844 143.65625 207.21875 143.226562 207.390625 142.808594 C 207.566406 142.394531 207.777344 141.996094 208.027344 141.621094 C 208.277344 141.246094 208.5625 140.902344 208.882812 140.582031 C 209.203125 140.261719 209.546875 139.976562 209.921875 139.726562 C 210.296875 139.476562 210.695312 139.265625 211.109375 139.089844 C 211.527344 138.917969 211.957031 138.789062 212.398438 138.699219 C 212.839844 138.609375 213.289062 138.566406 213.738281 138.566406 L 214.113281 138.566406 C 214.554688 138.589844 214.992188 138.65625 215.421875 138.765625 C 215.851562 138.875 216.265625 139.023438 216.667969 139.210938 C 217.066406 139.402344 217.445312 139.625 217.804688 139.890625 C 218.160156 140.152344 218.488281 140.445312 218.789062 140.769531 C 219.089844 141.097656 219.355469 141.449219 219.589844 141.824219 C 219.820312 142.203125 220.015625 142.597656 220.171875 143.015625 C 220.328125 143.429688 220.441406 143.855469 220.515625 144.292969 C 220.585938 144.726562 220.617188 145.167969 220.605469 145.613281 C 220.597656 146.054688 220.542969 146.492188 220.445312 146.925781 C 220.351562 147.355469 220.214844 147.777344 220.035156 148.183594 C 219.859375 148.589844 219.644531 148.972656 219.394531 149.339844 C 219.140625 149.703125 218.855469 150.039062 218.539062 150.351562 C 218.222656 150.660156 217.878906 150.9375 217.511719 151.179688 C 217.140625 151.421875 216.75 151.628906 216.339844 151.796875 C 215.929688 151.964844 215.507812 152.09375 215.074219 152.179688 C 214.636719 152.265625 214.199219 152.308594 213.757812 152.3125 L 213.597656 152.3125 C 213.148438 152.304688 212.710938 152.253906 212.273438 152.160156 C 211.835938 152.066406 211.414062 151.929688 211.003906 151.753906 C 210.597656 151.578125 210.207031 151.363281 209.839844 151.113281 C 209.472656 150.859375 209.132812 150.574219 208.820312 150.257812 C 208.507812 149.9375 208.230469 149.589844 207.984375 149.21875 C 207.742188 148.847656 207.535156 148.453125 207.367188 148.039062 C 207.199219 147.625 207.074219 147.203125 206.988281 146.761719 C 206.90625 146.324219 206.863281 145.882812 206.867188 145.4375 Z M 227.859375 172.96875 C 227.878906 172.175781 227.765625 171.40625 227.515625 170.65625 C 227.265625 169.90625 226.898438 169.222656 226.410156 168.601562 C 225.917969 167.980469 225.339844 167.460938 224.667969 167.042969 C 224 166.625 223.277344 166.332031 222.503906 166.164062 C 221.6875 166.023438 220.867188 165.964844 220.039062 165.988281 C 215.488281 165.96875 210.972656 165.96875 206.4375 165.988281 L 206.277344 165.988281 C 205.824219 165.992188 205.378906 166.039062 204.9375 166.132812 C 204.496094 166.226562 204.066406 166.359375 203.652344 166.539062 C 203.238281 166.714844 202.84375 166.929688 202.46875 167.1875 C 202.097656 167.441406 201.753906 167.730469 201.4375 168.050781 C 201.121094 168.375 200.839844 168.722656 200.59375 169.101562 C 200.347656 169.480469 200.140625 169.878906 199.972656 170.296875 C 199.800781 170.714844 199.675781 171.144531 199.59375 171.589844 C 199.507812 172.035156 199.46875 172.480469 199.472656 172.933594 L 199.472656 172.949219 C 199.472656 175.039062 199.457031 171.96875 199.457031 176.824219 L 199.347656 183.535156 L 227.753906 183.535156 L 227.789062 177.164062 C 227.789062 170.378906 227.878906 176.128906 227.859375 172.96875 Z M 227.859375 172.96875 " fill-opacity="1" fill-rule="nonzero"/><g clip-path="url(#7ae884b514)"><path fill="#000000" d="M 244.464844 220.796875 L 209.667969 220.796875 C 210.382812 217.816406 211.148438 214.816406 211.898438 211.871094 L 212.882812 207.976562 C 213.132812 206.996094 213.398438 205.996094 213.648438 204.996094 L 214.007812 203.550781 C 214.917969 203.53125 215.808594 203.496094 216.703125 203.425781 L 216.703125 206.066406 C 216.703125 206.476562 216.742188 206.882812 216.824219 207.285156 C 216.902344 207.6875 217.019531 208.078125 217.179688 208.457031 C 217.335938 208.835938 217.527344 209.199219 217.753906 209.539062 C 217.984375 209.878906 218.242188 210.195312 218.53125 210.484375 C 218.824219 210.777344 219.136719 211.035156 219.480469 211.261719 C 219.820312 211.492188 220.179688 211.683594 220.558594 211.839844 C 220.9375 211.996094 221.328125 212.117188 221.730469 212.195312 C 222.132812 212.277344 222.539062 212.316406 222.949219 212.316406 L 235.625 212.316406 C 236.035156 212.3125 236.441406 212.269531 236.84375 212.1875 C 237.242188 212.105469 237.632812 211.984375 238.007812 211.824219 C 238.386719 211.667969 238.746094 211.476562 239.085938 211.246094 C 239.425781 211.019531 239.738281 210.757812 240.03125 210.46875 C 240.320312 210.179688 240.578125 209.867188 240.804688 209.527344 C 241.035156 209.1875 241.226562 208.828125 241.386719 208.449219 C 241.542969 208.074219 241.664062 207.683594 241.746094 207.28125 C 241.828125 206.882812 241.871094 206.476562 241.875 206.066406 L 241.875 192.105469 C 244.347656 189.691406 246.472656 187 248.25 184.035156 C 250.066406 181.035156 251.460938 177.851562 252.433594 174.480469 C 253.40625 171.113281 253.921875 167.671875 253.980469 164.164062 C 254 162.980469 253.972656 161.792969 253.886719 160.609375 C 253.804688 159.425781 253.671875 158.25 253.484375 157.078125 C 253.296875 155.90625 253.054688 154.742188 252.765625 153.59375 C 252.476562 152.441406 252.132812 151.308594 251.742188 150.1875 C 251.351562 149.066406 250.914062 147.964844 250.421875 146.882812 C 249.933594 145.800781 249.398438 144.746094 248.816406 143.710938 C 248.234375 142.675781 247.605469 141.671875 246.9375 140.691406 C 246.265625 139.714844 245.550781 138.769531 244.792969 137.851562 C 244.039062 136.9375 243.246094 136.058594 242.410156 135.214844 C 241.578125 134.367188 240.707031 133.5625 239.800781 132.796875 C 238.898438 132.027344 237.960938 131.300781 236.988281 130.617188 C 236.019531 129.933594 235.023438 129.292969 233.996094 128.695312 C 232.96875 128.101562 231.917969 127.550781 230.84375 127.050781 C 229.769531 126.546875 228.675781 126.09375 227.558594 125.6875 C 226.445312 125.28125 225.3125 124.925781 224.167969 124.621094 C 223.019531 124.316406 221.863281 124.0625 220.691406 123.859375 C 219.523438 123.65625 218.347656 123.503906 217.164062 123.40625 C 215.980469 123.308594 214.796875 123.261719 213.609375 123.269531 C 212.421875 123.277344 211.238281 123.335938 210.058594 123.445312 C 208.875 123.558594 207.703125 123.722656 206.535156 123.9375 C 205.367188 124.152344 204.214844 124.421875 203.070312 124.738281 C 201.925781 125.058594 200.800781 125.425781 199.6875 125.84375 C 198.578125 126.261719 197.488281 126.730469 196.417969 127.242188 C 195.351562 127.757812 194.304688 128.320312 193.285156 128.925781 C 192.265625 129.535156 191.277344 130.1875 190.316406 130.882812 C 189.351562 131.574219 188.421875 132.3125 187.527344 133.089844 C 186.628906 133.867188 185.769531 134.683594 184.945312 135.539062 C 184.121094 136.390625 183.335938 137.28125 182.59375 138.203125 C 181.847656 139.128906 181.144531 140.082031 180.484375 141.066406 C 179.824219 142.054688 179.207031 143.066406 178.636719 144.105469 C 178.066406 145.148438 177.542969 146.210938 177.066406 147.296875 C 176.589844 148.386719 176.160156 149.492188 175.78125 150.617188 C 175 152.828125 174.425781 155.089844 174.054688 157.40625 C 173.6875 159.722656 173.53125 162.050781 173.585938 164.394531 C 173.644531 166.742188 173.914062 169.0625 174.390625 171.355469 C 174.871094 173.652344 175.554688 175.886719 176.445312 178.054688 C 177.726562 181.285156 179.386719 184.308594 181.425781 187.125 L 181.425781 206.066406 C 181.425781 206.476562 181.464844 206.882812 181.542969 207.285156 C 181.625 207.6875 181.742188 208.078125 181.898438 208.457031 C 182.058594 208.835938 182.25 209.199219 182.476562 209.539062 C 182.707031 209.878906 182.964844 210.195312 183.253906 210.484375 C 183.542969 210.777344 183.859375 211.035156 184.203125 211.261719 C 184.542969 211.492188 184.902344 211.683594 185.28125 211.839844 C 185.660156 211.996094 186.050781 212.117188 186.453125 212.195312 C 186.855469 212.277344 187.261719 212.316406 187.671875 212.316406 L 198.171875 212.316406 C 197.582031 214.582031 197.011719 216.832031 196.421875 219.082031 C 196.304688 219.363281 196.113281 219.574219 195.851562 219.726562 C 195.375 220.03125 194.941406 220.386719 194.546875 220.796875 L 136.738281 220.796875 L 136.738281 121.425781 C 136.738281 120.894531 136.6875 120.367188 136.582031 119.847656 C 136.480469 119.324219 136.324219 118.820312 136.121094 118.328125 C 135.917969 117.835938 135.667969 117.371094 135.375 116.925781 C 135.078125 116.484375 134.742188 116.078125 134.367188 115.699219 C 133.992188 115.324219 133.582031 114.988281 133.140625 114.695312 C 132.699219 114.398438 132.230469 114.148438 131.738281 113.945312 C 131.25 113.742188 130.742188 113.589844 130.222656 113.484375 C 129.699219 113.382812 129.171875 113.328125 128.640625 113.328125 C 128.109375 113.328125 127.582031 113.382812 127.0625 113.484375 C 126.539062 113.589844 126.035156 113.742188 125.542969 113.945312 C 125.050781 114.148438 124.585938 114.398438 124.144531 114.695312 C 123.703125 114.988281 123.292969 115.324219 122.917969 115.699219 C 122.539062 116.078125 122.207031 116.484375 121.910156 116.925781 C 121.613281 117.371094 121.363281 117.835938 121.160156 118.328125 C 120.957031 118.820312 120.804688 119.324219 120.699219 119.847656 C 120.597656 120.367188 120.546875 120.894531 120.546875 121.425781 L 120.546875 228.902344 C 120.542969 229.433594 120.597656 229.957031 120.699219 230.480469 C 120.800781 231 120.957031 231.507812 121.160156 231.996094 C 121.359375 232.488281 121.609375 232.957031 121.90625 233.398438 C 122.199219 233.839844 122.535156 234.246094 122.910156 234.625 C 123.285156 235 123.695312 235.335938 124.136719 235.628906 C 124.578125 235.925781 125.046875 236.171875 125.535156 236.375 C 126.027344 236.578125 126.535156 236.730469 127.054688 236.835938 C 127.574219 236.9375 128.101562 236.988281 128.632812 236.988281 C 128.769531 236.996094 128.90625 236.988281 129.042969 236.972656 C 129.179688 236.984375 129.316406 236.992188 129.453125 236.988281 L 190.296875 236.988281 C 189.511719 241.113281 188.726562 245.128906 187.941406 249.109375 C 187.578125 250.4375 187.429688 251.785156 187.496094 253.160156 C 187.5625 254.53125 187.84375 255.859375 188.332031 257.144531 L 189.671875 259.109375 C 190.542969 259.996094 191.546875 260.695312 192.6875 261.195312 C 193.824219 261.699219 195.015625 261.972656 196.261719 262.019531 C 197.125 262.019531 197.984375 261.929688 198.832031 261.75 C 199.984375 261.4375 201.042969 260.921875 202 260.207031 C 202.957031 259.492188 203.753906 258.625 204.382812 257.609375 C 205.035156 256.589844 205.480469 255.488281 205.722656 254.304688 C 206.792969 248.914062 207.828125 243.398438 208.828125 238.042969 L 209.027344 236.988281 L 244.464844 236.988281 C 244.996094 236.988281 245.519531 236.933594 246.039062 236.832031 C 246.5625 236.726562 247.066406 236.570312 247.554688 236.367188 C 248.046875 236.164062 248.511719 235.914062 248.953125 235.621094 C 249.394531 235.324219 249.800781 234.988281 250.175781 234.613281 C 250.550781 234.238281 250.886719 233.832031 251.183594 233.390625 C 251.476562 232.949219 251.726562 232.484375 251.929688 231.992188 C 252.132812 231.503906 252.289062 231 252.394531 230.476562 C 252.496094 229.957031 252.550781 229.433594 252.550781 228.902344 C 252.554688 228.371094 252.503906 227.84375 252.402344 227.320312 C 252.296875 226.796875 252.144531 226.292969 251.945312 225.800781 C 251.742188 225.308594 251.492188 224.839844 251.199219 224.398438 C 250.902344 223.953125 250.566406 223.542969 250.191406 223.167969 C 249.816406 222.792969 249.40625 222.457031 248.964844 222.160156 C 248.523438 221.863281 248.054688 221.613281 247.566406 221.410156 C 247.074219 221.207031 246.566406 221.054688 246.042969 220.949219 C 245.523438 220.847656 244.996094 220.796875 244.464844 220.796875 Z M 236.074219 206.066406 C 236.066406 206.1875 236.023438 206.292969 235.9375 206.378906 C 235.851562 206.464844 235.746094 206.507812 235.625 206.511719 L 222.949219 206.511719 C 222.828125 206.507812 222.726562 206.464844 222.640625 206.378906 C 222.554688 206.292969 222.507812 206.1875 222.503906 206.066406 L 222.503906 202.566406 C 226.355469 201.726562 229.996094 200.339844 233.429688 198.410156 C 234.359375 197.890625 235.234375 197.335938 236.074219 196.785156 Z M 187.671875 206.511719 C 187.550781 206.515625 187.445312 206.472656 187.355469 206.382812 C 187.269531 206.296875 187.226562 206.191406 187.226562 206.066406 L 187.226562 193.464844 C 189.078125 195.074219 191.058594 196.5 193.171875 197.746094 C 195.652344 199.230469 198.257812 200.441406 200.992188 201.371094 L 199.652344 206.511719 Z M 191.40625 231.1875 L 129.542969 231.1875 C 129.421875 231.1875 129.304688 231.175781 129.1875 231.152344 L 128.917969 231.167969 C 128.828125 231.183594 128.742188 231.191406 128.652344 231.1875 C 128.347656 231.1875 128.054688 231.128906 127.773438 231.015625 C 127.492188 230.898438 127.242188 230.734375 127.027344 230.519531 C 126.808594 230.308594 126.644531 230.058594 126.527344 229.777344 C 126.410156 229.496094 126.347656 229.207031 126.347656 228.902344 L 126.347656 121.425781 C 126.351562 121.121094 126.410156 120.828125 126.527344 120.546875 C 126.644531 120.265625 126.8125 120.019531 127.027344 119.800781 C 127.242188 119.585938 127.492188 119.421875 127.773438 119.300781 C 128.054688 119.183594 128.347656 119.125 128.652344 119.121094 C 128.953125 119.128906 129.246094 119.1875 129.523438 119.308594 C 129.804688 119.425781 130.050781 119.59375 130.261719 119.808594 C 130.476562 120.023438 130.640625 120.269531 130.757812 120.550781 C 130.875 120.832031 130.933594 121.121094 130.9375 121.425781 L 130.9375 226.597656 L 192.261719 226.597656 C 191.976562 228.152344 191.691406 229.6875 191.40625 231.1875 Z M 203.667969 236.472656 C 202.347656 244.898438 201.117188 250.699219 200.421875 253.324219 C 200.1875 254.546875 199.574219 255.535156 198.582031 256.289062 C 197.742188 256.84375 196.832031 257.015625 195.851562 256.804688 C 195.585938 256.746094 195.328125 256.664062 195.078125 256.550781 C 194.828125 256.441406 194.59375 256.308594 194.371094 256.152344 C 194.148438 255.996094 193.941406 255.820312 193.753906 255.625 C 193.566406 255.425781 193.398438 255.214844 193.253906 254.984375 C 193.109375 254.753906 192.984375 254.511719 192.886719 254.257812 C 192.789062 254.003906 192.71875 253.746094 192.671875 253.476562 C 192.625 253.207031 192.601562 252.9375 192.609375 252.667969 C 192.617188 252.394531 192.648438 252.125 192.707031 251.859375 L 192.941406 250.609375 C 193.816406 245.949219 194.714844 241.292969 195.636719 236.632812 C 195.9375 234.988281 196.242188 233.363281 196.5625 231.722656 C 196.742188 230.8125 196.902344 229.882812 197.082031 228.972656 C 197.261719 228.0625 197.4375 227.152344 197.617188 226.222656 C 197.636719 226.132812 197.652344 226.027344 197.671875 225.9375 C 197.6875 225.847656 197.722656 225.722656 197.742188 225.597656 C 197.828125 225.085938 198.078125 224.675781 198.492188 224.367188 C 198.796875 224.152344 199.136719 224.050781 199.511719 224.0625 C 199.667969 224.066406 199.820312 224.082031 199.972656 224.117188 L 204.082031 224.921875 C 204.371094 224.945312 204.625 225.050781 204.847656 225.242188 C 204.902344 225.316406 204.960938 225.390625 205.027344 225.457031 C 205.078125 225.5 205.121094 225.554688 205.152344 225.617188 C 205.1875 225.714844 205.199219 225.816406 205.1875 225.921875 C 205.167969 226.277344 204.652344 230.027344 203.667969 236.472656 Z M 204.277344 219.511719 L 201.882812 218.957031 L 205.953125 202.855469 L 208.382812 203.246094 Z M 201.402344 195.945312 C 198.65625 194.910156 196.085938 193.546875 193.691406 191.855469 C 191.242188 190.105469 189.050781 188.074219 187.117188 185.761719 C 185.183594 183.453125 183.574219 180.9375 182.28125 178.214844 C 180.734375 174.941406 179.742188 171.503906 179.300781 167.910156 C 178.855469 164.3125 178.988281 160.738281 179.691406 157.183594 C 179.8125 156.546875 179.953125 155.910156 180.109375 155.28125 C 180.269531 154.648438 180.445312 154.023438 180.636719 153.402344 C 180.828125 152.78125 181.039062 152.164062 181.265625 151.554688 C 181.492188 150.945312 181.738281 150.34375 182 149.746094 C 182.261719 149.152344 182.539062 148.5625 182.832031 147.984375 C 183.128906 147.402344 183.4375 146.832031 183.765625 146.269531 C 184.09375 145.707031 184.433594 145.15625 184.792969 144.613281 C 185.148438 144.070312 185.523438 143.535156 185.910156 143.015625 C 186.300781 142.492188 186.703125 141.980469 187.117188 141.480469 C 187.535156 140.984375 187.964844 140.496094 188.410156 140.019531 C 188.855469 139.546875 189.3125 139.082031 189.78125 138.632812 C 190.253906 138.183594 190.734375 137.75 191.230469 137.328125 C 191.726562 136.90625 192.230469 136.496094 192.75 136.101562 C 193.269531 135.710938 193.796875 135.332031 194.335938 134.96875 C 194.875 134.605469 195.425781 134.253906 195.984375 133.921875 C 196.542969 133.589844 197.109375 133.273438 197.6875 132.972656 C 198.265625 132.671875 198.847656 132.386719 199.441406 132.121094 C 200.035156 131.851562 200.632812 131.601562 201.242188 131.367188 C 201.847656 131.136719 202.460938 130.917969 203.082031 130.71875 C 203.699219 130.519531 204.324219 130.339844 204.953125 130.175781 C 205.582031 130.011719 206.21875 129.863281 206.855469 129.738281 C 207.492188 129.609375 208.132812 129.5 208.777344 129.40625 C 209.421875 129.3125 210.066406 129.238281 210.714844 129.183594 C 211.363281 129.128906 212.011719 129.089844 212.664062 129.074219 C 213.3125 129.054688 213.964844 129.054688 214.613281 129.070312 C 215.265625 129.089844 215.914062 129.125 216.5625 129.179688 C 217.210938 129.234375 217.855469 129.304688 218.5 129.398438 C 219.144531 129.488281 219.785156 129.597656 220.421875 129.722656 C 221.0625 129.851562 221.695312 129.996094 222.324219 130.15625 C 222.953125 130.320312 223.578125 130.5 224.199219 130.699219 C 224.820312 130.898438 225.433594 131.113281 226.039062 131.34375 C 226.648438 131.578125 227.246094 131.828125 227.839844 132.09375 C 228.433594 132.359375 229.019531 132.644531 229.597656 132.941406 C 230.175781 133.242188 230.742188 133.558594 231.300781 133.890625 C 231.863281 134.222656 232.410156 134.566406 232.953125 134.929688 C 233.492188 135.292969 234.019531 135.671875 234.539062 136.0625 C 235.058594 136.457031 235.566406 136.863281 236.0625 137.285156 C 236.558594 137.703125 237.042969 138.140625 237.511719 138.589844 C 237.984375 139.035156 238.441406 139.496094 238.886719 139.972656 C 239.332031 140.445312 239.765625 140.933594 240.183594 141.429688 C 240.597656 141.929688 241.003906 142.441406 241.390625 142.960938 C 241.78125 143.484375 242.15625 144.015625 242.515625 144.558594 C 242.871094 145.097656 243.214844 145.652344 243.542969 146.214844 C 243.871094 146.773438 244.183594 147.347656 244.480469 147.925781 C 244.773438 148.503906 245.054688 149.09375 245.316406 149.6875 C 245.578125 150.28125 245.824219 150.882812 246.054688 151.492188 C 246.28125 152.101562 246.492188 152.71875 246.6875 153.339844 C 246.878906 153.960938 247.058594 154.585938 247.214844 155.214844 C 247.375 155.847656 247.515625 156.480469 247.636719 157.121094 C 247.761719 157.757812 247.863281 158.402344 247.949219 159.046875 C 248.039062 159.691406 248.105469 160.335938 248.15625 160.984375 C 248.207031 161.632812 248.238281 162.285156 248.25 162.933594 C 248.265625 163.585938 248.257812 164.234375 248.234375 164.886719 C 248.210938 165.535156 248.171875 166.183594 248.109375 166.832031 C 248.050781 167.480469 247.972656 168.125 247.875 168.769531 C 247.78125 169.410156 247.664062 170.050781 247.53125 170.6875 C 247.402344 171.324219 247.25 171.957031 247.082031 172.585938 C 246.914062 173.214844 246.726562 173.835938 246.523438 174.457031 C 246.320312 175.074219 246.101562 175.683594 245.863281 176.289062 C 245.625 176.894531 245.371094 177.496094 245.097656 178.085938 C 244.828125 178.675781 244.539062 179.257812 244.234375 179.835938 C 243.929688 180.410156 243.609375 180.976562 243.273438 181.53125 C 242.9375 182.089844 242.585938 182.636719 242.21875 183.171875 C 241.851562 183.710938 241.46875 184.234375 241.070312 184.75 C 238.777344 187.640625 236.109375 190.132812 233.074219 192.230469 C 231.941406 193.011719 230.761719 193.722656 229.539062 194.355469 C 227.136719 195.605469 224.617188 196.550781 221.988281 197.195312 L 217.09375 198.035156 C 211.699219 198.566406 206.46875 197.871094 201.402344 195.945312 Z M 246.070312 230.507812 C 245.632812 230.964844 245.097656 231.191406 244.464844 231.1875 L 210.113281 231.1875 C 210.292969 230.152344 210.488281 229.117188 210.703125 228.027344 C 210.792969 227.554688 210.84375 227.078125 210.847656 226.597656 L 244.464844 226.597656 C 244.769531 226.597656 245.0625 226.660156 245.339844 226.777344 C 245.621094 226.894531 245.871094 227.0625 246.082031 227.277344 C 246.296875 227.492188 246.460938 227.742188 246.578125 228.023438 C 246.691406 228.304688 246.75 228.597656 246.75 228.902344 C 246.753906 229.535156 246.527344 230.070312 246.070312 230.507812 Z M 152.21875 211.832031 L 165.570312 211.871094 C 165.953125 211.867188 166.328125 211.828125 166.703125 211.753906 C 167.074219 211.679688 167.4375 211.566406 167.789062 211.421875 C 168.140625 211.273438 168.472656 211.097656 168.789062 210.882812 C 169.105469 210.671875 169.398438 210.433594 169.667969 210.164062 C 169.9375 209.894531 170.175781 209.601562 170.386719 209.285156 C 170.601562 208.96875 170.777344 208.636719 170.925781 208.285156 C 171.070312 207.933594 171.183594 207.570312 171.257812 207.199219 C 171.332031 206.824219 171.371094 206.449219 171.375 206.066406 L 171.375 127.851562 C 171.371094 127.472656 171.332031 127.09375 171.257812 126.722656 C 171.183594 126.347656 171.070312 125.988281 170.925781 125.636719 C 170.777344 125.285156 170.601562 124.949219 170.386719 124.632812 C 170.175781 124.320312 169.9375 124.027344 169.667969 123.757812 C 169.398438 123.488281 169.105469 123.246094 168.789062 123.035156 C 168.472656 122.824219 168.140625 122.644531 167.789062 122.5 C 167.4375 122.351562 167.074219 122.242188 166.703125 122.164062 C 166.328125 122.089844 165.953125 122.050781 165.570312 122.050781 L 152.894531 122.050781 C 152.515625 122.050781 152.136719 122.089844 151.765625 122.164062 C 151.390625 122.238281 151.027344 122.347656 150.675781 122.496094 C 150.324219 122.640625 149.992188 122.820312 149.675781 123.03125 C 149.359375 123.242188 149.066406 123.484375 148.796875 123.753906 C 148.527344 124.023438 148.285156 124.316406 148.074219 124.632812 C 147.863281 124.949219 147.683594 125.28125 147.539062 125.632812 C 147.390625 125.984375 147.28125 126.347656 147.207031 126.722656 C 147.132812 127.09375 147.09375 127.472656 147.09375 127.851562 L 147.09375 206.066406 C 147.09375 206.417969 147.125 206.769531 147.191406 207.113281 C 147.253906 207.460938 147.351562 207.800781 147.476562 208.128906 C 147.601562 208.457031 147.753906 208.773438 147.9375 209.074219 C 148.121094 209.375 148.328125 209.65625 148.5625 209.921875 C 148.796875 210.183594 149.054688 210.421875 149.332031 210.640625 C 149.609375 210.855469 149.902344 211.046875 150.214844 211.210938 C 150.527344 211.375 150.851562 211.507812 151.1875 211.613281 C 151.523438 211.71875 151.867188 211.792969 152.21875 211.832031 Z M 152.003906 127.851562 C 152.003906 127.605469 152.089844 127.394531 152.265625 127.222656 C 152.4375 127.046875 152.648438 126.960938 152.894531 126.960938 L 165.570312 126.960938 C 165.816406 126.964844 166.023438 127.050781 166.199219 127.226562 C 166.371094 127.398438 166.460938 127.609375 166.464844 127.851562 L 166.464844 206.066406 C 166.457031 206.3125 166.367188 206.519531 166.195312 206.691406 C 166.023438 206.863281 165.816406 206.953125 165.570312 206.960938 L 152.894531 206.960938 C 152.648438 206.960938 152.4375 206.871094 152.265625 206.699219 C 152.089844 206.523438 152.003906 206.3125 152.003906 206.066406 Z M 213.328125 156.863281 L 213.632812 156.863281 C 214.367188 156.867188 215.101562 156.796875 215.824219 156.65625 C 216.546875 156.519531 217.253906 156.3125 217.9375 156.039062 C 218.621094 155.765625 219.273438 155.429688 219.894531 155.03125 C 220.515625 154.632812 221.089844 154.179688 221.625 153.667969 C 222.15625 153.160156 222.636719 152.605469 223.0625 152.003906 C 223.492188 151.402344 223.855469 150.765625 224.160156 150.09375 C 224.464844 149.421875 224.703125 148.726562 224.875 148.011719 C 225.046875 147.292969 225.148438 146.566406 225.183594 145.832031 C 225.210938 145.078125 225.160156 144.332031 225.042969 143.59375 C 224.921875 142.851562 224.730469 142.128906 224.464844 141.425781 C 224.203125 140.722656 223.875 140.050781 223.480469 139.410156 C 223.085938 138.773438 222.632812 138.175781 222.121094 137.628906 C 221.609375 137.078125 221.046875 136.582031 220.4375 136.144531 C 219.828125 135.703125 219.179688 135.328125 218.5 135.015625 C 217.816406 134.707031 217.109375 134.464844 216.375 134.289062 C 215.644531 134.117188 214.90625 134.019531 214.152344 133.992188 C 213.402344 133.964844 212.65625 134.011719 211.914062 134.132812 C 211.171875 134.25 210.449219 134.441406 209.746094 134.707031 C 209.042969 134.96875 208.371094 135.296875 207.734375 135.691406 C 207.09375 136.085938 206.5 136.539062 205.949219 137.050781 C 205.398438 137.5625 204.90625 138.125 204.464844 138.730469 C 204.027344 139.339844 203.648438 139.988281 203.335938 140.671875 C 203.023438 141.355469 202.78125 142.0625 202.609375 142.792969 C 202.4375 143.523438 202.335938 144.265625 202.308594 145.015625 C 202.28125 145.765625 202.328125 146.511719 202.449219 147.253906 C 202.570312 147.996094 202.757812 148.71875 203.023438 149.421875 C 203.285156 150.125 203.613281 150.796875 204.007812 151.4375 C 204.402344 152.074219 204.855469 152.671875 205.367188 153.222656 C 205.878906 153.769531 206.4375 154.265625 207.046875 154.707031 C 207.65625 155.144531 208.300781 155.523438 208.984375 155.835938 C 209.667969 156.148438 210.375 156.390625 211.105469 156.5625 C 211.835938 156.734375 212.578125 156.835938 213.328125 156.863281 Z M 208.882812 140.582031 C 209.523438 139.933594 210.265625 139.433594 211.105469 139.082031 C 211.949219 138.734375 212.828125 138.5625 213.738281 138.566406 L 214.113281 138.566406 C 214.554688 138.589844 214.992188 138.65625 215.421875 138.765625 C 215.851562 138.875 216.265625 139.023438 216.667969 139.210938 C 217.066406 139.402344 217.445312 139.625 217.804688 139.890625 C 218.160156 140.152344 218.488281 140.445312 218.789062 140.769531 C 219.089844 141.097656 219.355469 141.449219 219.589844 141.824219 C 219.820312 142.203125 220.015625 142.597656 220.171875 143.015625 C 220.328125 143.429688 220.441406 143.855469 220.515625 144.292969 C 220.585938 144.726562 220.617188 145.167969 220.605469 145.613281 C 220.597656 146.054688 220.542969 146.492188 220.445312 146.925781 C 220.351562 147.355469 220.214844 147.777344 220.035156 148.183594 C 219.859375 148.589844 219.644531 148.972656 219.394531 149.339844 C 219.140625 149.703125 218.855469 150.039062 218.539062 150.351562 C 218.222656 150.660156 217.878906 150.9375 217.511719 151.179688 C 217.140625 151.421875 216.75 151.628906 216.339844 151.796875 C 215.929688 151.964844 215.507812 152.09375 215.074219 152.179688 C 214.636719 152.265625 214.199219 152.308594 213.757812 152.3125 L 213.597656 152.3125 C 212.921875 152.296875 212.265625 152.1875 211.625 151.980469 C 210.984375 151.773438 210.386719 151.480469 209.832031 151.097656 C 209.277344 150.714844 208.789062 150.257812 208.367188 149.734375 C 207.945312 149.207031 207.609375 148.628906 207.359375 148.003906 C 207.109375 147.378906 206.953125 146.730469 206.890625 146.0625 C 206.832031 145.390625 206.871094 144.726562 207.003906 144.066406 C 207.140625 143.40625 207.367188 142.777344 207.6875 142.183594 C 208.007812 141.59375 208.40625 141.058594 208.882812 140.582031 Z M 232.574219 175.539062 L 232.449219 175.609375 L 232.449219 172.789062 C 232.4375 172.046875 232.355469 171.3125 232.203125 170.589844 C 232.050781 169.863281 231.828125 169.15625 231.539062 168.476562 C 231.25 167.792969 230.898438 167.144531 230.484375 166.527344 C 230.070312 165.910156 229.601562 165.34375 229.078125 164.816406 C 228.554688 164.292969 227.984375 163.824219 227.371094 163.40625 C 226.757812 162.992188 226.105469 162.640625 225.425781 162.351562 C 224.742188 162.058594 224.039062 161.839844 223.3125 161.683594 C 222.585938 161.53125 221.855469 161.445312 221.113281 161.433594 C 216.148438 161.417969 211.167969 161.417969 206.203125 161.453125 C 205.554688 161.457031 204.910156 161.519531 204.273438 161.636719 C 203.632812 161.753906 203.007812 161.925781 202.398438 162.148438 C 201.789062 162.375 201.203125 162.648438 200.640625 162.972656 C 200.078125 163.296875 199.550781 163.667969 199.050781 164.082031 C 198.550781 164.5 198.089844 164.953125 197.671875 165.449219 C 197.25 165.945312 196.875 166.472656 196.542969 167.03125 C 196.214844 167.589844 195.933594 168.171875 195.703125 168.78125 C 195.472656 169.386719 195.296875 170.007812 195.171875 170.648438 C 194.988281 172.332031 194.90625 174.023438 194.921875 175.71875 L 194.796875 188.070312 L 232.429688 188.070312 Z M 227.789062 177.164062 L 227.753906 183.535156 L 199.347656 183.535156 L 199.457031 176.824219 C 199.457031 171.96875 199.472656 175.039062 199.472656 172.949219 L 199.472656 172.933594 C 199.46875 172.480469 199.507812 172.035156 199.59375 171.589844 C 199.675781 171.144531 199.800781 170.714844 199.972656 170.296875 C 200.140625 169.878906 200.347656 169.480469 200.59375 169.101562 C 200.839844 168.722656 201.121094 168.375 201.4375 168.050781 C 201.753906 167.730469 202.097656 167.441406 202.46875 167.1875 C 202.84375 166.929688 203.238281 166.714844 203.652344 166.539062 C 204.066406 166.359375 204.496094 166.226562 204.9375 166.132812 C 205.378906 166.039062 205.824219 165.992188 206.277344 165.988281 L 206.4375 165.988281 C 210.972656 165.96875 215.488281 165.96875 220.039062 165.988281 C 220.867188 165.964844 221.6875 166.023438 222.503906 166.164062 C 223.277344 166.332031 224 166.625 224.667969 167.042969 C 225.339844 167.460938 225.917969 167.980469 226.410156 168.601562 C 226.898438 169.222656 227.265625 169.90625 227.515625 170.65625 C 227.765625 171.40625 227.878906 172.175781 227.859375 172.96875 C 227.878906 176.128906 227.789062 170.378906 227.789062 177.164062 Z M 227.789062 177.164062 " fill-opacity="1" fill-rule="nonzero"/></g></svg>