<svg xmlns="http://www.w3.org/2000/svg" xmlns:xlink="http://www.w3.org/1999/xlink" width="500" zoomAndPan="magnify" viewBox="0 0 375 374.999991" height="500" preserveAspectRatio="xMidYMid meet" version="1.0"><defs><clipPath id="bd28749406"><path d="M 66.171875 171 L 98 171 L 98 191 L 66.171875 191 Z M 66.171875 171 " clip-rule="nonzero"/></clipPath><clipPath id="62cd16ca98"><path d="M 279 296.109375 L 308.515625 296.109375 L 308.515625 334 L 279 334 Z M 279 296.109375 " clip-rule="nonzero"/></clipPath><clipPath id="a3207ae6db"><path d="M 271.011719 326 L 302 326 L 302 350.8125 L 271.011719 350.8125 Z M 271.011719 326 " clip-rule="nonzero"/></clipPath><clipPath id="8b10d0ea33"><path d="M 264 339 L 274 339 L 274 350.8125 L 264 350.8125 Z M 264 339 " clip-rule="nonzero"/></clipPath><clipPath id="fe5edbee9c"><path d="M 279 159 L 308.515625 159 L 308.515625 313.074219 L 279 313.074219 Z M 279 159 " clip-rule="nonzero"/></clipPath><clipPath id="11031fc43b"><path d="M 278 292 L 308.515625 292 L 308.515625 313.074219 L 278 313.074219 Z M 278 292 " clip-rule="nonzero"/></clipPath><clipPath id="622df2f791"><path d="M 274 288 L 307 288 L 307 308.832031 L 274 308.832031 Z M 274 288 " clip-rule="nonzero"/></clipPath><clipPath id="786ffe7372"><path d="M 66.171875 41 L 280 41 L 280 314 L 66.171875 314 Z M 66.171875 41 " clip-rule="nonzero"/></clipPath><clipPath id="d603e0e710"><path d="M 66.171875 187 L 280 187 L 280 344 L 66.171875 344 Z M 66.171875 187 " clip-rule="nonzero"/></clipPath><clipPath id="aad7c91dd8"><path d="M 277 316 L 308.515625 316 L 308.515625 337 L 277 337 Z M 277 316 " clip-rule="nonzero"/></clipPath><clipPath id="51951ed89d"><path d="M 262 128 L 308.515625 128 L 308.515625 177 L 262 177 Z M 262 128 " clip-rule="nonzero"/></clipPath><clipPath id="91c845d43a"><path d="M 264 339 L 274 339 L 274 350.8125 L 264 350.8125 Z M 264 339 " clip-rule="nonzero"/></clipPath></defs><path fill="#582690" d="M 75.769531 221.207031 L 104.535156 204.523438 C 104.519531 210.105469 108.472656 216.964844 113.355469 219.765625 L 84.589844 236.449219 C 79.707031 233.632812 75.753906 226.773438 75.769531 221.207031 " fill-opacity="1" fill-rule="nonzero"/><path fill="#582690" d="M 75.820312 200.929688 L 104.585938 184.246094 L 104.535156 204.523438 L 75.769531 221.207031 L 75.820312 200.929688 " fill-opacity="1" fill-rule="nonzero"/><g clip-path="url(#bd28749406)"><path fill="#582690" d="M 68.277344 187.90625 L 97.046875 171.222656 C 96.25 171.71875 95.765625 172.765625 95.75 174.089844 L 66.984375 190.757812 C 66.984375 189.429688 67.480469 188.402344 68.277344 187.90625 " fill-opacity="1" fill-rule="nonzero"/></g><path fill="#582690" d="M 76.21875 58.945312 L 105 42.261719 L 104.621094 174.105469 L 75.851562 190.789062 L 76.21875 58.945312 " fill-opacity="1" fill-rule="nonzero"/><path fill="#582690" d="M 68.277344 187.90625 L 97.046875 171.222656 C 97.894531 170.792969 99.039062 170.890625 100.183594 171.554688 L 71.417969 188.238281 C 70.273438 187.574219 69.125 187.460938 68.277344 187.90625 " fill-opacity="1" fill-rule="nonzero"/><path fill="#582690" d="M 71.417969 188.238281 L 100.183594 171.554688 L 104.621094 174.105469 L 75.851562 190.789062 L 71.417969 188.238281 " fill-opacity="1" fill-rule="nonzero"/><path fill="#582690" d="M 130.046875 284.445312 L 158.816406 267.761719 C 159.613281 267.296875 160.726562 267.363281 161.953125 268.074219 L 133.1875 284.742188 C 131.957031 284.046875 130.84375 283.980469 130.046875 284.445312 " fill-opacity="1" fill-rule="nonzero"/><path fill="#582690" d="M 179.625 283.335938 C 179.625 286.132812 181.601562 289.546875 184.042969 290.957031 L 155.277344 307.621094 C 152.835938 306.214844 150.859375 302.800781 150.859375 300.019531 C 159.496094 295.015625 171.007812 288.339844 179.625 283.335938 " fill-opacity="1" fill-rule="nonzero"/><path fill="#582690" d="M 133.1875 284.742188 L 161.953125 268.074219 L 179.644531 278.265625 L 150.875 294.933594 L 133.1875 284.742188 " fill-opacity="1" fill-rule="nonzero"/><path fill="#582690" d="M 150.875 294.933594 L 179.644531 278.265625 L 179.625 283.335938 L 150.859375 300.019531 L 150.875 294.933594 " fill-opacity="1" fill-rule="nonzero"/><path fill="#582690" d="M 150.910156 284.792969 L 179.675781 268.125 L 188.53125 273.210938 L 159.761719 289.894531 L 150.910156 284.792969 " fill-opacity="1" fill-rule="nonzero"/><path fill="#582690" d="M 159.761719 289.894531 L 188.53125 273.210938 L 188.496094 283.351562 L 159.730469 300.035156 L 159.761719 289.894531 " fill-opacity="1" fill-rule="nonzero"/><path fill="#582690" d="M 155.277344 307.621094 L 184.042969 290.957031 L 219.4375 311.332031 L 190.671875 328.015625 L 155.277344 307.621094 " fill-opacity="1" fill-rule="nonzero"/><path fill="#582690" d="M 222.578125 311.632812 L 193.8125 328.316406 C 193.015625 328.777344 191.902344 328.710938 190.671875 328.015625 L 219.4375 311.332031 C 220.667969 312.046875 221.78125 312.113281 222.578125 311.632812 " fill-opacity="1" fill-rule="nonzero"/><path fill="#582690" d="M 159.730469 300.035156 L 188.496094 283.351562 L 215.039062 298.644531 L 186.269531 315.328125 L 159.730469 300.035156 " fill-opacity="1" fill-rule="nonzero"/><path fill="#582690" d="M 222.578125 311.632812 L 193.8125 328.316406 C 194.609375 327.851562 195.105469 326.875 195.105469 325.5 L 223.875 308.816406 C 223.875 310.207031 223.375 311.183594 222.578125 311.632812 " fill-opacity="1" fill-rule="nonzero"/><path fill="#582690" d="M 195.125 320.414062 L 223.890625 303.730469 L 223.875 308.816406 L 195.105469 325.5 L 195.125 320.414062 " fill-opacity="1" fill-rule="nonzero"/><path fill="#cecdcb" d="M 186.304688 305.171875 L 215.070312 288.503906 L 215.039062 298.644531 L 186.269531 315.328125 L 186.304688 305.171875 " fill-opacity="1" fill-rule="nonzero"/><path fill="#cecdcb" d="M 159.761719 289.894531 L 188.53125 273.210938 L 215.070312 288.503906 L 186.304688 305.171875 L 159.761719 289.894531 " fill-opacity="1" fill-rule="nonzero"/><path fill="#582690" d="M 186.304688 305.171875 L 215.070312 288.503906 L 223.921875 293.589844 L 195.140625 310.273438 L 186.304688 305.171875 " fill-opacity="1" fill-rule="nonzero"/><path fill="#582690" d="M 195.140625 310.273438 L 223.921875 293.589844 L 223.890625 303.730469 L 195.125 320.414062 L 195.140625 310.273438 " fill-opacity="1" fill-rule="nonzero"/><path fill="#582690" d="M 195.125 320.414062 L 223.890625 303.730469 L 241.578125 313.933594 L 212.8125 330.601562 L 195.125 320.414062 " fill-opacity="1" fill-rule="nonzero"/><path fill="#582690" d="M 244.703125 324.371094 L 215.933594 341.054688 C 216.730469 340.589844 217.230469 339.613281 217.230469 338.238281 C 217.230469 335.421875 215.269531 332.007812 212.8125 330.601562 L 241.578125 313.933594 C 244.039062 315.34375 246.015625 318.753906 245.996094 321.554688 C 245.996094 322.945312 245.5 323.925781 244.703125 324.371094 " fill-opacity="1" fill-rule="nonzero"/><path fill="#582690" d="M 84.589844 236.449219 L 113.355469 219.765625 L 280.179688 315.839844 L 251.394531 332.507812 L 84.589844 236.449219 " fill-opacity="1" fill-rule="nonzero"/><path fill="#a07ac3" d="M 197.433594 258.019531 C 195.722656 259.015625 194.011719 260.007812 192.300781 261 C 191.21875 261.632812 189.757812 262.476562 188.679688 263.105469 C 182 266.964844 175.324219 270.84375 168.664062 274.703125 C 166.222656 273.292969 164.246094 269.882812 164.261719 267.097656 C 164.261719 265.707031 164.761719 264.714844 165.558594 264.25 L 194.324219 247.582031 C 193.527344 248.046875 193.03125 249.023438 193.03125 250.414062 C 193.015625 253.214844 194.992188 256.628906 197.433594 258.019531 " fill-opacity="1" fill-rule="nonzero"/><path fill="#a07ac3" d="M 168.664062 274.703125 L 197.433594 258.019531 L 206.285156 263.121094 L 177.515625 279.804688 L 168.664062 274.703125 " fill-opacity="1" fill-rule="nonzero"/><path fill="#582690" d="M 165.558594 264.25 L 194.324219 247.582031 C 195.125 247.117188 196.234375 247.183594 197.449219 247.878906 L 168.679688 264.5625 C 167.46875 263.851562 166.355469 263.785156 165.558594 264.25 " fill-opacity="1" fill-rule="nonzero"/><path fill="#a07ac3" d="M 206.285156 263.121094 C 207.511719 263.835938 208.625 263.902344 209.441406 263.4375 L 180.671875 280.105469 C 179.859375 280.566406 178.746094 280.519531 177.515625 279.804688 C 185.972656 274.886719 194.441406 269.980469 202.914062 265.078125 C 203.925781 264.480469 205.269531 263.703125 206.285156 263.121094 " fill-opacity="1" fill-rule="nonzero"/><path fill="#582690" d="M 168.679688 264.5625 L 197.449219 247.878906 L 206.300781 252.984375 L 177.535156 269.648438 L 168.679688 264.5625 " fill-opacity="1" fill-rule="nonzero"/><path fill="#582690" d="M 209.441406 263.4375 L 180.671875 280.105469 C 181.453125 279.65625 181.953125 278.679688 181.953125 277.289062 C 181.953125 274.488281 179.992188 271.074219 177.535156 269.648438 L 206.300781 252.984375 C 208.757812 254.390625 210.734375 257.804688 210.71875 260.605469 C 210.71875 261.996094 210.222656 262.972656 209.441406 263.4375 " fill-opacity="1" fill-rule="nonzero"/><path fill="#a07ac3" d="M 75.820312 200.929688 L 104.585938 184.246094 L 299.246094 296.339844 L 270.480469 313.023438 L 75.820312 200.929688 " fill-opacity="1" fill-rule="nonzero"/><path fill="#582690" d="M 75.851562 190.789062 L 104.621094 174.105469 L 299.261719 286.199219 L 270.496094 302.882812 L 75.851562 190.789062 " fill-opacity="1" fill-rule="nonzero"/><path fill="#cecdcb" d="M 126.757812 176.691406 C 126.261719 176.988281 125.597656 177.371094 125.117188 177.652344 C 124.070312 178.265625 122.675781 179.058594 121.644531 179.671875 C 120.546875 180.300781 119.085938 181.148438 118.007812 181.777344 C 111.328125 185.636719 104.652344 189.511719 97.992188 193.375 C 95.550781 191.964844 93.574219 188.570312 93.589844 185.769531 C 93.589844 184.378906 94.089844 183.382812 94.886719 182.9375 L 123.652344 166.253906 C 122.855469 166.71875 122.359375 167.695312 122.359375 169.085938 C 122.339844 171.886719 124.316406 175.300781 126.757812 176.691406 " fill-opacity="1" fill-rule="nonzero"/><path fill="#cd1c2e" d="M 94.886719 182.9375 L 123.652344 166.253906 C 124.449219 165.789062 125.5625 165.855469 126.792969 166.550781 L 98.027344 183.234375 C 96.796875 182.523438 95.683594 182.457031 94.886719 182.9375 " fill-opacity="1" fill-rule="nonzero"/><path fill="#cecdcb" d="M 186.304688 305.171875 L 186.269531 315.328125 L 159.730469 300.035156 L 159.761719 289.894531 L 186.304688 305.171875 " fill-opacity="1" fill-rule="nonzero"/><path fill="#cecdcb" d="M 125.515625 133.21875 C 125.980469 134.195312 126.476562 135.15625 127.027344 136.082031 C 117.425781 141.632812 107.84375 147.199219 98.242188 152.75 C 97.710938 151.824219 97.210938 150.878906 96.746094 149.902344 C 106.347656 144.335938 115.929688 138.785156 125.515625 133.21875 " fill-opacity="1" fill-rule="nonzero"/><path fill="#cecdcb" d="M 125.515625 133.21875 C 115.929688 138.785156 106.347656 144.335938 96.746094 149.902344 C 96.015625 148.359375 95.402344 146.769531 94.9375 145.195312 C 104.519531 139.628906 114.101562 134.078125 123.703125 128.511719 C 124.183594 130.101562 124.800781 131.675781 125.515625 133.21875 " fill-opacity="1" fill-rule="nonzero"/><path fill="#cecdcb" d="M 122.492188 120.90625 C 122.492188 123.359375 122.921875 125.945312 123.703125 128.511719 C 114.101562 134.078125 104.519531 139.628906 94.9375 145.195312 C 94.15625 142.613281 93.722656 140.027344 93.722656 137.589844 C 102.359375 132.589844 113.871094 125.910156 122.492188 120.90625 " fill-opacity="1" fill-rule="nonzero"/><path fill="#582690" d="M 212.8125 330.601562 C 215.269531 332.007812 217.230469 335.421875 217.230469 338.238281 C 217.214844 341.023438 215.238281 342.148438 212.777344 340.742188 L 133.152344 294.882812 C 130.710938 293.492188 128.734375 290.078125 128.753906 287.277344 C 128.753906 284.476562 130.746094 283.335938 133.1875 284.742188 L 150.875 294.933594 L 150.859375 300.019531 C 150.859375 302.800781 152.835938 306.214844 155.277344 307.621094 L 190.671875 328.015625 C 193.113281 329.410156 195.089844 328.28125 195.105469 325.5 L 195.125 320.414062 L 212.8125 330.601562 " fill-opacity="1" fill-rule="nonzero"/><path fill="#582690" d="M 186.304688 305.171875 L 195.140625 310.273438 L 195.125 320.414062 L 195.105469 325.5 C 195.089844 328.28125 193.113281 329.410156 190.671875 328.015625 L 155.277344 307.621094 C 152.835938 306.214844 150.859375 302.800781 150.859375 300.019531 L 150.875 294.933594 L 150.910156 284.792969 L 159.761719 289.894531 L 159.730469 300.035156 L 186.269531 315.328125 L 186.304688 305.171875 " fill-opacity="1" fill-rule="nonzero"/><path fill="#582690" d="M 177.535156 269.648438 C 179.992188 271.074219 181.953125 274.488281 181.953125 277.289062 C 181.953125 280.085938 179.957031 281.214844 177.515625 279.804688 L 168.664062 274.703125 C 166.222656 273.292969 164.246094 269.882812 164.261719 267.097656 C 164.261719 264.28125 166.257812 263.15625 168.679688 264.5625 L 177.535156 269.648438 " fill-opacity="1" fill-rule="nonzero"/><path fill="#cecdcb" d="M 138.003906 147.632812 C 142.324219 150.117188 146.257812 150.347656 149.097656 148.707031 L 120.316406 165.375 C 117.492188 167.03125 113.554688 166.800781 109.238281 164.296875 C 104.933594 161.828125 101.066406 157.605469 98.242188 152.75 C 107.84375 147.199219 117.425781 141.632812 127.027344 136.082031 C 129.832031 140.921875 133.71875 145.164062 138.003906 147.632812 " fill-opacity="1" fill-rule="nonzero"/><path fill="#3c81cb" d="M 142.820312 137.957031 L 114.054688 154.640625 C 112.839844 155.335938 111.128906 155.234375 109.269531 154.160156 C 105.566406 152.039062 102.558594 146.886719 102.578125 142.675781 L 131.34375 126.011719 C 131.328125 130.203125 134.332031 135.355469 138.039062 137.492188 C 139.898438 138.570312 141.609375 138.667969 142.820312 137.957031 " fill-opacity="1" fill-rule="nonzero"/><path fill="#cecdcb" d="M 144.765625 133.730469 C 144.765625 135.800781 144.015625 137.261719 142.820312 137.957031 L 114.054688 154.640625 C 115.25 153.945312 115.996094 152.484375 115.996094 150.414062 C 124.632812 145.410156 136.144531 138.734375 144.765625 133.730469 " fill-opacity="1" fill-rule="nonzero"/><path fill="#cecdcb" d="M 93.808594 109.691406 L 122.574219 93.023438 L 122.492188 120.90625 L 93.722656 137.589844 L 93.808594 109.691406 " fill-opacity="1" fill-rule="nonzero"/><path fill="#cecdcb" d="M 277.171875 263.320312 C 278.402344 264.035156 279.53125 264.101562 280.328125 263.636719 L 251.5625 280.304688 C 250.765625 280.765625 249.632812 280.699219 248.40625 280.003906 C 256.875 275.085938 265.347656 270.179688 273.816406 265.257812 C 274.832031 264.679688 276.160156 263.902344 277.171875 263.320312 " fill-opacity="1" fill-rule="nonzero"/><path fill="#cd1c2e" d="M 280.328125 263.636719 L 251.5625 280.304688 C 252.359375 279.855469 252.839844 278.878906 252.855469 277.488281 C 252.855469 274.667969 250.878906 271.273438 248.4375 269.847656 L 277.207031 253.183594 C 279.648438 254.589844 281.625 258.003906 281.625 260.804688 C 281.605469 262.195312 281.125 263.171875 280.328125 263.636719 " fill-opacity="1" fill-rule="nonzero"/><path fill="#cecdcb" d="M 95.101562 106.859375 L 123.871094 90.191406 C 123.074219 90.640625 122.574219 91.632812 122.574219 93.023438 L 93.808594 109.691406 C 93.808594 108.300781 94.304688 107.324219 95.101562 106.859375 " fill-opacity="1" fill-rule="nonzero"/><path fill="#3c81cb" d="M 149.097656 148.707031 L 120.316406 165.375 C 123.105469 163.769531 124.832031 160.355469 124.851562 155.5 L 153.617188 138.835938 C 153.601562 143.671875 151.871094 147.085938 149.097656 148.707031 " fill-opacity="1" fill-rule="nonzero"/><path fill="#cecdcb" d="M 137.171875 180.386719 L 138.816406 179.441406 L 140.527344 178.445312 L 142.289062 177.417969 L 144.101562 176.375 L 145.925781 175.316406 L 147.785156 174.238281 L 149.664062 173.144531 L 151.558594 172.050781 L 153.433594 170.957031 L 155.3125 169.882812 L 157.1875 168.789062 L 159.015625 167.726562 L 160.824219 166.683594 L 162.570312 165.671875 L 164.296875 164.679688 L 165.941406 163.71875 L 164.296875 164.679688 L 162.570312 165.671875 L 160.824219 166.683594 L 159.015625 167.726562 L 157.1875 168.789062 L 155.3125 169.882812 L 153.433594 170.957031 L 151.558594 172.050781 L 149.664062 173.144531 L 147.785156 174.238281 L 145.925781 175.316406 L 144.101562 176.375 L 142.289062 177.417969 L 140.527344 178.445312 L 138.816406 179.441406 Z M 165.941406 163.71875 C 167.101562 164.398438 168.25 164.511719 169.097656 164.015625 L 140.3125 180.699219 C 139.480469 181.179688 138.335938 181.0625 137.171875 180.402344 C 136.492188 180.003906 135.8125 179.441406 135.179688 178.695312 C 133.003906 176.175781 132.125 172.632812 133.238281 170.757812 L 162.019531 154.074219 C 160.890625 155.949219 161.773438 159.511719 163.949219 162.011719 C 154.363281 167.578125 144.765625 173.128906 135.179688 178.695312 C 144.765625 173.128906 154.363281 167.578125 163.949219 162.011719 C 164.578125 162.757812 165.261719 163.320312 165.941406 163.71875 " fill-opacity="1" fill-rule="nonzero"/><path fill="#3c81cb" d="M 102.660156 114.792969 L 131.425781 98.128906 L 131.34375 126.011719 L 102.578125 142.675781 L 102.660156 114.792969 " fill-opacity="1" fill-rule="nonzero"/><path fill="#3c81cb" d="M 169.097656 164.015625 L 140.3125 180.699219 C 140.644531 180.515625 140.910156 180.234375 141.125 179.871094 L 169.894531 163.1875 C 169.679688 163.570312 169.414062 163.835938 169.097656 164.015625 " fill-opacity="1" fill-rule="nonzero"/><path fill="#3c81cb" d="M 95.101562 106.859375 L 123.871094 90.191406 C 124.667969 89.710938 125.78125 89.777344 127.007812 90.492188 C 129.449219 91.898438 131.425781 95.3125 131.425781 98.128906 L 102.660156 114.792969 C 102.660156 111.996094 100.683594 108.582031 98.242188 107.175781 C 97.011719 106.460938 95.898438 106.394531 95.101562 106.859375 " fill-opacity="1" fill-rule="nonzero"/><path fill="#cecdcb" d="M 179.808594 168.902344 C 180.574219 171.125 182.136719 173.027344 183.746094 173.972656 C 174.164062 179.523438 164.578125 185.089844 154.980469 190.65625 C 153.367188 189.710938 151.804688 187.789062 151.042969 185.585938 C 159.679688 180.582031 171.1875 173.90625 179.808594 168.902344 " fill-opacity="1" fill-rule="nonzero"/><path fill="#cecdcb" d="M 183.746094 173.972656 L 183.761719 173.972656 C 174.164062 179.523438 164.578125 185.089844 154.996094 190.65625 C 154.996094 190.65625 154.996094 190.65625 154.980469 190.65625 C 164.578125 185.089844 174.164062 179.523438 183.746094 173.972656 " fill-opacity="1" fill-rule="nonzero"/><path fill="#cecdcb" d="M 116.078125 122.53125 L 144.847656 105.847656 L 144.765625 133.730469 L 115.996094 150.414062 L 116.078125 122.53125 " fill-opacity="1" fill-rule="nonzero"/><path fill="#cecdcb" d="M 183.761719 173.972656 C 184.425781 174.355469 185.109375 174.570312 185.753906 174.570312 C 176.15625 180.136719 166.570312 185.6875 156.972656 191.253906 C 156.339844 191.253906 155.660156 191.039062 154.996094 190.65625 C 164.578125 185.089844 174.164062 179.523438 183.761719 173.972656 " fill-opacity="1" fill-rule="nonzero"/><path fill="#cecdcb" d="M 185.753906 174.570312 C 176.15625 180.136719 166.570312 185.6875 156.972656 191.253906 C 166.570312 185.6875 176.15625 180.136719 185.753906 174.570312 " fill-opacity="1" fill-rule="nonzero"/><path fill="#cecdcb" d="M 197.382812 190.257812 C 196.550781 192.414062 197.730469 196.007812 200.023438 198.277344 C 190.4375 203.828125 180.839844 209.394531 171.253906 214.960938 C 168.964844 212.691406 167.769531 209.078125 168.613281 206.941406 C 177.25 201.9375 188.761719 195.261719 197.382812 190.257812 " fill-opacity="1" fill-rule="nonzero"/><path fill="#cecdcb" d="M 185.753906 174.570312 C 186.1875 174.570312 186.570312 174.46875 186.902344 174.273438 L 158.132812 190.953125 C 157.800781 191.136719 157.421875 191.253906 156.972656 191.253906 C 161.773438 188.46875 166.570312 185.6875 171.371094 182.902344 C 171.9375 182.589844 172.683594 182.140625 173.25 181.808594 C 173.8125 181.496094 174.5625 181.046875 175.125 180.734375 C 176.238281 180.085938 177.714844 179.226562 178.828125 178.578125 C 179.359375 178.265625 180.09375 177.851562 180.625 177.535156 C 181.667969 176.9375 183.066406 176.128906 184.09375 175.53125 C 184.59375 175.25 185.191406 174.71875 185.753906 174.570312 " fill-opacity="1" fill-rule="nonzero"/><path fill="#3c81cb" d="M 186.902344 174.273438 L 158.132812 190.953125 C 159.445312 190.191406 159.828125 188.074219 158.949219 185.554688 L 187.714844 168.886719 C 188.597656 171.390625 188.214844 173.527344 186.902344 174.273438 " fill-opacity="1" fill-rule="nonzero"/><path fill="#3c81cb" d="M 146.109375 171.4375 L 174.875 154.753906 L 169.894531 163.1875 L 141.125 179.871094 L 146.109375 171.4375 " fill-opacity="1" fill-rule="nonzero"/><path fill="#cecdcb" d="M 146.109375 171.4375 L 174.875 154.753906 L 179.808594 168.902344 L 151.042969 185.585938 L 146.109375 171.4375 " fill-opacity="1" fill-rule="nonzero"/><path fill="#3c81cb" d="M 151.109375 163.023438 L 179.875 146.339844 L 187.714844 168.886719 L 158.949219 185.554688 L 151.109375 163.023438 " fill-opacity="1" fill-rule="nonzero"/><path fill="#cecdcb" d="M 191.085938 148.773438 L 219.855469 132.109375 L 197.382812 190.257812 L 168.613281 206.941406 L 191.085938 148.773438 " fill-opacity="1" fill-rule="nonzero"/><path fill="#cd1c2e" d="M 199.390625 156.992188 L 228.160156 140.308594 L 205.703125 198.476562 L 176.9375 215.160156 L 199.390625 156.992188 " fill-opacity="1" fill-rule="nonzero"/><path fill="#cecdcb" d="M 200.023438 198.277344 C 190.4375 203.828125 180.839844 209.394531 171.253906 214.960938 C 180.839844 209.394531 190.4375 203.828125 200.023438 198.277344 " fill-opacity="1" fill-rule="nonzero"/><path fill="#cecdcb" d="M 201.519531 199.4375 C 191.933594 205.003906 182.351562 210.554688 172.75 216.121094 C 182.335938 210.554688 191.902344 205.019531 201.484375 199.453125 C 191.902344 205.019531 182.335938 210.554688 172.75 216.121094 C 172.253906 215.824219 171.753906 215.441406 171.253906 214.960938 C 180.839844 209.394531 190.4375 203.828125 200.023438 198.277344 C 200.519531 198.773438 201.035156 199.15625 201.519531 199.4375 " fill-opacity="1" fill-rule="nonzero"/><path fill="#cecdcb" d="M 117.375 119.683594 L 146.144531 103.015625 C 145.34375 103.480469 144.847656 104.457031 144.847656 105.847656 L 116.078125 122.53125 C 116.078125 121.125 116.578125 120.144531 117.375 119.683594 " fill-opacity="1" fill-rule="nonzero"/><path fill="#582690" d="M 78.808594 53.28125 L 107.574219 36.613281 C 105.980469 37.523438 105 39.480469 105 42.261719 L 76.21875 58.945312 C 76.234375 56.164062 77.214844 54.207031 78.808594 53.28125 " fill-opacity="1" fill-rule="nonzero"/><path fill="#cecdcb" d="M 141.191406 157.308594 L 169.960938 140.625 L 162.019531 154.074219 L 133.238281 170.757812 L 141.191406 157.308594 " fill-opacity="1" fill-rule="nonzero"/><path fill="#cecdcb" d="M 201.519531 199.4375 C 202.714844 200.117188 203.84375 200.234375 204.671875 199.753906 L 175.90625 216.417969 C 175.074219 216.898438 173.929688 216.800781 172.75 216.121094 C 182.351562 210.554688 191.933594 205.003906 201.519531 199.4375 " fill-opacity="1" fill-rule="nonzero"/><path fill="#3c81cb" d="M 124.933594 127.617188 L 153.683594 110.953125 L 153.617188 138.835938 L 124.851562 155.5 L 124.933594 127.617188 " fill-opacity="1" fill-rule="nonzero"/><path fill="#3c81cb" d="M 117.375 119.683594 L 146.144531 103.015625 C 146.941406 102.550781 148.050781 102.617188 149.28125 103.3125 L 120.496094 119.996094 C 119.285156 119.285156 118.171875 119.21875 117.375 119.683594 " fill-opacity="1" fill-rule="nonzero"/><path fill="#cecdcb" d="M 133.355469 134.757812 L 162.121094 118.089844 L 169.960938 140.625 L 141.191406 157.308594 L 133.355469 134.757812 " fill-opacity="1" fill-rule="nonzero"/><path fill="#3c81cb" d="M 142.207031 155.601562 L 170.972656 138.917969 L 169.960938 140.625 L 141.191406 157.308594 L 142.207031 155.601562 " fill-opacity="1" fill-rule="nonzero"/><path fill="#cd1c2e" d="M 204.671875 199.753906 L 175.90625 216.417969 C 176.355469 216.171875 176.703125 215.738281 176.9375 215.160156 L 205.703125 198.476562 C 205.472656 199.074219 205.121094 199.488281 204.671875 199.753906 " fill-opacity="1" fill-rule="nonzero"/><path fill="#3c81cb" d="M 120.496094 119.996094 C 122.957031 121.40625 124.933594 124.816406 124.933594 127.617188 L 124.851562 155.5 C 124.816406 165.292969 117.808594 169.234375 109.238281 164.296875 C 100.648438 159.359375 93.707031 147.367188 93.722656 137.589844 L 93.808594 109.691406 C 93.808594 106.890625 95.800781 105.765625 98.242188 107.175781 C 100.683594 108.582031 102.660156 111.996094 102.660156 114.792969 L 102.578125 142.675781 C 102.558594 146.886719 105.566406 152.039062 109.269531 154.160156 C 112.957031 156.296875 115.980469 154.605469 115.996094 150.414062 L 116.078125 122.53125 C 116.078125 119.714844 118.074219 118.589844 120.496094 119.996094 " fill-opacity="1" fill-rule="nonzero"/><path fill="#3c81cb" d="M 120.496094 119.996094 L 149.28125 103.3125 C 151.722656 104.722656 153.699219 108.132812 153.683594 110.953125 L 124.933594 127.617188 C 124.933594 124.816406 122.957031 121.40625 120.496094 119.996094 " fill-opacity="1" fill-rule="nonzero"/><path fill="#3c81cb" d="M 171.671875 138.222656 C 171.386719 138.371094 171.15625 138.601562 170.972656 138.917969 L 142.207031 155.601562 C 142.390625 155.285156 142.621094 155.054688 142.902344 154.886719 C 151.523438 149.882812 163.035156 143.222656 171.671875 138.222656 " fill-opacity="1" fill-rule="nonzero"/><path fill="#cecdcb" d="M 122.675781 57.519531 C 122.65625 60.320312 124.648438 63.75 127.074219 65.140625 L 98.308594 81.824219 C 95.867188 80.417969 93.890625 77.003906 93.90625 74.203125 C 103.488281 68.636719 113.089844 63.089844 122.675781 57.519531 C 113.089844 63.089844 103.488281 68.636719 93.90625 74.203125 C 93.90625 72.8125 94.40625 71.835938 95.203125 71.371094 L 123.96875 54.703125 C 123.171875 55.152344 122.675781 56.128906 122.675781 57.519531 " fill-opacity="1" fill-rule="nonzero"/><path fill="#3c81cb" d="M 142.902344 154.886719 L 171.671875 138.222656 C 172.519531 137.722656 173.714844 137.9375 174.925781 138.636719 L 146.160156 155.300781 C 144.945312 154.605469 143.75 154.40625 142.902344 154.886719 " fill-opacity="1" fill-rule="nonzero"/><path fill="#cd1c2e" d="M 95.203125 71.371094 L 123.96875 54.703125 C 124.765625 54.222656 125.878906 54.289062 127.109375 55.003906 L 98.339844 71.6875 C 97.113281 70.972656 96 70.90625 95.203125 71.371094 " fill-opacity="1" fill-rule="nonzero"/><path fill="#3c81cb" d="M 150.113281 160.15625 L 178.878906 143.472656 L 179.875 146.339844 L 151.109375 163.023438 L 150.113281 160.15625 " fill-opacity="1" fill-rule="nonzero"/><path fill="#3c81cb" d="M 146.160156 155.300781 L 174.925781 138.636719 C 176.539062 139.5625 178.132812 141.335938 178.878906 143.472656 L 150.113281 160.15625 C 149.363281 158.003906 147.769531 156.230469 146.160156 155.300781 " fill-opacity="1" fill-rule="nonzero"/><path fill="#3c81cb" d="M 146.160156 155.300781 C 147.769531 156.230469 149.363281 158.003906 150.113281 160.15625 L 151.109375 163.023438 L 158.949219 185.554688 C 160.0625 188.703125 159.164062 191.253906 156.972656 191.253906 C 156.339844 191.253906 155.660156 191.039062 154.980469 190.65625 C 153.367188 189.710938 151.804688 187.789062 151.042969 185.585938 L 146.109375 171.4375 L 141.125 179.871094 C 140.363281 181.195312 138.785156 181.328125 137.171875 180.402344 C 136.492188 180.003906 135.8125 179.441406 135.179688 178.695312 C 133.003906 176.175781 132.125 172.632812 133.238281 170.757812 L 141.191406 157.308594 L 142.207031 155.601562 C 142.953125 154.324219 144.566406 154.390625 146.160156 155.300781 " fill-opacity="1" fill-rule="nonzero"/><path fill="#cecdcb" d="M 134.167969 129.375 L 162.933594 112.691406 C 161.640625 113.453125 161.242188 115.574219 162.121094 118.089844 L 133.355469 134.757812 C 132.472656 132.242188 132.855469 130.121094 134.167969 129.375 " fill-opacity="1" fill-rule="nonzero"/><path fill="#3c81cb" d="M 141.257812 134.742188 L 170.027344 118.058594 L 174.941406 132.207031 L 146.175781 148.875 L 141.257812 134.742188 " fill-opacity="1" fill-rule="nonzero"/><path fill="#3c81cb" d="M 134.167969 129.375 L 162.933594 112.691406 C 163.265625 112.507812 163.648438 112.390625 164.082031 112.390625 C 164.746094 112.390625 165.425781 112.625 166.089844 113.003906 C 167.71875 113.933594 169.261719 115.855469 170.027344 118.058594 L 141.257812 134.742188 C 140.480469 132.523438 138.933594 130.617188 137.324219 129.671875 C 136.660156 129.292969 135.960938 129.074219 135.3125 129.074219 C 134.882812 129.074219 134.5 129.175781 134.167969 129.375 " fill-opacity="1" fill-rule="nonzero"/><path fill="#cecdcb" d="M 151.175781 140.441406 L 179.941406 123.773438 L 174.941406 132.207031 L 146.175781 148.875 L 151.175781 140.441406 " fill-opacity="1" fill-rule="nonzero"/><path fill="#cecdcb" d="M 180.757812 122.945312 C 180.441406 123.128906 180.160156 123.410156 179.941406 123.773438 L 151.175781 140.441406 C 151.390625 140.09375 151.671875 139.8125 151.988281 139.628906 C 160.609375 134.625 172.121094 127.949219 180.757812 122.945312 " fill-opacity="1" fill-rule="nonzero"/><path fill="#3c81cb" d="M 159.046875 149.570312 L 187.832031 132.886719 L 179.875 146.339844 L 151.109375 163.023438 L 159.046875 149.570312 " fill-opacity="1" fill-rule="nonzero"/><path fill="#3c81cb" d="M 151.988281 139.628906 L 180.757812 122.945312 C 181.585938 122.464844 182.714844 122.582031 183.894531 123.261719 L 155.128906 139.925781 C 153.949219 139.265625 152.820312 139.132812 151.988281 139.628906 " fill-opacity="1" fill-rule="nonzero"/><path fill="#3c81cb" d="M 155.128906 139.925781 L 183.894531 123.261719 C 184.558594 123.640625 185.242188 124.207031 185.886719 124.949219 C 188.0625 127.46875 188.945312 131.015625 187.832031 132.886719 L 159.046875 149.570312 C 160.175781 147.699219 159.296875 144.136719 157.121094 141.632812 C 156.472656 140.886719 155.792969 140.324219 155.128906 139.925781 " fill-opacity="1" fill-rule="nonzero"/><path fill="#3c81cb" d="M 155.128906 139.925781 C 155.792969 140.324219 156.472656 140.886719 157.121094 141.632812 C 159.296875 144.136719 160.175781 147.699219 159.046875 149.570312 L 151.109375 163.023438 L 150.113281 160.15625 C 149.363281 158.003906 147.769531 156.230469 146.160156 155.300781 C 144.566406 154.390625 142.953125 154.324219 142.207031 155.601562 L 141.191406 157.308594 L 133.355469 134.757812 C 132.242188 131.609375 133.136719 129.074219 135.3125 129.074219 C 135.960938 129.074219 136.660156 129.292969 137.324219 129.671875 C 138.933594 130.617188 140.480469 132.523438 141.257812 134.742188 L 146.175781 148.875 L 151.175781 140.441406 C 151.957031 139.132812 153.5 139 155.128906 139.925781 " fill-opacity="1" fill-rule="nonzero"/><path fill="#cecdcb" d="M 233.824219 185.023438 C 233.824219 189.910156 235.550781 195.363281 238.355469 200.199219 C 228.773438 205.765625 219.171875 211.316406 209.589844 216.882812 C 206.78125 212.046875 205.039062 206.59375 205.054688 201.707031 C 213.691406 196.703125 225.203125 190.027344 233.824219 185.023438 " fill-opacity="1" fill-rule="nonzero"/><path fill="#cecdcb" d="M 249.335938 211.746094 C 253.671875 214.230469 257.589844 214.464844 260.429688 212.824219 L 231.664062 229.507812 C 228.824219 231.148438 224.902344 230.914062 220.570312 228.414062 C 216.285156 225.945312 212.398438 221.71875 209.589844 216.882812 C 219.171875 211.316406 228.773438 205.765625 238.355469 200.199219 C 241.164062 205.039062 245.050781 209.277344 249.335938 211.746094 " fill-opacity="1" fill-rule="nonzero"/><path fill="#c8761b" d="M 254.167969 202.070312 L 225.386719 218.753906 C 224.171875 219.449219 222.480469 219.351562 220.601562 218.273438 C 216.898438 216.152344 213.890625 211 213.90625 206.792969 L 242.675781 190.125 C 242.660156 194.316406 245.664062 199.46875 249.367188 201.609375 C 251.246094 202.683594 252.941406 202.785156 254.167969 202.070312 " fill-opacity="1" fill-rule="nonzero"/><path fill="#582690" d="M 283.300781 326.292969 L 254.535156 342.976562 C 255.332031 342.511719 255.8125 341.519531 255.8125 340.144531 C 255.828125 337.34375 253.886719 333.949219 251.394531 332.507812 L 280.179688 315.839844 C 282.652344 317.265625 284.597656 320.675781 284.582031 323.460938 C 284.582031 324.851562 284.097656 325.828125 283.300781 326.292969 " fill-opacity="1" fill-rule="nonzero"/><path fill="#a07ac3" d="M 264.367188 341.550781 L 293.132812 324.867188 C 292.953125 325.828125 293.050781 326.957031 293.417969 328.132812 L 264.648438 344.800781 C 264.285156 343.640625 264.183594 342.496094 264.367188 341.550781 " fill-opacity="1" fill-rule="nonzero"/><path fill="#a07ac3" d="M 265.578125 339.746094 L 294.347656 323.0625 C 293.75 323.410156 293.332031 324.058594 293.132812 324.867188 L 264.367188 341.550781 C 264.566406 340.742188 264.980469 340.09375 265.578125 339.746094 " fill-opacity="1" fill-rule="nonzero"/><path fill="#582690" d="M 265.5625 339.746094 L 294.328125 323.078125 C 294.546875 322.945312 294.777344 322.863281 295.042969 322.832031 L 266.277344 339.496094 C 266.011719 339.546875 265.777344 339.628906 265.5625 339.746094 " fill-opacity="1" fill-rule="nonzero"/><path fill="#582690" d="M 266.277344 339.496094 L 295.042969 322.832031 L 295.09375 322.796875 L 266.328125 339.480469 L 266.277344 339.496094 " fill-opacity="1" fill-rule="nonzero"/><path fill="#582690" d="M 266.328125 339.480469 L 295.09375 322.796875 C 295.792969 322.683594 296.605469 322.898438 297.417969 323.378906 C 298.664062 324.089844 299.910156 325.398438 300.757812 326.941406 L 271.992188 343.625 C 271.144531 342.066406 269.898438 340.773438 268.652344 340.042969 C 267.839844 339.582031 267.023438 339.367188 266.328125 339.480469 " fill-opacity="1" fill-rule="nonzero"/><path fill="#a07ac3" d="M 303.613281 319.1875 C 303.117188 319.46875 302.46875 319.847656 301.96875 320.128906 C 300.921875 320.742188 299.527344 321.539062 298.5 322.152344 C 297.402344 322.78125 295.941406 323.625 294.863281 324.257812 C 288.183594 328.117188 281.523438 331.992188 274.847656 335.851562 C 272.40625 334.445312 270.429688 331.015625 270.429688 328.25 L 299.195312 311.566406 C 299.195312 314.347656 301.171875 317.777344 303.613281 319.1875 " fill-opacity="1" fill-rule="nonzero"/><path fill="#a07ac3" d="M 270.480469 313.023438 L 299.246094 296.339844 L 299.195312 311.566406 L 270.429688 328.25 L 270.480469 313.023438 " fill-opacity="1" fill-rule="nonzero"/><g clip-path="url(#62cd16ca98)"><path fill="#582690" d="M 279.332031 313.054688 L 308.097656 296.375 L 308.050781 316.652344 L 279.28125 333.335938 L 279.332031 313.054688 " fill-opacity="1" fill-rule="nonzero"/></g><path fill="#a07ac3" d="M 274.847656 335.851562 L 303.613281 319.1875 C 303.597656 322.730469 302.535156 325.382812 300.757812 326.941406 L 271.992188 343.625 C 273.769531 342.050781 274.832031 339.398438 274.847656 335.851562 " fill-opacity="1" fill-rule="nonzero"/><path fill="#cecdcb" d="M 277.273438 227.832031 C 267.6875 233.402344 258.105469 238.949219 248.503906 244.515625 C 246.0625 243.109375 244.105469 239.695312 244.105469 236.894531 L 272.871094 220.214844 C 272.871094 223.011719 274.832031 226.425781 277.273438 227.832031 " fill-opacity="1" fill-rule="nonzero"/><g clip-path="url(#a3207ae6db)"><path fill="#582690" d="M 300.589844 333.847656 L 271.824219 350.53125 C 273.285156 349.6875 273.570312 347.21875 272.421875 344.519531 C 272.289062 344.203125 272.15625 343.90625 271.992188 343.625 L 300.757812 326.941406 C 300.921875 327.238281 301.058594 327.535156 301.191406 327.835938 C 302.335938 330.535156 302.054688 333.003906 300.589844 333.847656 " fill-opacity="1" fill-rule="nonzero"/></g><g clip-path="url(#8b10d0ea33)"><path fill="#582690" d="M 271.992188 343.625 C 272.15625 343.90625 272.289062 344.203125 272.421875 344.519531 C 273.75 347.617188 273.152344 350.433594 271.078125 350.796875 C 270.363281 350.894531 269.53125 350.664062 268.683594 350.183594 C 267.175781 349.304688 265.761719 347.632812 264.980469 345.710938 C 264.847656 345.414062 264.730469 345.097656 264.648438 344.800781 C 264.285156 343.640625 264.183594 342.496094 264.367188 341.550781 C 264.632812 340.441406 265.296875 339.648438 266.277344 339.496094 L 266.328125 339.480469 C 267.023438 339.367188 267.839844 339.582031 268.652344 340.042969 C 269.898438 340.773438 271.144531 342.066406 271.992188 343.625 " fill-opacity="1" fill-rule="nonzero"/></g><path fill="#a07ac3" d="M 177.515625 279.804688 C 179.957031 281.214844 181.953125 280.085938 181.953125 277.289062 C 181.953125 274.488281 179.992188 271.074219 177.535156 269.648438 L 168.679688 264.5625 C 166.257812 263.15625 164.261719 264.28125 164.261719 267.097656 C 164.246094 269.882812 166.222656 273.292969 168.664062 274.703125 Z M 270.429688 328.25 C 270.429688 331.015625 272.40625 334.445312 274.847656 335.851562 C 274.832031 339.398438 273.769531 342.050781 271.992188 343.625 C 271.144531 342.066406 269.898438 340.773438 268.652344 340.042969 C 267.839844 339.582031 267.023438 339.367188 266.328125 339.480469 C 265.296875 339.648438 264.632812 340.441406 264.367188 341.550781 C 264.183594 342.496094 264.285156 343.640625 264.648438 344.800781 C 263.636719 344.5 262.605469 344.054688 261.527344 343.425781 L 255.8125 340.144531 C 255.828125 337.34375 253.886719 333.949219 251.394531 332.507812 L 84.589844 236.449219 C 79.707031 233.632812 75.753906 226.773438 75.769531 221.207031 L 75.820312 200.929688 L 270.480469 313.023438 L 270.429688 328.25 " fill-opacity="1" fill-rule="nonzero"/><path fill="#cecdcb" d="M 256.09375 197.847656 C 256.09375 199.917969 255.347656 201.375 254.167969 202.070312 L 225.386719 218.753906 C 226.582031 218.058594 227.328125 216.601562 227.328125 214.53125 C 235.964844 209.527344 247.476562 202.851562 256.09375 197.847656 " fill-opacity="1" fill-rule="nonzero"/><path fill="#c8761b" d="M 260.429688 212.824219 L 231.664062 229.507812 C 234.4375 227.882812 236.164062 224.472656 236.179688 219.617188 L 264.949219 202.949219 C 264.933594 207.789062 263.203125 211.21875 260.429688 212.824219 " fill-opacity="1" fill-rule="nonzero"/><path fill="#cecdcb" d="M 205.136719 173.824219 L 233.90625 157.140625 L 233.824219 185.023438 L 205.054688 201.707031 L 205.136719 173.824219 " fill-opacity="1" fill-rule="nonzero"/><path fill="#c8761b" d="M 213.992188 178.910156 L 242.757812 162.226562 L 242.675781 190.125 L 213.90625 206.792969 L 213.992188 178.910156 " fill-opacity="1" fill-rule="nonzero"/><path fill="#cecdcb" d="M 227.410156 186.648438 L 256.179688 169.964844 L 256.09375 197.847656 L 227.328125 214.53125 L 227.410156 186.648438 " fill-opacity="1" fill-rule="nonzero"/><path fill="#c8761b" d="M 236.265625 191.734375 L 265.03125 175.066406 L 264.949219 202.949219 L 236.179688 219.617188 L 236.265625 191.734375 " fill-opacity="1" fill-rule="nonzero"/><path fill="#cecdcb" d="M 244.21875 196.324219 L 272.988281 179.640625 L 272.871094 220.214844 L 244.105469 236.894531 L 244.21875 196.324219 " fill-opacity="1" fill-rule="nonzero"/><path fill="#c8761b" d="M 253.074219 201.425781 L 281.839844 184.742188 L 281.722656 225.300781 L 252.957031 241.984375 L 253.074219 201.425781 " fill-opacity="1" fill-rule="nonzero"/><path fill="#cecdcb" d="M 277.273438 227.832031 C 278.5 228.546875 279.628906 228.613281 280.429688 228.148438 L 251.660156 244.816406 C 250.863281 245.28125 249.734375 245.214844 248.503906 244.515625 C 251.429688 242.8125 254.351562 241.121094 257.257812 239.429688 C 260.398438 237.625 263.519531 235.804688 266.660156 233.996094 C 270.195312 231.941406 273.734375 229.886719 277.273438 227.832031 " fill-opacity="1" fill-rule="nonzero"/><path fill="#c8761b" d="M 280.429688 228.148438 L 251.660156 244.816406 C 252.457031 244.367188 252.941406 243.375 252.957031 241.984375 L 281.722656 225.300781 C 281.722656 226.707031 281.226562 227.683594 280.429688 228.148438 " fill-opacity="1" fill-rule="nonzero"/><path fill="#cecdcb" d="M 245.515625 193.488281 L 274.28125 176.804688 C 273.484375 177.269531 272.988281 178.246094 272.988281 179.640625 L 244.21875 196.324219 C 244.21875 194.929688 244.71875 193.953125 245.515625 193.488281 " fill-opacity="1" fill-rule="nonzero"/><path fill="#c8761b" d="M 245.515625 193.488281 L 274.28125 176.804688 C 275.078125 176.34375 276.191406 176.410156 277.421875 177.105469 L 248.65625 193.789062 C 247.425781 193.09375 246.3125 193.027344 245.515625 193.488281 " fill-opacity="1" fill-rule="nonzero"/><path fill="#c8761b" d="M 248.65625 193.789062 L 277.421875 177.105469 C 279.863281 178.53125 281.839844 181.941406 281.839844 184.742188 L 253.074219 201.425781 C 253.074219 198.609375 251.097656 195.195312 248.65625 193.789062 " fill-opacity="1" fill-rule="nonzero"/><path fill="#cecdcb" d="M 270.878906 171.042969 L 299.644531 154.375 L 299.261719 286.199219 L 270.496094 302.882812 L 270.878906 171.042969 " fill-opacity="1" fill-rule="nonzero"/><path fill="#cecdcb" d="M 78.808594 53.28125 L 107.574219 36.613281 C 109.1875 35.667969 111.414062 35.800781 113.871094 37.226562 L 85.105469 53.894531 C 82.644531 52.484375 80.421875 52.351562 78.808594 53.28125 " fill-opacity="1" fill-rule="nonzero"/><path fill="#582690" d="M 270.496094 302.882812 L 299.261719 286.199219 L 303.699219 288.753906 L 274.929688 305.433594 L 270.496094 302.882812 " fill-opacity="1" fill-rule="nonzero"/><g clip-path="url(#fe5edbee9c)"><path fill="#582690" d="M 279.730469 176.144531 L 308.496094 159.460938 L 308.097656 296.375 L 279.332031 313.054688 L 279.730469 176.144531 " fill-opacity="1" fill-rule="nonzero"/></g><g clip-path="url(#11031fc43b)"><path fill="#582690" d="M 278.070312 308.714844 L 306.835938 292.050781 C 307.632812 293.457031 308.117188 295.046875 308.097656 296.375 L 279.332031 313.054688 C 279.347656 311.730469 278.867188 310.140625 278.070312 308.714844 " fill-opacity="1" fill-rule="nonzero"/></g><g clip-path="url(#622df2f791)"><path fill="#582690" d="M 274.929688 305.433594 L 303.699219 288.753906 C 304.84375 289.414062 305.988281 290.625 306.835938 292.050781 L 278.070312 308.714844 C 277.222656 307.308594 276.078125 306.097656 274.929688 305.433594 " fill-opacity="1" fill-rule="nonzero"/></g><path fill="#cecdcb" d="M 220.882812 130.832031 C 220.4375 131.082031 220.085938 131.511719 219.855469 132.109375 L 191.085938 148.773438 C 191.320312 148.179688 191.667969 147.765625 192.117188 147.5 C 200.738281 142.496094 212.246094 135.835938 220.882812 130.832031 " fill-opacity="1" fill-rule="nonzero"/><path fill="#cd1c2e" d="M 192.117188 147.5 L 220.882812 130.832031 C 221.714844 130.335938 222.84375 130.449219 224.023438 131.128906 L 195.257812 147.796875 C 194.078125 147.117188 192.949219 147.019531 192.117188 147.5 " fill-opacity="1" fill-rule="nonzero"/><path fill="#cd1c2e" d="M 195.257812 147.796875 L 224.023438 131.128906 C 224.519531 131.410156 225.019531 131.808594 225.519531 132.289062 C 227.808594 134.558594 229.007812 138.15625 228.160156 140.308594 L 199.390625 156.992188 C 200.238281 154.839844 199.042969 151.226562 196.75 148.972656 C 196.253906 148.476562 195.753906 148.09375 195.257812 147.796875 " fill-opacity="1" fill-rule="nonzero"/><path fill="#cecdcb" d="M 206.433594 170.976562 L 235.203125 154.308594 C 234.402344 154.773438 233.90625 155.75 233.90625 157.140625 L 205.136719 173.824219 C 205.136719 172.417969 205.636719 171.4375 206.433594 170.976562 " fill-opacity="1" fill-rule="nonzero"/><path fill="#c8761b" d="M 206.433594 170.976562 L 235.203125 154.308594 C 236 153.84375 237.128906 153.910156 238.355469 154.621094 C 240.78125 156.015625 242.757812 159.425781 242.757812 162.226562 L 213.992188 178.910156 C 213.992188 176.109375 212.015625 172.699219 209.589844 171.289062 C 208.34375 170.578125 207.230469 170.511719 206.433594 170.976562 " fill-opacity="1" fill-rule="nonzero"/><path fill="#cecdcb" d="M 257.472656 167.132812 C 256.675781 167.59375 256.179688 168.574219 256.179688 169.964844 L 227.410156 186.648438 C 227.410156 185.253906 227.910156 184.261719 228.707031 183.816406 C 237.328125 178.8125 248.835938 172.132812 257.472656 167.132812 " fill-opacity="1" fill-rule="nonzero"/><path fill="#c8761b" d="M 228.707031 183.816406 L 257.472656 167.132812 C 258.269531 166.667969 259.382812 166.734375 260.628906 167.445312 L 231.863281 184.113281 C 230.617188 183.398438 229.503906 183.335938 228.707031 183.816406 " fill-opacity="1" fill-rule="nonzero"/><path fill="#c8761b" d="M 231.863281 184.113281 L 260.628906 167.445312 C 263.054688 168.835938 265.03125 172.25 265.03125 175.066406 L 236.265625 191.734375 C 236.265625 188.933594 234.289062 185.519531 231.863281 184.113281 " fill-opacity="1" fill-rule="nonzero"/><path fill="#cecdcb" d="M 277.488281 151.773438 C 278.71875 152.484375 279.847656 152.550781 280.644531 152.070312 L 251.875 168.753906 C 251.078125 169.21875 249.949219 169.152344 248.722656 168.441406 C 257.359375 163.4375 268.867188 156.777344 277.488281 151.773438 " fill-opacity="1" fill-rule="nonzero"/><path fill="#cd1c2e" d="M 280.644531 152.070312 L 251.875 168.753906 C 252.675781 168.289062 253.15625 167.3125 253.171875 165.921875 C 253.171875 163.121094 251.195312 159.707031 248.753906 158.300781 L 277.519531 141.632812 C 279.964844 143.042969 281.941406 146.453125 281.941406 149.238281 C 281.941406 150.628906 281.441406 151.609375 280.644531 152.070312 " fill-opacity="1" fill-rule="nonzero"/><path fill="#cd1c2e" d="M 248.753906 158.300781 C 251.195312 159.707031 253.171875 163.121094 253.171875 165.921875 C 253.15625 168.722656 251.179688 169.847656 248.722656 168.441406 L 98.308594 81.824219 C 95.867188 80.417969 93.890625 77.003906 93.90625 74.203125 C 93.90625 71.40625 95.898438 70.277344 98.339844 71.6875 L 248.753906 158.300781 " fill-opacity="1" fill-rule="nonzero"/><path fill="#cecdcb" d="M 248.753906 158.300781 L 268.734375 146.71875 L 127.074219 65.140625 L 98.308594 81.824219 L 248.722656 168.441406 L 253.171875 165.871094 C 253.15625 163.089844 251.179688 159.707031 248.753906 158.300781 " fill-opacity="1" fill-rule="nonzero"/><path fill="#cd1c2e" d="M 98.339844 71.6875 L 127.109375 55.003906 L 277.519531 141.632812 L 248.753906 158.300781 L 98.339844 71.6875 " fill-opacity="1" fill-rule="nonzero"/><path fill="#cecdcb" d="M 85.105469 53.894531 L 113.871094 37.226562 L 290.824219 139.132812 L 262.058594 155.800781 L 85.105469 53.894531 " fill-opacity="1" fill-rule="nonzero"/><path fill="#cecdcb" d="M 262.058594 155.800781 L 290.824219 139.132812 C 295.707031 141.933594 299.660156 148.773438 299.644531 154.375 L 270.878906 171.042969 C 270.894531 165.441406 266.925781 158.617188 262.058594 155.800781 " fill-opacity="1" fill-rule="nonzero"/><g clip-path="url(#786ffe7372)"><path fill="#582690" d="M 262.089844 145.660156 C 271.839844 151.292969 279.765625 164.960938 279.730469 176.144531 L 279.332031 313.054688 C 279.347656 311.730469 278.867188 310.140625 278.070312 308.714844 C 277.222656 307.308594 276.078125 306.097656 274.929688 305.433594 L 270.496094 302.882812 L 270.878906 171.042969 C 270.894531 165.441406 266.925781 158.617188 262.058594 155.800781 L 85.105469 53.894531 C 80.222656 51.078125 76.234375 53.347656 76.21875 58.945312 L 75.851562 190.789062 L 71.417969 188.238281 C 70.273438 187.574219 69.125 187.460938 68.277344 187.90625 C 67.480469 188.402344 66.984375 189.429688 66.984375 190.757812 L 67.382812 53.84375 C 67.414062 42.660156 75.371094 38.136719 85.136719 43.753906 L 262.089844 145.660156 " fill-opacity="1" fill-rule="nonzero"/></g><g clip-path="url(#d603e0e710)"><path fill="#582690" d="M 274.929688 305.433594 L 270.496094 302.882812 L 75.851562 190.789062 L 71.417969 188.238281 C 70.273438 187.574219 69.125 187.460938 68.277344 187.90625 C 67.480469 188.402344 66.984375 189.429688 66.984375 190.757812 L 66.917969 216.105469 C 66.882812 227.304688 74.824219 240.972656 84.554688 246.589844 L 150.910156 284.792969 L 195.140625 310.273438 L 251.378906 342.644531 C 253.871094 344.085938 255.8125 342.910156 255.8125 340.144531 C 255.828125 337.34375 253.886719 333.949219 251.394531 332.507812 L 84.589844 236.449219 C 79.707031 233.632812 75.753906 226.773438 75.769531 221.207031 L 75.820312 200.929688 L 270.480469 313.023438 L 270.429688 328.25 C 270.429688 331.015625 272.40625 334.445312 274.847656 335.851562 C 277.273438 337.246094 279.265625 336.117188 279.28125 333.335938 L 279.332031 313.054688 C 279.347656 311.730469 278.867188 310.140625 278.070312 308.714844 C 277.222656 307.308594 276.078125 306.097656 274.929688 305.433594 " fill-opacity="1" fill-rule="nonzero"/></g><path fill="#cd1c2e" d="M 195.257812 147.796875 C 195.753906 148.09375 196.253906 148.476562 196.75 148.972656 C 199.042969 151.226562 200.238281 154.839844 199.390625 156.992188 L 176.9375 215.160156 C 176.273438 216.851562 174.5625 217.164062 172.75 216.121094 C 172.253906 215.824219 171.753906 215.441406 171.253906 214.960938 C 168.964844 212.691406 167.769531 209.078125 168.613281 206.941406 L 191.085938 148.773438 C 191.734375 147.066406 193.445312 146.753906 195.257812 147.796875 " fill-opacity="1" fill-rule="nonzero"/><path fill="#c8761b" d="M 231.863281 184.113281 C 234.289062 185.519531 236.265625 188.933594 236.265625 191.734375 L 236.179688 219.617188 C 236.148438 229.40625 229.15625 233.367188 220.570312 228.414062 C 212 223.476562 205.039062 211.480469 205.054688 201.707031 L 205.136719 173.824219 C 205.15625 171.007812 207.132812 169.882812 209.589844 171.289062 C 212.015625 172.699219 213.992188 176.109375 213.992188 178.910156 L 213.90625 206.792969 C 213.890625 211 216.898438 216.152344 220.601562 218.273438 C 224.304688 220.410156 227.3125 218.722656 227.328125 214.53125 L 227.410156 186.648438 C 227.410156 183.832031 229.40625 182.703125 231.863281 184.113281 " fill-opacity="1" fill-rule="nonzero"/><path fill="#c8761b" d="M 248.65625 193.789062 C 251.097656 195.195312 253.074219 198.609375 253.074219 201.425781 L 252.957031 241.984375 C 252.941406 244.800781 250.964844 245.925781 248.503906 244.515625 C 246.0625 243.109375 244.105469 239.695312 244.105469 236.894531 L 244.21875 196.324219 C 244.21875 193.523438 246.214844 192.378906 248.65625 193.789062 " fill-opacity="1" fill-rule="nonzero"/><path fill="#cd1c2e" d="M 248.4375 269.847656 L 98.027344 183.234375 C 95.585938 181.828125 93.589844 182.96875 93.589844 185.769531 C 93.574219 188.570312 95.550781 191.964844 97.992188 193.375 L 248.40625 280.003906 C 250.863281 281.414062 252.839844 280.269531 252.855469 277.488281 C 252.855469 274.667969 250.878906 271.273438 248.4375 269.847656 " fill-opacity="1" fill-rule="nonzero"/><path fill="#cecdcb" d="M 252.160156 274.371094 C 252.027344 274.039062 251.875 273.707031 251.695312 273.394531 C 251.5625 273.128906 251.410156 272.878906 251.246094 272.632812 C 251.097656 272.398438 250.929688 272.167969 250.746094 271.953125 C 250.613281 271.769531 250.480469 271.605469 250.347656 271.457031 C 250.214844 271.308594 250.082031 271.175781 249.949219 271.042969 C 249.816406 270.910156 249.683594 270.792969 249.550781 270.675781 C 249.203125 270.363281 248.820312 270.082031 248.4375 269.847656 L 106.777344 188.289062 L 97.992188 193.375 L 248.40625 280.003906 L 252.839844 277.421875 C 252.839844 276.90625 252.773438 276.394531 252.65625 275.863281 C 252.542969 275.367188 252.375 274.851562 252.160156 274.371094 Z M 168.480469 209.824219 C 168.480469 209.792969 168.464844 209.777344 168.464844 209.742188 C 168.5 209.941406 168.546875 210.15625 168.597656 210.355469 C 168.546875 210.171875 168.515625 210.007812 168.480469 209.824219 Z M 168.832031 211.101562 C 168.746094 210.851562 168.664062 210.605469 168.597656 210.355469 C 168.679688 210.636719 168.765625 210.917969 168.863281 211.199219 C 168.863281 211.167969 168.847656 211.132812 168.832031 211.101562 Z M 169.710938 212.972656 C 169.761719 213.054688 169.8125 213.121094 169.859375 213.203125 C 169.8125 213.121094 169.761719 213.054688 169.710938 212.972656 Z M 170.277344 213.816406 C 170.257812 213.785156 170.226562 213.75 170.191406 213.703125 C 170.410156 213.984375 170.609375 214.25 170.839844 214.515625 C 170.640625 214.296875 170.457031 214.050781 170.277344 213.816406 Z M 171.6875 215.34375 C 171.902344 215.539062 172.121094 215.691406 172.335938 215.839844 C 172.121094 215.691406 171.902344 215.539062 171.6875 215.34375 Z M 172.386719 215.890625 C 172.453125 215.921875 172.519531 215.957031 172.566406 216.003906 C 172.519531 215.957031 172.453125 215.921875 172.386719 215.890625 Z M 173.148438 216.320312 C 173.03125 216.253906 172.898438 216.1875 172.765625 216.121094 C 172.765625 216.121094 172.765625 216.121094 172.75 216.121094 C 172.882812 216.1875 173.015625 216.253906 173.148438 216.320312 Z M 173.5625 216.484375 C 173.464844 216.453125 173.363281 216.417969 173.28125 216.371094 C 173.28125 216.371094 173.28125 216.371094 173.265625 216.371094 C 173.363281 216.417969 173.464844 216.453125 173.5625 216.484375 Z M 173.679688 216.535156 C 173.699219 216.535156 173.730469 216.550781 173.765625 216.550781 C 173.730469 216.550781 173.714844 216.535156 173.679688 216.535156 Z M 174.429688 216.699219 C 174.3125 216.683594 174.195312 216.667969 174.078125 216.652344 C 174.195312 216.667969 174.3125 216.683594 174.429688 216.699219 Z M 174.542969 216.699219 L 174.527344 216.699219 C 174.59375 216.71875 174.644531 216.71875 174.695312 216.71875 C 174.644531 216.71875 174.59375 216.71875 174.542969 216.699219 " fill-opacity="1" fill-rule="nonzero"/><path fill="#582690" d="M 72.546875 42.542969 L 101.3125 25.859375 C 104.535156 23.988281 108.988281 24.253906 113.902344 27.085938 L 85.136719 43.753906 C 80.222656 40.9375 75.769531 40.671875 72.546875 42.542969 " fill-opacity="1" fill-rule="nonzero"/><g clip-path="url(#aad7c91dd8)"><path fill="#582690" d="M 306.753906 319.484375 L 277.988281 336.152344 C 278.785156 335.6875 279.28125 334.710938 279.28125 333.335938 L 308.050781 316.652344 C 308.050781 318.042969 307.550781 319.019531 306.753906 319.484375 " fill-opacity="1" fill-rule="nonzero"/></g><path fill="#582690" d="M 85.136719 43.753906 L 113.902344 27.085938 L 290.859375 128.992188 L 262.089844 145.660156 L 85.136719 43.753906 " fill-opacity="1" fill-rule="nonzero"/><g clip-path="url(#51951ed89d)"><path fill="#582690" d="M 262.089844 145.660156 L 290.859375 128.992188 C 300.609375 134.609375 308.53125 148.277344 308.496094 159.460938 L 279.730469 176.144531 C 279.765625 164.960938 271.839844 151.292969 262.089844 145.660156 " fill-opacity="1" fill-rule="nonzero"/></g><path fill="#ffffff" d="M 186.402344 304.988281 L 186.371094 315.128906 L 159.828125 299.835938 L 159.863281 289.695312 L 186.402344 304.988281 " fill-opacity="1" fill-rule="nonzero"/><path fill="#7c3ea3" d="M 186.402344 304.988281 L 195.257812 310.089844 L 195.207031 325.300781 C 195.207031 328.101562 193.214844 329.226562 190.773438 327.816406 L 155.378906 307.441406 C 152.9375 306.03125 150.960938 302.617188 150.976562 299.835938 L 150.992188 294.75 L 151.007812 284.609375 L 159.863281 289.695312 L 159.828125 299.835938 L 186.371094 315.128906 L 186.402344 304.988281 " fill-opacity="1" fill-rule="nonzero"/><path fill="#7c3ea3" d="M 212.910156 330.417969 C 215.351562 331.828125 217.328125 335.222656 217.328125 338.039062 C 217.3125 340.824219 215.320312 341.964844 212.894531 340.558594 L 133.253906 294.699219 C 130.8125 293.292969 128.835938 289.878906 128.851562 287.078125 C 128.851562 284.277344 130.84375 283.152344 133.289062 284.5625 L 150.992188 294.75 L 150.976562 299.835938 C 150.960938 302.617188 152.9375 306.03125 155.378906 307.441406 L 190.773438 327.816406 C 193.214844 329.226562 195.207031 328.101562 195.207031 325.300781 L 195.222656 320.230469 L 212.910156 330.417969 " fill-opacity="1" fill-rule="nonzero"/><path fill="#7c3ea3" d="M 177.648438 269.46875 C 180.074219 270.875 182.050781 274.289062 182.050781 277.089844 C 182.035156 279.886719 180.058594 281.015625 177.617188 279.605469 L 168.765625 274.519531 C 166.324219 273.113281 164.347656 269.699219 164.347656 266.898438 C 164.363281 264.101562 166.339844 262.957031 168.796875 264.382812 L 177.648438 269.46875 " fill-opacity="1" fill-rule="nonzero"/><path fill="#5eb4e8" d="M 120.597656 119.796875 C 123.054688 121.207031 125.015625 124.621094 125.015625 127.417969 L 124.933594 155.300781 C 124.917969 165.09375 117.90625 169.054688 109.335938 164.117188 C 100.75 159.179688 93.789062 147.167969 93.824219 137.394531 L 93.890625 109.511719 C 93.90625 106.695312 95.898438 105.566406 98.324219 106.976562 C 100.78125 108.382812 102.757812 111.796875 102.742188 114.597656 L 102.660156 142.496094 C 102.660156 146.6875 105.664062 151.839844 109.351562 153.960938 C 113.058594 156.097656 116.078125 154.40625 116.097656 150.214844 L 116.164062 122.332031 C 116.179688 119.515625 118.15625 118.390625 120.597656 119.796875 " fill-opacity="1" fill-rule="nonzero"/><path fill="#5eb4e8" d="M 146.257812 155.121094 C 147.851562 156.03125 149.449219 157.820312 150.210938 159.957031 L 151.207031 162.824219 L 159.066406 185.371094 C 160.144531 188.519531 159.246094 191.054688 157.070312 191.054688 C 156.421875 191.054688 155.742188 190.839844 155.078125 190.457031 C 153.46875 189.511719 151.90625 187.59375 151.140625 185.386719 L 146.226562 171.238281 L 141.226562 179.671875 C 140.445312 180.996094 138.882812 181.128906 137.257812 180.203125 C 136.609375 179.820312 135.929688 179.242188 135.28125 178.496094 C 133.105469 175.996094 132.242188 172.433594 133.335938 170.5625 L 141.292969 157.109375 L 142.289062 155.402344 C 143.054688 154.125 144.664062 154.191406 146.257812 155.121094 " fill-opacity="1" fill-rule="nonzero"/><g clip-path="url(#91c845d43a)"><path fill="#7c3ea3" d="M 272.089844 343.425781 C 272.238281 343.722656 272.390625 344.003906 272.523438 344.320312 C 273.835938 347.433594 273.253906 350.234375 271.160156 350.597656 C 270.460938 350.699219 269.632812 350.480469 268.785156 349.984375 C 267.273438 349.125 265.863281 347.449219 265.066406 345.527344 C 264.949219 345.214844 264.832031 344.914062 264.730469 344.601562 C 264.382812 343.441406 264.285156 342.3125 264.449219 341.351562 C 264.730469 340.261719 265.398438 339.464844 266.375 339.316406 L 266.425781 339.28125 C 267.125 339.167969 267.9375 339.398438 268.75 339.863281 C 269.996094 340.574219 271.226562 341.867188 272.089844 343.425781 " fill-opacity="1" fill-rule="nonzero"/></g><path fill="#5eb4e8" d="M 155.226562 139.746094 C 155.890625 140.125 156.574219 140.691406 157.222656 141.433594 C 159.378906 143.9375 160.261719 147.5 159.164062 149.386719 L 151.207031 162.824219 L 150.210938 159.957031 C 149.449219 157.820312 147.851562 156.03125 146.257812 155.121094 C 144.664062 154.191406 143.054688 154.125 142.289062 155.402344 L 141.292969 157.109375 L 133.4375 134.558594 C 132.355469 131.429688 133.238281 128.878906 135.414062 128.878906 C 136.0625 128.878906 136.742188 129.09375 137.421875 129.488281 C 139.035156 130.417969 140.578125 132.339844 141.359375 134.542969 L 146.277344 148.691406 L 151.273438 140.257812 C 152.039062 138.933594 153.601562 138.800781 155.226562 139.746094 " fill-opacity="1" fill-rule="nonzero"/><path fill="#d2b0dd" d="M 177.617188 279.605469 C 180.058594 281.015625 182.035156 279.886719 182.050781 277.089844 C 182.050781 274.289062 180.074219 270.875 177.648438 269.46875 L 168.796875 264.382812 C 166.339844 262.957031 164.363281 264.101562 164.347656 266.898438 C 164.347656 269.699219 166.324219 273.113281 168.765625 274.519531 Z M 270.527344 328.050781 C 270.511719 330.816406 272.503906 334.261719 274.945312 335.65625 C 274.929688 339.199219 273.867188 341.867188 272.089844 343.425781 C 271.226562 341.867188 269.996094 340.574219 268.75 339.863281 C 267.9375 339.398438 267.125 339.167969 266.425781 339.28125 C 265.398438 339.464844 264.730469 340.261719 264.449219 341.351562 C 264.285156 342.3125 264.382812 343.441406 264.730469 344.601562 C 263.734375 344.300781 262.6875 343.855469 261.625 343.226562 L 255.914062 339.945312 C 255.914062 337.160156 253.984375 333.75 251.511719 332.324219 L 84.671875 236.25 C 79.820312 233.449219 75.835938 226.574219 75.851562 221.007812 L 75.917969 200.730469 L 270.5625 312.824219 L 270.527344 328.050781 " fill-opacity="1" fill-rule="nonzero"/><path fill="#ffffff" d="M 253.039062 241.785156 L 253.15625 201.226562 C 253.171875 198.410156 251.195312 194.996094 248.753906 193.605469 C 246.3125 192.199219 244.320312 193.324219 244.320312 196.125 L 244.203125 236.699219 C 244.1875 239.496094 246.164062 242.910156 248.605469 244.320312 C 251.046875 245.726562 253.039062 244.601562 253.039062 241.785156 Z M 133.4375 134.558594 L 141.292969 157.109375 L 133.335938 170.5625 C 132.242188 172.433594 133.105469 175.996094 135.28125 178.496094 C 135.929688 179.242188 136.609375 179.820312 137.257812 180.203125 C 138.882812 181.128906 140.445312 180.996094 141.226562 179.671875 L 146.226562 171.238281 L 151.140625 185.386719 C 151.90625 187.59375 153.46875 189.511719 155.078125 190.457031 C 155.742188 190.839844 156.421875 191.054688 157.070312 191.054688 C 159.246094 191.054688 160.144531 188.519531 159.066406 185.371094 L 151.207031 162.824219 L 159.164062 149.386719 C 160.261719 147.5 159.378906 143.9375 157.222656 141.433594 C 156.574219 140.691406 155.890625 140.125 155.226562 139.746094 C 153.601562 138.800781 152.039062 138.933594 151.273438 140.257812 L 146.277344 148.691406 L 141.359375 134.542969 C 140.578125 132.339844 139.035156 130.417969 137.421875 129.488281 C 136.742188 129.09375 136.0625 128.878906 135.414062 128.878906 C 133.238281 128.878906 132.355469 131.429688 133.4375 134.558594 Z M 93.890625 109.511719 L 93.824219 137.394531 C 93.789062 147.167969 100.75 159.179688 109.335938 164.117188 C 117.90625 169.054688 124.917969 165.09375 124.933594 155.300781 L 125.015625 127.417969 C 125.015625 124.621094 123.054688 121.207031 120.597656 119.796875 C 118.15625 118.390625 116.179688 119.515625 116.164062 122.332031 L 116.097656 150.214844 C 116.078125 154.40625 113.058594 156.097656 109.351562 153.960938 C 105.664062 151.839844 102.660156 146.6875 102.660156 142.496094 L 102.742188 114.597656 C 102.757812 111.796875 100.78125 108.382812 98.324219 106.976562 C 95.898438 105.566406 93.90625 106.695312 93.890625 109.511719 Z M 220.703125 218.09375 C 216.996094 215.957031 213.992188 210.800781 214.007812 206.59375 L 214.074219 178.710938 C 214.089844 175.910156 212.113281 172.5 209.671875 171.089844 C 207.230469 169.683594 205.238281 170.808594 205.238281 173.625 L 205.15625 201.507812 C 205.121094 211.28125 212.082031 223.292969 220.683594 228.230469 C 229.253906 233.167969 236.246094 229.210938 236.265625 219.433594 L 236.347656 191.535156 C 236.363281 188.734375 234.386719 185.320312 231.945312 183.914062 C 229.503906 182.503906 227.511719 183.632812 227.511719 186.449219 L 227.429688 214.332031 C 227.410156 218.523438 224.40625 220.230469 220.703125 218.09375 Z M 248.835938 168.257812 C 251.261719 169.664062 253.253906 168.523438 253.253906 165.722656 C 253.273438 162.921875 251.296875 159.511719 248.855469 158.117188 L 98.441406 71.488281 C 96 70.078125 94.007812 71.207031 94.007812 74.007812 C 93.988281 76.804688 95.964844 80.21875 98.40625 81.628906 Z M 248.503906 279.804688 C 250.945312 281.214844 252.941406 280.085938 252.941406 277.289062 C 252.957031 274.488281 250.980469 271.074219 248.539062 269.667969 L 98.109375 183.035156 C 95.683594 181.644531 93.691406 182.769531 93.675781 185.570312 C 93.675781 188.371094 95.652344 191.785156 98.09375 193.175781 Z M 168.714844 206.742188 C 167.882812 208.898438 169.0625 212.492188 171.371094 214.761719 C 171.855469 215.257812 172.351562 215.640625 172.851562 215.921875 C 174.675781 216.964844 176.371094 216.667969 177.035156 214.960938 L 199.492188 156.792969 C 200.320312 154.640625 199.144531 151.042969 196.851562 148.773438 C 196.351562 148.292969 195.855469 147.894531 195.355469 147.613281 C 193.546875 146.570312 191.835938 146.886719 191.1875 148.574219 Z M 262.15625 155.617188 C 267.042969 158.433594 270.992188 165.242188 270.976562 170.859375 L 270.59375 302.683594 L 75.953125 190.589844 L 76.316406 58.746094 C 76.335938 53.148438 80.304688 50.894531 85.203125 53.695312 L 262.15625 155.617188 " fill-opacity="1" fill-rule="nonzero"/><path fill="#ee275c" d="M 248.539062 269.667969 C 250.980469 271.074219 252.957031 274.488281 252.941406 277.289062 C 252.941406 280.085938 250.945312 281.214844 248.503906 279.804688 L 98.09375 193.175781 C 95.652344 191.785156 93.675781 188.371094 93.675781 185.570312 C 93.691406 182.769531 95.683594 181.644531 98.109375 183.035156 L 248.539062 269.667969 " fill-opacity="1" fill-rule="nonzero"/><path fill="#7c3ea3" d="M 278.167969 308.515625 C 278.949219 309.941406 279.429688 311.53125 279.429688 312.859375 L 279.363281 333.136719 C 279.363281 335.917969 277.355469 337.0625 274.945312 335.65625 C 272.503906 334.261719 270.511719 330.816406 270.527344 328.050781 L 270.5625 312.824219 L 75.917969 200.730469 L 75.851562 221.007812 C 75.835938 226.574219 79.820312 233.449219 84.671875 236.25 L 251.511719 332.324219 C 253.984375 333.75 255.914062 337.160156 255.914062 339.945312 C 255.894531 342.730469 253.953125 343.886719 251.476562 342.464844 L 195.257812 310.089844 L 84.640625 246.390625 C 74.921875 240.789062 66.984375 227.121094 67.015625 215.921875 L 67.082031 190.574219 C 67.082031 189.230469 67.566406 188.203125 68.378906 187.707031 C 69.226562 187.261719 70.371094 187.375 71.515625 188.039062 L 75.953125 190.589844 L 270.59375 302.683594 L 275.03125 305.238281 C 276.175781 305.898438 277.320312 307.109375 278.167969 308.515625 " fill-opacity="1" fill-rule="nonzero"/><path fill="#ee275c" d="M 195.355469 147.613281 C 195.855469 147.894531 196.351562 148.292969 196.851562 148.773438 C 199.144531 151.042969 200.320312 154.640625 199.492188 156.792969 L 177.035156 214.960938 C 176.371094 216.667969 174.675781 216.964844 172.851562 215.921875 C 172.351562 215.640625 171.855469 215.257812 171.371094 214.761719 C 169.0625 212.492188 167.882812 208.898438 168.714844 206.742188 L 191.1875 148.574219 C 191.835938 146.886719 193.546875 146.570312 195.355469 147.613281 " fill-opacity="1" fill-rule="nonzero"/><path fill="#f9a813" d="M 231.945312 183.914062 C 234.386719 185.320312 236.363281 188.734375 236.347656 191.535156 L 236.265625 219.433594 C 236.246094 229.210938 229.253906 233.167969 220.683594 228.230469 C 212.082031 223.292969 205.121094 211.28125 205.15625 201.507812 L 205.238281 173.625 C 205.238281 170.808594 207.230469 169.683594 209.671875 171.089844 C 212.113281 172.5 214.089844 175.910156 214.074219 178.710938 L 214.007812 206.59375 C 213.992188 210.800781 216.996094 215.957031 220.703125 218.09375 C 224.40625 220.230469 227.410156 218.523438 227.429688 214.332031 L 227.511719 186.449219 C 227.511719 183.632812 229.503906 182.503906 231.945312 183.914062 " fill-opacity="1" fill-rule="nonzero"/><path fill="#f9a813" d="M 248.753906 193.605469 C 251.195312 194.996094 253.171875 198.410156 253.15625 201.226562 L 253.039062 241.785156 C 253.039062 244.601562 251.046875 245.726562 248.605469 244.320312 C 246.164062 242.910156 244.1875 239.496094 244.203125 236.699219 L 244.320312 196.125 C 244.320312 193.324219 246.3125 192.199219 248.753906 193.605469 " fill-opacity="1" fill-rule="nonzero"/><path fill="#ee275c" d="M 248.855469 158.117188 C 251.296875 159.511719 253.273438 162.921875 253.253906 165.722656 C 253.253906 168.523438 251.261719 169.664062 248.835938 168.257812 L 98.40625 81.628906 C 95.964844 80.21875 93.988281 76.804688 94.007812 74.007812 C 94.007812 71.207031 96 70.078125 98.441406 71.488281 L 248.855469 158.117188 " fill-opacity="1" fill-rule="nonzero"/><path fill="#7c3ea3" d="M 262.175781 145.476562 C 271.941406 151.09375 279.847656 164.761719 279.8125 175.945312 L 279.429688 312.859375 C 279.429688 311.53125 278.949219 309.941406 278.167969 308.515625 C 277.320312 307.109375 276.175781 305.898438 275.03125 305.238281 L 270.59375 302.683594 L 270.976562 170.859375 C 270.992188 165.242188 267.042969 158.433594 262.15625 155.617188 L 85.203125 53.695312 C 80.304688 50.894531 76.335938 53.148438 76.316406 58.746094 L 75.953125 190.589844 L 71.515625 188.039062 C 70.371094 187.375 69.226562 187.261719 68.378906 187.707031 C 67.566406 188.203125 67.082031 189.230469 67.082031 190.574219 L 67.464844 53.660156 C 67.5 42.460938 75.46875 37.9375 85.21875 43.570312 L 262.175781 145.476562 " fill-opacity="1" fill-rule="nonzero"/></svg>